<?xml version="1.0" encoding="UTF-8" standalone="no"?><svg xmlns="http://www.w3.org/2000/svg" xmlns:xlink="http://www.w3.org/1999/xlink" clip-rule="evenodd" stroke-miterlimit="10" viewBox="0 0 202 21"><desc>SVG generated by Keynote</desc><defs></defs><g transform="matrix(1.00, 0.00, -0.00, -1.00, 0.0, 21.0)"><text xml:space="preserve" font-family="TrebuchetMS,Trebuchet MS" font-size="18.0" fill="#0F1154" transform="matrix(1.00, 0.00, -0.00, -1.00, 1.2, 6.2)">U</text><text xml:space="preserve" font-family="TrebuchetMS,Trebuchet MS" font-size="18.0" fill="#0F1154" transform="matrix(1.00, 0.00, -0.00, -1.00, 12.9, 6.2)">5</text><text xml:space="preserve" font-family="TrebuchetMS,Trebuchet MS" font-size="18.0" fill="#0F1154" transform="matrix(1.00, 0.00, -0.00, -1.00, 22.4, 6.2)"> </text><text xml:space="preserve" font-family="TrebuchetMS,Trebuchet MS" font-size="18.0" fill="#0F1154" transform="matrix(1.00, 0.00, -0.00, -1.00, 27.8, 6.2)">b</text><text xml:space="preserve" font-family="TrebuchetMS,Trebuchet MS" font-size="18.0" fill="#0F1154" transform="matrix(1.00, 0.00, -0.00, -1.00, 37.8, 6.2)">a</text><text xml:space="preserve" font-family="TrebuchetMS,Trebuchet MS" font-size="18.0" fill="#0F1154" transform="matrix(1.00, 0.00, -0.00, -1.00, 47.3, 6.2)">s</text><text xml:space="preserve" font-family="TrebuchetMS,Trebuchet MS" font-size="18.0" fill="#0F1154" transform="matrix(1.00, 0.00, -0.00, -1.00, 54.6, 6.2)">e</text><text xml:space="preserve" font-family="TrebuchetMS,Trebuchet MS" font-size="18.0" fill="#0F1154" transform="matrix(1.00, 0.00, -0.00, -1.00, 64.4, 6.2)"> </text><text xml:space="preserve" font-family="TrebuchetMS,Trebuchet MS" font-size="18.0" fill="#0F1154" transform="matrix(1.00, 0.00, -0.00, -1.00, 69.8, 6.2)">s</text><text xml:space="preserve" font-family="TrebuchetMS,Trebuchet MS" font-size="18.0" fill="#0F1154" transform="matrix(1.00, 0.00, -0.00, -1.00, 77.1, 6.2)">h</text><text xml:space="preserve" font-family="TrebuchetMS,Trebuchet MS" font-size="18.0" fill="#0F1154" transform="matrix(1.00, 0.00, -0.00, -1.00, 86.9, 6.2)">e</text><text xml:space="preserve" font-family="TrebuchetMS,Trebuchet MS" font-size="18.0" fill="#0F1154" transform="matrix(1.00, 0.00, -0.00, -1.00, 96.8, 6.2)">l</text><text xml:space="preserve" font-family="TrebuchetMS,Trebuchet MS" font-size="18.0" fill="#0F1154" transform="matrix(1.00, 0.00, -0.00, -1.00, 102.1, 6.2)">f</text><text xml:space="preserve" font-family="TrebuchetMS,Trebuchet MS" font-size="18.0" fill="#0F1154" transform="matrix(1.00, 0.00, -0.00, -1.00, 108.7, 6.2)">-</text><text xml:space="preserve" font-family="TrebuchetMS,Trebuchet MS" font-size="18.0" fill="#0F1154" transform="matrix(1.00, 0.00, -0.00, -1.00, 115.3, 6.2)">e</text><text xml:space="preserve" font-family="TrebuchetMS,Trebuchet MS" font-size="18.0" fill="#0F1154" transform="matrix(1.00, 0.00, -0.00, -1.00, 125.2, 6.2)">d</text><text xml:space="preserve" font-family="TrebuchetMS,Trebuchet MS" font-size="18.0" fill="#0F1154" transform="matrix(1.00, 0.00, -0.00, -1.00, 135.2, 6.2)">g</text><text xml:space="preserve" font-family="TrebuchetMS,Trebuchet MS" font-size="18.0" fill="#0F1154" transform="matrix(1.00, 0.00, -0.00, -1.00, 144.2, 6.2)">e</text><text xml:space="preserve" font-family="TrebuchetMS,Trebuchet MS" font-size="18.0" fill="#0F1154" transform="matrix(1.00, 0.00, -0.00, -1.00, 154.0, 6.2)"> </text><text xml:space="preserve" font-family="TrebuchetMS,Trebuchet MS" font-size="18.0" fill="#0F1154" transform="matrix(1.00, 0.00, -0.00, -1.00, 159.5, 6.2)">d</text><text xml:space="preserve" font-family="TrebuchetMS,Trebuchet MS" font-size="18.0" fill="#0F1154" transform="matrix(1.00, 0.00, -0.00, -1.00, 169.5, 6.2)">e</text><text xml:space="preserve" font-family="TrebuchetMS,Trebuchet MS" font-size="18.0" fill="#0F1154" transform="matrix(1.00, 0.00, -0.00, -1.00, 179.3, 6.2)">l</text><text xml:space="preserve" font-family="TrebuchetMS,Trebuchet MS" font-size="18.0" fill="#0F1154" transform="matrix(1.00, 0.00, -0.00, -1.00, 184.6, 6.2)">t</text><text xml:space="preserve" font-family="TrebuchetMS,Trebuchet MS" font-size="18.0" fill="#0F1154" transform="matrix(1.00, 0.00, -0.00, -1.00, 191.8, 6.2)">a</text></g></svg>