<?xml version="1.0" encoding="UTF-8" standalone="no"?><svg xmlns="http://www.w3.org/2000/svg" xmlns:xlink="http://www.w3.org/1999/xlink" clip-rule="evenodd" stroke-miterlimit="10" viewBox="0 0 364 222"><desc>SVG generated by Keynote</desc><defs></defs><g transform="matrix(1.00, 0.00, -0.00, -1.00, 0.0, 222.0)"><g><clipPath id="clip0x7fab9db29040"><path d="M 40.8 27.5 L 117.7 27.5 L 117.7 55.0 L 40.8 55.0 Z M 40.8 27.5 "></path></clipPath><g clip-path="url(#clip0x7fab9db29040)"><text xml:space="preserve" font-family="GillSans,Gill Sans" font-size="12.0" fill="#000000" transform="matrix(1.00, 0.00, -0.00, -1.00, 53.0, 36.8)">X</text><text xml:space="preserve" font-family="GillSans,Gill Sans" font-size="12.0" fill="#000000" transform="matrix(1.00, 0.00, -0.00, -1.00, 61.5, 36.8)"> </text><text xml:space="preserve" font-family="GillSans,Gill Sans" font-size="12.0" fill="#000000" transform="matrix(1.00, 0.00, -0.00, -1.00, 64.8, 36.8)">=</text><text xml:space="preserve" font-family="GillSans,Gill Sans" font-size="12.0" fill="#000000" transform="matrix(1.00, 0.00, -0.00, -1.00, 71.8, 36.8)"> </text><text xml:space="preserve" font-family="GillSans,Gill Sans" font-size="12.0" fill="#000000" transform="matrix(1.00, 0.00, -0.00, -1.00, 75.2, 36.8)">1</text><text xml:space="preserve" font-family="GillSans,Gill Sans" font-size="12.0" fill="#000000" transform="matrix(1.00, 0.00, -0.00, -1.00, 81.2, 36.8)">0</text><text xml:space="preserve" font-family="GillSans,Gill Sans" font-size="12.0" fill="#000000" transform="matrix(1.00, 0.00, -0.00, -1.00, 87.2, 36.8)"> </text><text xml:space="preserve" font-family="GillSans,Gill Sans" font-size="12.0" fill="#000000" transform="matrix(1.00, 0.00, -0.00, -1.00, 90.5, 36.8)">k</text><text xml:space="preserve" font-family="GillSans,Gill Sans" font-size="12.0" fill="#000000" transform="matrix(1.00, 0.00, -0.00, -1.00, 96.2, 36.8)">m</text></g></g><g><clipPath id="clip0x7fab9db31970"><path d="M 276.2 25.2 L 330.7 77.2 L 349.7 57.3 L 295.2 5.3 Z M 276.2 25.2 "></path></clipPath><g clip-path="url(#clip0x7fab9db31970)"><text xml:space="preserve" font-family="GillSans,Gill Sans" font-size="12.0" fill="#000000" transform="matrix(0.72, 0.69, 0.69, -0.72, 297.5, 20.3)">Y</text><text xml:space="preserve" font-family="GillSans,Gill Sans" font-size="12.0" fill="#000000" transform="matrix(0.72, 0.69, 0.69, -0.72, 302.8, 25.3)"> </text><text xml:space="preserve" font-family="GillSans,Gill Sans" font-size="12.0" fill="#000000" transform="matrix(0.72, 0.69, 0.69, -0.72, 305.2, 27.6)">=</text><text xml:space="preserve" font-family="GillSans,Gill Sans" font-size="12.0" fill="#000000" transform="matrix(0.72, 0.69, 0.69, -0.72, 310.2, 32.5)"> </text><text xml:space="preserve" font-family="GillSans,Gill Sans" font-size="12.0" fill="#000000" transform="matrix(0.72, 0.69, 0.69, -0.72, 312.6, 34.8)">1</text><text xml:space="preserve" font-family="GillSans,Gill Sans" font-size="12.0" fill="#000000" transform="matrix(0.72, 0.69, 0.69, -0.72, 317.0, 38.9)">0</text><text xml:space="preserve" font-family="GillSans,Gill Sans" font-size="12.0" fill="#000000" transform="matrix(0.72, 0.69, 0.69, -0.72, 321.3, 43.0)"> </text><text xml:space="preserve" font-family="GillSans,Gill Sans" font-size="12.0" fill="#000000" transform="matrix(0.72, 0.69, 0.69, -0.72, 323.7, 45.3)">k</text><text xml:space="preserve" font-family="GillSans,Gill Sans" font-size="12.0" fill="#000000" transform="matrix(0.72, 0.69, 0.69, -0.72, 327.9, 49.3)">m</text></g></g><g><clipPath id="clip0x7fab9db35aa0"><path d="M 8.4 125.4 L 220.6 124.8 L 220.3 4.1 L 8.0 4.7 Z M 8.4 125.4 "></path></clipPath><g clip-path="url(#clip0x7fab9db35aa0)"><path d="M 0.9 0.5 L 1.4 0.7 L 206.4 113.0 L 206.9 113.2 " fill="none" stroke="#000000" stroke-width="1.00" transform="matrix(1.00, -0.00, -0.00, -1.00, 10.6, 121.9)"></path><path d="M 0.0 0.0 L 6.0 0.0 " fill="none" stroke="#000000" stroke-width="1.00" transform="matrix(0.48, 0.88, 0.88, -0.48, 216.0, 5.4)"></path><path d="M 0.0 0.0 L 6.0 0.0 " fill="none" stroke="#000000" stroke-width="1.00" transform="matrix(-0.48, -0.88, -0.88, 0.48, 12.7, 124.2)"></path></g></g><g><clipPath id="clip0x7fab9db37710"><path d="M 238.3 119.5 L 357.6 115.3 L 353.5 0.9 L 234.2 5.1 Z M 238.3 119.5 "></path></clipPath><g clip-path="url(#clip0x7fab9db37710)"><path d="M 0.8 107.8 L 1.1 107.5 L 112.5 1.1 L 112.8 0.7 " fill="none" stroke="#000000" stroke-width="1.00" transform="matrix(1.00, -0.04, -0.04, -1.00, 241.1, 116.5)"></path><path d="M 0.0 0.0 L 6.0 0.0 " fill="none" stroke="#000000" stroke-width="1.00" transform="matrix(-0.67, 0.75, 0.75, 0.67, 356.0, 109.7)"></path><path d="M 0.0 0.0 L 6.0 0.0 " fill="none" stroke="#000000" stroke-width="1.00" transform="matrix(0.67, -0.75, -0.75, -0.67, 235.8, 10.7)"></path></g></g><g><clipPath id="clip0x7fab9db39580"><path d="M 0.9 2.4 L 363.1 2.4 L 363.1 221.4 L 0.9 221.4 Z M 0.9 2.4 "></path></clipPath><g clip-path="url(#clip0x7fab9db39580)"><image xlink:href="../../2FF956CC-37A4-4E29-9EB3-D61A26D0D5EC/assets/81DFC71ADBD9E2ADBB5552B9B8E658D6.png" width="362.00" height="219.00" transform="matrix(1.00, 0.00, -0.00, -1.00, 0.9, 221.4)" opacity="0.60"></image></g></g><g><clipPath id="clip0x7fab9dab15a0"><path d="M 229.6 22.0 C 228.1 22.8 223.9 25.1 220.8 26.7 C 217.6 28.4 215.4 29.6 212.0 31.4 C 208.6 33.3 205.2 35.1 201.3 37.1 C 199.9 37.9 198.0 38.9 197.0 39.4 C 196.0 39.9 194.7 40.6 194.1 41.0 C 193.6 41.3 192.2 42.1 191.0 42.7 C 189.8 43.3 188.4 44.1 187.8 44.4 C 187.1 44.8 185.0 45.9 183.0 46.9 C 181.0 48.0 179.3 48.9 179.1 49.0 C 179.0 49.1 178.1 49.6 177.1 50.1 C 176.1 50.7 174.6 51.5 173.6 52.0 C 172.6 52.5 170.9 53.4 169.8 54.0 C 168.6 54.6 167.2 55.4 166.6 55.8 C 165.9 56.1 164.0 57.1 162.4 58.0 C 160.8 58.8 157.9 60.4 156.0 61.4 C 154.1 62.4 152.5 63.2 152.4 63.2 C 152.3 63.2 151.9 63.5 151.6 63.7 C 151.2 64.0 149.2 65.1 147.3 66.1 C 145.3 67.1 143.5 68.1 143.4 68.2 C 143.2 68.3 141.5 69.2 139.5 70.2 C 137.5 71.3 133.9 73.2 131.5 74.5 C 129.0 75.8 125.9 77.5 124.5 78.3 C 119.5 80.9 117.5 82.0 117.2 82.2 C 117.1 82.3 115.7 83.0 114.2 83.8 C 112.6 84.6 111.0 85.5 110.5 85.7 C 110.1 86.0 108.2 87.0 106.5 87.9 C 104.7 88.9 102.7 89.9 102.1 90.3 C 101.4 90.7 100.2 91.3 99.3 91.7 C 98.5 92.2 97.0 93.0 96.0 93.5 C 95.0 94.0 93.1 95.0 91.8 95.7 C 90.5 96.4 88.6 97.5 87.6 98.0 C 86.5 98.6 85.5 99.1 85.3 99.2 C 85.2 99.3 83.3 100.3 81.2 101.5 C 76.9 103.7 71.2 106.7 70.8 107.0 C 70.7 107.1 68.8 108.1 66.7 109.2 C 64.6 110.3 62.7 111.3 62.6 111.4 C 62.4 111.5 60.8 112.4 59.0 113.3 C 57.2 114.3 55.4 115.2 55.1 115.4 C 54.8 115.6 53.2 116.4 51.7 117.3 C 50.1 118.1 48.1 119.1 47.3 119.6 C 46.4 120.1 45.0 120.8 44.2 121.2 C 43.3 121.7 41.8 122.5 40.8 123.0 C 37.9 124.6 34.7 126.3 32.6 127.4 C 31.6 128.0 29.2 129.3 27.3 130.3 C 19.9 134.2 18.1 135.2 14.8 136.9 L 11.0 138.8 L 11.0 151.9 L 11.0 165.0 L 12.9 165.0 C 13.9 165.1 15.3 165.6 16.1 165.7 C 16.8 165.7 18.8 166.1 20.3 166.6 C 27.5 168.4 31.6 169.5 35.7 170.6 C 36.5 170.9 38.2 171.3 39.5 171.6 C 40.8 172.0 43.0 172.6 44.4 172.9 C 45.8 173.3 47.9 173.9 49.0 174.1 C 50.0 174.4 51.7 174.9 52.7 175.2 C 53.7 175.4 54.9 175.8 55.4 175.9 C 55.9 176.1 58.8 176.9 61.8 177.7 C 64.8 178.6 67.9 179.4 68.7 179.7 C 69.4 179.9 71.3 180.4 72.8 180.8 C 74.3 181.3 75.9 181.8 76.3 181.9 C 76.7 182.0 77.9 182.3 78.9 182.6 C 80.5 183.1 84.0 184.1 90.8 186.0 C 91.8 186.3 93.0 186.7 93.4 186.8 C 93.8 186.9 95.4 187.4 96.9 187.8 C 98.4 188.3 99.9 188.8 100.4 188.9 C 100.8 189.0 102.0 189.3 103.0 189.7 C 104.0 190.0 105.6 190.3 106.5 190.4 C 107.5 190.5 108.5 190.8 108.7 191.0 C 109.1 191.3 111.2 191.3 121.5 191.3 C 133.2 191.2 148.7 191.5 155.2 192.0 C 156.8 192.1 161.3 192.8 165.3 193.0 L 172.4 193.0 L 177.6 191.7 C 180.4 191.0 183.1 190.4 183.6 190.3 C 184.1 190.2 185.5 189.9 186.6 189.7 C 187.8 189.4 189.5 189.0 190.5 188.8 C 192.4 188.4 196.4 187.5 198.4 187.0 C 199.1 186.9 200.0 186.7 200.6 186.5 C 201.2 186.4 202.2 186.2 202.9 186.0 C 203.6 185.9 204.7 185.6 205.3 185.5 C 209.0 184.7 212.8 183.8 215.2 183.3 C 216.8 183.0 218.4 182.6 224.1 181.3 C 225.4 181.0 227.6 180.6 228.8 180.3 C 230.1 180.0 231.9 179.6 232.8 179.4 C 233.7 179.2 235.1 178.9 236.0 178.7 C 236.9 178.5 238.7 178.1 240.0 177.8 C 244.2 176.8 247.2 176.2 248.3 175.9 C 248.9 175.8 250.0 175.5 250.6 175.4 C 251.2 175.3 252.3 175.0 253.0 174.9 C 253.7 174.7 254.7 174.5 255.3 174.3 C 255.9 174.2 256.9 174.0 257.5 173.9 C 258.1 173.7 259.4 173.4 260.4 173.2 C 263.6 172.5 269.4 171.3 272.9 170.5 C 274.8 170.0 276.5 169.7 277.6 169.4 C 279.0 169.1 280.4 168.8 282.7 168.3 C 286.1 167.5 287.7 167.1 290.0 166.6 C 296.9 165.1 301.6 164.0 303.0 163.7 C 305.7 163.1 307.7 162.7 308.5 162.5 C 308.8 162.5 310.7 162.1 312.6 161.6 C 314.6 161.2 317.2 160.6 318.4 160.3 C 320.7 159.8 324.8 158.9 326.4 158.6 C 326.9 158.5 327.9 158.2 328.7 158.0 C 329.5 157.9 330.5 157.6 331.0 157.5 C 331.5 157.4 332.6 157.2 333.4 157.0 C 335.2 156.6 336.9 156.2 338.0 156.0 C 340.6 155.4 347.5 153.6 350.4 153.0 L 352.5 153.0 L 351.5 152.0 C 351.0 151.7 349.6 150.8 348.5 150.1 C 345.8 148.1 343.0 146.3 341.8 145.5 C 341.3 145.1 340.9 144.7 341.0 144.6 C 341.1 144.4 343.2 143.7 345.8 143.0 C 347.9 142.4 349.4 141.9 349.6 141.7 C 349.7 141.5 347.4 131.7 346.3 127.9 C 346.2 127.4 345.8 125.8 345.4 124.1 C 344.6 120.8 344.4 120.5 341.0 117.6 C 339.9 116.6 338.1 115.1 337.1 114.2 C 336.1 113.3 334.3 111.8 333.2 110.8 C 332.0 109.8 329.7 107.7 327.9 106.1 C 326.1 104.6 323.5 102.3 322.0 101.0 C 320.5 99.7 318.5 97.9 317.6 97.0 C 316.6 96.2 314.7 94.6 313.4 93.4 C 312.1 92.3 310.2 90.7 309.3 89.8 C 308.3 88.9 306.3 87.2 304.9 85.9 C 303.4 84.6 301.5 82.9 300.6 82.2 C 299.7 81.4 297.8 79.7 296.4 78.5 C 295.0 77.3 292.6 75.2 291.0 73.7 C 287.4 70.5 283.4 67.0 279.5 63.6 C 275.4 60.0 274.1 58.8 268.2 53.7 C 265.4 51.2 262.7 48.8 262.2 48.4 C 261.6 48.0 260.5 47.0 259.7 46.2 C 258.8 45.4 257.0 43.8 255.7 42.7 C 254.3 41.5 252.5 39.9 251.6 39.2 C 250.8 38.4 248.8 36.6 247.2 35.3 C 245.7 33.9 243.7 32.2 242.8 31.4 C 242.0 30.6 240.1 29.0 238.8 27.9 C 237.5 26.8 235.6 25.1 234.6 24.1 C 232.9 22.6 231.2 21.3 231.0 21.3 C 231.0 21.3 230.3 21.6 229.6 22.0 "></path></clipPath><g clip-path="url(#clip0x7fab9dab15a0)"><g><clipPath id="clip0x7fab9dab3a20"><path d="M 0.9 2.4 L 363.1 2.4 L 363.1 221.4 L 0.9 221.4 Z M 0.9 2.4 "></path></clipPath><g clip-path="url(#clip0x7fab9dab3a20)"><image xlink:href="../../2FF956CC-37A4-4E29-9EB3-D61A26D0D5EC/assets/13C2180BFB2650F88A92BADCD52B3A73.jpeg" width="1321.00" height="768.00" transform="matrix(0.26, 0.00, -0.00, -0.26, 11.0, 217.0)"></image></g></g></g></g><g><clipPath id="clip0x7fab9daa7c10"><path d="M 209.1 184.7 L 274.5 184.7 L 274.5 212.2 L 209.1 212.2 Z M 209.1 184.7 "></path></clipPath><g clip-path="url(#clip0x7fab9daa7c10)"><text xml:space="preserve" font-family="GillSans,Gill Sans" font-size="12.0" fill="#000000" transform="matrix(1.00, 0.00, -0.00, -1.00, 220.1, 194.0)">2</text><text xml:space="preserve" font-family="GillSans,Gill Sans" font-size="12.0" fill="#000000" transform="matrix(1.00, 0.00, -0.00, -1.00, 226.1, 194.0)">0</text><text xml:space="preserve" font-family="GillSans,Gill Sans" font-size="12.0" fill="#000000" transform="matrix(1.00, 0.00, -0.00, -1.00, 232.1, 194.0)">0</text><text xml:space="preserve" font-family="GillSans,Gill Sans" font-size="12.0" fill="#000000" transform="matrix(1.00, 0.00, -0.00, -1.00, 238.1, 194.0)">0</text><text xml:space="preserve" font-family="GillSans,Gill Sans" font-size="12.0" fill="#000000" transform="matrix(1.00, 0.00, -0.00, -1.00, 244.1, 194.0)">0</text><text xml:space="preserve" font-family="GillSans,Gill Sans" font-size="12.0" fill="#000000" transform="matrix(1.00, 0.00, -0.00, -1.00, 250.1, 194.0)"> </text><text xml:space="preserve" font-family="GillSans,Gill Sans" font-size="12.0" fill="#000000" transform="matrix(1.00, 0.00, -0.00, -1.00, 253.4, 194.0)">y</text><text xml:space="preserve" font-family="GillSans,Gill Sans" font-size="12.0" fill="#000000" transform="matrix(1.00, 0.00, -0.00, -1.00, 258.7, 194.0)">r</text></g></g></g></svg>