<?xml version="1.0" encoding="UTF-8" standalone="no"?><svg xmlns="http://www.w3.org/2000/svg" xmlns:xlink="http://www.w3.org/1999/xlink" clip-rule="evenodd" stroke-miterlimit="10" viewBox="0 0 179 29"><desc>SVG generated by Keynote</desc><defs></defs><g transform="matrix(1.00, 0.00, -0.00, -1.00, 0.0, 29.0)"><path d="M 1.0 28.0 L 178.0 28.0 L 178.0 2.0 L 1.0 2.0 Z M 1.1 27.5 " fill="#FEFFFE"></path><g><clipPath id="clip0x7fab9daf8180"><path d="M 0.8 1.2 L 178.0 1.2 L 178.0 27.5 L 0.8 27.5 Z M 0.8 1.2 "></path></clipPath><g clip-path="url(#clip0x7fab9daf8180)"><text xml:space="preserve" font-family="GillSans,Gill Sans" font-size="15.0" fill="#000000" transform="matrix(1.00, 0.00, -0.00, -1.00, 24.4, 9.0)">m</text><text xml:space="preserve" font-family="GillSans,Gill Sans" font-size="15.0" fill="#000000" transform="matrix(1.00, 0.00, -0.00, -1.00, 36.0, 9.0)">e</text><text xml:space="preserve" font-family="GillSans,Gill Sans" font-size="15.0" fill="#000000" transform="matrix(1.00, 0.00, -0.00, -1.00, 43.2, 9.0)">a</text><text xml:space="preserve" font-family="GillSans,Gill Sans" font-size="15.0" fill="#000000" transform="matrix(1.00, 0.00, -0.00, -1.00, 49.6, 9.0)">n</text><text xml:space="preserve" font-family="GillSans,Gill Sans" font-size="15.0" fill="#000000" transform="matrix(1.00, 0.00, -0.00, -1.00, 57.1, 9.0)"> </text><text xml:space="preserve" font-family="GillSans,Gill Sans" font-size="15.0" fill="#000000" transform="matrix(1.00, 0.00, -0.00, -1.00, 61.2, 9.0)">g</text><text xml:space="preserve" font-family="GillSans,Gill Sans" font-size="15.0" fill="#000000" transform="matrix(1.00, 0.00, -0.00, -1.00, 67.6, 9.0)">r</text><text xml:space="preserve" font-family="GillSans,Gill Sans" font-size="15.0" fill="#000000" transform="matrix(1.00, 0.00, -0.00, -1.00, 73.6, 9.0)">a</text><text xml:space="preserve" font-family="GillSans,Gill Sans" font-size="15.0" fill="#000000" transform="matrix(1.00, 0.00, -0.00, -1.00, 80.0, 9.0)">i</text><text xml:space="preserve" font-family="GillSans,Gill Sans" font-size="15.0" fill="#000000" transform="matrix(1.00, 0.00, -0.00, -1.00, 83.2, 9.0)">n</text><text xml:space="preserve" font-family="GillSans,Gill Sans" font-size="15.0" fill="#000000" transform="matrix(1.00, 0.00, -0.00, -1.00, 90.7, 9.0)"> </text><text xml:space="preserve" font-family="GillSans,Gill Sans" font-size="15.0" fill="#000000" transform="matrix(1.00, 0.00, -0.00, -1.00, 94.9, 9.0)">s</text><text xml:space="preserve" font-family="GillSans,Gill Sans" font-size="15.0" fill="#000000" transform="matrix(1.00, 0.00, -0.00, -1.00, 100.7, 9.0)">i</text><text xml:space="preserve" font-family="GillSans,Gill Sans" font-size="15.0" fill="#000000" transform="matrix(1.00, 0.00, -0.00, -1.00, 104.0, 9.0)">z</text><text xml:space="preserve" font-family="GillSans,Gill Sans" font-size="15.0" fill="#000000" transform="matrix(1.00, 0.00, -0.00, -1.00, 110.2, 9.0)">e</text><text xml:space="preserve" font-family="GillSans,Gill Sans" font-size="15.0" fill="#000000" transform="matrix(1.00, 0.00, -0.00, -1.00, 117.4, 9.0)"> </text><text xml:space="preserve" font-family="GillSans,Gill Sans" font-size="15.0" fill="#000000" transform="matrix(1.00, 0.00, -0.00, -1.00, 121.6, 9.0)">(</text><text xml:space="preserve" font-family="GillSans,Gill Sans" font-size="15.0" fill="#000000" transform="matrix(1.00, 0.00, -0.00, -1.00, 126.4, 9.0)">m</text><text xml:space="preserve" font-family="GillSans,Gill Sans" font-size="15.0" fill="#000000" transform="matrix(1.00, 0.00, -0.00, -1.00, 138.0, 9.0)">m</text><text xml:space="preserve" font-family="GillSans,Gill Sans" font-size="15.0" fill="#000000" transform="matrix(1.00, 0.00, -0.00, -1.00, 149.6, 9.0)">)</text></g></g></g></svg>