<?xml version="1.0" encoding="UTF-8" standalone="no"?><svg xmlns="http://www.w3.org/2000/svg" xmlns:xlink="http://www.w3.org/1999/xlink" clip-rule="evenodd" stroke-miterlimit="10" viewBox="0 0 447 234"><desc>SVG generated by Keynote</desc><defs></defs><g transform="matrix(1.00, 0.00, -0.00, -1.00, 0.0, 234.0)"><g><clipPath id="clip0x7fab9dc49aa0"><path d="M 114.3 49.0 L 446.8 49.0 L 446.8 233.3 L 114.3 233.3 Z M 114.3 49.0 "></path></clipPath><g clip-path="url(#clip0x7fab9dc49aa0)"><image xlink:href="5C00EC191EE320673C3EE724DFE6AB29.jpeg" width="302.00" height="167.00" transform="matrix(1.10, 0.00, -0.00, -1.10, 115.0, 233.0)"></image><path d="M 0.2 -0.2 L 331.2 -0.2 L 331.2 183.8 L 0.2 183.8 Z M 0.2 -0.2 " fill="none" stroke="#000000" stroke-width="1.00" transform="matrix(1.00, 0.00, 0.00, -1.00, 114.8, 232.8)"></path></g></g><g><clipPath id="clip0x7fab9dc56b40"><path d="M 205.8 2.7 L 300.8 2.7 L 300.8 34.0 L 205.8 34.0 Z M 205.8 2.7 "></path></clipPath><g clip-path="url(#clip0x7fab9dc56b40)"><text xml:space="preserve" font-family="GillSans,Gill Sans" font-size="18.0" fill="#163D40" transform="matrix(1.00, 0.00, -0.00, -1.00, 211.4, 12.0)">M</text><text xml:space="preserve" font-family="GillSans,Gill Sans" font-size="18.0" fill="#163D40" transform="matrix(1.00, 0.00, -0.00, -1.00, 225.5, 12.0)">o</text><text xml:space="preserve" font-family="GillSans,Gill Sans" font-size="18.0" fill="#163D40" transform="matrix(1.00, 0.00, -0.00, -1.00, 235.4, 12.0)">u</text><text xml:space="preserve" font-family="GillSans,Gill Sans" font-size="18.0" fill="#163D40" transform="matrix(1.00, 0.00, -0.00, -1.00, 244.4, 12.0)">t</text><text xml:space="preserve" font-family="GillSans,Gill Sans" font-size="18.0" fill="#163D40" transform="matrix(1.00, 0.00, -0.00, -1.00, 250.4, 12.0)">h</text><text xml:space="preserve" font-family="GillSans,Gill Sans" font-size="18.0" fill="#163D40" transform="matrix(1.00, 0.00, -0.00, -1.00, 259.4, 12.0)"> </text><text xml:space="preserve" font-family="GillSans,Gill Sans" font-size="18.0" fill="#163D40" transform="matrix(1.00, 0.00, -0.00, -1.00, 264.4, 12.0)">b</text><text xml:space="preserve" font-family="GillSans,Gill Sans" font-size="18.0" fill="#163D40" transform="matrix(1.00, 0.00, -0.00, -1.00, 273.4, 12.0)">a</text><text xml:space="preserve" font-family="GillSans,Gill Sans" font-size="18.0" fill="#163D40" transform="matrix(1.00, 0.00, -0.00, -1.00, 281.1, 12.0)">r</text><text xml:space="preserve" font-family="GillSans,Gill Sans" font-size="18.0" fill="#163D40" transform="matrix(1.00, 0.00, -0.00, -1.00, 288.2, 12.0)">s</text></g></g><g><clipPath id="clip0x7fab9db76bf0"><path d="M 219.3 36.5 L 253.4 117.9 L 264.1 113.4 L 230.0 32.0 Z M 219.3 36.5 "></path></clipPath><g clip-path="url(#clip0x7fab9db76bf0)"><path d="M 0.0 0.0 L 76.7 0.0 L 77.7 0.0 " fill="none" stroke="#000000" stroke-width="2.00" transform="matrix(0.39, 0.92, 0.92, -0.39, 225.0, 35.2)"></path><path d="M 259.1 104.0 L 258.4 114.7 L 250.3 107.7 Z M 259.1 104.0 " fill="#000000"></path></g></g><g><clipPath id="clip0x7fab9db78500"><path d="M 201.6 15.9 L 1.7 0.8 L 0.9 12.4 L 200.7 27.5 Z M 201.6 15.9 "></path></clipPath><g clip-path="url(#clip0x7fab9db78500)"><path d="M 0.0 0.0 L 188.8 0.0 L 189.8 0.0 " fill="none" stroke="#000000" stroke-width="2.00" transform="matrix(-1.00, -0.08, -0.08, 1.00, 200.2, 21.6)"></path><path d="M 11.5 12.2 L 2.3 6.7 L 12.2 2.6 Z M 11.5 12.2 " fill="#000000"></path></g></g></g></svg>