<?xml version="1.0" encoding="UTF-8" standalone="no"?><svg xmlns="http://www.w3.org/2000/svg" xmlns:xlink="http://www.w3.org/1999/xlink" clip-rule="evenodd" stroke-miterlimit="10" viewBox="0 0 1024 768"><desc>SVG generated by Keynote</desc><defs></defs><g transform="matrix(1.00, 0.00, -0.00, -1.00, 0.0, 768.0)"><path d="M 0.0 768.0 L 1024.0 768.0 L 1024.0 0.0 L 0.0 0.0 Z M 0.0 768.0 " fill="#FEFFFE"></path><text xml:space="preserve" font-family="HelveticaNeue-Medium,Helvetica Neue" font-size="42.0" fill="#000000" transform="matrix(1.00, 0.00, -0.00, -1.00, 49.0, 688.1)"> </text><text xml:space="preserve" font-family="HelveticaNeue-Medium,Helvetica Neue" font-size="42.0" fill="#000000" transform="matrix(1.00, 0.00, -0.00, -1.00, 60.7, 688.1)">C</text><text xml:space="preserve" font-family="HelveticaNeue-Medium,Helvetica Neue" font-size="42.0" fill="#000000" transform="matrix(1.00, 0.00, -0.00, -1.00, 91.0, 688.1)">h</text><text xml:space="preserve" font-family="HelveticaNeue-Medium,Helvetica Neue" font-size="42.0" fill="#000000" transform="matrix(1.00, 0.00, -0.00, -1.00, 115.1, 688.1)">a</text><text xml:space="preserve" font-family="HelveticaNeue-Medium,Helvetica Neue" font-size="42.0" fill="#000000" transform="matrix(1.00, 0.00, -0.00, -1.00, 138.5, 688.1)">n</text><text xml:space="preserve" font-family="HelveticaNeue-Medium,Helvetica Neue" font-size="42.0" fill="#000000" transform="matrix(1.00, 0.00, -0.00, -1.00, 162.6, 688.1)">n</text><text xml:space="preserve" font-family="HelveticaNeue-Medium,Helvetica Neue" font-size="42.0" fill="#000000" transform="matrix(1.00, 0.00, -0.00, -1.00, 186.7, 688.1)">e</text><text xml:space="preserve" font-family="HelveticaNeue-Medium,Helvetica Neue" font-size="42.0" fill="#000000" transform="matrix(1.00, 0.00, -0.00, -1.00, 210.0, 688.1)">l</text><text xml:space="preserve" font-family="HelveticaNeue-Medium,Helvetica Neue" font-size="42.0" fill="#000000" transform="matrix(1.00, 0.00, -0.00, -1.00, 220.2, 688.1)">s</text><text xml:space="preserve" font-family="HelveticaNeue-Medium,Helvetica Neue" font-size="42.0" fill="#000000" transform="matrix(1.00, 0.00, -0.00, -1.00, 241.9, 688.1)"> </text><text xml:space="preserve" font-family="HelveticaNeue-Medium,Helvetica Neue" font-size="42.0" fill="#000000" transform="matrix(1.00, 0.00, -0.00, -1.00, 253.6, 688.1)">s</text><text xml:space="preserve" font-family="HelveticaNeue-Medium,Helvetica Neue" font-size="42.0" fill="#000000" transform="matrix(1.00, 0.00, -0.00, -1.00, 275.4, 688.1)">t</text><text xml:space="preserve" font-family="HelveticaNeue-Medium,Helvetica Neue" font-size="42.0" fill="#000000" transform="matrix(1.00, 0.00, -0.00, -1.00, 289.4, 688.1)">e</text><text xml:space="preserve" font-family="HelveticaNeue-Medium,Helvetica Neue" font-size="42.0" fill="#000000" transform="matrix(1.00, 0.00, -0.00, -1.00, 312.8, 688.1)">e</text><text xml:space="preserve" font-family="HelveticaNeue-Medium,Helvetica Neue" font-size="42.0" fill="#000000" transform="matrix(1.00, 0.00, -0.00, -1.00, 336.1, 688.1)">r</text><text xml:space="preserve" font-family="HelveticaNeue-Medium,Helvetica Neue" font-size="42.0" fill="#000000" transform="matrix(1.00, 0.00, -0.00, -1.00, 350.9, 688.1)">i</text><text xml:space="preserve" font-family="HelveticaNeue-Medium,Helvetica Neue" font-size="42.0" fill="#000000" transform="matrix(1.00, 0.00, -0.00, -1.00, 361.0, 688.1)">n</text><text xml:space="preserve" font-family="HelveticaNeue-Medium,Helvetica Neue" font-size="42.0" fill="#000000" transform="matrix(1.00, 0.00, -0.00, -1.00, 385.1, 688.1)">g</text><text xml:space="preserve" font-family="HelveticaNeue-Medium,Helvetica Neue" font-size="42.0" fill="#000000" transform="matrix(1.00, 0.00, -0.00, -1.00, 410.0, 688.1)"> </text><text xml:space="preserve" font-family="HelveticaNeue-Medium,Helvetica Neue" font-size="42.0" fill="#000000" transform="matrix(1.00, 0.00, -0.00, -1.00, 421.7, 688.1)">b</text><text xml:space="preserve" font-family="HelveticaNeue-Medium,Helvetica Neue" font-size="42.0" fill="#000000" transform="matrix(1.00, 0.00, -0.00, -1.00, 447.4, 688.1)">y</text><text xml:space="preserve" font-family="HelveticaNeue-Medium,Helvetica Neue" font-size="42.0" fill="#000000" transform="matrix(1.00, 0.00, -0.00, -1.00, 469.2, 688.1)"> </text><text xml:space="preserve" font-family="HelveticaNeue-Medium,Helvetica Neue" font-size="42.0" fill="#000000" transform="matrix(1.00, 0.00, -0.00, -1.00, 480.8, 688.1)">t</text><text xml:space="preserve" font-family="HelveticaNeue-Medium,Helvetica Neue" font-size="42.0" fill="#000000" transform="matrix(1.00, 0.00, -0.00, -1.00, 494.8, 688.1)">e</text><text xml:space="preserve" font-family="HelveticaNeue-Medium,Helvetica Neue" font-size="42.0" fill="#000000" transform="matrix(1.00, 0.00, -0.00, -1.00, 518.2, 688.1)">c</text><text xml:space="preserve" font-family="HelveticaNeue-Medium,Helvetica Neue" font-size="42.0" fill="#000000" transform="matrix(1.00, 0.00, -0.00, -1.00, 541.5, 688.1)">t</text><text xml:space="preserve" font-family="HelveticaNeue-Medium,Helvetica Neue" font-size="42.0" fill="#000000" transform="matrix(1.00, 0.00, -0.00, -1.00, 555.5, 688.1)">o</text><text xml:space="preserve" font-family="HelveticaNeue-Medium,Helvetica Neue" font-size="42.0" fill="#000000" transform="matrix(1.00, 0.00, -0.00, -1.00, 580.4, 688.1)">n</text><text xml:space="preserve" font-family="HelveticaNeue-Medium,Helvetica Neue" font-size="42.0" fill="#000000" transform="matrix(1.00, 0.00, -0.00, -1.00, 604.5, 688.1)">i</text><text xml:space="preserve" font-family="HelveticaNeue-Medium,Helvetica Neue" font-size="42.0" fill="#000000" transform="matrix(1.00, 0.00, -0.00, -1.00, 614.7, 688.1)">c</text><text xml:space="preserve" font-family="HelveticaNeue-Medium,Helvetica Neue" font-size="42.0" fill="#000000" transform="matrix(1.00, 0.00, -0.00, -1.00, 638.0, 688.1)">s</text><text xml:space="preserve" font-family="HelveticaNeue,Helvetica Neue" font-size="30.8" fill="#747373" transform="matrix(1.00, 0.00, -0.00, -1.00, 49.0, 618.8)">•</text><text xml:space="preserve" font-family="HelveticaNeue-Medium,Helvetica Neue" font-size="23.0" fill="#747373" transform="matrix(1.00, 0.00, -0.00, -1.00, 64.0, 621.7)">P</text><text xml:space="preserve" font-family="HelveticaNeue-Medium,Helvetica Neue" font-size="23.0" fill="#747373" transform="matrix(1.00, 0.00, -0.00, -1.00, 79.3, 621.7)">h</text><text xml:space="preserve" font-family="HelveticaNeue-Medium,Helvetica Neue" font-size="23.0" fill="#747373" transform="matrix(1.00, 0.00, -0.00, -1.00, 92.5, 621.7)">a</text><text xml:space="preserve" font-family="HelveticaNeue-Medium,Helvetica Neue" font-size="23.0" fill="#747373" transform="matrix(1.00, 0.00, -0.00, -1.00, 105.3, 621.7)">s</text><text xml:space="preserve" font-family="HelveticaNeue-Medium,Helvetica Neue" font-size="23.0" fill="#747373" transform="matrix(1.00, 0.00, -0.00, -1.00, 117.3, 621.7)">e</text><text xml:space="preserve" font-family="HelveticaNeue-Medium,Helvetica Neue" font-size="23.0" fill="#747373" transform="matrix(1.00, 0.00, -0.00, -1.00, 130.1, 621.7)"> </text><text xml:space="preserve" font-family="HelveticaNeue-Medium,Helvetica Neue" font-size="23.0" fill="#747373" transform="matrix(1.00, 0.00, -0.00, -1.00, 136.4, 621.7)">2</text><text xml:space="preserve" font-family="HelveticaNeue-Medium,Helvetica Neue" font-size="23.0" fill="#747373" transform="matrix(1.00, 0.00, -0.00, -1.00, 149.2, 621.7)"> </text><text xml:space="preserve" font-family="HelveticaNeue-Medium,Helvetica Neue" font-size="23.0" fill="#747373" transform="matrix(1.00, 0.00, -0.00, -1.00, 155.6, 621.7)">-</text><text xml:space="preserve" font-family="HelveticaNeue-Medium,Helvetica Neue" font-size="23.0" fill="#747373" transform="matrix(1.00, 0.00, -0.00, -1.00, 164.6, 621.7)"> </text><text xml:space="preserve" font-family="HelveticaNeue-Medium,Helvetica Neue" font-size="23.0" fill="#747373" transform="matrix(1.00, 0.00, -0.00, -1.00, 171.0, 621.7)">C</text><text xml:space="preserve" font-family="HelveticaNeue-Medium,Helvetica Neue" font-size="23.0" fill="#747373" transform="matrix(1.00, 0.00, -0.00, -1.00, 187.6, 621.7)">o</text><text xml:space="preserve" font-family="HelveticaNeue-Medium,Helvetica Neue" font-size="23.0" fill="#747373" transform="matrix(1.00, 0.00, -0.00, -1.00, 201.2, 621.7)">n</text><text xml:space="preserve" font-family="HelveticaNeue-Medium,Helvetica Neue" font-size="23.0" fill="#747373" transform="matrix(1.00, 0.00, -0.00, -1.00, 214.4, 621.7)">s</text><text xml:space="preserve" font-family="HelveticaNeue-Medium,Helvetica Neue" font-size="23.0" fill="#747373" transform="matrix(1.00, 0.00, -0.00, -1.00, 226.4, 621.7)">t</text><text xml:space="preserve" font-family="HelveticaNeue-Medium,Helvetica Neue" font-size="23.0" fill="#747373" transform="matrix(1.00, 0.00, -0.00, -1.00, 234.0, 621.7)">a</text><text xml:space="preserve" font-family="HelveticaNeue-Medium,Helvetica Neue" font-size="23.0" fill="#747373" transform="matrix(1.00, 0.00, -0.00, -1.00, 246.8, 621.7)">n</text><text xml:space="preserve" font-family="HelveticaNeue-Medium,Helvetica Neue" font-size="23.0" fill="#747373" transform="matrix(1.00, 0.00, -0.00, -1.00, 260.0, 621.7)">t</text><text xml:space="preserve" font-family="HelveticaNeue-Medium,Helvetica Neue" font-size="23.0" fill="#747373" transform="matrix(1.00, 0.00, -0.00, -1.00, 267.7, 621.7)"> </text><text xml:space="preserve" font-family="HelveticaNeue-Medium,Helvetica Neue" font-size="23.0" fill="#747373" transform="matrix(1.00, 0.00, -0.00, -1.00, 274.1, 621.7)">t</text><text xml:space="preserve" font-family="HelveticaNeue-Medium,Helvetica Neue" font-size="23.0" fill="#747373" transform="matrix(1.00, 0.00, -0.00, -1.00, 281.7, 621.7)">e</text><text xml:space="preserve" font-family="HelveticaNeue-Medium,Helvetica Neue" font-size="23.0" fill="#747373" transform="matrix(1.00, 0.00, -0.00, -1.00, 294.5, 621.7)">c</text><text xml:space="preserve" font-family="HelveticaNeue-Medium,Helvetica Neue" font-size="23.0" fill="#747373" transform="matrix(1.00, 0.00, -0.00, -1.00, 307.3, 621.7)">t</text><text xml:space="preserve" font-family="HelveticaNeue-Medium,Helvetica Neue" font-size="23.0" fill="#747373" transform="matrix(1.00, 0.00, -0.00, -1.00, 315.0, 621.7)">o</text><text xml:space="preserve" font-family="HelveticaNeue-Medium,Helvetica Neue" font-size="23.0" fill="#747373" transform="matrix(1.00, 0.00, -0.00, -1.00, 328.6, 621.7)">n</text><text xml:space="preserve" font-family="HelveticaNeue-Medium,Helvetica Neue" font-size="23.0" fill="#747373" transform="matrix(1.00, 0.00, -0.00, -1.00, 341.8, 621.7)">i</text><text xml:space="preserve" font-family="HelveticaNeue-Medium,Helvetica Neue" font-size="23.0" fill="#747373" transform="matrix(1.00, 0.00, -0.00, -1.00, 347.3, 621.7)">c</text><text xml:space="preserve" font-family="HelveticaNeue-Medium,Helvetica Neue" font-size="23.0" fill="#747373" transform="matrix(1.00, 0.00, -0.00, -1.00, 360.1, 621.7)"> </text><text xml:space="preserve" font-family="HelveticaNeue-Medium,Helvetica Neue" font-size="23.0" fill="#747373" transform="matrix(1.00, 0.00, -0.00, -1.00, 366.5, 621.7)">a</text><text xml:space="preserve" font-family="HelveticaNeue-Medium,Helvetica Neue" font-size="23.0" fill="#747373" transform="matrix(1.00, 0.00, -0.00, -1.00, 379.3, 621.7)">c</text><text xml:space="preserve" font-family="HelveticaNeue-Medium,Helvetica Neue" font-size="23.0" fill="#747373" transform="matrix(1.00, 0.00, -0.00, -1.00, 392.1, 621.7)">t</text><text xml:space="preserve" font-family="HelveticaNeue-Medium,Helvetica Neue" font-size="23.0" fill="#747373" transform="matrix(1.00, 0.00, -0.00, -1.00, 399.8, 621.7)">i</text><text xml:space="preserve" font-family="HelveticaNeue-Medium,Helvetica Neue" font-size="23.0" fill="#747373" transform="matrix(1.00, 0.00, -0.00, -1.00, 405.3, 621.7)">v</text><text xml:space="preserve" font-family="HelveticaNeue-Medium,Helvetica Neue" font-size="23.0" fill="#747373" transform="matrix(1.00, 0.00, -0.00, -1.00, 417.2, 621.7)">i</text><text xml:space="preserve" font-family="HelveticaNeue-Medium,Helvetica Neue" font-size="23.0" fill="#747373" transform="matrix(1.00, 0.00, -0.00, -1.00, 422.8, 621.7)">t</text><text xml:space="preserve" font-family="HelveticaNeue-Medium,Helvetica Neue" font-size="23.0" fill="#747373" transform="matrix(1.00, 0.00, -0.00, -1.00, 430.4, 621.7)">y</text><text xml:space="preserve" font-family="HelveticaNeue-Medium,Helvetica Neue" font-size="23.0" fill="#747373" transform="matrix(1.00, 0.00, -0.00, -1.00, 440.3, 621.7)">,</text><text xml:space="preserve" font-family="HelveticaNeue-Medium,Helvetica Neue" font-size="23.0" fill="#747373" transform="matrix(1.00, 0.00, -0.00, -1.00, 446.7, 621.7)"> </text><text xml:space="preserve" font-family="HelveticaNeue-Medium,Helvetica Neue" font-size="23.0" fill="#747373" transform="matrix(1.00, 0.00, -0.00, -1.00, 453.0, 621.7)">c</text><text xml:space="preserve" font-family="HelveticaNeue-Medium,Helvetica Neue" font-size="23.0" fill="#747373" transform="matrix(1.00, 0.00, -0.00, -1.00, 465.8, 621.7)">h</text><text xml:space="preserve" font-family="HelveticaNeue-Medium,Helvetica Neue" font-size="23.0" fill="#747373" transform="matrix(1.00, 0.00, -0.00, -1.00, 479.0, 621.7)">a</text><text xml:space="preserve" font-family="HelveticaNeue-Medium,Helvetica Neue" font-size="23.0" fill="#747373" transform="matrix(1.00, 0.00, -0.00, -1.00, 491.8, 621.7)">n</text><text xml:space="preserve" font-family="HelveticaNeue-Medium,Helvetica Neue" font-size="23.0" fill="#747373" transform="matrix(1.00, 0.00, -0.00, -1.00, 505.0, 621.7)">g</text><text xml:space="preserve" font-family="HelveticaNeue-Medium,Helvetica Neue" font-size="23.0" fill="#747373" transform="matrix(1.00, 0.00, -0.00, -1.00, 518.7, 621.7)">i</text><text xml:space="preserve" font-family="HelveticaNeue-Medium,Helvetica Neue" font-size="23.0" fill="#747373" transform="matrix(1.00, 0.00, -0.00, -1.00, 524.2, 621.7)">n</text><text xml:space="preserve" font-family="HelveticaNeue-Medium,Helvetica Neue" font-size="23.0" fill="#747373" transform="matrix(1.00, 0.00, -0.00, -1.00, 537.4, 621.7)">g</text><text xml:space="preserve" font-family="HelveticaNeue-Medium,Helvetica Neue" font-size="23.0" fill="#747373" transform="matrix(1.00, 0.00, -0.00, -1.00, 551.0, 621.7)"> </text><text xml:space="preserve" font-family="HelveticaNeue-Medium,Helvetica Neue" font-size="23.0" fill="#747373" transform="matrix(1.00, 0.00, -0.00, -1.00, 557.4, 621.7)">s</text><text xml:space="preserve" font-family="HelveticaNeue-Medium,Helvetica Neue" font-size="23.0" fill="#747373" transform="matrix(1.00, 0.00, -0.00, -1.00, 569.4, 621.7)">e</text><text xml:space="preserve" font-family="HelveticaNeue-Medium,Helvetica Neue" font-size="23.0" fill="#747373" transform="matrix(1.00, 0.00, -0.00, -1.00, 582.2, 621.7)">d</text><text xml:space="preserve" font-family="HelveticaNeue-Medium,Helvetica Neue" font-size="23.0" fill="#747373" transform="matrix(1.00, 0.00, -0.00, -1.00, 596.2, 621.7)">i</text><text xml:space="preserve" font-family="HelveticaNeue-Medium,Helvetica Neue" font-size="23.0" fill="#747373" transform="matrix(1.00, 0.00, -0.00, -1.00, 601.8, 621.7)">m</text><text xml:space="preserve" font-family="HelveticaNeue-Medium,Helvetica Neue" font-size="23.0" fill="#747373" transform="matrix(1.00, 0.00, -0.00, -1.00, 621.8, 621.7)">e</text><text xml:space="preserve" font-family="HelveticaNeue-Medium,Helvetica Neue" font-size="23.0" fill="#747373" transform="matrix(1.00, 0.00, -0.00, -1.00, 634.6, 621.7)">n</text><text xml:space="preserve" font-family="HelveticaNeue-Medium,Helvetica Neue" font-size="23.0" fill="#747373" transform="matrix(1.00, 0.00, -0.00, -1.00, 647.8, 621.7)">t</text><text xml:space="preserve" font-family="HelveticaNeue-Medium,Helvetica Neue" font-size="23.0" fill="#747373" transform="matrix(1.00, 0.00, -0.00, -1.00, 655.4, 621.7)"> </text><text xml:space="preserve" font-family="HelveticaNeue-Medium,Helvetica Neue" font-size="23.0" fill="#747373" transform="matrix(1.00, 0.00, -0.00, -1.00, 661.8, 621.7)">ﬂ</text><text xml:space="preserve" font-family="HelveticaNeue-Medium,Helvetica Neue" font-size="23.0" fill="#747373" transform="matrix(1.00, 0.00, -0.00, -1.00, 674.6, 621.7)">u</text><text xml:space="preserve" font-family="HelveticaNeue-Medium,Helvetica Neue" font-size="23.0" fill="#747373" transform="matrix(1.00, 0.00, -0.00, -1.00, 687.8, 621.7)">x</text><g><clipPath id="clip0x7fab9fed6710"><path d="M 112.1 390.6 L 75.0 427.3 L 75.0 435.3 L 75.0 443.3 L 112.4 480.8 L 149.4 518.0 L 226.1 518.0 L 302.8 518.0 L 303.7 518.0 L 305.0 517.0 L 305.0 435.4 L 305.0 354.0 L 226.7 354.0 L 148.9 354.0 L 112.1 390.6 "></path></clipPath><g clip-path="url(#clip0x7fab9fed6710)"><image xlink:href="3D17E34FE2C729A3E3B46DB56BDA669C.png" width="1024.00" height="947.00" transform="matrix(0.30, 0.00, -0.00, -0.30, 36.0, 578.0)"></image></g></g><g><clipPath id="clip0x7fab9fed81a0"><path d="M 112.1 189.4 L 75.0 226.2 L 75.0 234.2 L 75.0 242.2 L 112.4 279.7 L 149.5 317.0 L 226.7 317.0 C 302.8 317.0 304.0 317.1 304.3 316.6 C 304.5 316.2 305.1 290.3 305.0 234.4 L 305.0 153.0 L 226.7 153.0 L 148.9 153.0 L 112.1 189.4 "></path></clipPath><g clip-path="url(#clip0x7fab9fed81a0)"><image xlink:href="946014E30044C4DD7B1B8C47FFF188D4.png" width="1024.00" height="947.00" transform="matrix(0.30, 0.00, -0.00, -0.30, 36.0, 377.0)"></image></g></g><text xml:space="preserve" font-family="Helvetica-BoldOblique,Helvetica" font-style="italic" font-weight="bold" font-size="18.0" fill="#000000" transform="matrix(1.00, 0.00, -0.00, -1.00, 133.2, 104.1)">e</text><text xml:space="preserve" font-family="Helvetica-BoldOblique,Helvetica" font-style="italic" font-weight="bold" font-size="18.0" fill="#000000" transform="matrix(1.00, 0.00, -0.00, -1.00, 143.3, 104.1)">x</text><text xml:space="preserve" font-family="Helvetica-BoldOblique,Helvetica" font-style="italic" font-weight="bold" font-size="18.0" fill="#000000" transform="matrix(1.00, 0.00, -0.00, -1.00, 153.3, 104.1)">p</text><text xml:space="preserve" font-family="Helvetica-BoldOblique,Helvetica" font-style="italic" font-weight="bold" font-size="18.0" fill="#000000" transform="matrix(1.00, 0.00, -0.00, -1.00, 164.3, 104.1)">e</text><text xml:space="preserve" font-family="Helvetica-BoldOblique,Helvetica" font-style="italic" font-weight="bold" font-size="18.0" fill="#000000" transform="matrix(1.00, 0.00, -0.00, -1.00, 174.3, 104.1)">r</text><text xml:space="preserve" font-family="Helvetica-BoldOblique,Helvetica" font-style="italic" font-weight="bold" font-size="18.0" fill="#000000" transform="matrix(1.00, 0.00, -0.00, -1.00, 181.3, 104.1)">i</text><text xml:space="preserve" font-family="Helvetica-BoldOblique,Helvetica" font-style="italic" font-weight="bold" font-size="18.0" fill="#000000" transform="matrix(1.00, 0.00, -0.00, -1.00, 186.3, 104.1)">m</text><text xml:space="preserve" font-family="Helvetica-BoldOblique,Helvetica" font-style="italic" font-weight="bold" font-size="18.0" fill="#000000" transform="matrix(1.00, 0.00, -0.00, -1.00, 202.3, 104.1)">e</text><text xml:space="preserve" font-family="Helvetica-BoldOblique,Helvetica" font-style="italic" font-weight="bold" font-size="18.0" fill="#000000" transform="matrix(1.00, 0.00, -0.00, -1.00, 212.3, 104.1)">n</text><text xml:space="preserve" font-family="Helvetica-BoldOblique,Helvetica" font-style="italic" font-weight="bold" font-size="18.0" fill="#000000" transform="matrix(1.00, 0.00, -0.00, -1.00, 223.3, 104.1)">t</text><text xml:space="preserve" font-family="Helvetica-BoldOblique,Helvetica" font-style="italic" font-weight="bold" font-size="18.0" fill="#000000" transform="matrix(1.00, 0.00, -0.00, -1.00, 229.3, 104.1)"> </text><text xml:space="preserve" font-family="Helvetica-BoldOblique,Helvetica" font-style="italic" font-weight="bold" font-size="18.0" fill="#000000" transform="matrix(1.00, 0.00, -0.00, -1.00, 233.6, 104.1)">A</text><g><clipPath id="clip0x7fab9fc44c10"><path d="M 964.0 518.3 L 886.3 518.0 L 808.6 518.0 L 771.7 481.0 L 735.0 443.7 L 735.0 435.7 L 735.0 427.7 L 771.3 391.0 L 807.9 354.0 L 886.0 354.0 L 964.0 354.0 L 964.0 436.3 L 964.0 518.3 Z M 964.0 518.3 "></path></clipPath><g clip-path="url(#clip0x7fab9fc44c10)"><image xlink:href="51CF37E1AE86D02D6BB8E59CF28B9A46.png" width="1024.00" height="947.00" transform="matrix(0.30, 0.00, -0.00, -0.30, 695.0, 579.0)"></image></g></g><g><clipPath id="clip0x7fab9ff268a0"><path d="M 771.3 189.5 L 735.0 226.2 L 735.0 234.3 L 735.0 242.5 L 771.6 279.7 L 808.3 317.0 L 886.3 317.0 L 964.0 317.0 L 964.0 234.9 L 964.0 153.0 L 886.1 153.0 L 808.0 153.0 L 771.3 189.5 "></path></clipPath><g clip-path="url(#clip0x7fab9ff268a0)"><image xlink:href="5A5141199667E7ED424C6158FC405620.jpeg" width="1998.00" height="483.00" transform="matrix(0.41, 0.00, -0.00, -0.41, 435.0, 335.0)"></image></g></g><text xml:space="preserve" font-family="Helvetica-BoldOblique,Helvetica" font-style="italic" font-weight="bold" font-size="18.0" fill="#000000" transform="matrix(1.00, 0.00, -0.00, -1.00, 817.5, 104.1)">e</text><text xml:space="preserve" font-family="Helvetica-BoldOblique,Helvetica" font-style="italic" font-weight="bold" font-size="18.0" fill="#000000" transform="matrix(1.00, 0.00, -0.00, -1.00, 827.5, 104.1)">x</text><text xml:space="preserve" font-family="Helvetica-BoldOblique,Helvetica" font-style="italic" font-weight="bold" font-size="18.0" fill="#000000" transform="matrix(1.00, 0.00, -0.00, -1.00, 837.6, 104.1)">p</text><text xml:space="preserve" font-family="Helvetica-BoldOblique,Helvetica" font-style="italic" font-weight="bold" font-size="18.0" fill="#000000" transform="matrix(1.00, 0.00, -0.00, -1.00, 848.5, 104.1)">e</text><text xml:space="preserve" font-family="Helvetica-BoldOblique,Helvetica" font-style="italic" font-weight="bold" font-size="18.0" fill="#000000" transform="matrix(1.00, 0.00, -0.00, -1.00, 858.6, 104.1)">r</text><text xml:space="preserve" font-family="Helvetica-BoldOblique,Helvetica" font-style="italic" font-weight="bold" font-size="18.0" fill="#000000" transform="matrix(1.00, 0.00, -0.00, -1.00, 865.6, 104.1)">i</text><text xml:space="preserve" font-family="Helvetica-BoldOblique,Helvetica" font-style="italic" font-weight="bold" font-size="18.0" fill="#000000" transform="matrix(1.00, 0.00, -0.00, -1.00, 870.6, 104.1)">m</text><text xml:space="preserve" font-family="Helvetica-BoldOblique,Helvetica" font-style="italic" font-weight="bold" font-size="18.0" fill="#000000" transform="matrix(1.00, 0.00, -0.00, -1.00, 886.6, 104.1)">e</text><text xml:space="preserve" font-family="Helvetica-BoldOblique,Helvetica" font-style="italic" font-weight="bold" font-size="18.0" fill="#000000" transform="matrix(1.00, 0.00, -0.00, -1.00, 896.6, 104.1)">n</text><text xml:space="preserve" font-family="Helvetica-BoldOblique,Helvetica" font-style="italic" font-weight="bold" font-size="18.0" fill="#000000" transform="matrix(1.00, 0.00, -0.00, -1.00, 907.6, 104.1)">t</text><text xml:space="preserve" font-family="Helvetica-BoldOblique,Helvetica" font-style="italic" font-weight="bold" font-size="18.0" fill="#000000" transform="matrix(1.00, 0.00, -0.00, -1.00, 913.6, 104.1)"> </text><text xml:space="preserve" font-family="Helvetica-BoldOblique,Helvetica" font-style="italic" font-weight="bold" font-size="18.0" fill="#000000" transform="matrix(1.00, 0.00, -0.00, -1.00, 918.6, 104.1)">C</text><text xml:space="preserve" font-family="Helvetica-BoldOblique,Helvetica" font-style="italic" font-weight="bold" font-size="18.0" fill="#000000" transform="matrix(1.00, 0.00, -0.00, -1.00, 463.5, 104.1)">e</text><text xml:space="preserve" font-family="Helvetica-BoldOblique,Helvetica" font-style="italic" font-weight="bold" font-size="18.0" fill="#000000" transform="matrix(1.00, 0.00, -0.00, -1.00, 473.5, 104.1)">x</text><text xml:space="preserve" font-family="Helvetica-BoldOblique,Helvetica" font-style="italic" font-weight="bold" font-size="18.0" fill="#000000" transform="matrix(1.00, 0.00, -0.00, -1.00, 483.6, 104.1)">p</text><text xml:space="preserve" font-family="Helvetica-BoldOblique,Helvetica" font-style="italic" font-weight="bold" font-size="18.0" fill="#000000" transform="matrix(1.00, 0.00, -0.00, -1.00, 494.5, 104.1)">e</text><text xml:space="preserve" font-family="Helvetica-BoldOblique,Helvetica" font-style="italic" font-weight="bold" font-size="18.0" fill="#000000" transform="matrix(1.00, 0.00, -0.00, -1.00, 504.6, 104.1)">r</text><text xml:space="preserve" font-family="Helvetica-BoldOblique,Helvetica" font-style="italic" font-weight="bold" font-size="18.0" fill="#000000" transform="matrix(1.00, 0.00, -0.00, -1.00, 511.6, 104.1)">i</text><text xml:space="preserve" font-family="Helvetica-BoldOblique,Helvetica" font-style="italic" font-weight="bold" font-size="18.0" fill="#000000" transform="matrix(1.00, 0.00, -0.00, -1.00, 516.6, 104.1)">m</text><text xml:space="preserve" font-family="Helvetica-BoldOblique,Helvetica" font-style="italic" font-weight="bold" font-size="18.0" fill="#000000" transform="matrix(1.00, 0.00, -0.00, -1.00, 532.6, 104.1)">e</text><text xml:space="preserve" font-family="Helvetica-BoldOblique,Helvetica" font-style="italic" font-weight="bold" font-size="18.0" fill="#000000" transform="matrix(1.00, 0.00, -0.00, -1.00, 542.6, 104.1)">n</text><text xml:space="preserve" font-family="Helvetica-BoldOblique,Helvetica" font-style="italic" font-weight="bold" font-size="18.0" fill="#000000" transform="matrix(1.00, 0.00, -0.00, -1.00, 553.6, 104.1)">t</text><text xml:space="preserve" font-family="Helvetica-BoldOblique,Helvetica" font-style="italic" font-weight="bold" font-size="18.0" fill="#000000" transform="matrix(1.00, 0.00, -0.00, -1.00, 559.6, 104.1)"> </text><text xml:space="preserve" font-family="Helvetica-BoldOblique,Helvetica" font-style="italic" font-weight="bold" font-size="18.0" fill="#000000" transform="matrix(1.00, 0.00, -0.00, -1.00, 564.6, 104.1)">B</text><g><clipPath id="clip0x7fab9fee47d0"><path d="M 471.5 521.0 L 434.6 483.8 L 398.0 446.5 L 398.0 438.3 L 398.0 430.2 L 434.2 393.7 L 470.6 357.0 L 548.5 357.0 L 626.0 357.0 L 626.0 439.0 L 626.0 521.0 L 548.8 521.0 L 471.5 521.0 Z M 471.5 521.1 "></path></clipPath><g clip-path="url(#clip0x7fab9fee47d0)"><image xlink:href="F338B005A9B3A4214C69E7572A090395.png" width="1024.00" height="947.00" transform="matrix(0.30, 0.00, -0.00, -0.30, 358.0, 582.0)"></image></g></g><g><clipPath id="clip0x7fab9ff2c580"><path d="M 433.3 190.9 L 397.0 227.5 L 397.0 235.8 L 397.0 244.1 L 433.8 281.5 L 470.7 319.0 L 548.4 319.0 L 626.0 319.0 L 626.0 236.5 L 626.0 154.0 L 548.0 154.0 L 469.9 154.0 L 433.3 190.9 "></path></clipPath><g clip-path="url(#clip0x7fab9ff2c580)"><image xlink:href="393BEFCA86F1139EC3A461046A974F22.png" width="1024.00" height="947.00" transform="matrix(0.30, 0.00, -0.00, -0.30, 357.0, 379.0)"></image></g></g><path d="M 804.0 -0.0 L 803.7 -0.0 L 5.2 -0.0 L 5.0 -0.0 " fill="none" stroke="#000000" stroke-width="1.00" transform="matrix(1.00, 0.00, 0.00, -1.00, 121.0, 86.5)"></path><path d="M 125.8 84.7 C 124.8 83.8 123.2 83.8 122.2 84.7 C 121.3 85.7 121.3 87.3 122.2 88.3 C 123.2 89.2 124.8 89.2 125.8 88.3 C 126.7 87.3 126.7 85.7 125.8 84.7 " fill="#000000"></path><path d="M 924.5 83.5 L 930.5 86.5 L 924.5 89.5 Z M 924.5 83.5 " fill="#000000"></path><text xml:space="preserve" font-family="Helvetica-Oblique,Helvetica" font-style="italic" font-size="18.0" fill="#000000" transform="matrix(1.00, 0.00, -0.00, -1.00, 424.0, 57.1)">i</text><text xml:space="preserve" font-family="Helvetica-Oblique,Helvetica" font-style="italic" font-size="18.0" fill="#000000" transform="matrix(1.00, 0.00, -0.00, -1.00, 428.0, 57.1)">n</text><text xml:space="preserve" font-family="Helvetica-Oblique,Helvetica" font-style="italic" font-size="18.0" fill="#000000" transform="matrix(1.00, 0.00, -0.00, -1.00, 438.0, 57.1)">c</text><text xml:space="preserve" font-family="Helvetica-Oblique,Helvetica" font-style="italic" font-size="18.0" fill="#000000" transform="matrix(1.00, 0.00, -0.00, -1.00, 447.0, 57.1)">r</text><text xml:space="preserve" font-family="Helvetica-Oblique,Helvetica" font-style="italic" font-size="18.0" fill="#000000" transform="matrix(1.00, 0.00, -0.00, -1.00, 453.0, 57.1)">e</text><text xml:space="preserve" font-family="Helvetica-Oblique,Helvetica" font-style="italic" font-size="18.0" fill="#000000" transform="matrix(1.00, 0.00, -0.00, -1.00, 463.0, 57.1)">a</text><text xml:space="preserve" font-family="Helvetica-Oblique,Helvetica" font-style="italic" font-size="18.0" fill="#000000" transform="matrix(1.00, 0.00, -0.00, -1.00, 473.0, 57.1)">s</text><text xml:space="preserve" font-family="Helvetica-Oblique,Helvetica" font-style="italic" font-size="18.0" fill="#000000" transform="matrix(1.00, 0.00, -0.00, -1.00, 482.0, 57.1)">i</text><text xml:space="preserve" font-family="Helvetica-Oblique,Helvetica" font-style="italic" font-size="18.0" fill="#000000" transform="matrix(1.00, 0.00, -0.00, -1.00, 486.0, 57.1)">n</text><text xml:space="preserve" font-family="Helvetica-Oblique,Helvetica" font-style="italic" font-size="18.0" fill="#000000" transform="matrix(1.00, 0.00, -0.00, -1.00, 496.1, 57.1)">g</text><text xml:space="preserve" font-family="Helvetica-Oblique,Helvetica" font-style="italic" font-size="18.0" fill="#000000" transform="matrix(1.00, 0.00, -0.00, -1.00, 506.1, 57.1)"> </text><text xml:space="preserve" font-family="Helvetica-Oblique,Helvetica" font-style="italic" font-size="18.0" fill="#000000" transform="matrix(1.00, 0.00, -0.00, -1.00, 511.1, 57.1)">s</text><text xml:space="preserve" font-family="Helvetica-Oblique,Helvetica" font-style="italic" font-size="18.0" fill="#000000" transform="matrix(1.00, 0.00, -0.00, -1.00, 520.1, 57.1)">e</text><text xml:space="preserve" font-family="Helvetica-Oblique,Helvetica" font-style="italic" font-size="18.0" fill="#000000" transform="matrix(1.00, 0.00, -0.00, -1.00, 530.1, 57.1)">d</text><text xml:space="preserve" font-family="Helvetica-Oblique,Helvetica" font-style="italic" font-size="18.0" fill="#000000" transform="matrix(1.00, 0.00, -0.00, -1.00, 540.1, 57.1)">i</text><text xml:space="preserve" font-family="Helvetica-Oblique,Helvetica" font-style="italic" font-size="18.0" fill="#000000" transform="matrix(1.00, 0.00, -0.00, -1.00, 544.1, 57.1)">m</text><text xml:space="preserve" font-family="Helvetica-Oblique,Helvetica" font-style="italic" font-size="18.0" fill="#000000" transform="matrix(1.00, 0.00, -0.00, -1.00, 559.1, 57.1)">e</text><text xml:space="preserve" font-family="Helvetica-Oblique,Helvetica" font-style="italic" font-size="18.0" fill="#000000" transform="matrix(1.00, 0.00, -0.00, -1.00, 569.1, 57.1)">n</text><text xml:space="preserve" font-family="Helvetica-Oblique,Helvetica" font-style="italic" font-size="18.0" fill="#000000" transform="matrix(1.00, 0.00, -0.00, -1.00, 579.1, 57.1)">t</text><text xml:space="preserve" font-family="Helvetica-Oblique,Helvetica" font-style="italic" font-size="18.0" fill="#000000" transform="matrix(1.00, 0.00, -0.00, -1.00, 584.1, 57.1)"> </text><text xml:space="preserve" font-family="Helvetica-Oblique,Helvetica" font-style="italic" font-size="18.0" fill="#000000" transform="matrix(1.00, 0.00, -0.00, -1.00, 589.1, 57.1)">ﬂ</text><text xml:space="preserve" font-family="Helvetica-Oblique,Helvetica" font-style="italic" font-size="18.0" fill="#000000" transform="matrix(1.00, 0.00, -0.00, -1.00, 598.1, 57.1)">u</text><text xml:space="preserve" font-family="Helvetica-Oblique,Helvetica" font-style="italic" font-size="18.0" fill="#000000" transform="matrix(1.00, 0.00, -0.00, -1.00, 608.1, 57.1)">x</text><path d="M 0.0 0.0 L 0.8 8.5 " fill="none" stroke="#000000" stroke-width="1.00" transform="matrix(1.00, -0.10, -0.10, -1.00, 520.5, 91.0)"></path><text xml:space="preserve" font-family="Helvetica-Oblique,Helvetica" font-style="italic" font-size="18.0" fill="#000000" transform="matrix(1.00, 0.00, -0.00, -1.00, 23.9, 295.6)">4</text><text xml:space="preserve" font-family="Helvetica-Oblique,Helvetica" font-style="italic" font-size="18.0" fill="#000000" transform="matrix(1.00, 0.00, -0.00, -1.00, 33.9, 295.6)">4</text><text xml:space="preserve" font-family="Helvetica-Oblique,Helvetica" font-style="italic" font-size="18.0" fill="#000000" transform="matrix(1.00, 0.00, -0.00, -1.00, 43.9, 295.6)">0</text><text xml:space="preserve" font-family="Helvetica-Oblique,Helvetica" font-style="italic" font-size="18.0" fill="#000000" transform="matrix(1.00, 0.00, -0.00, -1.00, 54.0, 295.6)">0</text><text xml:space="preserve" font-family="Helvetica-Oblique,Helvetica" font-style="italic" font-size="18.0" fill="#000000" transform="matrix(1.00, 0.00, -0.00, -1.00, 64.0, 295.6)">0</text><text xml:space="preserve" font-family="Helvetica-Oblique,Helvetica" font-style="italic" font-size="18.0" fill="#000000" transform="matrix(1.00, 0.00, -0.00, -1.00, 74.0, 295.6)"> </text><text xml:space="preserve" font-family="Helvetica-Oblique,Helvetica" font-style="italic" font-size="18.0" fill="#000000" transform="matrix(1.00, 0.00, -0.00, -1.00, 79.0, 295.6)">y</text><text xml:space="preserve" font-family="Helvetica-Oblique,Helvetica" font-style="italic" font-size="18.0" fill="#000000" transform="matrix(1.00, 0.00, -0.00, -1.00, 88.0, 295.6)">r</text><text xml:space="preserve" font-family="Helvetica-Oblique,Helvetica" font-style="italic" font-size="18.0" fill="#000000" transform="matrix(1.00, 0.00, -0.00, -1.00, 23.9, 499.2)">3</text><text xml:space="preserve" font-family="Helvetica-Oblique,Helvetica" font-style="italic" font-size="18.0" fill="#000000" transform="matrix(1.00, 0.00, -0.00, -1.00, 33.9, 499.2)">2</text><text xml:space="preserve" font-family="Helvetica-Oblique,Helvetica" font-style="italic" font-size="18.0" fill="#000000" transform="matrix(1.00, 0.00, -0.00, -1.00, 43.9, 499.2)">0</text><text xml:space="preserve" font-family="Helvetica-Oblique,Helvetica" font-style="italic" font-size="18.0" fill="#000000" transform="matrix(1.00, 0.00, -0.00, -1.00, 54.0, 499.2)">0</text><text xml:space="preserve" font-family="Helvetica-Oblique,Helvetica" font-style="italic" font-size="18.0" fill="#000000" transform="matrix(1.00, 0.00, -0.00, -1.00, 64.0, 499.2)">0</text><text xml:space="preserve" font-family="Helvetica-Oblique,Helvetica" font-style="italic" font-size="18.0" fill="#000000" transform="matrix(1.00, 0.00, -0.00, -1.00, 74.0, 499.2)"> </text><text xml:space="preserve" font-family="Helvetica-Oblique,Helvetica" font-style="italic" font-size="18.0" fill="#000000" transform="matrix(1.00, 0.00, -0.00, -1.00, 79.0, 499.2)">y</text><text xml:space="preserve" font-family="Helvetica-Oblique,Helvetica" font-style="italic" font-size="18.0" fill="#000000" transform="matrix(1.00, 0.00, -0.00, -1.00, 88.0, 499.2)">r</text><path d="M 0.0 0.0 L 0.9 370.4 " fill="none" stroke="#000000" stroke-width="1.00" transform="matrix(1.00, -0.00, -0.00, -1.00, 358.8, 523.0)"></path><path d="M 0.0 0.0 L 0.9 370.4 " fill="none" stroke="#000000" stroke-width="1.00" transform="matrix(1.00, -0.00, -0.00, -1.00, 700.4, 523.0)"></path><path d="M 0.0 0.0 L 0.8 8.5 " fill="none" stroke="#000000" stroke-width="1.00" transform="matrix(1.00, -0.10, -0.10, -1.00, 190.1, 91.0)"></path><path d="M 0.0 0.0 L 0.8 8.5 " fill="none" stroke="#000000" stroke-width="1.00" transform="matrix(1.00, -0.10, -0.10, -1.00, 880.1, 91.0)"></path><text xml:space="preserve" font-family="HelveticaNeue-Bold,Helvetica Neue" font-weight="bold" font-size="22.0" fill="#941100" transform="matrix(1.00, 0.00, -0.00, -1.00, 157.0, 12.4)">T</text><text xml:space="preserve" font-family="HelveticaNeue-Bold,Helvetica Neue" font-weight="bold" font-size="22.0" fill="#941100" transform="matrix(1.00, 0.00, -0.00, -1.00, 170.5, 12.4)">*</text><text xml:space="preserve" font-family="HelveticaNeue-Bold,Helvetica Neue" font-weight="bold" font-size="22.0" fill="#941100" transform="matrix(1.00, 0.00, -0.00, -1.00, 179.4, 12.4)"> </text><text xml:space="preserve" font-family="HelveticaNeue-Bold,Helvetica Neue" font-weight="bold" font-size="22.0" fill="#941100" transform="matrix(1.00, 0.00, -0.00, -1.00, 185.5, 12.4)">&gt;</text><text xml:space="preserve" font-family="HelveticaNeue-Bold,Helvetica Neue" font-weight="bold" font-size="22.0" fill="#941100" transform="matrix(1.00, 0.00, -0.00, -1.00, 198.7, 12.4)"> </text><text xml:space="preserve" font-family="HelveticaNeue-Bold,Helvetica Neue" font-weight="bold" font-size="22.0" fill="#941100" transform="matrix(1.00, 0.00, -0.00, -1.00, 204.8, 12.4)">1</text><text xml:space="preserve" font-family="HelveticaNeue-Bold,Helvetica Neue" font-weight="bold" font-size="22.0" fill="#941100" transform="matrix(1.00, 0.00, -0.00, -1.00, 488.7, 12.7)">T</text><text xml:space="preserve" font-family="HelveticaNeue-Bold,Helvetica Neue" font-weight="bold" font-size="22.0" fill="#941100" transform="matrix(1.00, 0.00, -0.00, -1.00, 502.1, 12.7)">*</text><text xml:space="preserve" font-family="HelveticaNeue-Bold,Helvetica Neue" font-weight="bold" font-size="22.0" fill="#941100" transform="matrix(1.00, 0.00, -0.00, -1.00, 511.1, 12.7)"> </text><text xml:space="preserve" font-family="AppleSymbols,Apple Symbols" font-size="22.0" fill="#941100" transform="matrix(1.00, 0.00, -0.00, -1.00, 517.2, 12.7)">≃</text><text xml:space="preserve" font-family="HelveticaNeue-Bold,Helvetica Neue" font-weight="bold" font-size="22.0" fill="#941100" transform="matrix(1.00, 0.00, -0.00, -1.00, 530.1, 12.7)"> </text><text xml:space="preserve" font-family="HelveticaNeue-Bold,Helvetica Neue" font-weight="bold" font-size="22.0" fill="#941100" transform="matrix(1.00, 0.00, -0.00, -1.00, 536.2, 12.7)">1</text><text xml:space="preserve" font-family="HelveticaNeue-Bold,Helvetica Neue" font-weight="bold" font-size="22.0" fill="#941100" transform="matrix(1.00, 0.00, -0.00, -1.00, 849.3, 12.4)">T</text><text xml:space="preserve" font-family="HelveticaNeue-Bold,Helvetica Neue" font-weight="bold" font-size="22.0" fill="#941100" transform="matrix(1.00, 0.00, -0.00, -1.00, 862.8, 12.4)">*</text><text xml:space="preserve" font-family="HelveticaNeue-Bold,Helvetica Neue" font-weight="bold" font-size="22.0" fill="#941100" transform="matrix(1.00, 0.00, -0.00, -1.00, 871.7, 12.4)"> </text><text xml:space="preserve" font-family="HelveticaNeue-Bold,Helvetica Neue" font-weight="bold" font-size="22.0" fill="#941100" transform="matrix(1.00, 0.00, -0.00, -1.00, 877.8, 12.4)">&lt;</text><text xml:space="preserve" font-family="HelveticaNeue-Bold,Helvetica Neue" font-weight="bold" font-size="22.0" fill="#941100" transform="matrix(1.00, 0.00, -0.00, -1.00, 891.0, 12.4)"> </text><text xml:space="preserve" font-family="HelveticaNeue-Bold,Helvetica Neue" font-weight="bold" font-size="22.0" fill="#941100" transform="matrix(1.00, 0.00, -0.00, -1.00, 897.2, 12.4)">1</text><g><clipPath id="clip0x7fab9df7bc80"><path d="M 15.5 570.2 L 160.1 570.2 L 160.1 598.7 L 15.5 598.7 Z M 15.5 570.2 "></path></clipPath><g clip-path="url(#clip0x7fab9df7bc80)"><text xml:space="preserve" font-family="Helvetica,Helvetica" font-size="17.0" fill="#000000" transform="matrix(1.00, 0.00, -0.00, -1.00, 20.3, 578.4)">ﬂ</text><text xml:space="preserve" font-family="Helvetica,Helvetica" font-size="17.0" fill="#000000" transform="matrix(1.00, 0.00, -0.00, -1.00, 28.8, 578.4)">o</text><text xml:space="preserve" font-family="Helvetica,Helvetica" font-size="17.0" fill="#000000" transform="matrix(1.00, 0.00, -0.00, -1.00, 38.2, 578.4)">w</text><text xml:space="preserve" font-family="Helvetica,Helvetica" font-size="17.0" fill="#000000" transform="matrix(1.00, 0.00, -0.00, -1.00, 50.5, 578.4)"> </text><text xml:space="preserve" font-family="Helvetica,Helvetica" font-size="17.0" fill="#000000" transform="matrix(1.00, 0.00, -0.00, -1.00, 55.2, 578.4)">a</text><text xml:space="preserve" font-family="Helvetica,Helvetica" font-size="17.0" fill="#000000" transform="matrix(1.00, 0.00, -0.00, -1.00, 64.7, 578.4)">c</text><text xml:space="preserve" font-family="Helvetica,Helvetica" font-size="17.0" fill="#000000" transform="matrix(1.00, 0.00, -0.00, -1.00, 73.2, 578.4)">c</text><text xml:space="preserve" font-family="Helvetica,Helvetica" font-size="17.0" fill="#000000" transform="matrix(1.00, 0.00, -0.00, -1.00, 81.7, 578.4)">u</text><text xml:space="preserve" font-family="Helvetica,Helvetica" font-size="17.0" fill="#000000" transform="matrix(1.00, 0.00, -0.00, -1.00, 91.1, 578.4)">m</text><text xml:space="preserve" font-family="Helvetica,Helvetica" font-size="17.0" fill="#000000" transform="matrix(1.00, 0.00, -0.00, -1.00, 105.3, 578.4)">u</text><text xml:space="preserve" font-family="Helvetica,Helvetica" font-size="17.0" fill="#000000" transform="matrix(1.00, 0.00, -0.00, -1.00, 114.8, 578.4)">l</text><text xml:space="preserve" font-family="Helvetica,Helvetica" font-size="17.0" fill="#000000" transform="matrix(1.00, 0.00, -0.00, -1.00, 118.5, 578.4)">a</text><text xml:space="preserve" font-family="Helvetica,Helvetica" font-size="17.0" fill="#000000" transform="matrix(1.00, 0.00, -0.00, -1.00, 128.0, 578.4)">t</text><text xml:space="preserve" font-family="Helvetica,Helvetica" font-size="17.0" fill="#000000" transform="matrix(1.00, 0.00, -0.00, -1.00, 132.7, 578.4)">i</text><text xml:space="preserve" font-family="Helvetica,Helvetica" font-size="17.0" fill="#000000" transform="matrix(1.00, 0.00, -0.00, -1.00, 136.5, 578.4)">o</text><text xml:space="preserve" font-family="Helvetica,Helvetica" font-size="17.0" fill="#000000" transform="matrix(1.00, 0.00, -0.00, -1.00, 146.0, 578.4)">n</text></g></g><g><clipPath id="clip0x7fab9ff3ddc0"><path d="M 14.6 555.5 L 159.6 555.5 L 159.6 573.5 L 14.6 573.5 Z M 14.6 555.5 "></path></clipPath><g clip-path="url(#clip0x7fab9ff3ddc0)"><image xlink:href="../../5B899592-1E9B-41A3-881B-AE2EA024CC83/assets/0C65710A18F0483E99A6957FF315C350.jpeg" width="299.00" height="23.00" transform="matrix(0.48, 0.00, -0.00, -0.78, 15.0, 573.0)"></image></g></g><g><clipPath id="clip0x7fab9ff3fe80"><path d="M 13.3 535.5 L 28.9 535.5 L 28.9 557.5 L 13.3 557.5 Z M 13.3 535.5 "></path></clipPath><g clip-path="url(#clip0x7fab9ff3fe80)"><text xml:space="preserve" font-family="Helvetica,Helvetica" font-size="12.0" fill="#000000" transform="matrix(1.00, 0.00, -0.00, -1.00, 17.8, 542.3)">1</text></g></g><g><clipPath id="clip0x7fab9ff3f170"><path d="M 130.2 535.5 L 172.6 535.5 L 172.6 557.5 L 130.2 557.5 Z M 130.2 535.5 "></path></clipPath><g clip-path="url(#clip0x7fab9ff3f170)"><text xml:space="preserve" font-family="Helvetica,Helvetica" font-size="12.0" fill="#000000" transform="matrix(1.00, 0.00, -0.00, -1.00, 134.7, 542.3)">1</text><text xml:space="preserve" font-family="Helvetica,Helvetica" font-size="12.0" fill="#000000" transform="matrix(1.00, 0.00, -0.00, -1.00, 141.4, 542.3)">0</text><text xml:space="preserve" font-family="Helvetica,Helvetica" font-size="12.0" fill="#000000" transform="matrix(1.00, 0.00, -0.00, -1.00, 148.1, 542.3)">0</text><text xml:space="preserve" font-family="Helvetica,Helvetica" font-size="12.0" fill="#000000" transform="matrix(1.00, 0.00, -0.00, -1.00, 154.8, 542.3)">0</text><text xml:space="preserve" font-family="Helvetica,Helvetica" font-size="12.0" fill="#000000" transform="matrix(1.00, 0.00, -0.00, -1.00, 161.5, 542.3)">0</text></g></g></g></svg>