<?xml version="1.0" encoding="UTF-8" standalone="no"?><svg xmlns="http://www.w3.org/2000/svg" xmlns:xlink="http://www.w3.org/1999/xlink" clip-rule="evenodd" stroke-miterlimit="10" viewBox="0 0 277 86"><desc>SVG generated by Keynote</desc><defs></defs><g transform="matrix(1.00, 0.00, -0.00, -1.00, 0.0, 86.0)"><text xml:space="preserve" font-family="HelveticaNeue,Helvetica Neue" font-size="12.8" fill="#000000" transform="matrix(1.00, 0.00, -0.00, -1.00, 1.4, 63.9)">-</text><text xml:space="preserve" font-family="Avenir-Roman,Avenir" font-size="17.0" fill="#000000" transform="matrix(1.00, 0.00, -0.00, -1.00, 10.8, 63.2)">1</text><text xml:space="preserve" font-family="Avenir-Roman,Avenir" font-size="17.0" fill="#000000" transform="matrix(1.00, 0.00, -0.00, -1.00, 20.2, 63.2)">0</text><text xml:space="preserve" font-family="Avenir-Roman,Avenir" font-size="17.0" fill="#000000" transform="matrix(1.00, 0.00, -0.00, -1.00, 29.7, 63.2)">x</text><text xml:space="preserve" font-family="Avenir-Roman,Avenir" font-size="17.0" fill="#000000" transform="matrix(1.00, 0.00, -0.00, -1.00, 38.2, 63.2)">1</text><text xml:space="preserve" font-family="Avenir-Roman,Avenir" font-size="17.0" fill="#000000" transform="matrix(1.00, 0.00, -0.00, -1.00, 47.6, 63.2)">0</text><text xml:space="preserve" font-family="Avenir-Roman,Avenir" font-size="17.0" fill="#000000" transform="matrix(1.00, 0.00, -0.00, -1.00, 57.1, 63.2)"> </text><text xml:space="preserve" font-family="Avenir-Roman,Avenir" font-size="17.0" fill="#000000" transform="matrix(1.00, 0.00, -0.00, -1.00, 61.8, 63.2)">k</text><text xml:space="preserve" font-family="Avenir-Roman,Avenir" font-size="17.0" fill="#000000" transform="matrix(1.00, 0.00, -0.00, -1.00, 70.3, 63.2)">m</text><text xml:space="preserve" font-family="Avenir-Roman,Avenir" font-size="17.0" fill="#000000" transform="matrix(1.00, 0.00, -0.00, -1.00, 84.8, 63.2)">,</text><text xml:space="preserve" font-family="Avenir-Roman,Avenir" font-size="17.0" fill="#000000" transform="matrix(1.00, 0.00, -0.00, -1.00, 89.5, 63.2)"> </text><text xml:space="preserve" font-family="Avenir-Roman,Avenir" font-size="17.0" fill="#000000" transform="matrix(1.00, 0.00, -0.00, -1.00, 94.2, 63.2)"> </text><text xml:space="preserve" font-family="Avenir-Roman,Avenir" font-size="17.0" fill="#000000" transform="matrix(1.00, 0.00, -0.00, -1.00, 99.0, 63.2)"> </text><text xml:space="preserve" font-family="Avenir-Roman,Avenir" font-size="17.0" fill="#000000" transform="matrix(1.00, 0.00, -0.00, -1.00, 103.7, 63.2)">-</text><text xml:space="preserve" font-family="Avenir-Roman,Avenir" font-size="17.0" fill="#000000" transform="matrix(1.00, 0.00, -0.00, -1.00, 109.3, 63.2)"> </text><text xml:space="preserve" font-family="Avenir-Roman,Avenir" font-size="17.0" fill="#000000" transform="matrix(1.00, 0.00, -0.00, -1.00, 114.1, 63.2)">5</text><text xml:space="preserve" font-family="Avenir-Roman,Avenir" font-size="17.0" fill="#000000" transform="matrix(1.00, 0.00, -0.00, -1.00, 123.5, 63.2)">0</text><text xml:space="preserve" font-family="Avenir-Roman,Avenir" font-size="17.0" fill="#000000" transform="matrix(1.00, 0.00, -0.00, -1.00, 133.0, 63.2)"> </text><text xml:space="preserve" font-family="Avenir-Roman,Avenir" font-size="17.0" fill="#000000" transform="matrix(1.00, 0.00, -0.00, -1.00, 137.7, 63.2)">m</text><text xml:space="preserve" font-family="Avenir-Roman,Avenir" font-size="17.0" fill="#000000" transform="matrix(1.00, 0.00, -0.00, -1.00, 152.2, 63.2)"> </text><text xml:space="preserve" font-family="Avenir-Roman,Avenir" font-size="17.0" fill="#000000" transform="matrix(1.00, 0.00, -0.00, -1.00, 156.9, 63.2)">g</text><text xml:space="preserve" font-family="Avenir-Roman,Avenir" font-size="17.0" fill="#000000" transform="matrix(1.00, 0.00, -0.00, -1.00, 167.3, 63.2)">r</text><text xml:space="preserve" font-family="Avenir-Roman,Avenir" font-size="17.0" fill="#000000" transform="matrix(1.00, 0.00, -0.00, -1.00, 173.3, 63.2)">i</text><text xml:space="preserve" font-family="Avenir-Roman,Avenir" font-size="17.0" fill="#000000" transform="matrix(1.00, 0.00, -0.00, -1.00, 177.4, 63.2)">d</text><text xml:space="preserve" font-family="Avenir-Roman,Avenir" font-size="17.0" fill="#000000" transform="matrix(1.00, 0.00, -0.00, -1.00, 187.7, 63.2)"> </text><text xml:space="preserve" font-family="Avenir-Roman,Avenir" font-size="17.0" fill="#000000" transform="matrix(1.00, 0.00, -0.00, -1.00, 192.5, 63.2)">c</text><text xml:space="preserve" font-family="Avenir-Roman,Avenir" font-size="17.0" fill="#000000" transform="matrix(1.00, 0.00, -0.00, -1.00, 200.7, 63.2)">e</text><text xml:space="preserve" font-family="Avenir-Roman,Avenir" font-size="17.0" fill="#000000" transform="matrix(1.00, 0.00, -0.00, -1.00, 210.1, 63.2)">l</text><text xml:space="preserve" font-family="Avenir-Roman,Avenir" font-size="17.0" fill="#000000" transform="matrix(1.00, 0.00, -0.00, -1.00, 214.2, 63.2)">l</text><text xml:space="preserve" font-family="Avenir-Roman,Avenir" font-size="17.0" fill="#000000" transform="matrix(1.00, 0.00, -0.00, -1.00, 218.3, 63.2)">,</text><text xml:space="preserve" font-family="Avenir-Roman,Avenir" font-size="17.0" fill="#000000" transform="matrix(1.00, 0.00, -0.00, -1.00, 223.0, 63.2)"> </text><text xml:space="preserve" font-family="Avenir-Roman,Avenir" font-size="17.0" fill="#000000" transform="matrix(1.00, 0.00, -0.00, -1.00, 227.7, 63.2)"> </text><text xml:space="preserve" font-family="HelveticaNeue,Helvetica Neue" font-size="12.8" fill="#000000" transform="matrix(1.00, 0.00, -0.00, -1.00, 1.4, 33.7)">-</text><text xml:space="preserve" font-family="Avenir-Roman,Avenir" font-size="17.0" fill="#000000" transform="matrix(1.00, 0.00, -0.00, -1.00, 10.8, 31.5)">t</text><text xml:space="preserve" font-family="Avenir-Roman,Avenir" font-size="17.0" fill="#000000" transform="matrix(1.00, 0.00, -0.00, -1.00, 16.8, 31.5)">i</text><text xml:space="preserve" font-family="Avenir-Roman,Avenir" font-size="17.0" fill="#000000" transform="matrix(1.00, 0.00, -0.00, -1.00, 20.8, 31.5)">m</text><text xml:space="preserve" font-family="Avenir-Roman,Avenir" font-size="17.0" fill="#000000" transform="matrix(1.00, 0.00, -0.00, -1.00, 35.3, 31.5)">e</text><text xml:space="preserve" font-family="Avenir-Roman,Avenir" font-size="17.0" fill="#000000" transform="matrix(1.00, 0.00, -0.00, -1.00, 44.8, 31.5)"> </text><text xml:space="preserve" font-family="Avenir-Roman,Avenir" font-size="17.0" fill="#000000" transform="matrix(1.00, 0.00, -0.00, -1.00, 49.5, 31.5)">s</text><text xml:space="preserve" font-family="Avenir-Roman,Avenir" font-size="17.0" fill="#000000" transform="matrix(1.00, 0.00, -0.00, -1.00, 56.7, 31.5)">t</text><text xml:space="preserve" font-family="Avenir-Roman,Avenir" font-size="17.0" fill="#000000" transform="matrix(1.00, 0.00, -0.00, -1.00, 62.7, 31.5)">e</text><text xml:space="preserve" font-family="Avenir-Roman,Avenir" font-size="17.0" fill="#000000" transform="matrix(1.00, 0.00, -0.00, -1.00, 72.2, 31.5)">p</text><text xml:space="preserve" font-family="Avenir-Roman,Avenir" font-size="17.0" fill="#000000" transform="matrix(1.00, 0.00, -0.00, -1.00, 82.6, 31.5)"> </text><text xml:space="preserve" font-family="Avenir-Roman,Avenir" font-size="17.0" fill="#000000" transform="matrix(1.00, 0.00, -0.00, -1.00, 87.3, 31.5)">5</text><text xml:space="preserve" font-family="Avenir-Roman,Avenir" font-size="17.0" fill="#000000" transform="matrix(1.00, 0.00, -0.00, -1.00, 96.7, 31.5)">0</text><text xml:space="preserve" font-family="Avenir-Roman,Avenir" font-size="17.0" fill="#000000" transform="matrix(1.00, 0.00, -0.00, -1.00, 106.2, 31.5)"> </text><text xml:space="preserve" font-family="Avenir-Roman,Avenir" font-size="17.0" fill="#000000" transform="matrix(1.00, 0.00, -0.00, -1.00, 110.9, 31.5)">y</text><text xml:space="preserve" font-family="Avenir-Roman,Avenir" font-size="17.0" fill="#000000" transform="matrix(1.00, 0.00, -0.00, -1.00, 119.1, 31.5)">r</text><text xml:space="preserve" font-family="Avenir-Roman,Avenir" font-size="17.0" fill="#000000" transform="matrix(1.00, 0.00, -0.00, -1.00, 125.1, 31.5)">s</text><text xml:space="preserve" font-family="Avenir-Roman,Avenir" font-size="17.0" fill="#000000" transform="matrix(1.00, 0.00, -0.00, -1.00, 132.3, 31.5)">,</text><text xml:space="preserve" font-family="Avenir-Roman,Avenir" font-size="17.0" fill="#000000" transform="matrix(1.00, 0.00, -0.00, -1.00, 137.1, 31.5)"> </text><text xml:space="preserve" font-family="Avenir-Roman,Avenir" font-size="17.0" fill="#000000" transform="matrix(1.00, 0.00, -0.00, -1.00, 141.8, 31.5)"> </text><text xml:space="preserve" font-family="Avenir-Roman,Avenir" font-size="17.0" fill="#000000" transform="matrix(1.00, 0.00, -0.00, -1.00, 146.5, 31.5)"> </text><text xml:space="preserve" font-family="Avenir-Roman,Avenir" font-size="17.0" fill="#000000" transform="matrix(1.00, 0.00, -0.00, -1.00, 151.2, 31.5)">-</text><text xml:space="preserve" font-family="Avenir-Roman,Avenir" font-size="17.0" fill="#000000" transform="matrix(1.00, 0.00, -0.00, -1.00, 156.9, 31.5)"> </text><text xml:space="preserve" font-family="Avenir-Roman,Avenir" font-size="17.0" fill="#000000" transform="matrix(1.00, 0.00, -0.00, -1.00, 161.6, 31.5)">Q</text><text xml:space="preserve" font-family="Avenir-Roman,Avenir" font-size="17.0" fill="#000000" transform="matrix(1.00, 0.00, -0.00, -1.00, 175.8, 31.5)">w</text><text xml:space="preserve" font-family="Avenir-Roman,Avenir" font-size="17.0" fill="#000000" transform="matrix(1.00, 0.00, -0.00, -1.00, 188.4, 31.5)"> </text><text xml:space="preserve" font-family="Avenir-Roman,Avenir" font-size="17.0" fill="#000000" transform="matrix(1.00, 0.00, -0.00, -1.00, 193.1, 31.5)">=</text><text xml:space="preserve" font-family="Avenir-Roman,Avenir" font-size="17.0" fill="#000000" transform="matrix(1.00, 0.00, -0.00, -1.00, 204.5, 31.5)"> </text><text xml:space="preserve" font-family="Avenir-Roman,Avenir" font-size="17.0" fill="#000000" transform="matrix(1.00, 0.00, -0.00, -1.00, 209.2, 31.5)">5</text><text xml:space="preserve" font-family="Avenir-Roman,Avenir" font-size="17.0" fill="#000000" transform="matrix(1.00, 0.00, -0.00, -1.00, 218.6, 31.5)">0</text><text xml:space="preserve" font-family="Avenir-Roman,Avenir" font-size="17.0" fill="#000000" transform="matrix(1.00, 0.00, -0.00, -1.00, 228.1, 31.5)"> </text><text xml:space="preserve" font-family="Avenir-Roman,Avenir" font-size="17.0" fill="#000000" transform="matrix(1.00, 0.00, -0.00, -1.00, 232.8, 31.5)">m</text><text xml:space="preserve" font-family="Avenir-Roman,Avenir" font-size="17.0" fill="#000000" transform="matrix(1.00, 0.00, -0.00, -1.00, 247.3, 34.5)">3</text><text xml:space="preserve" font-family="Avenir-Roman,Avenir" font-size="17.0" fill="#000000" transform="matrix(1.00, 0.00, -0.00, -1.00, 256.8, 31.5)">/</text><text xml:space="preserve" font-family="Avenir-Roman,Avenir" font-size="17.0" fill="#000000" transform="matrix(1.00, 0.00, -0.00, -1.00, 263.0, 31.5)">s</text><text xml:space="preserve" font-family="Avenir-Roman,Avenir" font-size="17.0" fill="#000000" transform="matrix(1.00, 0.00, -0.00, -1.00, 270.3, 31.5)">,</text><text xml:space="preserve" font-family="Avenir-Roman,Avenir" font-size="17.0" fill="#000000" transform="matrix(1.00, 0.00, -0.00, -1.00, 275.0, 31.5)"> </text><text xml:space="preserve" font-family="Avenir-Roman,Avenir" font-size="17.0" fill="#000000" transform="matrix(1.00, 0.00, -0.00, -1.00, 1.4, 3.3)">-</text><text xml:space="preserve" font-family="Avenir-Roman,Avenir" font-size="17.0" fill="#000000" transform="matrix(1.00, 0.00, -0.00, -1.00, 7.1, 3.3)"> </text><text xml:space="preserve" font-family="Avenir-Roman,Avenir" font-size="17.0" fill="#000000" transform="matrix(1.00, 0.00, -0.00, -1.00, 11.8, 3.3)">C</text><text xml:space="preserve" font-family="Avenir-Roman,Avenir" font-size="17.0" fill="#000000" transform="matrix(1.00, 0.00, -0.00, -1.00, 23.8, 3.3)">s</text><text xml:space="preserve" font-family="Avenir-Roman,Avenir" font-size="17.0" fill="#000000" transform="matrix(1.00, 0.00, -0.00, -1.00, 31.0, 3.3)">e</text><text xml:space="preserve" font-family="Avenir-Roman,Avenir" font-size="17.0" fill="#000000" transform="matrix(1.00, 0.00, -0.00, -1.00, 40.5, 3.3)">d</text><text xml:space="preserve" font-family="Avenir-Roman,Avenir" font-size="17.0" fill="#000000" transform="matrix(1.00, 0.00, -0.00, -1.00, 50.8, 3.3)"> </text><text xml:space="preserve" font-family="Avenir-Roman,Avenir" font-size="17.0" fill="#000000" transform="matrix(1.00, 0.00, -0.00, -1.00, 55.6, 3.3)">=</text><text xml:space="preserve" font-family="Avenir-Roman,Avenir" font-size="17.0" fill="#000000" transform="matrix(1.00, 0.00, -0.00, -1.00, 66.9, 3.3)"> </text><text xml:space="preserve" font-family="Avenir-Roman,Avenir" font-size="17.0" fill="#000000" transform="matrix(1.00, 0.00, -0.00, -1.00, 71.6, 3.3)">1</text><text xml:space="preserve" font-family="Avenir-Roman,Avenir" font-size="17.0" fill="#000000" transform="matrix(1.00, 0.00, -0.00, -1.00, 81.1, 3.3)">.</text><text xml:space="preserve" font-family="Avenir-Roman,Avenir" font-size="17.0" fill="#000000" transform="matrix(1.00, 0.00, -0.00, -1.00, 85.8, 3.3)">5</text><text xml:space="preserve" font-family="Avenir-Roman,Avenir" font-size="17.0" fill="#000000" transform="matrix(1.00, 0.00, -0.00, -1.00, 95.3, 3.3)">%</text></g></svg>