<?xml version="1.0" encoding="UTF-8" standalone="no"?><svg xmlns="http://www.w3.org/2000/svg" xmlns:xlink="http://www.w3.org/1999/xlink" clip-rule="evenodd" stroke-miterlimit="10" viewBox="0 0 157 20"><desc>SVG generated by Keynote</desc><defs></defs><g transform="matrix(1.00, 0.00, -0.00, -1.00, 0.0, 20.0)"><text xml:space="preserve" font-family="GillSans,Gill Sans" font-size="18.0" fill="#163D40" transform="matrix(1.00, 0.00, -0.00, -1.00, 0.9, 6.1)">D</text><text xml:space="preserve" font-family="GillSans,Gill Sans" font-size="18.0" fill="#163D40" transform="matrix(1.00, 0.00, -0.00, -1.00, 14.4, 6.1)">i</text><text xml:space="preserve" font-family="GillSans,Gill Sans" font-size="18.0" fill="#163D40" transform="matrix(1.00, 0.00, -0.00, -1.00, 18.3, 6.1)">s</text><text xml:space="preserve" font-family="GillSans,Gill Sans" font-size="18.0" fill="#163D40" transform="matrix(1.00, 0.00, -0.00, -1.00, 25.3, 6.1)">t</text><text xml:space="preserve" font-family="GillSans,Gill Sans" font-size="18.0" fill="#163D40" transform="matrix(1.00, 0.00, -0.00, -1.00, 31.3, 6.1)">r</text><text xml:space="preserve" font-family="GillSans,Gill Sans" font-size="18.0" fill="#163D40" transform="matrix(1.00, 0.00, -0.00, -1.00, 38.4, 6.1)">i</text><text xml:space="preserve" font-family="GillSans,Gill Sans" font-size="18.0" fill="#163D40" transform="matrix(1.00, 0.00, -0.00, -1.00, 42.3, 6.1)">b</text><text xml:space="preserve" font-family="GillSans,Gill Sans" font-size="18.0" fill="#163D40" transform="matrix(1.00, 0.00, -0.00, -1.00, 51.3, 6.1)">u</text><text xml:space="preserve" font-family="GillSans,Gill Sans" font-size="18.0" fill="#163D40" transform="matrix(1.00, 0.00, -0.00, -1.00, 60.3, 6.1)">t</text><text xml:space="preserve" font-family="GillSans,Gill Sans" font-size="18.0" fill="#163D40" transform="matrix(1.00, 0.00, -0.00, -1.00, 66.3, 6.1)">a</text><text xml:space="preserve" font-family="GillSans,Gill Sans" font-size="18.0" fill="#163D40" transform="matrix(1.00, 0.00, -0.00, -1.00, 74.0, 6.1)">r</text><text xml:space="preserve" font-family="GillSans,Gill Sans" font-size="18.0" fill="#163D40" transform="matrix(1.00, 0.00, -0.00, -1.00, 81.7, 6.1)">y</text><text xml:space="preserve" font-family="GillSans,Gill Sans" font-size="18.0" fill="#163D40" transform="matrix(1.00, 0.00, -0.00, -1.00, 89.6, 6.1)"> </text><text xml:space="preserve" font-family="GillSans,Gill Sans" font-size="18.0" fill="#163D40" transform="matrix(1.00, 0.00, -0.00, -1.00, 94.6, 6.1)">c</text><text xml:space="preserve" font-family="GillSans,Gill Sans" font-size="18.0" fill="#163D40" transform="matrix(1.00, 0.00, -0.00, -1.00, 102.4, 6.1)">h</text><text xml:space="preserve" font-family="GillSans,Gill Sans" font-size="18.0" fill="#163D40" transform="matrix(1.00, 0.00, -0.00, -1.00, 111.4, 6.1)">a</text><text xml:space="preserve" font-family="GillSans,Gill Sans" font-size="18.0" fill="#163D40" transform="matrix(1.00, 0.00, -0.00, -1.00, 119.1, 6.1)">n</text><text xml:space="preserve" font-family="GillSans,Gill Sans" font-size="18.0" fill="#163D40" transform="matrix(1.00, 0.00, -0.00, -1.00, 128.1, 6.1)">n</text><text xml:space="preserve" font-family="GillSans,Gill Sans" font-size="18.0" fill="#163D40" transform="matrix(1.00, 0.00, -0.00, -1.00, 137.1, 6.1)">e</text><text xml:space="preserve" font-family="GillSans,Gill Sans" font-size="18.0" fill="#163D40" transform="matrix(1.00, 0.00, -0.00, -1.00, 145.7, 6.1)">l</text><text xml:space="preserve" font-family="GillSans,Gill Sans" font-size="18.0" fill="#163D40" transform="matrix(1.00, 0.00, -0.00, -1.00, 149.7, 6.1)">s</text></g></svg>