<?xml version="1.0" encoding="UTF-8" standalone="no"?><svg xmlns="http://www.w3.org/2000/svg" xmlns:xlink="http://www.w3.org/1999/xlink" clip-rule="evenodd" stroke-miterlimit="10" viewBox="0 0 127 17"><desc>SVG generated by Keynote</desc><defs></defs><g transform="matrix(1.00, 0.00, -0.00, -1.00, 0.0, 17.0)"><text xml:space="preserve" font-family="TrebuchetMS,Trebuchet MS" font-size="18.0" fill="#0F1154" transform="matrix(1.00, 0.00, -0.00, -1.00, 0.8, 1.5)">S</text><text xml:space="preserve" font-family="TrebuchetMS,Trebuchet MS" font-size="18.0" fill="#0F1154" transform="matrix(1.00, 0.00, -0.00, -1.00, 9.5, 1.5)">B</text><text xml:space="preserve" font-family="TrebuchetMS,Trebuchet MS" font-size="18.0" fill="#0F1154" transform="matrix(1.00, 0.00, -0.00, -1.00, 19.6, 1.5)">3</text><text xml:space="preserve" font-family="TrebuchetMS,Trebuchet MS" font-size="18.0" fill="#0F1154" transform="matrix(1.00, 0.00, -0.00, -1.00, 29.1, 1.5)"> </text><text xml:space="preserve" font-family="TrebuchetMS,Trebuchet MS" font-size="18.0" fill="#0F1154" transform="matrix(1.00, 0.00, -0.00, -1.00, 34.5, 1.5)">–</text><text xml:space="preserve" font-family="TrebuchetMS,Trebuchet MS" font-size="18.0" fill="#0F1154" transform="matrix(1.00, 0.00, -0.00, -1.00, 41.1, 1.5)"> </text><text xml:space="preserve" font-family="TrebuchetMS,Trebuchet MS" font-size="18.0" fill="#0F1154" transform="matrix(1.00, 0.00, -0.00, -1.00, 46.6, 1.5)">0</text><text xml:space="preserve" font-family="TrebuchetMS,Trebuchet MS" font-size="18.0" fill="#0F1154" transform="matrix(1.00, 0.00, -0.00, -1.00, 56.0, 1.5)">.</text><text xml:space="preserve" font-family="TrebuchetMS,Trebuchet MS" font-size="18.0" fill="#0F1154" transform="matrix(1.00, 0.00, -0.00, -1.00, 62.6, 1.5)">3</text><text xml:space="preserve" font-family="TrebuchetMS,Trebuchet MS" font-size="18.0" fill="#0F1154" transform="matrix(1.00, 0.00, -0.00, -1.00, 72.1, 1.5)"> </text><text xml:space="preserve" font-family="TrebuchetMS,Trebuchet MS" font-size="18.0" fill="#0F1154" transform="matrix(1.00, 0.00, -0.00, -1.00, 77.5, 1.5)">M</text><text xml:space="preserve" font-family="TrebuchetMS,Trebuchet MS" font-size="18.0" fill="#0F1154" transform="matrix(1.00, 0.00, -0.00, -1.00, 90.3, 1.5)">a</text><text xml:space="preserve" font-family="TrebuchetMS,Trebuchet MS" font-size="18.0" fill="#0F1154" transform="matrix(1.00, 0.00, -0.00, -1.00, 99.7, 1.5)"> </text><text xml:space="preserve" font-family="TrebuchetMS,Trebuchet MS" font-size="18.0" fill="#0F1154" transform="matrix(1.00, 0.00, -0.00, -1.00, 105.2, 1.5)">B</text><text xml:space="preserve" font-family="TrebuchetMS,Trebuchet MS" font-size="18.0" fill="#0F1154" transform="matrix(1.00, 0.00, -0.00, -1.00, 115.3, 1.5)">P</text></g></svg>