<?xml version="1.0" encoding="UTF-8" standalone="no"?><svg xmlns="http://www.w3.org/2000/svg" xmlns:xlink="http://www.w3.org/1999/xlink" clip-rule="evenodd" stroke-miterlimit="10" viewBox="0 0 1024 768"><desc>SVG generated by Keynote</desc><defs></defs><g transform="matrix(1.00, 0.00, -0.00, -1.00, 0.0, 768.0)"><path d="M 0.0 768.0 L 1024.0 768.0 L 1024.0 0.0 L 0.0 0.0 Z M 0.0 768.0 " fill="#FEFFFE"></path><text xml:space="preserve" font-family="HelveticaNeue-Medium,Helvetica Neue" font-size="42.0" fill="#000000" transform="matrix(1.00, 0.00, -0.00, -1.00, 49.0, 688.1)">B</text><text xml:space="preserve" font-family="HelveticaNeue-Medium,Helvetica Neue" font-size="42.0" fill="#000000" transform="matrix(1.00, 0.00, -0.00, -1.00, 78.6, 688.1)">o</text><text xml:space="preserve" font-family="HelveticaNeue-Medium,Helvetica Neue" font-size="42.0" fill="#000000" transform="matrix(1.00, 0.00, -0.00, -1.00, 103.5, 688.1)">n</text><text xml:space="preserve" font-family="HelveticaNeue-Medium,Helvetica Neue" font-size="42.0" fill="#000000" transform="matrix(1.00, 0.00, -0.00, -1.00, 127.6, 688.1)">a</text><text xml:space="preserve" font-family="HelveticaNeue-Medium,Helvetica Neue" font-size="42.0" fill="#000000" transform="matrix(1.00, 0.00, -0.00, -1.00, 150.9, 688.1)">p</text><text xml:space="preserve" font-family="HelveticaNeue-Medium,Helvetica Neue" font-size="42.0" fill="#000000" transform="matrix(1.00, 0.00, -0.00, -1.00, 176.6, 688.1)">a</text><text xml:space="preserve" font-family="HelveticaNeue-Medium,Helvetica Neue" font-size="42.0" fill="#000000" transform="matrix(1.00, 0.00, -0.00, -1.00, 199.9, 688.1)">r</text><text xml:space="preserve" font-family="HelveticaNeue-Medium,Helvetica Neue" font-size="42.0" fill="#000000" transform="matrix(1.00, 0.00, -0.00, -1.00, 214.7, 688.1)">t</text><text xml:space="preserve" font-family="HelveticaNeue-Medium,Helvetica Neue" font-size="42.0" fill="#000000" transform="matrix(1.00, 0.00, -0.00, -1.00, 228.7, 688.1)">e</text><text xml:space="preserve" font-family="HelveticaNeue-Medium,Helvetica Neue" font-size="42.0" fill="#000000" transform="matrix(1.00, 0.00, -0.00, -1.00, 252.1, 688.1)"> </text><text xml:space="preserve" font-family="HelveticaNeue-Medium,Helvetica Neue" font-size="42.0" fill="#000000" transform="matrix(1.00, 0.00, -0.00, -1.00, 263.7, 688.1)">s</text><text xml:space="preserve" font-family="HelveticaNeue-Medium,Helvetica Neue" font-size="42.0" fill="#000000" transform="matrix(1.00, 0.00, -0.00, -1.00, 285.5, 688.1)">h</text><text xml:space="preserve" font-family="HelveticaNeue-Medium,Helvetica Neue" font-size="42.0" fill="#000000" transform="matrix(1.00, 0.00, -0.00, -1.00, 309.7, 688.1)">e</text><text xml:space="preserve" font-family="HelveticaNeue-Medium,Helvetica Neue" font-size="42.0" fill="#000000" transform="matrix(1.00, 0.00, -0.00, -1.00, 333.0, 688.1)">l</text><text xml:space="preserve" font-family="HelveticaNeue-Medium,Helvetica Neue" font-size="42.0" fill="#000000" transform="matrix(1.00, 0.00, -0.00, -1.00, 343.1, 688.1)">f</text><text xml:space="preserve" font-family="HelveticaNeue-Medium,Helvetica Neue" font-size="42.0" fill="#000000" transform="matrix(1.00, 0.00, -0.00, -1.00, 356.4, 688.1)"> </text><text xml:space="preserve" font-family="HelveticaNeue-Medium,Helvetica Neue" font-size="42.0" fill="#000000" transform="matrix(1.00, 0.00, -0.00, -1.00, 368.0, 688.1)">e</text><text xml:space="preserve" font-family="HelveticaNeue-Medium,Helvetica Neue" font-size="42.0" fill="#000000" transform="matrix(1.00, 0.00, -0.00, -1.00, 391.4, 688.1)">d</text><text xml:space="preserve" font-family="HelveticaNeue-Medium,Helvetica Neue" font-size="42.0" fill="#000000" transform="matrix(1.00, 0.00, -0.00, -1.00, 417.0, 688.1)">g</text><text xml:space="preserve" font-family="HelveticaNeue-Medium,Helvetica Neue" font-size="42.0" fill="#000000" transform="matrix(1.00, 0.00, -0.00, -1.00, 442.0, 688.1)">e</text><text xml:space="preserve" font-family="HelveticaNeue-Medium,Helvetica Neue" font-size="42.0" fill="#000000" transform="matrix(1.00, 0.00, -0.00, -1.00, 465.3, 688.1)"> </text><text xml:space="preserve" font-family="HelveticaNeue-Medium,Helvetica Neue" font-size="42.0" fill="#000000" transform="matrix(1.00, 0.00, -0.00, -1.00, 477.0, 688.1)">d</text><text xml:space="preserve" font-family="HelveticaNeue-Medium,Helvetica Neue" font-size="42.0" fill="#000000" transform="matrix(1.00, 0.00, -0.00, -1.00, 502.6, 688.1)">e</text><text xml:space="preserve" font-family="HelveticaNeue-Medium,Helvetica Neue" font-size="42.0" fill="#000000" transform="matrix(1.00, 0.00, -0.00, -1.00, 526.0, 688.1)">l</text><text xml:space="preserve" font-family="HelveticaNeue-Medium,Helvetica Neue" font-size="42.0" fill="#000000" transform="matrix(1.00, 0.00, -0.00, -1.00, 536.1, 688.1)">t</text><text xml:space="preserve" font-family="HelveticaNeue-Medium,Helvetica Neue" font-size="42.0" fill="#000000" transform="matrix(1.00, 0.00, -0.00, -1.00, 550.1, 688.1)">a</text><text xml:space="preserve" font-family="HelveticaNeue,Helvetica Neue" font-size="30.8" fill="#747373" transform="matrix(1.00, 0.00, -0.00, -1.00, 49.0, 618.8)">•</text><text xml:space="preserve" font-family="HelveticaNeue-Medium,Helvetica Neue" font-size="23.0" fill="#747373" transform="matrix(1.00, 0.00, -0.00, -1.00, 64.0, 621.7)">W</text><text xml:space="preserve" font-family="HelveticaNeue-Medium,Helvetica Neue" font-size="23.0" fill="#747373" transform="matrix(1.00, 0.00, -0.00, -1.00, 85.7, 621.7)">h</text><text xml:space="preserve" font-family="HelveticaNeue-Medium,Helvetica Neue" font-size="23.0" fill="#747373" transform="matrix(1.00, 0.00, -0.00, -1.00, 98.9, 621.7)">a</text><text xml:space="preserve" font-family="HelveticaNeue-Medium,Helvetica Neue" font-size="23.0" fill="#747373" transform="matrix(1.00, 0.00, -0.00, -1.00, 111.7, 621.7)">t</text><text xml:space="preserve" font-family="HelveticaNeue-Medium,Helvetica Neue" font-size="23.0" fill="#747373" transform="matrix(1.00, 0.00, -0.00, -1.00, 119.4, 621.7)"> </text><text xml:space="preserve" font-family="HelveticaNeue-Medium,Helvetica Neue" font-size="23.0" fill="#747373" transform="matrix(1.00, 0.00, -0.00, -1.00, 125.8, 621.7)">w</text><text xml:space="preserve" font-family="HelveticaNeue-Medium,Helvetica Neue" font-size="23.0" fill="#747373" transform="matrix(1.00, 0.00, -0.00, -1.00, 143.6, 621.7)">e</text><text xml:space="preserve" font-family="HelveticaNeue-Medium,Helvetica Neue" font-size="23.0" fill="#747373" transform="matrix(1.00, 0.00, -0.00, -1.00, 156.4, 621.7)"> </text><text xml:space="preserve" font-family="HelveticaNeue-Medium,Helvetica Neue" font-size="23.0" fill="#747373" transform="matrix(1.00, 0.00, -0.00, -1.00, 162.8, 621.7)">k</text><text xml:space="preserve" font-family="HelveticaNeue-Medium,Helvetica Neue" font-size="23.0" fill="#747373" transform="matrix(1.00, 0.00, -0.00, -1.00, 175.2, 621.7)">n</text><text xml:space="preserve" font-family="HelveticaNeue-Medium,Helvetica Neue" font-size="23.0" fill="#747373" transform="matrix(1.00, 0.00, -0.00, -1.00, 188.4, 621.7)">o</text><text xml:space="preserve" font-family="HelveticaNeue-Medium,Helvetica Neue" font-size="23.0" fill="#747373" transform="matrix(1.00, 0.00, -0.00, -1.00, 202.0, 621.7)">w</text><text xml:space="preserve" font-family="HelveticaNeue-Medium,Helvetica Neue" font-size="23.0" fill="#747373" transform="matrix(1.00, 0.00, -0.00, -1.00, 219.9, 621.7)"> </text><text xml:space="preserve" font-family="HelveticaNeue-Medium,Helvetica Neue" font-size="23.0" fill="#747373" transform="matrix(1.00, 0.00, -0.00, -1.00, 226.3, 621.7)">f</text><text xml:space="preserve" font-family="HelveticaNeue-Medium,Helvetica Neue" font-size="23.0" fill="#747373" transform="matrix(1.00, 0.00, -0.00, -1.00, 233.6, 621.7)">r</text><text xml:space="preserve" font-family="HelveticaNeue-Medium,Helvetica Neue" font-size="23.0" fill="#747373" transform="matrix(1.00, 0.00, -0.00, -1.00, 241.2, 621.7)">o</text><text xml:space="preserve" font-family="HelveticaNeue-Medium,Helvetica Neue" font-size="23.0" fill="#747373" transform="matrix(1.00, 0.00, -0.00, -1.00, 254.9, 621.7)">m</text><text xml:space="preserve" font-family="HelveticaNeue-Medium,Helvetica Neue" font-size="23.0" fill="#747373" transform="matrix(1.00, 0.00, -0.00, -1.00, 274.9, 621.7)"> </text><text xml:space="preserve" font-family="HelveticaNeue-Medium,Helvetica Neue" font-size="23.0" fill="#747373" transform="matrix(1.00, 0.00, -0.00, -1.00, 281.3, 621.7)">t</text><text xml:space="preserve" font-family="HelveticaNeue-Medium,Helvetica Neue" font-size="23.0" fill="#747373" transform="matrix(1.00, 0.00, -0.00, -1.00, 288.9, 621.7)">h</text><text xml:space="preserve" font-family="HelveticaNeue-Medium,Helvetica Neue" font-size="23.0" fill="#747373" transform="matrix(1.00, 0.00, -0.00, -1.00, 302.1, 621.7)">e</text><text xml:space="preserve" font-family="HelveticaNeue-Medium,Helvetica Neue" font-size="23.0" fill="#747373" transform="matrix(1.00, 0.00, -0.00, -1.00, 314.9, 621.7)"> </text><text xml:space="preserve" font-family="HelveticaNeue-Medium,Helvetica Neue" font-size="23.0" fill="#747373" transform="matrix(1.00, 0.00, -0.00, -1.00, 321.3, 621.7)">B</text><text xml:space="preserve" font-family="HelveticaNeue-Medium,Helvetica Neue" font-size="23.0" fill="#747373" transform="matrix(1.00, 0.00, -0.00, -1.00, 337.5, 621.7)">o</text><text xml:space="preserve" font-family="HelveticaNeue-Medium,Helvetica Neue" font-size="23.0" fill="#747373" transform="matrix(1.00, 0.00, -0.00, -1.00, 351.2, 621.7)">n</text><text xml:space="preserve" font-family="HelveticaNeue-Medium,Helvetica Neue" font-size="23.0" fill="#747373" transform="matrix(1.00, 0.00, -0.00, -1.00, 364.4, 621.7)">a</text><text xml:space="preserve" font-family="HelveticaNeue-Medium,Helvetica Neue" font-size="23.0" fill="#747373" transform="matrix(1.00, 0.00, -0.00, -1.00, 377.1, 621.7)">p</text><text xml:space="preserve" font-family="HelveticaNeue-Medium,Helvetica Neue" font-size="23.0" fill="#747373" transform="matrix(1.00, 0.00, -0.00, -1.00, 391.2, 621.7)">a</text><text xml:space="preserve" font-family="HelveticaNeue-Medium,Helvetica Neue" font-size="23.0" fill="#747373" transform="matrix(1.00, 0.00, -0.00, -1.00, 404.0, 621.7)">r</text><text xml:space="preserve" font-family="HelveticaNeue-Medium,Helvetica Neue" font-size="23.0" fill="#747373" transform="matrix(1.00, 0.00, -0.00, -1.00, 412.1, 621.7)">t</text><text xml:space="preserve" font-family="HelveticaNeue-Medium,Helvetica Neue" font-size="23.0" fill="#747373" transform="matrix(1.00, 0.00, -0.00, -1.00, 419.7, 621.7)">e</text><text xml:space="preserve" font-family="HelveticaNeue-Medium,Helvetica Neue" font-size="23.0" fill="#747373" transform="matrix(1.00, 0.00, -0.00, -1.00, 432.5, 621.7)"> </text><text xml:space="preserve" font-family="HelveticaNeue-Medium,Helvetica Neue" font-size="23.0" fill="#747373" transform="matrix(1.00, 0.00, -0.00, -1.00, 438.9, 621.7)">d</text><text xml:space="preserve" font-family="HelveticaNeue-Medium,Helvetica Neue" font-size="23.0" fill="#747373" transform="matrix(1.00, 0.00, -0.00, -1.00, 453.0, 621.7)">e</text><text xml:space="preserve" font-family="HelveticaNeue-Medium,Helvetica Neue" font-size="23.0" fill="#747373" transform="matrix(1.00, 0.00, -0.00, -1.00, 465.8, 621.7)">l</text><text xml:space="preserve" font-family="HelveticaNeue-Medium,Helvetica Neue" font-size="23.0" fill="#747373" transform="matrix(1.00, 0.00, -0.00, -1.00, 471.3, 621.7)">t</text><text xml:space="preserve" font-family="HelveticaNeue-Medium,Helvetica Neue" font-size="23.0" fill="#747373" transform="matrix(1.00, 0.00, -0.00, -1.00, 479.0, 621.7)">a</text><text xml:space="preserve" font-family="HelveticaNeue-Medium,Helvetica Neue" font-size="23.0" fill="#747373" transform="matrix(1.00, 0.00, -0.00, -1.00, 491.8, 621.7)"> </text><text xml:space="preserve" font-family="HelveticaNeue-Medium,Helvetica Neue" font-size="23.0" fill="#747373" transform="matrix(1.00, 0.00, -0.00, -1.00, 498.1, 621.7)">f</text><text xml:space="preserve" font-family="HelveticaNeue-Medium,Helvetica Neue" font-size="23.0" fill="#747373" transform="matrix(1.00, 0.00, -0.00, -1.00, 505.4, 621.7)">r</text><text xml:space="preserve" font-family="HelveticaNeue-Medium,Helvetica Neue" font-size="23.0" fill="#747373" transform="matrix(1.00, 0.00, -0.00, -1.00, 513.1, 621.7)">o</text><text xml:space="preserve" font-family="HelveticaNeue-Medium,Helvetica Neue" font-size="23.0" fill="#747373" transform="matrix(1.00, 0.00, -0.00, -1.00, 526.7, 621.7)">m</text><text xml:space="preserve" font-family="HelveticaNeue-Medium,Helvetica Neue" font-size="23.0" fill="#747373" transform="matrix(1.00, 0.00, -0.00, -1.00, 546.7, 621.7)"> </text><text xml:space="preserve" font-family="HelveticaNeue-Medium,Helvetica Neue" font-size="23.0" fill="#747373" transform="matrix(1.00, 0.00, -0.00, -1.00, 553.1, 621.7)">t</text><text xml:space="preserve" font-family="HelveticaNeue-Medium,Helvetica Neue" font-size="23.0" fill="#747373" transform="matrix(1.00, 0.00, -0.00, -1.00, 560.8, 621.7)">h</text><text xml:space="preserve" font-family="HelveticaNeue-Medium,Helvetica Neue" font-size="23.0" fill="#747373" transform="matrix(1.00, 0.00, -0.00, -1.00, 574.0, 621.7)">e</text><text xml:space="preserve" font-family="HelveticaNeue-Medium,Helvetica Neue" font-size="23.0" fill="#747373" transform="matrix(1.00, 0.00, -0.00, -1.00, 586.8, 621.7)"> </text><text xml:space="preserve" font-family="HelveticaNeue-Medium,Helvetica Neue" font-size="23.0" fill="#747373" transform="matrix(1.00, 0.00, -0.00, -1.00, 593.2, 621.7)">d</text><text xml:space="preserve" font-family="HelveticaNeue-Medium,Helvetica Neue" font-size="23.0" fill="#747373" transform="matrix(1.00, 0.00, -0.00, -1.00, 607.2, 621.7)">a</text><text xml:space="preserve" font-family="HelveticaNeue-Medium,Helvetica Neue" font-size="23.0" fill="#747373" transform="matrix(1.00, 0.00, -0.00, -1.00, 620.0, 621.7)">t</text><text xml:space="preserve" font-family="HelveticaNeue-Medium,Helvetica Neue" font-size="23.0" fill="#747373" transform="matrix(1.00, 0.00, -0.00, -1.00, 627.7, 621.7)">a</text><text xml:space="preserve" font-family="HelveticaNeue-Medium,Helvetica Neue" font-size="23.0" fill="#747373" transform="matrix(1.00, 0.00, -0.00, -1.00, 640.4, 621.7)">?</text><g><clipPath id="clip0x7faba0dc0560"><path d="M 482.0 526.0 L 1037.0 526.0 L 1037.0 290.0 L 482.0 290.0 Z M 481.8 525.8 "></path></clipPath><g clip-path="url(#clip0x7faba0dc0560)"><image xlink:href="../../560F9BDE-1239-4AED-AF5B-3FFAD1179DCB/assets/0A5297595355703F792F1F7B85C5C0F6.jpeg" width="1027.00" height="325.00" transform="matrix(0.72, 0.00, -0.00, -0.73, 482.0, 526.0)"></image></g></g><text xml:space="preserve" font-family="HelveticaNeue-Medium,Helvetica Neue" font-size="18.0" fill="#941100" transform="matrix(1.00, 0.00, -0.00, -1.00, 560.3, 570.8)">S</text><text xml:space="preserve" font-family="HelveticaNeue-Medium,Helvetica Neue" font-size="18.0" fill="#941100" transform="matrix(1.00, 0.00, -0.00, -1.00, 572.0, 570.8)">u</text><text xml:space="preserve" font-family="HelveticaNeue-Medium,Helvetica Neue" font-size="18.0" fill="#941100" transform="matrix(1.00, 0.00, -0.00, -1.00, 582.3, 570.8)">b</text><text xml:space="preserve" font-family="HelveticaNeue-Medium,Helvetica Neue" font-size="18.0" fill="#941100" transform="matrix(1.00, 0.00, -0.00, -1.00, 593.3, 570.8)">s</text><text xml:space="preserve" font-family="HelveticaNeue-Medium,Helvetica Neue" font-size="18.0" fill="#941100" transform="matrix(1.00, 0.00, -0.00, -1.00, 602.7, 570.8)">i</text><text xml:space="preserve" font-family="HelveticaNeue-Medium,Helvetica Neue" font-size="18.0" fill="#941100" transform="matrix(1.00, 0.00, -0.00, -1.00, 607.0, 570.8)">d</text><text xml:space="preserve" font-family="HelveticaNeue-Medium,Helvetica Neue" font-size="18.0" fill="#941100" transform="matrix(1.00, 0.00, -0.00, -1.00, 618.0, 570.8)">e</text><text xml:space="preserve" font-family="HelveticaNeue-Medium,Helvetica Neue" font-size="18.0" fill="#941100" transform="matrix(1.00, 0.00, -0.00, -1.00, 628.0, 570.8)">n</text><text xml:space="preserve" font-family="HelveticaNeue-Medium,Helvetica Neue" font-size="18.0" fill="#941100" transform="matrix(1.00, 0.00, -0.00, -1.00, 638.3, 570.8)">c</text><text xml:space="preserve" font-family="HelveticaNeue-Medium,Helvetica Neue" font-size="18.0" fill="#941100" transform="matrix(1.00, 0.00, -0.00, -1.00, 648.4, 570.8)">e</text><text xml:space="preserve" font-family="HelveticaNeue-Medium,Helvetica Neue" font-size="18.0" fill="#941100" transform="matrix(1.00, 0.00, -0.00, -1.00, 658.4, 570.8)"> </text><g><clipPath id="clip0x7faba0dc6290"><path d="M -65.4 1.2 L 534.1 1.2 L 534.1 550.9 L -65.4 550.9 Z M -65.4 1.2 "></path></clipPath><g clip-path="url(#clip0x7faba0dc6290)"><image xlink:href="../../560F9BDE-1239-4AED-AF5B-3FFAD1179DCB/assets/10EF537B0669FC5C2623DA8282D3A613.jpeg" width="698.00" height="640.00" transform="matrix(0.86, 0.00, -0.00, -0.86, -65.0, 551.0)"></image></g></g><g><clipPath id="clip0x7faba0dc8400"><path d="M 388.3 39.1 L 531.5 134.1 L 550.9 104.8 L 407.8 9.8 Z M 388.3 39.1 "></path></clipPath><g clip-path="url(#clip0x7faba0dc8400)"><path d="M 389.7 38.8 L 531.2 132.7 L 549.5 105.0 L 408.0 11.2 Z M 389.7 38.8 " fill="#FFFFFF"></path></g></g><g><clipPath id="clip0x7faba0dc72e0"><path d="M 459.4 24.9 L 558.1 24.9 L 558.1 76.7 L 459.4 76.7 Z M 459.4 24.9 "></path></clipPath><g clip-path="url(#clip0x7faba0dc72e0)"><path d="M 460.0 76.0 L 557.0 76.0 L 557.0 26.0 L 460.0 26.0 Z M 460.4 75.7 " fill="#FFFFFF"></path></g></g><g><clipPath id="clip0x7faba0dc92d0"><path d="M 46.2 -59.0 L 542.2 -59.0 L 542.2 45.5 L 46.2 45.5 Z M 46.2 -59.0 "></path></clipPath><g clip-path="url(#clip0x7faba0dc92d0)"><path d="M 47.5 44.5 L 540.5 44.5 L 540.5 -57.5 L 47.5 -57.5 Z M 47.6 44.1 " fill="#FFFFFF"></path><path d="M -0.1 -0.4 L 492.9 -0.4 L 492.9 101.6 L -0.1 101.6 Z M 0.0 0.0 " fill="none" stroke="#FFFFFF" stroke-width="0.75" stroke-linejoin="bevel" transform="matrix(1.00, 0.00, 0.00, -1.00, 47.6, 44.1)"></path></g></g><text xml:space="preserve" font-family="HelveticaNeue-Medium,Helvetica Neue" font-size="18.0" fill="#941100" transform="matrix(1.00, 0.00, -0.00, -1.00, 52.6, 570.9)">S</text><text xml:space="preserve" font-family="HelveticaNeue-Medium,Helvetica Neue" font-size="18.0" fill="#941100" transform="matrix(1.00, 0.00, -0.00, -1.00, 64.3, 570.9)">e</text><text xml:space="preserve" font-family="HelveticaNeue-Medium,Helvetica Neue" font-size="18.0" fill="#941100" transform="matrix(1.00, 0.00, -0.00, -1.00, 74.3, 570.9)">i</text><text xml:space="preserve" font-family="HelveticaNeue-Medium,Helvetica Neue" font-size="18.0" fill="#941100" transform="matrix(1.00, 0.00, -0.00, -1.00, 78.7, 570.9)">s</text><text xml:space="preserve" font-family="HelveticaNeue-Medium,Helvetica Neue" font-size="18.0" fill="#941100" transform="matrix(1.00, 0.00, -0.00, -1.00, 88.0, 570.9)">m</text><text xml:space="preserve" font-family="HelveticaNeue-Medium,Helvetica Neue" font-size="18.0" fill="#941100" transform="matrix(1.00, 0.00, -0.00, -1.00, 103.7, 570.9)">i</text><text xml:space="preserve" font-family="HelveticaNeue-Medium,Helvetica Neue" font-size="18.0" fill="#941100" transform="matrix(1.00, 0.00, -0.00, -1.00, 108.0, 570.9)">c</text><text xml:space="preserve" font-family="HelveticaNeue-Medium,Helvetica Neue" font-size="18.0" fill="#941100" transform="matrix(1.00, 0.00, -0.00, -1.00, 118.0, 570.9)"> </text><text xml:space="preserve" font-family="HelveticaNeue-Medium,Helvetica Neue" font-size="18.0" fill="#941100" transform="matrix(1.00, 0.00, -0.00, -1.00, 123.0, 570.9)">&amp;</text><text xml:space="preserve" font-family="HelveticaNeue-Medium,Helvetica Neue" font-size="18.0" fill="#941100" transform="matrix(1.00, 0.00, -0.00, -1.00, 134.7, 570.9)"> </text><text xml:space="preserve" font-family="HelveticaNeue-Medium,Helvetica Neue" font-size="18.0" fill="#941100" transform="matrix(1.00, 0.00, -0.00, -1.00, 139.7, 570.9)">s</text><text xml:space="preserve" font-family="HelveticaNeue-Medium,Helvetica Neue" font-size="18.0" fill="#941100" transform="matrix(1.00, 0.00, -0.00, -1.00, 149.0, 570.9)">e</text><text xml:space="preserve" font-family="HelveticaNeue-Medium,Helvetica Neue" font-size="18.0" fill="#941100" transform="matrix(1.00, 0.00, -0.00, -1.00, 159.0, 570.9)">q</text><text xml:space="preserve" font-family="HelveticaNeue-Medium,Helvetica Neue" font-size="18.0" fill="#941100" transform="matrix(1.00, 0.00, -0.00, -1.00, 170.0, 570.9)">u</text><text xml:space="preserve" font-family="HelveticaNeue-Medium,Helvetica Neue" font-size="18.0" fill="#941100" transform="matrix(1.00, 0.00, -0.00, -1.00, 180.4, 570.9)">e</text><text xml:space="preserve" font-family="HelveticaNeue-Medium,Helvetica Neue" font-size="18.0" fill="#941100" transform="matrix(1.00, 0.00, -0.00, -1.00, 190.4, 570.9)">n</text><text xml:space="preserve" font-family="HelveticaNeue-Medium,Helvetica Neue" font-size="18.0" fill="#941100" transform="matrix(1.00, 0.00, -0.00, -1.00, 200.7, 570.9)">c</text><text xml:space="preserve" font-family="HelveticaNeue-Medium,Helvetica Neue" font-size="18.0" fill="#941100" transform="matrix(1.00, 0.00, -0.00, -1.00, 210.7, 570.9)">e</text><text xml:space="preserve" font-family="HelveticaNeue-Medium,Helvetica Neue" font-size="18.0" fill="#941100" transform="matrix(1.00, 0.00, -0.00, -1.00, 220.7, 570.9)"> </text><text xml:space="preserve" font-family="HelveticaNeue-Medium,Helvetica Neue" font-size="18.0" fill="#941100" transform="matrix(1.00, 0.00, -0.00, -1.00, 225.7, 570.9)">s</text><text xml:space="preserve" font-family="HelveticaNeue-Medium,Helvetica Neue" font-size="18.0" fill="#941100" transform="matrix(1.00, 0.00, -0.00, -1.00, 235.1, 570.9)">t</text><text xml:space="preserve" font-family="HelveticaNeue-Medium,Helvetica Neue" font-size="18.0" fill="#941100" transform="matrix(1.00, 0.00, -0.00, -1.00, 241.0, 570.9)">r</text><text xml:space="preserve" font-family="HelveticaNeue-Medium,Helvetica Neue" font-size="18.0" fill="#941100" transform="matrix(1.00, 0.00, -0.00, -1.00, 247.4, 570.9)">a</text><text xml:space="preserve" font-family="HelveticaNeue-Medium,Helvetica Neue" font-size="18.0" fill="#941100" transform="matrix(1.00, 0.00, -0.00, -1.00, 257.4, 570.9)">t</text><text xml:space="preserve" font-family="HelveticaNeue-Medium,Helvetica Neue" font-size="18.0" fill="#941100" transform="matrix(1.00, 0.00, -0.00, -1.00, 263.4, 570.9)">i</text><text xml:space="preserve" font-family="HelveticaNeue-Medium,Helvetica Neue" font-size="18.0" fill="#941100" transform="matrix(1.00, 0.00, -0.00, -1.00, 267.7, 570.9)">g</text><text xml:space="preserve" font-family="HelveticaNeue-Medium,Helvetica Neue" font-size="18.0" fill="#941100" transform="matrix(1.00, 0.00, -0.00, -1.00, 278.4, 570.9)">r</text><text xml:space="preserve" font-family="HelveticaNeue-Medium,Helvetica Neue" font-size="18.0" fill="#941100" transform="matrix(1.00, 0.00, -0.00, -1.00, 284.7, 570.9)">a</text><text xml:space="preserve" font-family="HelveticaNeue-Medium,Helvetica Neue" font-size="18.0" fill="#941100" transform="matrix(1.00, 0.00, -0.00, -1.00, 294.7, 570.9)">p</text><text xml:space="preserve" font-family="HelveticaNeue-Medium,Helvetica Neue" font-size="18.0" fill="#941100" transform="matrix(1.00, 0.00, -0.00, -1.00, 305.7, 570.9)">h</text><text xml:space="preserve" font-family="HelveticaNeue-Medium,Helvetica Neue" font-size="18.0" fill="#941100" transform="matrix(1.00, 0.00, -0.00, -1.00, 316.1, 570.9)">y</text><text xml:space="preserve" font-family="HelveticaNeue-Medium,Helvetica Neue" font-size="18.0" fill="#941100" transform="matrix(1.00, 0.00, -0.00, -1.00, 325.4, 570.9)"> </text><g><clipPath id="clip0x7faba0dd6e70"><path d="M 744.5 245.5 L 948.1 245.5 L 948.1 138.8 L 744.5 138.8 Z M 744.5 245.5 "></path></clipPath><g clip-path="url(#clip0x7faba0dd6e70)"><path d="M 745.0 245.0 L 846.3 245.0 L 846.3 209.8 L 745.0 209.8 Z M 745.0 245.0 " fill="#325D6A"></path><path d="M 846.3 245.0 L 947.6 245.0 L 947.6 209.8 L 846.3 209.8 Z M 846.3 245.0 " fill="#325D6A"></path><path d="M 745.0 209.8 L 846.3 209.8 L 846.3 174.5 L 745.0 174.5 Z M 745.0 209.8 " fill="#E8E8E8"></path><path d="M 745.0 174.5 L 846.3 174.5 L 846.3 139.3 L 745.0 139.3 Z M 745.0 174.5 " fill="#E8E8E8"></path></g></g><g><clipPath id="clip0x7faba0dd8b90"><path d="M 744.5 245.5 L 948.1 245.5 L 948.1 138.8 L 744.5 138.8 Z M 744.5 245.5 "></path></clipPath><g clip-path="url(#clip0x7faba0dd8b90)"><g><clipPath id="clip0x7faba0dd92e0"><path d="M 745.5 210.3 L 846.3 210.3 L 846.3 244.5 L 745.5 244.5 Z M 745.5 210.3 "></path></clipPath><g clip-path="url(#clip0x7faba0dd92e0)"><text xml:space="preserve" font-family="HelveticaNeue,Helvetica Neue" font-size="18.0" fill="#FEFFFE" transform="matrix(1.00, 0.00, -0.00, -1.00, 766.2, 220.8)">s</text><text xml:space="preserve" font-family="HelveticaNeue,Helvetica Neue" font-size="18.0" fill="#FEFFFE" transform="matrix(1.00, 0.00, -0.00, -1.00, 775.2, 220.8)">u</text><text xml:space="preserve" font-family="HelveticaNeue,Helvetica Neue" font-size="18.0" fill="#FEFFFE" transform="matrix(1.00, 0.00, -0.00, -1.00, 785.2, 220.8)">r</text><text xml:space="preserve" font-family="HelveticaNeue,Helvetica Neue" font-size="18.0" fill="#FEFFFE" transform="matrix(1.00, 0.00, -0.00, -1.00, 791.2, 220.8)">f</text><text xml:space="preserve" font-family="HelveticaNeue,Helvetica Neue" font-size="18.0" fill="#FEFFFE" transform="matrix(1.00, 0.00, -0.00, -1.00, 796.6, 220.8)">a</text><text xml:space="preserve" font-family="HelveticaNeue,Helvetica Neue" font-size="18.0" fill="#FEFFFE" transform="matrix(1.00, 0.00, -0.00, -1.00, 806.2, 220.8)">c</text><text xml:space="preserve" font-family="HelveticaNeue,Helvetica Neue" font-size="18.0" fill="#FEFFFE" transform="matrix(1.00, 0.00, -0.00, -1.00, 815.9, 220.8)">e</text></g></g></g></g><g><clipPath id="clip0x7faba0ddd810"><path d="M 744.5 245.5 L 948.1 245.5 L 948.1 138.8 L 744.5 138.8 Z M 744.5 245.5 "></path></clipPath><g clip-path="url(#clip0x7faba0ddd810)"><g><clipPath id="clip0x7faba0dddf20"><path d="M 846.3 210.3 L 947.1 210.3 L 947.1 244.5 L 846.3 244.5 Z M 846.3 210.3 "></path></clipPath><g clip-path="url(#clip0x7faba0dddf20)"><text xml:space="preserve" font-family="HelveticaNeue,Helvetica Neue" font-size="18.0" fill="#FEFFFE" transform="matrix(1.00, 0.00, -0.00, -1.00, 860.0, 220.8)">a</text><text xml:space="preserve" font-family="HelveticaNeue,Helvetica Neue" font-size="18.0" fill="#FEFFFE" transform="matrix(1.00, 0.00, -0.00, -1.00, 869.7, 220.8)">g</text><text xml:space="preserve" font-family="HelveticaNeue,Helvetica Neue" font-size="18.0" fill="#FEFFFE" transform="matrix(1.00, 0.00, -0.00, -1.00, 880.0, 220.8)">e</text><text xml:space="preserve" font-family="HelveticaNeue,Helvetica Neue" font-size="18.0" fill="#FEFFFE" transform="matrix(1.00, 0.00, -0.00, -1.00, 889.7, 220.8)"> </text><text xml:space="preserve" font-family="HelveticaNeue,Helvetica Neue" font-size="18.0" fill="#FEFFFE" transform="matrix(1.00, 0.00, -0.00, -1.00, 894.7, 220.8)">(</text><text xml:space="preserve" font-family="HelveticaNeue,Helvetica Neue" font-size="18.0" fill="#FEFFFE" transform="matrix(1.00, 0.00, -0.00, -1.00, 899.4, 220.8)">e</text><text xml:space="preserve" font-family="HelveticaNeue,Helvetica Neue" font-size="18.0" fill="#FEFFFE" transform="matrix(1.00, 0.00, -0.00, -1.00, 909.0, 220.8)">s</text><text xml:space="preserve" font-family="HelveticaNeue,Helvetica Neue" font-size="18.0" fill="#FEFFFE" transform="matrix(1.00, 0.00, -0.00, -1.00, 918.0, 220.8)">t</text><text xml:space="preserve" font-family="HelveticaNeue,Helvetica Neue" font-size="18.0" fill="#FEFFFE" transform="matrix(1.00, 0.00, -0.00, -1.00, 923.7, 220.8)">.</text><text xml:space="preserve" font-family="HelveticaNeue,Helvetica Neue" font-size="18.0" fill="#FEFFFE" transform="matrix(1.00, 0.00, -0.00, -1.00, 928.7, 220.8)">)</text></g></g></g></g><g><clipPath id="clip0x7faba0de28c0"><path d="M 744.5 245.5 L 948.1 245.5 L 948.1 138.8 L 744.5 138.8 Z M 744.5 245.5 "></path></clipPath><g clip-path="url(#clip0x7faba0de28c0)"><g><clipPath id="clip0x7faba0de2ff0"><path d="M 745.5 175.5 L 845.8 175.5 L 845.8 209.3 L 745.5 209.3 Z M 745.5 175.5 "></path></clipPath><g clip-path="url(#clip0x7faba0de2ff0)"><text xml:space="preserve" font-family="HelveticaNeue,Helvetica Neue" font-size="18.0" fill="#434343" transform="matrix(1.00, 0.00, -0.00, -1.00, 783.7, 185.6)">S</text><text xml:space="preserve" font-family="HelveticaNeue,Helvetica Neue" font-size="18.0" fill="#434343" transform="matrix(1.00, 0.00, -0.00, -1.00, 795.3, 185.6)">B</text></g></g></g></g><g><clipPath id="clip0x7faba0de48e0"><path d="M 744.5 245.5 L 948.1 245.5 L 948.1 138.8 L 744.5 138.8 Z M 744.5 245.5 "></path></clipPath><g clip-path="url(#clip0x7faba0de48e0)"><g><clipPath id="clip0x7faba0de5030"><path d="M 846.8 175.5 L 947.1 175.5 L 947.1 209.3 L 846.8 209.3 Z M 846.8 175.5 "></path></clipPath><g clip-path="url(#clip0x7faba0de5030)"><text xml:space="preserve" font-family="HelveticaNeue,Helvetica Neue" font-size="18.0" fill="#434343" transform="matrix(1.00, 0.00, -0.00, -1.00, 864.4, 185.6)">0</text><text xml:space="preserve" font-family="HelveticaNeue,Helvetica Neue" font-size="18.0" fill="#434343" transform="matrix(1.00, 0.00, -0.00, -1.00, 874.4, 185.6)">.</text><text xml:space="preserve" font-family="HelveticaNeue,Helvetica Neue" font-size="18.0" fill="#434343" transform="matrix(1.00, 0.00, -0.00, -1.00, 879.4, 185.6)">0</text><text xml:space="preserve" font-family="HelveticaNeue,Helvetica Neue" font-size="18.0" fill="#434343" transform="matrix(1.00, 0.00, -0.00, -1.00, 889.4, 185.6)">2</text><text xml:space="preserve" font-family="HelveticaNeue,Helvetica Neue" font-size="18.0" fill="#434343" transform="matrix(1.00, 0.00, -0.00, -1.00, 899.5, 185.6)"> </text><text xml:space="preserve" font-family="HelveticaNeue-Italic,Helvetica Neue" font-style="italic" font-size="18.0" fill="#434343" transform="matrix(1.00, 0.00, -0.00, -1.00, 904.5, 185.6)">M</text><text xml:space="preserve" font-family="HelveticaNeue-Italic,Helvetica Neue" font-style="italic" font-size="18.0" fill="#434343" transform="matrix(1.00, 0.00, -0.00, -1.00, 920.1, 185.6)">a</text></g></g></g></g><g><clipPath id="clip0x7faba0de9110"><path d="M 744.5 245.5 L 948.1 245.5 L 948.1 138.8 L 744.5 138.8 Z M 744.5 245.5 "></path></clipPath><g clip-path="url(#clip0x7faba0de9110)"><g><clipPath id="clip0x7faba0de9870"><path d="M 745.5 139.8 L 845.8 139.8 L 845.8 173.5 L 745.5 173.5 Z M 745.5 139.8 "></path></clipPath><g clip-path="url(#clip0x7faba0de9870)"><text xml:space="preserve" font-family="HelveticaNeue,Helvetica Neue" font-size="18.0" fill="#434343" transform="matrix(1.00, 0.00, -0.00, -1.00, 784.1, 149.9)">U</text><text xml:space="preserve" font-family="HelveticaNeue,Helvetica Neue" font-size="18.0" fill="#434343" transform="matrix(1.00, 0.00, -0.00, -1.00, 797.1, 149.9)">5</text></g></g></g></g><g><clipPath id="clip0x7faba0deb160"><path d="M 744.5 245.5 L 948.1 245.5 L 948.1 138.8 L 744.5 138.8 Z M 744.5 245.5 "></path></clipPath><g clip-path="url(#clip0x7faba0deb160)"><g><clipPath id="clip0x7faba0deb8b0"><path d="M 846.8 139.8 L 947.1 139.8 L 947.1 173.5 L 846.8 173.5 Z M 846.8 139.8 "></path></clipPath><g clip-path="url(#clip0x7faba0deb8b0)"><text xml:space="preserve" font-family="HelveticaNeue,Helvetica Neue" font-size="18.0" fill="#434343" transform="matrix(1.00, 0.00, -0.00, -1.00, 864.3, 149.9)">0</text><text xml:space="preserve" font-family="HelveticaNeue,Helvetica Neue" font-size="18.0" fill="#434343" transform="matrix(1.00, 0.00, -0.00, -1.00, 874.3, 149.9)">.</text><text xml:space="preserve" font-family="HelveticaNeue,Helvetica Neue" font-size="18.0" fill="#434343" transform="matrix(1.00, 0.00, -0.00, -1.00, 879.3, 149.9)">6</text><text xml:space="preserve" font-family="HelveticaNeue,Helvetica Neue" font-size="18.0" fill="#434343" transform="matrix(1.00, 0.00, -0.00, -1.00, 889.3, 149.9)">4</text><text xml:space="preserve" font-family="HelveticaNeue,Helvetica Neue" font-size="18.0" fill="#434343" transform="matrix(1.00, 0.00, -0.00, -1.00, 899.3, 149.9)"> </text><text xml:space="preserve" font-family="HelveticaNeue,Helvetica Neue" font-size="18.0" fill="#434343" transform="matrix(1.00, 0.00, -0.00, -1.00, 904.3, 149.9)">M</text><text xml:space="preserve" font-family="HelveticaNeue,Helvetica Neue" font-size="18.0" fill="#434343" transform="matrix(1.00, 0.00, -0.00, -1.00, 920.0, 149.9)">a</text></g></g></g></g><g><clipPath id="clip0x7faba0def0a0"><path d="M 744.5 245.5 L 948.1 245.5 L 948.1 138.8 L 744.5 138.8 Z M 744.5 245.5 "></path></clipPath><g clip-path="url(#clip0x7faba0def0a0)"><path d="M 1.5 72.5 L 103.3 72.5 " fill="none" stroke="#C3C5C5" stroke-width="2.00" transform="matrix(1.00, 0.00, 0.00, -1.00, 743.0, 247.0)"></path><path d="M 103.3 72.5 L 205.1 72.5 " fill="none" stroke="#C3C5C5" stroke-width="2.00" transform="matrix(1.00, 0.00, 0.00, -1.00, 743.0, 247.0)"></path><path d="M 103.3 36.7 L 103.3 108.2 " fill="none" stroke="#C3C5C5" stroke-width="1.00" transform="matrix(1.00, 0.00, 0.00, -1.00, 743.0, 247.0)"></path><path d="M 2.0 1.5 L 2.0 37.2 " fill="none" stroke="#000000" stroke-width="1.00" transform="matrix(1.00, 0.00, 0.00, -1.00, 743.0, 247.0)"></path><path d="M 2.0 37.2 L 2.0 108.2 " fill="none" stroke="#000000" stroke-width="1.00" transform="matrix(1.00, 0.00, 0.00, -1.00, 743.0, 247.0)"></path><path d="M 204.6 1.5 L 204.6 37.2 " fill="none" stroke="#000000" stroke-width="1.00" transform="matrix(1.00, 0.00, 0.00, -1.00, 743.0, 247.0)"></path><path d="M 204.6 37.2 L 204.6 108.2 " fill="none" stroke="#000000" stroke-width="1.00" transform="matrix(1.00, 0.00, 0.00, -1.00, 743.0, 247.0)"></path><path d="M 1.5 2.0 L 205.1 2.0 " fill="none" stroke="#000000" stroke-width="1.00" transform="matrix(1.00, 0.00, 0.00, -1.00, 743.0, 247.0)"></path><path d="M 1.5 107.7 L 103.3 107.7 " fill="none" stroke="#000000" stroke-width="1.00" transform="matrix(1.00, 0.00, 0.00, -1.00, 743.0, 247.0)"></path><path d="M 103.3 107.7 L 205.1 107.7 " fill="none" stroke="#000000" stroke-width="1.00" transform="matrix(1.00, 0.00, 0.00, -1.00, 743.0, 247.0)"></path></g></g><text xml:space="preserve" font-family="HelveticaNeue-Medium,Helvetica Neue" font-size="18.0" fill="#000000" transform="matrix(1.00, 0.00, -0.00, -1.00, 729.3, 106.9)">M</text><text xml:space="preserve" font-family="HelveticaNeue-Medium,Helvetica Neue" font-size="18.0" fill="#000000" transform="matrix(1.00, 0.00, -0.00, -1.00, 745.3, 106.9)">e</text><text xml:space="preserve" font-family="HelveticaNeue-Medium,Helvetica Neue" font-size="18.0" fill="#000000" transform="matrix(1.00, 0.00, -0.00, -1.00, 755.3, 106.9)">a</text><text xml:space="preserve" font-family="HelveticaNeue-Medium,Helvetica Neue" font-size="18.0" fill="#000000" transform="matrix(1.00, 0.00, -0.00, -1.00, 765.3, 106.9)">n</text><text xml:space="preserve" font-family="HelveticaNeue-Medium,Helvetica Neue" font-size="18.0" fill="#000000" transform="matrix(1.00, 0.00, -0.00, -1.00, 775.6, 106.9)"> </text><text xml:space="preserve" font-family="HelveticaNeue-Medium,Helvetica Neue" font-size="18.0" fill="#000000" transform="matrix(1.00, 0.00, -0.00, -1.00, 780.6, 106.9)">e</text><text xml:space="preserve" font-family="HelveticaNeue-Medium,Helvetica Neue" font-size="18.0" fill="#000000" transform="matrix(1.00, 0.00, -0.00, -1.00, 790.6, 106.9)">s</text><text xml:space="preserve" font-family="HelveticaNeue-Medium,Helvetica Neue" font-size="18.0" fill="#000000" transform="matrix(1.00, 0.00, -0.00, -1.00, 800.0, 106.9)">t</text><text xml:space="preserve" font-family="HelveticaNeue-Medium,Helvetica Neue" font-size="18.0" fill="#000000" transform="matrix(1.00, 0.00, -0.00, -1.00, 806.0, 106.9)">i</text><text xml:space="preserve" font-family="HelveticaNeue-Medium,Helvetica Neue" font-size="18.0" fill="#000000" transform="matrix(1.00, 0.00, -0.00, -1.00, 810.3, 106.9)">m</text><text xml:space="preserve" font-family="HelveticaNeue-Medium,Helvetica Neue" font-size="18.0" fill="#000000" transform="matrix(1.00, 0.00, -0.00, -1.00, 826.0, 106.9)">a</text><text xml:space="preserve" font-family="HelveticaNeue-Medium,Helvetica Neue" font-size="18.0" fill="#000000" transform="matrix(1.00, 0.00, -0.00, -1.00, 836.0, 106.9)">t</text><text xml:space="preserve" font-family="HelveticaNeue-Medium,Helvetica Neue" font-size="18.0" fill="#000000" transform="matrix(1.00, 0.00, -0.00, -1.00, 842.0, 106.9)">e</text><text xml:space="preserve" font-family="HelveticaNeue-Medium,Helvetica Neue" font-size="18.0" fill="#000000" transform="matrix(1.00, 0.00, -0.00, -1.00, 852.0, 106.9)">d</text><text xml:space="preserve" font-family="HelveticaNeue-Medium,Helvetica Neue" font-size="18.0" fill="#000000" transform="matrix(1.00, 0.00, -0.00, -1.00, 863.0, 106.9)"> </text><text xml:space="preserve" font-family="HelveticaNeue-Medium,Helvetica Neue" font-size="18.0" fill="#000000" transform="matrix(1.00, 0.00, -0.00, -1.00, 868.0, 106.9)">s</text><text xml:space="preserve" font-family="HelveticaNeue-Medium,Helvetica Neue" font-size="18.0" fill="#000000" transform="matrix(1.00, 0.00, -0.00, -1.00, 877.3, 106.9)">u</text><text xml:space="preserve" font-family="HelveticaNeue-Medium,Helvetica Neue" font-size="18.0" fill="#000000" transform="matrix(1.00, 0.00, -0.00, -1.00, 887.6, 106.9)">b</text><text xml:space="preserve" font-family="HelveticaNeue-Medium,Helvetica Neue" font-size="18.0" fill="#000000" transform="matrix(1.00, 0.00, -0.00, -1.00, 898.6, 106.9)">s</text><text xml:space="preserve" font-family="HelveticaNeue-Medium,Helvetica Neue" font-size="18.0" fill="#000000" transform="matrix(1.00, 0.00, -0.00, -1.00, 908.0, 106.9)">i</text><text xml:space="preserve" font-family="HelveticaNeue-Medium,Helvetica Neue" font-size="18.0" fill="#000000" transform="matrix(1.00, 0.00, -0.00, -1.00, 912.3, 106.9)">d</text><text xml:space="preserve" font-family="HelveticaNeue-Medium,Helvetica Neue" font-size="18.0" fill="#000000" transform="matrix(1.00, 0.00, -0.00, -1.00, 923.3, 106.9)">e</text><text xml:space="preserve" font-family="HelveticaNeue-Medium,Helvetica Neue" font-size="18.0" fill="#000000" transform="matrix(1.00, 0.00, -0.00, -1.00, 933.3, 106.9)">n</text><text xml:space="preserve" font-family="HelveticaNeue-Medium,Helvetica Neue" font-size="18.0" fill="#000000" transform="matrix(1.00, 0.00, -0.00, -1.00, 943.7, 106.9)">c</text><text xml:space="preserve" font-family="HelveticaNeue-Medium,Helvetica Neue" font-size="18.0" fill="#000000" transform="matrix(1.00, 0.00, -0.00, -1.00, 953.7, 106.9)">e</text><text xml:space="preserve" font-family="HelveticaNeue-Medium,Helvetica Neue" font-size="18.0" fill="#000000" transform="matrix(1.00, 0.00, -0.00, -1.00, 963.7, 106.9)"> </text><text xml:space="preserve" font-family="HelveticaNeue-Medium,Helvetica Neue" font-size="18.0" fill="#763A33" transform="matrix(1.00, 0.00, -0.00, -1.00, 802.1, 83.9)">2</text><text xml:space="preserve" font-family="HelveticaNeue-Medium,Helvetica Neue" font-size="18.0" fill="#763A33" transform="matrix(1.00, 0.00, -0.00, -1.00, 812.1, 83.9)">1</text><text xml:space="preserve" font-family="HelveticaNeue-Medium,Helvetica Neue" font-size="18.0" fill="#763A33" transform="matrix(1.00, 0.00, -0.00, -1.00, 822.1, 83.9)">3</text><text xml:space="preserve" font-family="HelveticaNeue-Medium,Helvetica Neue" font-size="18.0" fill="#763A33" transform="matrix(1.00, 0.00, -0.00, -1.00, 832.1, 83.9)"> </text><text xml:space="preserve" font-family="HelveticaNeue-Medium,Helvetica Neue" font-size="18.0" fill="#763A33" transform="matrix(1.00, 0.00, -0.00, -1.00, 837.1, 83.9)">m</text><text xml:space="preserve" font-family="HelveticaNeue-Medium,Helvetica Neue" font-size="18.0" fill="#763A33" transform="matrix(1.00, 0.00, -0.00, -1.00, 852.8, 83.9)">/</text><text xml:space="preserve" font-family="HelveticaNeue-Medium,Helvetica Neue" font-size="18.0" fill="#763A33" transform="matrix(1.00, 0.00, -0.00, -1.00, 859.1, 83.9)">M</text><text xml:space="preserve" font-family="HelveticaNeue-Medium,Helvetica Neue" font-size="18.0" fill="#763A33" transform="matrix(1.00, 0.00, -0.00, -1.00, 875.1, 83.9)">y</text><text xml:space="preserve" font-family="HelveticaNeue-Medium,Helvetica Neue" font-size="18.0" fill="#763A33" transform="matrix(1.00, 0.00, -0.00, -1.00, 884.5, 83.9)">r</text><text xml:space="preserve" font-family="HelveticaNeue-Medium,Helvetica Neue" font-size="15.0" fill="#62647A" transform="matrix(1.00, 0.00, -0.00, -1.00, 698.1, 9.8)">B</text><text xml:space="preserve" font-family="HelveticaNeue-Medium,Helvetica Neue" font-size="15.0" fill="#62647A" transform="matrix(1.00, 0.00, -0.00, -1.00, 708.6, 9.8)">o</text><text xml:space="preserve" font-family="HelveticaNeue-Medium,Helvetica Neue" font-size="15.0" fill="#62647A" transform="matrix(1.00, 0.00, -0.00, -1.00, 717.5, 9.8)">u</text><text xml:space="preserve" font-family="HelveticaNeue-Medium,Helvetica Neue" font-size="15.0" fill="#62647A" transform="matrix(1.00, 0.00, -0.00, -1.00, 726.1, 9.8)">r</text><text xml:space="preserve" font-family="HelveticaNeue-Medium,Helvetica Neue" font-size="15.0" fill="#62647A" transform="matrix(1.00, 0.00, -0.00, -1.00, 731.4, 9.8)">g</text><text xml:space="preserve" font-family="HelveticaNeue-Medium,Helvetica Neue" font-size="15.0" fill="#62647A" transform="matrix(1.00, 0.00, -0.00, -1.00, 740.3, 9.8)">e</text><text xml:space="preserve" font-family="HelveticaNeue-Medium,Helvetica Neue" font-size="15.0" fill="#62647A" transform="matrix(1.00, 0.00, -0.00, -1.00, 748.7, 9.8)">t</text><text xml:space="preserve" font-family="HelveticaNeue-Medium,Helvetica Neue" font-size="15.0" fill="#62647A" transform="matrix(1.00, 0.00, -0.00, -1.00, 753.7, 9.8)"> </text><text xml:space="preserve" font-family="HelveticaNeue-Bold,Helvetica Neue" font-weight="bold" font-size="15.0" fill="#62647A" transform="matrix(1.00, 0.00, -0.00, -1.00, 757.8, 9.8)">S</text><text xml:space="preserve" font-family="HelveticaNeue-Bold,Helvetica Neue" font-weight="bold" font-size="15.0" fill="#62647A" transform="matrix(1.00, 0.00, -0.00, -1.00, 767.6, 9.8)">a</text><text xml:space="preserve" font-family="HelveticaNeue-Bold,Helvetica Neue" font-weight="bold" font-size="15.0" fill="#62647A" transform="matrix(1.00, 0.00, -0.00, -1.00, 776.2, 9.8)">l</text><text xml:space="preserve" font-family="HelveticaNeue-Bold,Helvetica Neue" font-weight="bold" font-size="15.0" fill="#62647A" transform="matrix(1.00, 0.00, -0.00, -1.00, 780.0, 9.8)">l</text><text xml:space="preserve" font-family="HelveticaNeue-Bold,Helvetica Neue" font-weight="bold" font-size="15.0" fill="#62647A" transform="matrix(1.00, 0.00, -0.00, -1.00, 783.9, 9.8)">e</text><text xml:space="preserve" font-family="HelveticaNeue-Bold,Helvetica Neue" font-weight="bold" font-size="15.0" fill="#62647A" transform="matrix(1.00, 0.00, -0.00, -1.00, 792.5, 9.8)">s</text><text xml:space="preserve" font-family="HelveticaNeue-Medium,Helvetica Neue" font-size="15.0" fill="#62647A" transform="matrix(1.00, 0.00, -0.00, -1.00, 800.6, 9.8)"> </text><text xml:space="preserve" font-family="HelveticaNeue-Medium,Helvetica Neue" font-size="15.0" fill="#62647A" transform="matrix(1.00, 0.00, -0.00, -1.00, 804.7, 9.8)">A</text><text xml:space="preserve" font-family="HelveticaNeue-Medium,Helvetica Neue" font-size="15.0" fill="#62647A" transform="matrix(1.00, 0.00, -0.00, -1.00, 814.7, 9.8)">i</text><text xml:space="preserve" font-family="HelveticaNeue-Medium,Helvetica Neue" font-size="15.0" fill="#62647A" transform="matrix(1.00, 0.00, -0.00, -1.00, 818.4, 9.8)">n</text><text xml:space="preserve" font-family="HelveticaNeue-Medium,Helvetica Neue" font-size="15.0" fill="#62647A" transform="matrix(1.00, 0.00, -0.00, -1.00, 827.0, 9.8)">s</text><text xml:space="preserve" font-family="HelveticaNeue-Medium,Helvetica Neue" font-size="15.0" fill="#62647A" transform="matrix(1.00, 0.00, -0.00, -1.00, 834.8, 9.8)">w</text><text xml:space="preserve" font-family="HelveticaNeue-Medium,Helvetica Neue" font-size="15.0" fill="#62647A" transform="matrix(1.00, 0.00, -0.00, -1.00, 846.4, 9.8)">o</text><text xml:space="preserve" font-family="HelveticaNeue-Medium,Helvetica Neue" font-size="15.0" fill="#62647A" transform="matrix(1.00, 0.00, -0.00, -1.00, 855.3, 9.8)">r</text><text xml:space="preserve" font-family="HelveticaNeue-Medium,Helvetica Neue" font-size="15.0" fill="#62647A" transform="matrix(1.00, 0.00, -0.00, -1.00, 860.6, 9.8)">t</text><text xml:space="preserve" font-family="HelveticaNeue-Medium,Helvetica Neue" font-size="15.0" fill="#62647A" transform="matrix(1.00, 0.00, -0.00, -1.00, 865.6, 9.8)">h</text><text xml:space="preserve" font-family="HelveticaNeue-Medium,Helvetica Neue" font-size="15.0" fill="#62647A" transform="matrix(1.00, 0.00, -0.00, -1.00, 874.2, 9.8)"> </text><text xml:space="preserve" font-family="HelveticaNeue-Medium,Helvetica Neue" font-size="15.0" fill="#62647A" transform="matrix(1.00, 0.00, -0.00, -1.00, 878.4, 9.8)">D</text><text xml:space="preserve" font-family="HelveticaNeue-Medium,Helvetica Neue" font-size="15.0" fill="#62647A" transform="matrix(1.00, 0.00, -0.00, -1.00, 889.2, 9.8)">u</text><text xml:space="preserve" font-family="HelveticaNeue-Medium,Helvetica Neue" font-size="15.0" fill="#62647A" transform="matrix(1.00, 0.00, -0.00, -1.00, 897.8, 9.8)">c</text><text xml:space="preserve" font-family="HelveticaNeue-Medium,Helvetica Neue" font-size="15.0" fill="#62647A" transform="matrix(1.00, 0.00, -0.00, -1.00, 906.2, 9.8)">l</text><text xml:space="preserve" font-family="HelveticaNeue-Medium,Helvetica Neue" font-size="15.0" fill="#62647A" transform="matrix(1.00, 0.00, -0.00, -1.00, 909.8, 9.8)">a</text><text xml:space="preserve" font-family="HelveticaNeue-Medium,Helvetica Neue" font-size="15.0" fill="#62647A" transform="matrix(1.00, 0.00, -0.00, -1.00, 918.1, 9.8)">u</text><text xml:space="preserve" font-family="HelveticaNeue-Medium,Helvetica Neue" font-size="15.0" fill="#62647A" transform="matrix(1.00, 0.00, -0.00, -1.00, 926.7, 9.8)">x</text><text xml:space="preserve" font-family="HelveticaNeue-Medium,Helvetica Neue" font-size="15.0" fill="#62647A" transform="matrix(1.00, 0.00, -0.00, -1.00, 934.8, 9.8)"> </text><text xml:space="preserve" font-family="HelveticaNeue-Medium,Helvetica Neue" font-size="15.0" fill="#62647A" transform="matrix(1.00, 0.00, -0.00, -1.00, 938.9, 9.8)">A</text><text xml:space="preserve" font-family="HelveticaNeue-Medium,Helvetica Neue" font-size="15.0" fill="#62647A" transform="matrix(1.00, 0.00, -0.00, -1.00, 949.0, 9.8)">A</text><text xml:space="preserve" font-family="HelveticaNeue-Medium,Helvetica Neue" font-size="15.0" fill="#62647A" transform="matrix(1.00, 0.00, -0.00, -1.00, 959.0, 9.8)">P</text><text xml:space="preserve" font-family="HelveticaNeue-Medium,Helvetica Neue" font-size="15.0" fill="#62647A" transform="matrix(1.00, 0.00, -0.00, -1.00, 969.0, 9.8)">G</text><text xml:space="preserve" font-family="HelveticaNeue-Medium,Helvetica Neue" font-size="15.0" fill="#62647A" transform="matrix(1.00, 0.00, -0.00, -1.00, 980.3, 9.8)"> </text><text xml:space="preserve" font-family="HelveticaNeue-Medium,Helvetica Neue" font-size="15.0" fill="#62647A" transform="matrix(1.00, 0.00, -0.00, -1.00, 984.5, 9.8)">2</text><text xml:space="preserve" font-family="HelveticaNeue-Medium,Helvetica Neue" font-size="15.0" fill="#62647A" transform="matrix(1.00, 0.00, -0.00, -1.00, 992.9, 9.8)">0</text><text xml:space="preserve" font-family="HelveticaNeue-Medium,Helvetica Neue" font-size="15.0" fill="#62647A" transform="matrix(1.00, 0.00, -0.00, -1.00, 1001.2, 9.8)">1</text><text xml:space="preserve" font-family="HelveticaNeue-Medium,Helvetica Neue" font-size="15.0" fill="#62647A" transform="matrix(1.00, 0.00, -0.00, -1.00, 1009.5, 9.8)">3</text><text xml:space="preserve" font-family="HelveticaNeue-Medium,Helvetica Neue" font-size="15.0" fill="#62647A" transform="matrix(1.00, 0.00, -0.00, -1.00, 1017.9, 9.8)"> </text><path d="M 529.5 520.5 L 555.5 520.5 L 555.5 319.5 L 529.5 319.5 Z M 530.0 520.4 " fill="#FFFFFF"></path><path d="M -0.5 -0.1 L 25.5 -0.1 L 25.5 200.9 L -0.5 200.9 Z M 0.0 0.0 " fill="none" stroke="#FFFFFF" stroke-width="0.75" stroke-linejoin="bevel" transform="matrix(1.00, 0.00, 0.00, -1.00, 530.0, 520.4)"></path><path d="M -23.5 508.5 L 1.5 508.5 L 1.5 296.5 L -23.5 296.5 Z M -23.6 508.6 " fill="#FFFFFF"></path><path d="M 0.1 0.1 L 25.1 0.1 L 25.1 212.1 L 0.1 212.1 Z M 0.0 0.0 " fill="none" stroke="#FFFFFF" stroke-width="0.75" stroke-linejoin="bevel" transform="matrix(1.00, 0.00, 0.00, -1.00, -23.6, 508.6)"></path></g></svg>