<?xml version="1.0" encoding="UTF-8" standalone="no"?><svg xmlns="http://www.w3.org/2000/svg" xmlns:xlink="http://www.w3.org/1999/xlink" clip-rule="evenodd" stroke-miterlimit="10" viewBox="0 0 521 114"><desc>SVG generated by Keynote</desc><defs></defs><g transform="matrix(1.00, 0.00, -0.00, -1.00, 0.0, 114.0)"><path d="M 0.0 113.0 L 521.0 113.0 L 521.0 3.0 L 0.0 3.0 Z M 0.0 112.9 " fill="#FEFFFE"></path><image xlink:href="3DF2B20908905E0DF9602187183254A0.png" width="519.00" height="111.00" transform="matrix(1.00, 0.00, -0.00, 1.00, 1.0, 1.7)"></image><g><clipPath id="clip0x7faba0ab40a0"><path d="M -0.9 1.9 L 521.8 1.9 L 521.8 113.8 L -0.9 113.8 Z M -0.9 1.9 "></path></clipPath><g clip-path="url(#clip0x7faba0ab40a0)"><text xml:space="preserve" font-family="HelveticaNeue-Medium,Helvetica Neue" font-size="20.0" fill="#62647A" transform="matrix(1.00, 0.00, -0.00, -1.00, 5.0, 87.8)">R</text><text xml:space="preserve" font-family="HelveticaNeue-Medium,Helvetica Neue" font-size="20.0" fill="#62647A" transform="matrix(1.00, 0.00, -0.00, -1.00, 19.1, 87.8)">e</text><text xml:space="preserve" font-family="HelveticaNeue-Medium,Helvetica Neue" font-size="20.0" fill="#62647A" transform="matrix(1.00, 0.00, -0.00, -1.00, 30.2, 87.8)">t</text><text xml:space="preserve" font-family="HelveticaNeue-Medium,Helvetica Neue" font-size="20.0" fill="#62647A" transform="matrix(1.00, 0.00, -0.00, -1.00, 36.9, 87.8)">r</text><text xml:space="preserve" font-family="HelveticaNeue-Medium,Helvetica Neue" font-size="20.0" fill="#62647A" transform="matrix(1.00, 0.00, -0.00, -1.00, 43.6, 87.8)">o</text><text xml:space="preserve" font-family="HelveticaNeue-Medium,Helvetica Neue" font-size="20.0" fill="#62647A" transform="matrix(1.00, 0.00, -0.00, -1.00, 55.4, 87.8)">g</text><text xml:space="preserve" font-family="HelveticaNeue-Medium,Helvetica Neue" font-size="20.0" fill="#62647A" transform="matrix(1.00, 0.00, -0.00, -1.00, 67.3, 87.8)">r</text><text xml:space="preserve" font-family="HelveticaNeue-Medium,Helvetica Neue" font-size="20.0" fill="#62647A" transform="matrix(1.00, 0.00, -0.00, -1.00, 74.3, 87.8)">a</text><text xml:space="preserve" font-family="HelveticaNeue-Medium,Helvetica Neue" font-size="20.0" fill="#62647A" transform="matrix(1.00, 0.00, -0.00, -1.00, 85.4, 87.8)">d</text><text xml:space="preserve" font-family="HelveticaNeue-Medium,Helvetica Neue" font-size="20.0" fill="#62647A" transform="matrix(1.00, 0.00, -0.00, -1.00, 97.7, 87.8)">a</text><text xml:space="preserve" font-family="HelveticaNeue-Medium,Helvetica Neue" font-size="20.0" fill="#62647A" transform="matrix(1.00, 0.00, -0.00, -1.00, 108.8, 87.8)">t</text><text xml:space="preserve" font-family="HelveticaNeue-Medium,Helvetica Neue" font-size="20.0" fill="#62647A" transform="matrix(1.00, 0.00, -0.00, -1.00, 115.4, 87.8)">i</text><text xml:space="preserve" font-family="HelveticaNeue-Medium,Helvetica Neue" font-size="20.0" fill="#62647A" transform="matrix(1.00, 0.00, -0.00, -1.00, 120.3, 87.8)">o</text><text xml:space="preserve" font-family="HelveticaNeue-Medium,Helvetica Neue" font-size="20.0" fill="#62647A" transform="matrix(1.00, 0.00, -0.00, -1.00, 132.1, 87.8)">n</text><text xml:space="preserve" font-family="HelveticaNeue-Medium,Helvetica Neue" font-size="20.0" fill="#62647A" transform="matrix(1.00, 0.00, -0.00, -1.00, 143.6, 87.8)"> </text><text xml:space="preserve" font-family="HelveticaNeue-Medium,Helvetica Neue" font-size="20.0" fill="#62647A" transform="matrix(1.00, 0.00, -0.00, -1.00, 149.2, 87.8)">a</text><text xml:space="preserve" font-family="HelveticaNeue-Medium,Helvetica Neue" font-size="20.0" fill="#62647A" transform="matrix(1.00, 0.00, -0.00, -1.00, 160.3, 87.8)">n</text><text xml:space="preserve" font-family="HelveticaNeue-Medium,Helvetica Neue" font-size="20.0" fill="#62647A" transform="matrix(1.00, 0.00, -0.00, -1.00, 171.8, 87.8)">d</text><text xml:space="preserve" font-family="HelveticaNeue-Medium,Helvetica Neue" font-size="20.0" fill="#62647A" transform="matrix(1.00, 0.00, -0.00, -1.00, 184.0, 87.8)"> </text><text xml:space="preserve" font-family="HelveticaNeue-Medium,Helvetica Neue" font-size="20.0" fill="#62647A" transform="matrix(1.00, 0.00, -0.00, -1.00, 189.5, 87.8)">p</text><text xml:space="preserve" font-family="HelveticaNeue-Medium,Helvetica Neue" font-size="20.0" fill="#62647A" transform="matrix(1.00, 0.00, -0.00, -1.00, 201.8, 87.8)">r</text><text xml:space="preserve" font-family="HelveticaNeue-Medium,Helvetica Neue" font-size="20.0" fill="#62647A" transform="matrix(1.00, 0.00, -0.00, -1.00, 208.4, 87.8)">o</text><text xml:space="preserve" font-family="HelveticaNeue-Medium,Helvetica Neue" font-size="20.0" fill="#62647A" transform="matrix(1.00, 0.00, -0.00, -1.00, 220.3, 87.8)">g</text><text xml:space="preserve" font-family="HelveticaNeue-Medium,Helvetica Neue" font-size="20.0" fill="#62647A" transform="matrix(1.00, 0.00, -0.00, -1.00, 232.2, 87.8)">r</text><text xml:space="preserve" font-family="HelveticaNeue-Medium,Helvetica Neue" font-size="20.0" fill="#62647A" transform="matrix(1.00, 0.00, -0.00, -1.00, 239.2, 87.8)">a</text><text xml:space="preserve" font-family="HelveticaNeue-Medium,Helvetica Neue" font-size="20.0" fill="#62647A" transform="matrix(1.00, 0.00, -0.00, -1.00, 250.3, 87.8)">d</text><text xml:space="preserve" font-family="HelveticaNeue-Medium,Helvetica Neue" font-size="20.0" fill="#62647A" transform="matrix(1.00, 0.00, -0.00, -1.00, 262.5, 87.8)">a</text><text xml:space="preserve" font-family="HelveticaNeue-Medium,Helvetica Neue" font-size="20.0" fill="#62647A" transform="matrix(1.00, 0.00, -0.00, -1.00, 273.7, 87.8)">t</text><text xml:space="preserve" font-family="HelveticaNeue-Medium,Helvetica Neue" font-size="20.0" fill="#62647A" transform="matrix(1.00, 0.00, -0.00, -1.00, 280.3, 87.8)">i</text><text xml:space="preserve" font-family="HelveticaNeue-Medium,Helvetica Neue" font-size="20.0" fill="#62647A" transform="matrix(1.00, 0.00, -0.00, -1.00, 285.1, 87.8)">o</text><text xml:space="preserve" font-family="HelveticaNeue-Medium,Helvetica Neue" font-size="20.0" fill="#62647A" transform="matrix(1.00, 0.00, -0.00, -1.00, 297.0, 87.8)">n</text><text xml:space="preserve" font-family="HelveticaNeue-Medium,Helvetica Neue" font-size="20.0" fill="#62647A" transform="matrix(1.00, 0.00, -0.00, -1.00, 308.5, 87.8)"> </text><text xml:space="preserve" font-family="HelveticaNeue-Medium,Helvetica Neue" font-size="20.0" fill="#62647A" transform="matrix(1.00, 0.00, -0.00, -1.00, 314.0, 87.8)">l</text><text xml:space="preserve" font-family="HelveticaNeue-Medium,Helvetica Neue" font-size="20.0" fill="#62647A" transform="matrix(1.00, 0.00, -0.00, -1.00, 318.9, 87.8)">i</text><text xml:space="preserve" font-family="HelveticaNeue-Medium,Helvetica Neue" font-size="20.0" fill="#62647A" transform="matrix(1.00, 0.00, -0.00, -1.00, 323.7, 87.8)">n</text><text xml:space="preserve" font-family="HelveticaNeue-Medium,Helvetica Neue" font-size="20.0" fill="#62647A" transform="matrix(1.00, 0.00, -0.00, -1.00, 335.2, 87.8)">k</text><text xml:space="preserve" font-family="HelveticaNeue-Medium,Helvetica Neue" font-size="20.0" fill="#62647A" transform="matrix(1.00, 0.00, -0.00, -1.00, 345.9, 87.8)">e</text><text xml:space="preserve" font-family="HelveticaNeue-Medium,Helvetica Neue" font-size="20.0" fill="#62647A" transform="matrix(1.00, 0.00, -0.00, -1.00, 357.0, 87.8)">d</text><text xml:space="preserve" font-family="HelveticaNeue-Medium,Helvetica Neue" font-size="20.0" fill="#62647A" transform="matrix(1.00, 0.00, -0.00, -1.00, 369.2, 87.8)"> </text><text xml:space="preserve" font-family="HelveticaNeue-Medium,Helvetica Neue" font-size="20.0" fill="#62647A" transform="matrix(1.00, 0.00, -0.00, -1.00, 374.8, 87.8)">t</text><text xml:space="preserve" font-family="HelveticaNeue-Medium,Helvetica Neue" font-size="20.0" fill="#62647A" transform="matrix(1.00, 0.00, -0.00, -1.00, 381.5, 87.8)">o</text><text xml:space="preserve" font-family="HelveticaNeue-Medium,Helvetica Neue" font-size="20.0" fill="#62647A" transform="matrix(1.00, 0.00, -0.00, -1.00, 393.3, 87.8)"> </text><text xml:space="preserve" font-family="HelveticaNeue-Medium,Helvetica Neue" font-size="20.0" fill="#62647A" transform="matrix(1.00, 0.00, -0.00, -1.00, 398.9, 87.8)">:</text><text xml:space="preserve" font-family="HelveticaNeue-Medium,Helvetica Neue" font-size="20.0" fill="#62647A" transform="matrix(1.00, 0.00, -0.00, -1.00, 404.4, 87.8)"> </text><text xml:space="preserve" font-family="HelveticaNeue-Bold,Helvetica Neue" font-weight="bold" font-size="20.0" fill="#941100" transform="matrix(1.00, 0.00, -0.00, -1.00, 5.0, 37.8)">a</text><text xml:space="preserve" font-family="HelveticaNeue-Bold,Helvetica Neue" font-weight="bold" font-size="20.0" fill="#941100" transform="matrix(1.00, 0.00, -0.00, -1.00, 16.5, 37.8)">l</text><text xml:space="preserve" font-family="HelveticaNeue-Bold,Helvetica Neue" font-weight="bold" font-size="20.0" fill="#941100" transform="matrix(1.00, 0.00, -0.00, -1.00, 21.7, 37.8)">l</text><text xml:space="preserve" font-family="HelveticaNeue-Bold,Helvetica Neue" font-weight="bold" font-size="20.0" fill="#941100" transform="matrix(1.00, 0.00, -0.00, -1.00, 26.8, 37.8)">o</text><text xml:space="preserve" font-family="HelveticaNeue-Bold,Helvetica Neue" font-weight="bold" font-size="20.0" fill="#941100" transform="matrix(1.00, 0.00, -0.00, -1.00, 39.0, 37.8)">g</text><text xml:space="preserve" font-family="HelveticaNeue-Bold,Helvetica Neue" font-weight="bold" font-size="20.0" fill="#941100" transform="matrix(1.00, 0.00, -0.00, -1.00, 51.3, 37.8)">e</text><text xml:space="preserve" font-family="HelveticaNeue-Bold,Helvetica Neue" font-weight="bold" font-size="20.0" fill="#941100" transform="matrix(1.00, 0.00, -0.00, -1.00, 62.7, 37.8)">n</text><text xml:space="preserve" font-family="HelveticaNeue-Bold,Helvetica Neue" font-weight="bold" font-size="20.0" fill="#941100" transform="matrix(1.00, 0.00, -0.00, -1.00, 74.6, 37.8)">i</text><text xml:space="preserve" font-family="HelveticaNeue-Bold,Helvetica Neue" font-weight="bold" font-size="20.0" fill="#941100" transform="matrix(1.00, 0.00, -0.00, -1.00, 79.8, 37.8)">c</text><text xml:space="preserve" font-family="HelveticaNeue-Medium,Helvetica Neue" font-size="20.0" fill="#62647A" transform="matrix(1.00, 0.00, -0.00, -1.00, 91.2, 37.8)"> </text><text xml:space="preserve" font-family="HelveticaNeue-Medium,Helvetica Neue" font-size="20.0" fill="#62647A" transform="matrix(1.00, 0.00, -0.00, -1.00, 96.8, 37.8)">f</text><text xml:space="preserve" font-family="HelveticaNeue-Medium,Helvetica Neue" font-size="20.0" fill="#62647A" transform="matrix(1.00, 0.00, -0.00, -1.00, 103.1, 37.8)">o</text><text xml:space="preserve" font-family="HelveticaNeue-Medium,Helvetica Neue" font-size="20.0" fill="#62647A" transform="matrix(1.00, 0.00, -0.00, -1.00, 115.0, 37.8)">r</text><text xml:space="preserve" font-family="HelveticaNeue-Medium,Helvetica Neue" font-size="20.0" fill="#62647A" transform="matrix(1.00, 0.00, -0.00, -1.00, 121.6, 37.8)">c</text><text xml:space="preserve" font-family="HelveticaNeue-Medium,Helvetica Neue" font-size="20.0" fill="#62647A" transform="matrix(1.00, 0.00, -0.00, -1.00, 132.8, 37.8)">i</text><text xml:space="preserve" font-family="HelveticaNeue-Medium,Helvetica Neue" font-size="20.0" fill="#62647A" transform="matrix(1.00, 0.00, -0.00, -1.00, 137.6, 37.8)">n</text><text xml:space="preserve" font-family="HelveticaNeue-Medium,Helvetica Neue" font-size="20.0" fill="#62647A" transform="matrix(1.00, 0.00, -0.00, -1.00, 149.1, 37.8)">g</text><text xml:space="preserve" font-family="HelveticaNeue-Medium,Helvetica Neue" font-size="20.0" fill="#62647A" transform="matrix(1.00, 0.00, -0.00, -1.00, 160.9, 37.8)"> </text><text xml:space="preserve" font-family="HelveticaNeue-Medium,Helvetica Neue" font-size="20.0" fill="#62647A" transform="matrix(1.00, 0.00, -0.00, -1.00, 166.5, 37.8)">a</text><text xml:space="preserve" font-family="HelveticaNeue-Medium,Helvetica Neue" font-size="20.0" fill="#62647A" transform="matrix(1.00, 0.00, -0.00, -1.00, 177.6, 37.8)">n</text><text xml:space="preserve" font-family="HelveticaNeue-Medium,Helvetica Neue" font-size="20.0" fill="#62647A" transform="matrix(1.00, 0.00, -0.00, -1.00, 189.1, 37.8)">d</text><text xml:space="preserve" font-family="HelveticaNeue-Medium,Helvetica Neue" font-size="20.0" fill="#62647A" transform="matrix(1.00, 0.00, -0.00, -1.00, 201.3, 37.8)"> </text><text xml:space="preserve" font-family="HelveticaNeue-Bold,Helvetica Neue" font-weight="bold" font-size="20.0" fill="#941100" transform="matrix(1.00, 0.00, -0.00, -1.00, 206.9, 37.8)">a</text><text xml:space="preserve" font-family="HelveticaNeue-Bold,Helvetica Neue" font-weight="bold" font-size="20.0" fill="#941100" transform="matrix(1.00, 0.00, -0.00, -1.00, 218.3, 37.8)">u</text><text xml:space="preserve" font-family="HelveticaNeue-Bold,Helvetica Neue" font-weight="bold" font-size="20.0" fill="#941100" transform="matrix(1.00, 0.00, -0.00, -1.00, 230.2, 37.8)">t</text><text xml:space="preserve" font-family="HelveticaNeue-Bold,Helvetica Neue" font-weight="bold" font-size="20.0" fill="#941100" transform="matrix(1.00, 0.00, -0.00, -1.00, 237.2, 37.8)">o</text><text xml:space="preserve" font-family="HelveticaNeue-Bold,Helvetica Neue" font-weight="bold" font-size="20.0" fill="#941100" transform="matrix(1.00, 0.00, -0.00, -1.00, 249.5, 37.8)">g</text><text xml:space="preserve" font-family="HelveticaNeue-Bold,Helvetica Neue" font-weight="bold" font-size="20.0" fill="#941100" transform="matrix(1.00, 0.00, -0.00, -1.00, 261.7, 37.8)">e</text><text xml:space="preserve" font-family="HelveticaNeue-Bold,Helvetica Neue" font-weight="bold" font-size="20.0" fill="#941100" transform="matrix(1.00, 0.00, -0.00, -1.00, 273.2, 37.8)">n</text><text xml:space="preserve" font-family="HelveticaNeue-Bold,Helvetica Neue" font-weight="bold" font-size="20.0" fill="#941100" transform="matrix(1.00, 0.00, -0.00, -1.00, 285.0, 37.8)">i</text><text xml:space="preserve" font-family="HelveticaNeue-Bold,Helvetica Neue" font-weight="bold" font-size="20.0" fill="#941100" transform="matrix(1.00, 0.00, -0.00, -1.00, 290.2, 37.8)">c</text><text xml:space="preserve" font-family="HelveticaNeue-Medium,Helvetica Neue" font-size="20.0" fill="#62647A" transform="matrix(1.00, 0.00, -0.00, -1.00, 301.7, 37.8)"> </text><text xml:space="preserve" font-family="HelveticaNeue-Medium,Helvetica Neue" font-size="20.0" fill="#62647A" transform="matrix(1.00, 0.00, -0.00, -1.00, 307.2, 37.8)">s</text><text xml:space="preserve" font-family="HelveticaNeue-Medium,Helvetica Neue" font-size="20.0" fill="#62647A" transform="matrix(1.00, 0.00, -0.00, -1.00, 317.6, 37.8)">u</text><text xml:space="preserve" font-family="HelveticaNeue-Medium,Helvetica Neue" font-size="20.0" fill="#62647A" transform="matrix(1.00, 0.00, -0.00, -1.00, 329.1, 37.8)">r</text><text xml:space="preserve" font-family="HelveticaNeue-Medium,Helvetica Neue" font-size="20.0" fill="#62647A" transform="matrix(1.00, 0.00, -0.00, -1.00, 336.1, 37.8)">f</text><text xml:space="preserve" font-family="HelveticaNeue-Medium,Helvetica Neue" font-size="20.0" fill="#62647A" transform="matrix(1.00, 0.00, -0.00, -1.00, 342.4, 37.8)">a</text><text xml:space="preserve" font-family="HelveticaNeue-Medium,Helvetica Neue" font-size="20.0" fill="#62647A" transform="matrix(1.00, 0.00, -0.00, -1.00, 353.5, 37.8)">c</text><text xml:space="preserve" font-family="HelveticaNeue-Medium,Helvetica Neue" font-size="20.0" fill="#62647A" transform="matrix(1.00, 0.00, -0.00, -1.00, 364.7, 37.8)">e</text><text xml:space="preserve" font-family="HelveticaNeue-Medium,Helvetica Neue" font-size="20.0" fill="#62647A" transform="matrix(1.00, 0.00, -0.00, -1.00, 375.8, 37.8)"> </text><text xml:space="preserve" font-family="HelveticaNeue-Medium,Helvetica Neue" font-size="20.0" fill="#62647A" transform="matrix(1.00, 0.00, -0.00, -1.00, 381.3, 37.8)">p</text><text xml:space="preserve" font-family="HelveticaNeue-Medium,Helvetica Neue" font-size="20.0" fill="#62647A" transform="matrix(1.00, 0.00, -0.00, -1.00, 393.6, 37.8)">r</text><text xml:space="preserve" font-family="HelveticaNeue-Medium,Helvetica Neue" font-size="20.0" fill="#62647A" transform="matrix(1.00, 0.00, -0.00, -1.00, 400.2, 37.8)">o</text><text xml:space="preserve" font-family="HelveticaNeue-Medium,Helvetica Neue" font-size="20.0" fill="#62647A" transform="matrix(1.00, 0.00, -0.00, -1.00, 412.1, 37.8)">c</text><text xml:space="preserve" font-family="HelveticaNeue-Medium,Helvetica Neue" font-size="20.0" fill="#62647A" transform="matrix(1.00, 0.00, -0.00, -1.00, 423.2, 37.8)">e</text><text xml:space="preserve" font-family="HelveticaNeue-Medium,Helvetica Neue" font-size="20.0" fill="#62647A" transform="matrix(1.00, 0.00, -0.00, -1.00, 434.3, 37.8)">s</text><text xml:space="preserve" font-family="HelveticaNeue-Medium,Helvetica Neue" font-size="20.0" fill="#62647A" transform="matrix(1.00, 0.00, -0.00, -1.00, 444.7, 37.8)">s</text><text xml:space="preserve" font-family="HelveticaNeue-Medium,Helvetica Neue" font-size="20.0" fill="#62647A" transform="matrix(1.00, 0.00, -0.00, -1.00, 455.1, 37.8)">e</text><text xml:space="preserve" font-family="HelveticaNeue-Medium,Helvetica Neue" font-size="20.0" fill="#62647A" transform="matrix(1.00, 0.00, -0.00, -1.00, 466.2, 37.8)">s</text><text xml:space="preserve" font-family="HelveticaNeue-Medium,Helvetica Neue" font-size="20.0" fill="#62647A" transform="matrix(1.00, 0.00, -0.00, -1.00, 476.6, 37.8)">.</text><text xml:space="preserve" font-family="HelveticaNeue-Medium,Helvetica Neue" font-size="20.0" fill="#62647A" transform="matrix(1.00, 0.00, -0.00, -1.00, 482.2, 37.8)"> </text></g></g></g></svg>