<?xml version="1.0" encoding="UTF-8" standalone="no"?><svg xmlns="http://www.w3.org/2000/svg" xmlns:xlink="http://www.w3.org/1999/xlink" clip-rule="evenodd" stroke-miterlimit="10" viewBox="0 0 197 17"><desc>SVG generated by Keynote</desc><defs></defs><g transform="matrix(1.00, 0.00, -0.00, -1.00, 0.0, 17.0)"><text xml:space="preserve" font-family="Helvetica,Helvetica" font-size="17.0" fill="#000000" transform="matrix(1.00, 0.00, -0.00, -1.00, 1.5, 2.7)">e</text><text xml:space="preserve" font-family="Helvetica,Helvetica" font-size="17.0" fill="#000000" transform="matrix(1.00, 0.00, -0.00, -1.00, 11.0, 2.7)">r</text><text xml:space="preserve" font-family="Helvetica,Helvetica" font-size="17.0" fill="#000000" transform="matrix(1.00, 0.00, -0.00, -1.00, 16.6, 2.7)">o</text><text xml:space="preserve" font-family="Helvetica,Helvetica" font-size="17.0" fill="#000000" transform="matrix(1.00, 0.00, -0.00, -1.00, 26.1, 2.7)">s</text><text xml:space="preserve" font-family="Helvetica,Helvetica" font-size="17.0" fill="#000000" transform="matrix(1.00, 0.00, -0.00, -1.00, 34.6, 2.7)">i</text><text xml:space="preserve" font-family="Helvetica,Helvetica" font-size="17.0" fill="#000000" transform="matrix(1.00, 0.00, -0.00, -1.00, 38.4, 2.7)">o</text><text xml:space="preserve" font-family="Helvetica,Helvetica" font-size="17.0" fill="#000000" transform="matrix(1.00, 0.00, -0.00, -1.00, 47.8, 2.7)">n</text><text xml:space="preserve" font-family="Helvetica,Helvetica" font-size="17.0" fill="#000000" transform="matrix(1.00, 0.00, -0.00, -1.00, 57.3, 2.7)">a</text><text xml:space="preserve" font-family="Helvetica,Helvetica" font-size="17.0" fill="#000000" transform="matrix(1.00, 0.00, -0.00, -1.00, 66.7, 2.7)">l</text><text xml:space="preserve" font-family="Helvetica,Helvetica" font-size="17.0" fill="#000000" transform="matrix(1.00, 0.00, -0.00, -1.00, 70.5, 2.7)"> </text><text xml:space="preserve" font-family="Helvetica,Helvetica" font-size="17.0" fill="#000000" transform="matrix(1.00, 0.00, -0.00, -1.00, 75.2, 2.7)">c</text><text xml:space="preserve" font-family="Helvetica,Helvetica" font-size="17.0" fill="#000000" transform="matrix(1.00, 0.00, -0.00, -1.00, 83.7, 2.7)">h</text><text xml:space="preserve" font-family="Helvetica,Helvetica" font-size="17.0" fill="#000000" transform="matrix(1.00, 0.00, -0.00, -1.00, 93.2, 2.7)">a</text><text xml:space="preserve" font-family="Helvetica,Helvetica" font-size="17.0" fill="#000000" transform="matrix(1.00, 0.00, -0.00, -1.00, 102.6, 2.7)">n</text><text xml:space="preserve" font-family="Helvetica,Helvetica" font-size="17.0" fill="#000000" transform="matrix(1.00, 0.00, -0.00, -1.00, 112.1, 2.7)">n</text><text xml:space="preserve" font-family="Helvetica,Helvetica" font-size="17.0" fill="#000000" transform="matrix(1.00, 0.00, -0.00, -1.00, 121.6, 2.7)">e</text><text xml:space="preserve" font-family="Helvetica,Helvetica" font-size="17.0" fill="#000000" transform="matrix(1.00, 0.00, -0.00, -1.00, 131.0, 2.7)">l</text><text xml:space="preserve" font-family="Helvetica,Helvetica" font-size="17.0" fill="#000000" transform="matrix(1.00, 0.00, -0.00, -1.00, 134.8, 2.7)"> </text><text xml:space="preserve" font-family="Helvetica,Helvetica" font-size="17.0" fill="#000000" transform="matrix(1.00, 0.00, -0.00, -1.00, 139.5, 2.7)">i</text><text xml:space="preserve" font-family="Helvetica,Helvetica" font-size="17.0" fill="#000000" transform="matrix(1.00, 0.00, -0.00, -1.00, 143.3, 2.7)">n</text><text xml:space="preserve" font-family="Helvetica,Helvetica" font-size="17.0" fill="#000000" transform="matrix(1.00, 0.00, -0.00, -1.00, 152.8, 2.7)">c</text><text xml:space="preserve" font-family="Helvetica,Helvetica" font-size="17.0" fill="#000000" transform="matrix(1.00, 0.00, -0.00, -1.00, 161.3, 2.7)">i</text><text xml:space="preserve" font-family="Helvetica,Helvetica" font-size="17.0" fill="#000000" transform="matrix(1.00, 0.00, -0.00, -1.00, 165.0, 2.7)">s</text><text xml:space="preserve" font-family="Helvetica,Helvetica" font-size="17.0" fill="#000000" transform="matrix(1.00, 0.00, -0.00, -1.00, 173.5, 2.7)">i</text><text xml:space="preserve" font-family="Helvetica,Helvetica" font-size="17.0" fill="#000000" transform="matrix(1.00, 0.00, -0.00, -1.00, 177.3, 2.7)">o</text><text xml:space="preserve" font-family="Helvetica,Helvetica" font-size="17.0" fill="#000000" transform="matrix(1.00, 0.00, -0.00, -1.00, 186.8, 2.7)">n</text></g></svg>