<?xml version="1.0" encoding="UTF-8" standalone="no"?><svg xmlns="http://www.w3.org/2000/svg" xmlns:xlink="http://www.w3.org/1999/xlink" clip-rule="evenodd" stroke-miterlimit="10" viewBox="0 0 200 318"><desc>SVG generated by Keynote</desc><defs></defs><g transform="matrix(1.00, 0.00, -0.00, -1.00, 0.0, 318.0)"><image xlink:href="../../2FF956CC-37A4-4E29-9EB3-D61A26D0D5EC/assets/142CD9FAB7F822653EB6B0A770356EAF.png" width="196.00" height="302.00" transform="matrix(1.00, 0.00, -0.00, -1.00, 1.9, 304.1)" opacity="0.60"></image><g><clipPath id="clip0x7fab9db425b0"><path d="M 12.0 300.0 L 188.0 300.0 L 188.0 18.0 L 12.0 18.0 Z M 12.1 300.1 "></path></clipPath><g clip-path="url(#clip0x7fab9db425b0)"><g><clipPath id="clip0x7fab9db42b90"><path d="M 628.5 390.6 C 627.7 390.7 627.4 389.1 627.5 385.6 C 627.6 381.7 627.7 381.3 628.0 383.9 C 628.3 385.7 628.8 387.7 629.3 388.3 C 629.8 388.9 629.9 389.6 629.5 390.0 C 629.1 390.4 628.8 390.6 628.5 390.6 Z M 632.5 390.6 C 631.5 390.6 631.7 390.0 633.1 388.7 C 634.1 387.6 635.1 385.4 635.1 383.7 C 635.3 380.7 635.3 380.8 635.7 384.2 C 636.1 388.0 634.8 390.6 632.5 390.6 Z M 667.2 390.6 C 663.3 390.6 661.3 384.5 664.2 381.6 C 665.9 379.9 670.0 379.6 670.9 381.1 C 671.3 381.7 670.6 381.9 669.0 381.5 C 666.4 380.8 663.3 382.5 664.2 384.0 C 664.5 384.5 666.5 384.9 668.5 384.9 C 671.6 384.9 672.3 385.2 672.3 386.7 C 672.3 388.7 669.7 390.6 667.2 390.6 Z M 655.8 390.6 C 653.0 390.5 652.9 390.4 654.8 389.6 C 657.5 388.6 657.5 388.2 655.1 385.1 C 654.0 383.8 653.2 382.3 653.2 381.9 C 653.2 381.4 653.8 381.0 654.7 381.0 C 655.5 381.0 655.9 381.5 655.6 382.0 C 655.2 382.5 655.9 384.1 656.9 385.5 C 659.8 389.1 659.5 390.6 655.8 390.6 Z M 547.4 390.5 C 546.4 390.6 545.3 390.3 544.0 389.6 C 541.5 388.3 541.4 382.5 543.8 381.1 C 545.9 379.9 548.0 379.8 549.8 381.1 C 550.8 381.8 550.5 381.9 548.6 381.4 C 545.8 380.8 542.7 382.5 543.6 384.0 C 543.9 384.5 545.8 384.9 547.9 384.9 C 552.0 384.9 552.9 386.4 550.2 389.1 C 549.3 390.0 548.4 390.5 547.4 390.5 Z M 569.9 391.0 L 570.0 385.5 C 570.1 381.5 570.3 381.2 570.6 384.1 C 571.3 390.9 576.6 391.1 576.6 384.3 C 576.6 382.5 577.0 381.0 577.5 381.0 C 578.7 381.0 578.8 386.8 577.6 388.6 C 577.1 389.4 575.2 389.9 573.3 390.0 L 569.9 391.0 Z M 702.0 391.0 L 702.0 385.5 C 702.1 381.5 702.4 381.2 702.7 384.1 C 703.4 391.0 708.7 391.7 708.7 384.9 C 708.7 382.8 709.1 381.0 709.7 381.0 C 710.2 381.0 710.6 382.5 710.6 384.3 C 710.6 391.1 715.9 390.9 716.7 384.1 C 717.0 381.1 717.0 381.2 716.9 384.8 C 716.8 389.4 714.9 391.4 711.9 390.1 C 710.9 389.7 709.7 389.5 709.2 389.6 C 708.6 389.8 706.8 389.8 705.1 390.0 L 702.0 391.0 Z M 694.8 390.5 C 694.2 390.6 693.5 390.4 692.8 390.1 C 691.8 389.7 690.6 389.5 690.0 389.6 C 689.5 389.8 687.5 389.9 685.5 390.0 L 682.0 390.0 L 682.0 385.7 C 682.0 383.2 682.3 381.0 682.8 381.0 C 683.4 381.0 683.8 382.5 683.8 384.3 C 683.8 391.1 689.8 390.9 690.0 384.0 L 690.0 380.6 L 691.0 384.7 C 692.5 391.4 696.0 391.4 696.5 384.6 C 696.6 382.6 697.1 381.0 697.5 381.0 C 697.9 381.0 698.1 382.8 698.0 385.0 C 697.7 388.3 696.5 390.2 694.8 390.5 Z M 526.3 390.4 L 523.0 390.0 L 523.0 385.4 C 523.1 380.7 523.3 380.6 523.8 384.3 C 524.5 388.5 527.0 390.8 528.8 389.0 C 529.4 388.3 530.6 386.2 531.0 384.2 L 531.0 380.6 L 531.0 384.0 C 531.2 391.0 537.3 391.1 538.0 384.1 L 538.0 380.6 L 538.0 384.5 C 538.2 389.4 536.5 391.4 533.0 389.8 C 531.6 389.2 530.5 389.1 530.1 389.7 C 529.8 390.1 528.1 390.5 526.3 390.4 Z M 598.0 390.4 L 593.7 390.0 C 591.1 389.9 589.3 389.4 588.4 388.2 C 586.6 385.8 586.8 384.6 589.1 381.6 C 590.9 379.4 590.9 379.1 589.5 378.5 C 588.2 378.0 588.2 377.7 589.2 377.1 C 591.0 375.9 595.2 376.1 596.5 377.4 C 597.1 378.0 598.0 381.2 598.0 384.5 L 598.0 390.4 Z M 603.4 390.4 C 601.7 390.5 601.5 389.9 601.5 385.8 C 601.5 383.2 601.9 381.0 602.4 381.0 C 603.0 381.0 603.4 382.7 603.4 384.7 C 603.4 386.7 603.8 388.7 604.3 389.3 C 605.0 389.9 604.6 390.3 603.4 390.4 Z M 566.0 390.3 L 562.0 390.0 C 559.7 389.9 557.3 389.7 556.7 389.3 C 555.2 388.4 555.2 382.7 556.7 381.2 C 558.0 379.9 558.9 379.8 563.1 380.7 C 565.9 381.2 566.0 381.5 566.0 385.8 L 566.0 390.3 Z M 619.0 390.3 L 614.4 390.0 C 612.0 389.9 609.6 389.5 609.0 389.0 C 607.6 387.5 607.6 383.3 609.1 381.5 C 610.5 379.9 611.3 379.8 615.7 380.7 C 618.5 381.2 619.0 381.5 619.0 385.8 L 619.0 390.3 Z M 642.6 390.3 C 642.1 390.4 641.5 390.4 641.1 390.2 C 638.9 389.4 639.6 386.2 642.2 385.0 C 645.1 383.7 644.8 381.4 641.8 381.8 C 640.5 381.9 639.9 381.6 640.3 381.0 C 640.6 380.4 641.8 380.1 643.0 380.3 C 646.0 380.7 646.1 384.2 643.1 386.2 C 640.3 388.1 640.8 390.0 643.9 389.2 C 645.8 388.7 645.8 388.7 644.3 389.7 C 643.8 390.0 643.2 390.2 642.6 390.3 Z M 623.1 389.1 C 622.9 389.2 622.8 388.0 622.8 385.8 C 622.8 382.9 623.0 381.7 623.2 383.2 C 623.4 384.6 623.4 387.0 623.2 388.5 C 623.2 388.8 623.1 389.0 623.1 389.1 Z M 648.9 389.1 C 648.8 389.2 648.7 388.0 648.7 385.8 C 648.7 382.9 648.8 381.7 649.1 383.2 C 649.3 384.6 649.3 387.0 649.1 388.5 C 649.0 388.8 649.0 389.0 648.9 389.1 Z M 549.9 373.4 C 546.2 373.4 544.3 362.7 547.5 359.6 C 549.2 357.8 551.8 357.6 553.4 359.2 C 554.0 359.8 554.6 362.8 554.6 365.9 C 554.6 370.4 554.2 371.6 552.7 372.4 C 551.7 372.9 550.4 373.4 549.9 373.4 Z M 567.1 373.4 C 563.4 373.4 561.5 362.7 564.7 359.6 C 566.3 358.0 567.8 357.7 570.3 358.6 C 571.4 359.1 571.8 360.6 571.8 365.3 C 571.8 370.4 571.5 371.6 569.9 372.4 C 568.9 372.9 567.7 373.4 567.1 373.4 Z M 617.9 373.4 C 614.1 373.4 612.2 362.7 615.4 359.6 C 617.2 357.8 619.8 357.6 621.4 359.2 C 622.0 359.8 622.5 362.8 622.5 365.9 C 622.5 370.4 622.2 371.6 620.7 372.4 C 619.7 372.9 618.4 373.4 617.9 373.4 Z M 483.6 373.2 C 482.8 373.2 481.8 372.9 480.8 372.4 C 479.3 371.6 478.9 370.4 478.9 365.9 C 478.9 362.8 479.5 359.8 480.1 359.2 C 480.7 358.6 482.0 358.1 482.9 358.1 C 485.9 358.1 487.6 360.8 487.6 365.7 C 487.6 370.6 486.1 373.2 483.6 373.2 Z M 686.0 373.1 C 685.3 373.1 684.7 372.9 683.9 372.5 C 682.2 371.6 681.9 370.5 681.9 365.7 C 681.9 361.3 682.3 359.8 683.6 359.1 C 685.7 357.8 686.4 357.8 688.7 359.1 C 690.2 359.9 690.5 361.1 690.5 365.8 C 690.5 370.9 690.3 371.6 688.2 372.5 C 687.4 372.9 686.7 373.1 686.0 373.1 Z M 500.0 373.0 C 499.4 373.0 498.7 372.8 498.1 372.4 C 496.5 371.6 496.2 370.4 496.2 365.7 C 496.2 361.3 496.5 359.8 497.8 359.1 C 500.3 357.6 501.7 357.9 503.6 360.0 C 505.1 361.8 505.4 366.5 504.2 370.7 C 503.7 372.3 501.9 373.2 500.0 373.0 Z M 579.8 372.9 C 579.3 373.1 578.7 373.0 578.0 372.8 C 576.8 372.3 576.5 371.4 576.9 369.0 C 577.2 367.2 577.0 365.5 576.5 365.2 C 575.2 364.4 575.4 360.6 576.8 359.2 C 578.2 357.8 579.0 357.8 581.4 359.1 C 583.4 360.1 584.0 364.2 582.4 365.2 C 581.8 365.5 581.7 367.0 582.0 368.4 C 582.4 370.8 581.4 372.6 579.8 372.9 Z M 514.0 371.8 C 513.9 372.3 512.2 370.2 510.3 367.3 L 506.7 362.0 L 510.3 362.0 C 512.3 361.8 514.1 361.2 514.5 361.1 C 514.9 361.0 514.6 369.4 514.0 371.8 Z M 713.4 368.3 C 712.8 368.3 712.5 367.9 711.9 367.1 C 710.2 364.8 710.3 361.4 712.1 359.6 C 713.9 357.7 715.4 357.7 717.7 359.3 C 720.4 361.2 719.4 365.9 716.0 367.5 C 714.7 368.1 714.0 368.4 713.4 368.3 Z M 475.6 350.0 L 475.0 343.4 L 475.0 337.0 L 484.4 337.0 L 494.0 337.0 L 494.0 342.6 C 494.2 345.5 494.0 348.2 493.5 348.7 C 493.0 349.2 488.8 349.9 484.1 350.0 L 475.6 350.0 Z M 624.7 349.5 C 562.7 349.4 503.6 349.2 502.9 349.0 C 501.3 348.5 501.0 347.5 501.0 343.2 C 501.0 338.1 501.0 338.1 504.1 337.7 C 505.8 337.5 565.6 337.1 637.1 337.0 L 767.0 337.0 L 767.0 343.2 L 767.0 349.0 L 764.0 349.0 C 751.7 349.2 686.8 349.7 624.7 349.5 Z M 477.5 331.3 C 476.4 331.3 475.0 330.7 474.3 330.1 C 473.1 328.9 472.8 321.0 473.8 318.4 C 474.1 317.4 475.5 316.9 477.5 316.9 C 481.2 316.9 481.8 318.0 481.8 324.4 C 481.8 329.4 480.6 331.3 477.5 331.3 Z M 494.9 331.2 C 493.6 331.2 492.3 330.9 491.6 330.1 C 490.1 328.6 490.1 319.5 491.6 318.0 C 492.3 317.4 494.1 316.9 495.7 317.1 C 498.5 317.4 498.6 317.5 498.8 323.0 C 499.0 326.3 498.7 329.1 498.0 329.9 C 497.3 330.7 496.1 331.2 494.9 331.2 Z M 744.7 331.2 C 743.5 331.2 742.2 330.9 741.4 330.1 C 739.9 328.6 740.0 319.5 741.5 318.0 C 742.1 317.4 744.0 316.9 745.5 317.1 C 748.3 317.4 748.4 317.5 748.7 323.0 C 748.9 326.3 748.5 329.1 747.9 329.9 C 747.2 330.7 746.0 331.2 744.7 331.2 Z M 765.1 324.5 C 764.8 324.5 762.9 322.8 760.9 320.7 C 757.9 317.7 757.5 316.9 758.9 316.9 C 759.9 316.9 760.4 317.2 760.1 317.6 C 759.7 317.9 760.8 319.6 762.5 321.4 C 764.2 323.1 765.3 324.5 765.1 324.5 Z M 933.7 295.0 L 934.0 276.5 C 934.0 261.5 934.0 193.9 934.0 34.7 L 934.0 24.0 L 1004.9 24.0 L 1076.1 24.0 L 1080.3 28.6 C 1082.6 31.2 1085.6 34.6 1086.9 36.1 C 1088.3 37.6 1093.1 42.2 1097.7 46.4 C 1102.6 51.0 1106.5 55.5 1107.3 57.5 C 1108.1 59.4 1109.4 61.5 1110.2 62.2 C 1111.1 62.9 1111.7 64.3 1111.7 65.3 C 1111.7 67.5 1116.5 73.7 1118.2 73.7 C 1118.9 73.7 1119.4 74.1 1119.4 74.7 C 1119.4 75.2 1120.8 77.2 1122.6 79.2 C 1124.3 81.2 1126.4 83.9 1127.4 85.2 C 1128.3 86.5 1130.3 89.3 1131.9 91.4 C 1133.4 93.5 1136.0 98.1 1137.7 101.5 C 1144.0 114.8 1144.4 116.3 1143.1 117.6 C 1142.4 118.3 1142.4 119.0 1143.2 120.0 C 1144.1 121.0 1144.1 122.9 1143.4 127.2 C 1142.9 130.5 1142.3 133.4 1142.0 133.8 C 1141.4 134.9 1143.4 146.8 1144.5 148.1 C 1145.0 148.7 1145.1 149.8 1144.6 150.5 C 1144.2 151.2 1143.7 155.0 1143.6 158.9 C 1143.4 166.2 1142.2 170.7 1138.0 179.5 C 1133.4 189.5 1132.4 192.1 1132.2 195.8 C 1131.8 202.8 1131.2 205.7 1129.6 208.2 C 1128.7 209.6 1127.8 212.2 1127.6 214.0 C 1127.4 215.9 1127.0 217.7 1126.7 218.0 C 1126.4 218.3 1126.1 219.2 1126.1 219.9 C 1126.1 220.7 1124.5 223.7 1122.7 226.6 C 1120.5 230.0 1119.4 232.7 1119.7 233.9 C 1120.8 237.9 1119.1 241.6 1113.7 246.9 C 1110.7 249.9 1106.6 254.3 1104.7 256.8 C 1102.7 259.3 1100.5 261.4 1099.7 261.4 C 1099.0 261.4 1097.9 262.3 1097.3 263.4 C 1096.1 265.7 1092.4 269.4 1085.6 275.2 C 1082.7 277.7 1080.7 280.4 1080.0 282.7 C 1079.1 285.5 1078.4 286.3 1076.6 286.3 C 1075.1 286.3 1074.0 287.1 1073.3 288.7 C 1072.7 290.0 1071.4 291.0 1070.5 291.0 C 1069.5 291.0 1068.3 291.8 1067.8 292.7 C 1066.9 294.3 1062.6 294.8 1000.3 295.0 L 933.7 295.0 Z M 717.3 294.4 C 701.8 294.4 696.0 294.1 695.1 293.2 C 694.5 292.5 693.2 292.0 692.2 292.0 C 691.2 292.0 687.0 289.4 682.9 286.2 L 675.5 280.0 L 657.4 280.0 C 646.4 280.0 638.1 280.0 636.2 279.3 L 633.0 278.2 L 633.0 157.8 C 633.0 91.6 633.4 37.2 633.9 37.0 C 634.3 36.7 634.7 34.9 634.8 33.0 C 634.9 31.1 635.8 28.3 636.9 26.7 L 639.0 24.0 L 693.2 24.0 C 741.0 24.0 748.1 24.1 752.7 25.6 C 757.8 27.1 766.2 32.0 767.0 34.0 C 767.2 34.5 769.6 37.3 772.4 40.2 C 775.1 43.1 778.3 47.6 779.5 50.3 C 784.3 60.9 785.7 63.2 789.2 66.0 C 791.2 67.6 793.2 68.9 793.6 68.9 C 795.0 68.9 803.0 77.8 804.5 80.9 C 805.2 82.5 806.8 85.0 808.0 86.5 C 809.2 88.0 810.2 89.8 810.2 90.6 C 810.2 91.3 810.6 92.7 811.1 93.6 C 811.7 94.5 812.5 96.3 813.1 97.7 C 813.6 99.0 814.9 101.5 816.0 103.3 C 817.1 105.1 817.7 107.1 817.5 107.8 C 817.2 108.4 817.6 109.5 818.4 110.2 C 819.2 110.9 819.7 113.0 819.7 115.8 C 819.7 118.2 820.2 120.7 820.8 121.3 C 821.5 122.1 821.5 122.9 820.8 124.3 C 819.1 127.5 819.6 131.6 822.2 136.3 C 823.6 138.7 824.4 141.1 824.1 141.6 C 823.8 142.0 824.3 143.0 825.1 143.7 C 825.9 144.3 826.3 145.5 826.0 146.2 C 825.7 146.9 826.1 147.7 826.9 148.0 C 827.8 148.4 828.2 150.4 828.2 155.1 C 828.2 158.7 828.5 162.2 828.8 162.8 C 829.2 163.3 829.0 164.4 828.4 165.1 C 827.8 165.8 826.1 168.8 824.6 171.8 C 822.0 176.8 821.9 177.5 822.7 183.9 C 823.4 189.9 823.3 191.1 821.8 193.3 C 819.8 196.1 817.8 204.1 817.8 209.5 C 817.8 212.2 817.4 213.3 815.7 214.0 C 814.4 214.6 813.4 215.9 813.2 217.5 C 813.0 219.0 812.2 220.2 811.1 220.5 C 810.1 220.8 809.2 221.6 809.2 222.4 C 809.2 223.2 808.4 224.0 807.3 224.3 C 805.9 224.7 805.4 225.6 805.4 227.8 C 805.4 234.6 792.1 250.9 782.9 255.5 C 779.0 257.5 774.4 261.2 768.5 267.0 C 763.8 271.8 759.4 275.5 758.8 275.3 C 757.1 274.7 755.5 276.8 756.6 278.2 C 757.2 278.9 757.1 279.7 756.1 280.5 C 755.3 281.2 754.6 282.3 754.6 283.0 C 754.6 283.8 753.9 284.4 753.0 284.4 C 752.0 284.4 750.1 285.8 748.6 287.7 C 747.1 289.6 745.1 291.0 743.9 291.0 C 742.8 291.0 741.0 291.8 740.0 292.7 C 738.4 294.2 735.8 294.4 717.3 294.4 Z M 405.7 294.2 C 395.0 294.1 390.8 292.6 381.6 285.7 L 374.5 280.0 L 360.0 280.0 C 345.5 280.0 339.2 279.4 334.5 276.5 L 333.0 275.3 L 333.0 158.3 C 333.0 32.2 332.2 38.1 337.2 39.7 C 338.3 40.1 339.9 39.9 340.6 39.2 C 341.9 38.1 344.1 38.2 351.4 39.7 C 354.2 40.3 355.0 39.8 359.6 35.5 C 362.4 32.8 365.2 30.6 365.7 30.6 C 366.2 30.6 367.2 30.0 367.8 29.2 C 368.6 28.3 370.7 27.9 374.0 27.9 C 377.3 28.0 380.1 27.4 382.7 26.0 C 385.8 24.4 388.0 24.0 394.0 24.2 C 398.2 24.3 401.7 24.7 402.0 25.1 C 402.2 25.5 404.3 25.6 406.6 25.4 C 409.6 25.1 411.2 25.5 412.0 26.5 C 412.8 27.5 414.2 27.7 416.2 27.4 C 417.9 27.1 420.0 27.4 421.5 28.3 C 422.8 29.0 425.5 30.4 427.5 31.2 C 429.5 32.1 431.1 33.4 431.1 34.1 C 431.1 34.8 432.6 36.5 434.4 37.9 C 436.3 39.3 437.8 41.0 437.8 41.6 C 437.8 42.2 439.0 43.9 440.6 45.4 C 442.1 46.9 443.5 49.3 443.7 50.6 C 443.9 52.1 444.6 53.1 445.4 53.1 C 446.5 53.1 446.9 54.2 446.9 57.1 C 446.9 59.7 447.5 61.8 448.8 63.2 C 449.8 64.4 450.6 65.6 450.4 65.9 C 450.3 66.3 451.8 66.7 453.7 66.8 C 455.9 67.0 457.8 67.9 458.6 69.0 C 459.3 70.0 460.4 70.8 460.9 70.8 C 461.5 70.8 463.4 71.9 465.1 73.2 C 466.9 74.6 468.8 75.6 469.3 75.6 C 469.9 75.6 470.9 76.8 471.6 78.3 C 472.8 81.2 478.9 87.1 480.7 87.1 C 481.3 87.1 481.8 87.6 481.8 88.2 C 481.8 88.7 482.6 90.4 483.6 91.8 C 484.6 93.2 485.6 95.8 486.0 97.7 C 486.4 99.8 487.9 102.4 489.9 104.4 C 491.9 106.2 493.3 108.5 493.3 109.8 C 493.3 111.1 493.8 112.3 494.5 112.5 C 495.2 112.8 495.7 114.2 495.7 115.6 C 495.6 117.1 496.4 119.0 497.4 120.0 C 498.7 121.4 499.1 122.6 498.6 124.9 C 498.0 128.0 499.8 131.0 501.4 129.5 C 501.7 129.1 501.9 130.8 501.8 133.4 C 501.6 136.3 501.9 138.3 502.7 138.7 C 503.7 139.3 503.7 140.0 502.7 142.3 C 502.0 143.8 500.9 145.4 500.2 145.8 C 499.5 146.3 499.2 147.4 499.5 148.4 C 499.8 149.4 499.5 150.3 498.5 150.7 C 497.5 151.1 497.2 151.9 497.6 153.2 C 498.0 154.3 497.7 155.8 497.1 156.6 C 496.1 157.7 496.1 158.5 497.1 160.4 C 498.1 162.2 498.2 163.1 497.3 163.9 C 496.7 164.5 496.2 166.0 496.2 167.3 C 496.2 168.5 494.7 171.6 492.8 174.2 C 491.0 176.9 489.5 179.6 489.5 180.4 C 489.5 181.1 488.2 184.5 486.6 187.8 C 485.0 191.1 483.7 194.8 483.7 195.9 C 483.7 197.0 482.9 199.0 481.8 200.4 C 480.7 201.7 479.9 203.7 479.9 204.8 C 479.9 206.1 479.0 207.2 477.5 207.7 C 476.2 208.2 475.1 209.0 475.0 209.4 C 475.0 209.8 474.8 211.2 474.5 212.5 C 474.3 213.9 474.6 215.9 475.2 217.0 C 476.1 218.6 475.9 220.0 474.7 223.7 C 473.8 226.2 472.6 229.1 472.1 230.1 C 471.4 231.3 471.4 232.3 472.1 233.0 C 473.6 234.4 473.4 239.9 471.8 241.2 C 470.1 242.6 469.4 248.0 470.7 250.1 C 471.4 251.3 471.2 252.9 469.5 256.8 C 468.2 259.6 467.0 263.1 466.7 264.6 C 466.5 266.0 465.5 267.5 464.7 267.8 C 463.8 268.1 461.3 270.2 459.0 272.5 C 452.9 278.6 444.3 284.0 438.5 285.3 C 435.7 286.0 432.0 286.9 430.2 287.3 C 428.4 287.7 426.5 287.9 426.1 287.6 C 425.6 287.3 424.5 287.7 423.6 288.5 C 418.4 293.0 414.5 294.3 405.7 294.2 Z M 61.9 252.4 C 61.4 252.4 60.9 252.3 60.3 252.2 C 58.6 251.8 55.0 251.6 52.4 251.7 C 46.7 251.9 43.0 250.5 38.4 246.5 C 31.8 240.7 32.3 248.3 32.5 153.8 C 32.6 89.1 32.9 67.6 33.7 66.6 C 34.0 66.2 34.7 65.9 35.5 65.6 C 35.5 65.6 35.5 65.6 35.6 65.6 C 35.6 65.6 35.6 65.6 35.6 65.6 C 36.4 65.3 37.4 65.1 38.4 65.1 C 45.2 64.9 56.4 65.0 66.3 65.3 C 74.6 65.5 76.8 65.3 78.8 63.9 C 80.2 63.0 81.6 62.5 81.9 62.8 C 82.3 63.2 83.1 63.0 83.8 62.4 C 84.5 61.9 87.3 61.5 90.1 61.6 C 92.9 61.8 95.4 61.5 95.6 61.1 C 95.7 61.0 95.8 61.0 95.9 60.9 C 95.9 60.9 96.0 60.9 96.0 60.9 C 97.8 60.9 97.9 60.8 99.5 60.8 C 99.8 60.9 100.2 61.1 100.5 61.4 C 101.2 62.1 102.1 62.1 103.3 61.5 C 106.3 59.9 117.9 61.0 120.6 63.2 C 122.0 64.3 123.6 65.1 124.2 65.1 C 126.3 65.1 146.3 87.3 148.3 91.8 C 148.9 93.2 150.7 95.6 152.4 97.2 C 155.2 99.8 161.1 110.4 161.1 112.8 C 161.1 113.3 162.0 114.3 163.1 115.0 C 164.3 115.9 165.2 117.8 165.6 120.4 C 165.9 122.6 166.7 124.9 167.4 125.5 C 167.4 125.5 167.4 125.5 167.4 125.5 C 167.9 126.5 168.3 127.5 168.8 128.6 C 168.8 129.6 169.3 131.4 169.9 132.8 C 170.5 134.3 170.9 135.9 170.8 136.4 C 170.6 136.9 171.3 137.9 172.2 138.5 C 173.3 139.4 173.8 140.9 173.7 143.5 C 173.6 145.8 174.2 148.1 175.3 149.5 C 177.2 152.0 178.6 156.3 178.5 159.6 C 178.5 160.8 178.5 163.8 178.4 166.2 C 178.4 168.6 177.9 170.3 177.5 170.0 C 177.0 169.7 176.1 170.1 175.4 170.9 C 174.8 171.7 174.6 172.3 175.0 172.3 C 175.4 172.3 175.0 173.1 174.2 174.1 C 173.0 175.4 172.9 176.1 173.7 176.9 C 173.9 177.1 174.0 177.3 174.1 177.4 C 174.0 177.7 173.8 177.9 173.6 178.2 C 173.3 178.5 173.0 178.7 172.2 179.0 C 170.8 179.5 169.7 180.4 169.7 181.0 C 169.7 181.6 166.5 185.4 162.5 189.5 C 159.4 192.7 157.2 195.3 156.2 196.7 C 155.5 197.4 154.1 198.9 153.8 199.2 C 153.7 199.3 153.6 199.4 153.4 199.4 C 152.4 199.7 151.5 200.6 151.5 201.3 C 151.5 202.1 148.1 206.1 143.9 210.2 C 139.6 214.3 136.2 218.0 136.2 218.3 C 136.2 218.7 134.7 220.6 132.8 222.7 C 130.4 225.3 129.2 226.0 128.4 225.3 C 127.1 224.0 122.3 226.8 116.7 232.2 C 114.6 234.3 110.0 237.4 106.5 239.1 C 103.5 240.6 100.8 241.5 97.8 241.9 C 96.5 242.0 95.2 242.0 93.4 242.1 C 92.1 242.1 91.6 242.1 90.6 242.1 C 88.6 241.9 86.5 241.7 84.0 241.3 C 82.5 241.0 81.4 240.9 80.5 240.8 C 80.0 240.5 79.5 240.5 79.0 240.8 C 77.9 240.9 77.3 241.3 76.4 242.2 C 71.4 247.0 70.0 248.0 68.3 248.0 C 68.1 248.0 67.9 248.2 67.6 248.3 C 66.9 248.0 66.4 248.6 65.8 249.5 C 65.5 249.8 65.2 250.1 64.9 250.4 C 63.9 252.0 63.2 252.5 61.9 252.4 Z M 61.9 252.4 "></path></clipPath><g clip-path="url(#clip0x7fab9db42b90)"><image xlink:href="../../2FF956CC-37A4-4E29-9EB3-D61A26D0D5EC/assets/C0D090881B3B760F5396F11F8570EEE0.jpeg" width="2058.00" height="768.00" transform="matrix(0.60, 0.00, -0.00, -0.60, -5.0, 407.0)"></image></g></g></g></g><path d="M 49.8 47.7 C 49.3 47.7 48.8 47.8 48.1 47.9 C 46.4 48.3 42.9 48.5 40.2 48.4 C 34.6 48.2 30.8 49.6 26.3 53.6 C 19.7 59.4 20.2 51.8 20.3 146.3 C 20.4 211.1 20.7 232.5 21.6 233.5 C 21.9 233.9 22.6 234.3 23.4 234.5 C 23.4 234.5 23.4 234.5 23.4 234.5 C 24.3 234.8 25.3 235.0 26.2 235.0 C 33.1 235.2 44.2 235.2 54.2 234.9 C 62.4 234.6 64.7 234.9 66.7 236.2 C 68.0 237.2 69.4 237.6 69.8 237.3 C 70.1 236.9 71.0 237.1 71.7 237.7 C 72.3 238.3 75.2 238.6 78.0 238.5 C 80.8 238.4 83.2 238.6 83.5 239.0 C 83.5 239.1 83.7 239.1 83.7 239.2 C 83.8 239.2 83.8 239.2 83.9 239.2 C 85.6 239.3 85.8 239.3 87.3 239.4 C 87.7 239.2 88.1 239.0 88.3 238.8 C 89.1 238.1 90.0 238.0 91.2 238.7 C 94.2 240.2 105.7 239.1 108.5 236.9 C 109.8 235.9 111.4 235.0 112.1 235.0 C 114.2 235.0 134.2 212.8 136.2 208.3 C 136.8 206.9 138.6 204.5 140.3 202.9 C 143.0 200.3 148.9 189.7 148.9 187.4 C 148.9 186.9 149.9 185.8 150.9 185.1 C 152.2 184.2 153.1 182.4 153.4 179.8 C 153.7 177.5 154.6 175.2 155.3 174.6 C 155.3 174.6 155.3 174.6 155.3 174.6 C 155.8 173.6 156.2 172.6 156.6 171.5 C 156.7 170.5 157.1 168.7 157.7 167.3 C 158.3 165.9 158.7 164.2 158.6 163.7 C 158.5 163.2 159.1 162.3 160.1 161.6 C 161.2 160.8 161.7 159.2 161.6 156.7 C 161.5 154.3 162.1 152.1 163.2 150.7 C 165.1 148.2 166.5 143.8 166.4 140.5 C 166.4 139.3 166.3 136.4 166.3 134.0 C 166.2 131.6 165.8 129.8 165.3 130.1 C 164.9 130.4 163.9 130.0 163.3 129.2 C 162.6 128.4 162.5 127.8 162.9 127.8 C 163.3 127.8 162.9 127.0 162.0 126.1 C 160.8 124.8 160.7 124.0 161.6 123.2 C 161.8 123.0 161.9 122.9 161.9 122.7 C 161.8 122.5 161.6 122.2 161.4 121.9 C 161.1 121.7 160.8 121.4 160.1 121.2 C 158.7 120.6 157.6 119.7 157.6 119.1 C 157.6 118.5 154.3 114.7 150.4 110.6 C 147.2 107.4 145.0 104.8 144.1 103.4 C 143.4 102.7 142.0 101.2 141.7 100.9 C 141.5 100.8 141.4 100.8 141.3 100.7 C 140.2 100.4 139.4 99.6 139.4 98.8 C 139.4 98.0 135.9 94.0 131.7 89.9 C 127.5 85.8 124.1 82.2 124.1 81.8 C 124.1 81.4 122.5 79.5 120.7 77.5 C 118.3 74.8 117.1 74.1 116.3 74.8 C 115.0 76.2 110.2 73.3 104.6 68.0 C 102.4 65.9 97.8 62.7 94.4 61.0 C 91.4 59.5 88.7 58.7 85.7 58.2 C 84.4 58.2 83.1 58.1 81.2 58.1 C 79.9 58.0 79.5 58.1 78.4 58.1 C 76.5 58.2 74.4 58.4 71.9 58.8 C 70.4 59.1 69.3 59.2 68.4 59.3 C 67.9 59.6 67.4 59.7 66.9 59.3 C 65.8 59.2 65.1 58.8 64.2 57.9 C 59.3 53.2 57.9 52.2 56.2 52.2 C 56.0 52.2 55.7 52.0 55.5 51.9 C 54.8 52.1 54.2 51.6 53.7 50.6 C 53.4 50.3 53.0 50.1 52.8 49.7 C 51.7 48.1 51.1 47.6 49.8 47.7 Z M 49.8 47.7 " fill="none" stroke="#000000" stroke-width="1.00" transform="matrix(1.00, 0.00, 0.00, -1.00, 12.1, 300.1)"></path></g></svg>