<?xml version="1.0" encoding="UTF-8" standalone="no"?><svg xmlns="http://www.w3.org/2000/svg" xmlns:xlink="http://www.w3.org/1999/xlink" clip-rule="evenodd" stroke-miterlimit="10" viewBox="0 0 291 387"><desc>SVG generated by Keynote</desc><defs></defs><g transform="matrix(1.00, 0.00, -0.00, -1.00, 0.0, 387.0)"><image xlink:href="../../2FF956CC-37A4-4E29-9EB3-D61A26D0D5EC/assets/61D2253BD56A8E23638182F6A9410E96.png" width="287.00" height="372.00" transform="matrix(1.00, 0.00, -0.00, -1.00, 1.9, 373.7)" opacity="0.60"></image><g><clipPath id="clip0x7fab9dace180"><path d="M 12.0 370.0 L 279.0 370.0 L 279.0 17.0 L 12.0 17.0 Z M 12.1 369.7 "></path></clipPath><g clip-path="url(#clip0x7fab9dace180)"><g><clipPath id="clip0x7fab9db095b0"><path d="M 83.3 473.3 C 82.9 473.3 82.8 472.6 82.4 471.4 C 82.1 470.0 82.1 466.2 82.6 463.0 C 83.3 457.6 83.4 457.5 83.9 461.5 C 84.2 463.9 85.0 466.6 85.7 467.4 C 86.4 468.2 86.1 470.0 85.0 471.4 C 84.1 472.6 83.6 473.3 83.3 473.3 Z M -33.4 473.0 C -33.9 473.0 -34.3 472.3 -35.1 471.0 C -36.2 469.3 -36.4 467.9 -35.5 467.3 C -34.7 466.9 -34.1 464.4 -34.0 461.8 L -34.0 457.1 L -33.0 461.9 C -31.8 468.1 -29.2 468.1 -28.0 461.9 C -27.3 458.2 -27.1 459.0 -26.9 465.8 C -26.8 473.4 -27.0 474.2 -28.7 471.8 C -30.5 469.3 -30.8 469.3 -32.0 471.5 C -32.6 472.5 -33.0 473.1 -33.4 473.0 Z M 90.7 472.4 C 90.6 472.5 90.4 472.4 90.3 472.0 C 89.7 470.6 89.5 466.9 89.8 463.7 C 90.6 455.1 91.5 456.6 91.4 466.3 C 91.4 469.9 91.1 472.2 90.7 472.4 Z M -56.5 471.0 C -56.8 471.4 -56.9 469.5 -56.9 465.9 C -56.9 461.1 -56.7 458.9 -56.3 461.1 C -56.0 463.3 -56.0 467.3 -56.3 469.9 C -56.4 470.5 -56.5 470.9 -56.5 471.0 Z M 31.0 471.0 C 30.8 471.4 30.7 469.5 30.7 465.9 C 30.6 461.1 30.9 458.9 31.3 461.1 C 31.6 463.3 31.6 467.3 31.3 469.9 C 31.2 470.5 31.1 470.9 31.0 471.0 Z M -79.9 469.5 C -81.2 469.5 -81.7 468.5 -81.1 466.5 C -80.5 464.2 -80.0 463.9 -79.1 465.4 C -77.3 468.2 -77.5 469.5 -79.9 469.5 Z M -2.8 469.5 C -8.6 469.5 -10.6 461.0 -5.7 457.5 C -2.6 455.4 1.5 457.1 2.9 461.2 C 4.5 466.1 2.2 469.5 -2.8 469.5 Z M 74.0 470.0 C 70.9 469.5 67.9 468.9 67.4 468.0 C 66.8 467.0 65.7 467.1 64.1 468.4 C 62.6 469.7 61.7 469.8 61.3 468.6 C 61.0 467.8 59.8 465.8 58.7 464.3 C 56.8 461.6 56.6 461.7 55.1 465.7 C 54.2 468.1 53.2 469.6 52.8 469.2 C 51.7 468.2 56.3 457.9 57.8 457.9 C 58.5 457.9 59.9 460.0 60.8 462.6 C 62.4 467.2 62.6 467.2 64.6 464.5 C 65.8 463.0 66.7 460.9 66.7 459.9 C 66.7 458.9 67.5 457.8 68.5 457.3 C 70.0 456.7 77.2 457.5 77.8 458.4 C 77.9 458.5 78.5 461.1 79.0 464.1 L 80.0 470.0 L 74.0 470.0 Z M 43.0 469.5 C 41.0 469.8 38.8 469.0 37.6 466.7 C 35.5 462.9 35.7 461.4 38.4 458.7 C 42.0 455.0 46.3 456.1 48.2 461.3 C 49.7 465.4 46.5 469.0 43.0 469.5 Z M 101.3 469.5 C 98.5 469.1 95.9 466.8 95.9 463.1 C 95.9 461.3 96.7 459.1 97.6 458.2 C 102.0 453.7 108.1 457.8 107.3 464.7 C 106.9 468.4 104.0 469.8 101.3 469.5 Z M 114.0 469.4 C 112.0 469.3 112.0 468.1 112.2 463.4 C 112.3 459.3 112.6 458.5 113.0 461.0 C 113.7 465.6 117.3 469.2 119.2 467.2 C 119.9 466.5 120.8 463.9 121.2 461.5 C 121.7 458.3 121.8 458.8 121.6 463.0 C 121.4 468.4 121.2 468.8 116.7 469.3 C 115.5 469.4 114.6 469.5 114.0 469.4 Z M 133.9 469.0 L 134.0 463.3 L 134.0 457.1 L 135.0 462.3 C 135.7 466.1 136.8 467.4 139.0 467.4 C 141.2 467.4 142.4 466.1 143.0 462.3 L 144.0 457.1 L 144.0 462.3 C 144.4 465.5 145.6 467.4 147.0 467.4 C 148.3 467.4 149.4 465.4 150.0 462.3 L 151.0 457.1 L 151.0 463.2 L 151.0 469.0 L 142.6 469.0 L 133.9 469.0 Z M -13.3 469.4 C -13.5 469.3 -13.6 469.0 -13.6 468.6 C -13.6 467.8 -14.5 465.9 -15.7 464.3 C -17.7 461.6 -17.8 461.7 -19.4 465.7 C -20.2 468.1 -21.3 469.6 -21.7 469.2 C -22.2 468.7 -21.5 466.0 -20.3 463.1 C -19.1 460.2 -17.5 457.9 -16.9 457.9 C -15.3 457.9 -11.6 468.0 -12.7 469.2 C -13.0 469.4 -13.2 469.5 -13.3 469.4 Z M -67.1 469.3 C -67.8 469.4 -68.5 469.4 -69.3 469.3 C -73.2 468.7 -74.8 462.0 -71.9 458.5 C -69.8 455.9 -65.2 455.8 -63.7 458.2 C -60.5 463.4 -62.4 468.7 -67.1 469.3 Z M 19.4 469.3 C 14.4 468.6 12.3 462.8 16.4 458.7 C 21.2 454.0 26.2 456.8 25.6 463.8 C 25.2 467.7 24.4 468.9 21.7 469.3 C 20.9 469.4 20.1 469.4 19.4 469.3 Z M -39.0 469.2 L -44.7 469.0 C -50.3 468.8 -50.9 468.4 -51.3 464.7 C -51.5 462.4 -50.9 459.6 -49.9 458.4 C -48.7 456.9 -46.8 456.5 -44.3 457.2 C -39.9 458.3 -40.0 457.5 -39.0 463.9 L -39.0 469.2 Z M -121.8 447.6 C -122.5 447.6 -121.9 446.4 -120.5 445.0 C -119.1 443.5 -117.7 442.5 -117.4 442.7 C -116.5 443.4 -120.3 447.6 -121.8 447.6 Z M 8.9 447.5 C 8.5 447.9 7.1 447.0 5.7 445.6 C 3.3 443.1 3.3 443.0 6.4 444.9 C 8.2 445.9 9.3 447.1 8.9 447.5 Z M 175.0 447.3 C 174.2 447.2 173.3 446.8 172.3 446.0 C 170.3 444.3 169.6 435.8 171.3 434.0 C 171.8 433.5 173.8 433.1 175.7 433.1 C 178.8 433.1 179.1 433.7 179.1 439.5 C 179.1 444.6 177.4 447.5 175.0 447.3 Z M -91.6 447.3 C -92.5 447.3 -93.5 447.2 -94.6 446.7 C -96.9 445.9 -97.8 436.0 -95.8 434.0 C -95.2 433.4 -93.4 433.1 -91.8 433.3 C -89.4 433.7 -88.7 435.0 -88.3 439.8 C -88.0 444.5 -89.1 447.0 -91.6 447.3 Z M -31.1 447.3 C -31.9 447.1 -32.8 446.6 -33.8 445.6 C -35.6 443.7 -36.3 443.7 -39.3 445.7 C -42.1 447.5 -43.2 447.6 -45.0 446.2 C -47.2 444.4 -48.0 435.9 -46.2 434.0 C -44.6 432.5 -38.7 432.9 -37.6 434.6 C -36.9 435.8 -36.2 435.8 -35.0 434.6 C -34.2 433.8 -31.9 433.1 -30.1 433.1 C -27.1 433.1 -26.7 433.8 -26.7 439.5 C -26.7 444.8 -28.6 447.7 -31.1 447.3 Z M -61.0 447.2 C -63.5 447.0 -64.7 444.4 -64.7 439.4 C -64.7 433.1 -64.5 432.9 -60.7 433.3 C -57.1 433.7 -56.6 434.5 -56.2 439.8 C -55.9 444.2 -56.4 446.1 -58.0 446.7 C -59.2 447.1 -60.1 447.3 -61.0 447.2 Z M 106.4 447.1 C 102.6 447.0 100.4 441.2 102.6 435.4 C 103.1 434.1 105.1 433.1 107.0 433.1 C 110.2 433.1 110.5 433.7 110.5 439.5 C 110.5 444.0 109.8 446.1 108.1 446.8 C 107.5 447.0 106.9 447.1 106.4 447.1 Z M 89.2 447.0 C 86.2 446.5 81.8 441.3 80.9 436.5 C 80.4 433.8 80.7 433.4 82.1 434.6 C 83.4 435.6 84.2 435.7 84.9 434.6 C 85.4 433.7 87.5 433.1 89.4 433.1 C 92.7 433.1 93.0 433.6 93.0 439.5 C 93.0 444.2 92.3 446.1 90.4 446.9 C 90.1 447.0 89.7 447.0 89.2 447.0 Z M 38.0 446.8 C 35.6 446.9 34.6 444.6 34.6 439.5 C 34.6 433.7 34.9 433.1 38.1 433.1 C 43.6 433.1 45.7 443.4 40.8 445.9 C 39.7 446.5 38.8 446.8 38.0 446.8 Z M 159.0 441.7 C 158.9 441.6 159.4 440.9 160.3 439.3 C 161.3 437.5 162.5 436.4 162.9 436.8 C 163.3 437.2 162.4 438.6 161.0 440.0 C 159.7 441.2 159.1 441.8 159.0 441.7 Z M -119.6 439.5 C -119.8 439.4 -120.7 438.7 -122.0 437.5 C -125.0 434.9 -125.5 433.7 -124.2 432.8 C -121.6 431.2 -121.3 431.3 -122.0 433.4 C -122.4 434.4 -121.6 436.6 -120.3 438.2 C -119.5 439.1 -119.3 439.6 -119.6 439.5 Z M -135.5 424.0 L -135.0 414.9 L -134.0 406.0 L -84.0 407.0 C -56.3 407.5 -19.6 408.2 -2.6 408.2 C 28.4 408.2 28.4 408.2 29.0 411.5 C 29.3 413.3 29.4 416.4 29.0 418.4 L 28.0 422.0 L -12.1 422.0 C -34.2 422.2 -71.0 422.8 -93.9 423.0 L -135.5 424.0 Z M 177.1 423.2 C 132.0 423.1 45.0 422.1 40.1 421.5 C 39.5 421.4 39.0 418.4 39.0 414.8 L 39.0 408.0 L 75.1 408.0 C 95.0 407.8 132.7 407.2 159.0 407.0 L 207.0 407.0 L 207.0 414.6 C 207.0 421.7 206.5 422.6 203.5 423.0 C 202.5 423.2 192.1 423.3 177.1 423.2 Z M 154.0 398.1 C 151.6 398.1 149.1 396.3 148.7 393.4 C 148.1 387.7 153.7 384.8 156.7 389.2 C 159.1 392.6 161.6 392.0 161.6 388.0 C 161.6 386.6 162.4 384.7 163.3 383.7 C 167.7 379.3 172.2 383.7 171.5 391.7 C 171.2 396.3 170.5 397.4 167.7 397.8 C 165.8 398.0 163.1 397.2 161.6 395.8 C 159.1 393.6 158.8 393.6 157.6 395.8 C 156.8 397.3 155.4 398.0 154.0 398.1 Z M -87.3 397.3 C -91.3 397.3 -91.7 396.8 -92.1 391.7 C -92.4 388.6 -91.8 385.2 -90.9 384.1 C -89.9 382.9 -88.3 382.0 -87.3 382.0 C -84.0 382.0 -82.0 386.0 -82.5 391.7 C -82.9 396.8 -83.3 397.3 -87.3 397.3 Z M 187.1 397.3 C 183.1 397.3 182.7 396.8 182.3 391.7 C 182.0 388.6 182.6 385.2 183.6 384.1 C 184.5 382.9 186.1 382.0 187.1 382.0 C 190.4 382.0 192.4 386.0 192.0 391.7 C 191.6 396.8 191.2 397.3 187.1 397.3 Z M -109.8 394.3 C -110.5 394.7 -111.5 394.1 -111.9 393.0 C -112.4 391.6 -112.0 391.1 -110.6 391.7 C -108.1 392.6 -108.0 393.2 -109.8 394.3 Z M -107.0 393.6 C -107.1 393.6 -106.6 393.0 -105.7 391.8 C -104.6 390.4 -103.5 389.3 -103.2 389.3 C -102.0 389.3 -102.8 390.5 -105.2 392.4 C -106.3 393.3 -106.9 393.7 -107.0 393.6 Z M -119.8 392.9 C -120.0 392.9 -120.2 392.8 -120.4 392.7 C -121.3 392.2 -121.1 391.3 -119.9 390.6 C -117.3 388.9 -117.2 388.9 -118.2 391.4 C -118.5 392.3 -119.2 392.9 -119.8 392.9 Z M -131.8 389.1 C -132.5 389.1 -133.1 389.0 -133.6 388.8 C -134.6 388.4 -133.8 388.0 -131.8 388.0 C -129.8 388.0 -129.0 388.4 -130.0 388.8 C -130.5 389.0 -131.2 389.1 -131.8 389.1 Z M -112.8 386.4 C -112.9 386.3 -112.5 385.7 -111.6 384.5 C -110.5 383.1 -108.9 382.0 -108.0 382.0 C -107.2 382.0 -106.8 382.2 -107.1 382.4 C -107.5 382.6 -109.1 383.8 -110.7 384.9 C -112.0 385.9 -112.7 386.4 -112.8 386.4 Z M -253.4 353.0 C -254.2 352.2 -255.2 351.6 -256.4 351.0 C -259.2 349.8 -263.5 346.7 -266.0 344.2 C -268.4 341.7 -271.2 339.6 -272.0 339.6 C -272.9 339.6 -274.5 338.9 -275.5 338.0 C -276.9 336.7 -282.0 336.2 -297.3 335.9 C -315.3 335.6 -317.7 335.3 -321.5 333.0 C -323.3 332.0 -324.4 331.5 -325.3 331.4 C -326.0 273.1 -326.0 70.3 -325.1 48.9 C -324.4 48.9 -323.6 48.6 -323.0 48.2 C -321.7 47.0 -321.0 47.0 -319.6 48.2 C -318.2 49.3 -317.5 49.4 -316.5 48.4 C -314.9 46.7 -308.0 46.6 -307.0 48.2 C -305.3 51.0 -300.0 49.2 -295.0 44.1 C -288.6 37.5 -282.9 34.5 -277.1 34.7 C -273.0 34.9 -264.7 31.7 -262.8 29.6 C -261.5 29.6 -260.7 29.6 -259.6 29.7 C -259.6 29.7 -259.5 29.6 -259.4 29.7 C -257.8 29.9 -255.5 30.0 -252.2 30.1 C -247.4 30.1 -243.2 30.6 -242.9 31.1 C -242.6 31.6 -240.1 31.8 -237.3 31.6 C -233.8 31.4 -232.1 31.8 -231.6 32.9 C -230.9 34.7 -225.7 35.0 -224.6 33.3 C -224.2 32.6 -222.5 33.1 -220.3 34.7 C -218.4 36.1 -215.6 37.8 -214.2 38.5 C -210.9 40.0 -200.1 50.2 -200.1 51.9 C -200.1 52.6 -198.7 54.6 -197.1 56.3 C -195.4 58.1 -194.0 60.7 -193.9 62.1 C -193.8 63.9 -193.1 64.7 -191.7 64.6 C -190.3 64.5 -189.9 65.0 -190.4 66.5 C -190.7 67.6 -190.5 68.9 -189.8 69.3 C -188.9 69.9 -189.0 70.6 -190.0 71.8 C -191.2 73.3 -191.0 73.9 -189.1 75.4 C -187.8 76.5 -186.5 78.2 -186.0 79.3 C -185.3 81.2 -183.4 81.8 -179.1 81.4 C -178.0 81.2 -176.1 82.5 -174.8 84.0 C -173.6 85.6 -171.4 87.2 -170.0 87.7 C -165.9 89.0 -159.1 94.9 -159.3 97.0 C -159.4 98.1 -158.8 98.9 -158.1 98.8 C -157.3 98.6 -155.5 100.0 -154.1 101.9 C -152.7 103.8 -150.9 105.3 -150.1 105.3 C -149.3 105.3 -148.6 106.1 -148.6 107.1 C -148.6 108.0 -147.8 109.1 -146.9 109.5 C -146.0 109.8 -144.9 112.0 -144.4 114.3 C -143.6 119.1 -141.4 122.8 -136.9 127.4 C -135.1 129.2 -133.7 131.3 -133.7 132.1 C -133.7 133.0 -133.0 135.1 -132.0 136.9 C -131.1 138.7 -130.6 141.1 -131.0 142.2 C -131.3 143.4 -130.9 144.5 -129.8 144.9 C -128.5 145.4 -128.0 146.8 -128.2 149.8 C -128.5 154.7 -127.3 157.2 -125.0 156.3 C -123.0 155.5 -122.8 163.0 -124.7 164.3 C -125.7 164.8 -125.5 165.5 -124.1 166.6 C -121.9 168.2 -122.4 171.9 -125.4 175.2 C -126.3 176.3 -126.7 177.7 -126.3 178.5 C -125.8 179.2 -126.4 180.4 -127.6 181.3 C -129.4 182.6 -129.7 184.6 -129.9 193.4 C -130.1 202.6 -130.5 204.3 -132.8 206.9 C -136.1 210.6 -138.3 214.5 -138.3 216.6 C -138.3 217.4 -139.9 221.0 -141.7 224.6 C -143.6 228.1 -145.2 232.5 -145.2 234.3 C -145.2 236.2 -146.3 238.5 -148.0 240.2 C -149.6 241.7 -150.9 244.1 -150.9 245.6 C -150.9 247.4 -151.8 248.6 -153.7 249.3 C -156.2 250.2 -156.6 251.1 -156.6 255.3 C -156.6 258.1 -156.0 260.9 -155.4 261.5 C -154.1 262.8 -154.2 263.1 -158.0 270.2 C -158.7 271.6 -159.2 276.4 -159.1 281.0 C -159.0 285.5 -159.4 289.5 -160.0 289.9 C -160.7 290.3 -161.2 291.8 -161.2 293.2 C -161.2 294.6 -161.8 296.3 -162.5 297.1 C -163.5 298.1 -163.4 298.6 -161.9 299.2 C -159.4 300.1 -160.2 304.2 -164.1 311.7 C -165.7 314.5 -166.9 317.9 -166.9 319.1 C -166.9 320.5 -167.7 321.3 -168.9 321.3 C -170.1 321.3 -172.7 323.1 -174.7 325.3 C -179.6 330.5 -188.0 337.3 -189.4 337.3 C -190.1 337.3 -191.4 338.3 -192.4 339.4 C -193.6 340.6 -196.2 341.6 -199.1 341.7 C -201.8 341.9 -204.6 342.5 -205.3 343.1 C -206.0 343.7 -208.8 344.3 -211.7 344.5 C -215.0 344.7 -217.7 345.7 -219.5 347.3 C -221.0 348.7 -222.9 349.9 -223.7 349.9 C -224.6 349.9 -226.2 350.4 -227.3 351.0 C -228.3 351.5 -230.2 352.3 -231.4 352.7 C -231.5 352.7 -231.5 353.0 -231.5 353.0 L -253.4 353.0 Z M 104.4 353.0 C 103.6 352.0 102.3 351.0 100.6 350.1 C 97.9 348.7 93.8 345.7 91.6 343.6 C 89.3 341.4 86.8 339.6 85.9 339.6 C 85.1 339.6 83.6 338.9 82.6 338.0 C 80.2 336.0 39.0 335.0 33.0 336.7 L 33.0 191.6 L 33.0 30.0 L 37.1 30.0 C 40.6 29.6 97.5 29.5 171.0 29.7 C 171.4 30.3 173.2 30.8 177.7 31.6 C 180.1 32.0 182.0 32.8 182.0 33.3 C 182.0 33.9 184.1 35.5 186.6 36.8 C 189.2 38.1 192.1 40.6 193.2 42.3 C 194.3 44.1 197.0 47.1 199.4 49.2 C 202.2 51.6 205.7 57.1 209.9 65.6 C 215.3 76.7 216.8 78.8 220.5 80.7 C 226.9 83.9 234.5 91.5 237.3 97.3 C 238.7 100.1 241.2 104.0 243.0 105.8 C 244.7 107.7 245.9 109.8 245.5 110.7 C 245.2 111.5 247.1 116.1 249.6 120.8 C 252.1 125.6 253.9 129.8 253.6 130.2 C 253.3 130.5 253.7 131.8 254.7 133.1 C 255.6 134.5 256.3 137.6 256.3 140.2 C 256.3 142.8 256.9 145.5 257.7 146.2 C 258.8 147.3 258.8 147.9 257.7 149.0 C 255.4 151.3 256.0 160.3 258.7 163.1 C 260.0 164.5 261.2 166.3 261.4 167.2 C 262.3 171.5 263.5 175.8 264.5 177.9 C 265.0 179.2 265.7 183.3 265.9 187.0 C 266.1 190.8 266.7 194.9 267.2 196.1 C 267.9 197.6 267.7 198.5 266.7 198.8 C 265.9 199.1 263.8 202.6 262.0 206.6 C 259.0 213.3 258.8 214.3 259.9 220.8 C 260.8 226.9 260.7 228.3 258.7 232.0 C 255.4 238.1 252.9 246.5 252.9 251.4 C 252.9 254.4 252.2 256.0 250.6 257.1 C 249.4 257.8 248.3 259.3 248.3 260.4 C 248.3 261.4 246.0 264.5 243.1 267.2 C 239.2 270.9 238.0 272.7 238.6 274.3 C 239.0 275.6 238.7 276.9 238.1 277.3 C 237.4 277.7 236.9 279.0 236.9 280.2 C 236.9 281.4 235.3 284.2 233.5 286.3 C 231.6 288.4 230.0 290.4 230.0 290.7 C 230.0 291.9 217.8 303.9 214.9 305.7 C 213.2 306.8 210.8 307.6 209.5 307.6 C 208.1 307.6 202.4 312.4 194.9 319.9 C 182.8 332.0 180.4 334.8 179.0 338.8 C 178.6 339.9 177.7 340.8 177.0 340.8 C 176.3 340.8 173.7 342.8 171.2 345.4 C 168.8 347.9 166.1 349.8 165.3 349.5 C 164.6 349.2 162.8 349.7 161.5 350.7 C 160.3 351.5 159.8 352.4 159.8 353.0 L 104.4 353.0 Z M 391.2 353.0 L 391.0 191.5 L 391.0 30.0 L 434.2 30.0 C 458.1 29.7 505.2 29.4 538.8 29.7 C 545.4 29.8 554.1 29.7 561.9 29.8 C 562.6 31.0 564.0 32.8 565.8 34.8 C 568.6 37.8 571.7 41.5 572.7 43.0 C 573.8 44.6 575.2 45.9 575.8 45.9 C 576.5 45.9 580.8 49.7 585.4 54.5 C 590.0 59.2 594.3 63.0 595.0 63.0 C 595.6 63.0 597.2 65.3 598.4 68.0 C 599.6 70.7 601.6 73.8 602.8 74.9 C 604.0 76.0 605.3 78.4 605.6 80.3 C 606.0 82.2 608.2 85.4 610.4 87.3 C 612.6 89.3 614.4 91.4 614.4 92.1 C 614.4 92.8 615.8 94.7 617.5 96.3 C 627.3 105.3 644.7 137.8 641.7 141.5 C 641.0 142.3 641.3 143.2 642.4 144.2 C 644.4 145.9 644.6 148.9 642.8 150.8 C 641.9 151.6 641.4 156.6 641.4 164.1 C 641.4 173.9 641.7 176.6 643.3 178.1 C 645.0 179.9 645.0 180.1 643.2 181.4 C 641.6 182.6 641.5 183.2 642.9 185.7 C 643.7 187.2 644.0 189.1 643.5 189.9 C 643.1 190.6 642.3 194.2 641.8 197.7 C 640.8 204.9 638.8 210.8 635.8 215.3 C 634.7 217.0 633.6 219.3 633.4 220.4 C 633.2 221.6 632.7 223.2 632.4 224.2 C 632.0 225.1 631.4 226.9 630.9 228.2 C 629.8 231.2 628.5 239.3 627.8 248.4 C 627.7 249.4 627.2 250.2 626.6 250.1 C 625.2 249.8 622.4 259.5 623.7 260.3 C 624.2 260.6 624.7 261.7 624.7 262.6 C 624.7 263.5 624.2 264.0 623.6 263.7 C 622.7 263.1 616.6 272.0 616.5 274.2 C 616.5 274.6 615.7 275.9 614.8 277.0 C 613.7 278.2 613.3 279.8 613.8 281.3 C 614.8 284.5 611.5 293.3 608.8 294.6 C 607.6 295.2 603.5 299.4 599.5 304.0 C 595.6 308.6 591.2 312.8 589.7 313.4 C 588.2 314.0 586.9 315.4 586.9 316.5 C 586.9 318.7 579.1 327.0 577.1 327.0 C 574.5 327.0 565.2 339.1 565.2 342.5 C 565.2 343.5 564.6 344.0 564.0 343.6 C 563.3 343.1 561.3 344.1 559.7 345.7 C 558.0 347.3 555.2 349.2 553.4 349.8 C 551.4 350.6 550.5 351.8 550.5 353.0 L 391.2 353.0 Z M -652.1 302.2 C -653.6 302.2 -655.5 302.2 -657.9 302.1 C -663.7 301.9 -669.0 301.2 -669.6 300.7 C -670.2 300.1 -671.4 299.6 -672.3 299.6 C -673.2 299.6 -675.1 298.4 -676.6 297.0 C -678.0 295.6 -680.7 293.0 -682.5 291.3 C -683.1 290.7 -683.7 290.3 -684.3 289.9 C -685.3 227.4 -685.3 132.8 -684.3 81.2 C -683.9 81.1 -683.6 81.0 -683.2 80.7 C -681.8 79.8 -679.4 79.1 -678.0 79.1 C -676.5 79.1 -673.6 78.8 -671.5 78.4 C -669.2 77.9 -666.7 78.2 -665.0 79.1 C -662.7 80.3 -661.7 80.3 -659.4 79.1 C -657.5 78.1 -656.1 77.9 -655.1 78.7 C -654.3 79.3 -649.8 79.9 -645.0 80.0 C -638.5 80.1 -635.3 79.6 -631.5 77.8 C -628.7 76.5 -626.2 75.7 -625.9 76.1 C -625.5 76.4 -624.6 76.2 -623.8 75.5 C -622.9 74.8 -614.8 74.2 -604.2 74.0 C -594.2 73.9 -585.5 73.4 -584.8 73.0 C -584.2 72.6 -582.5 73.5 -581.0 75.0 C -579.6 76.5 -577.2 78.0 -575.6 78.4 C -573.9 78.8 -569.8 82.3 -566.2 86.2 C -562.7 90.1 -556.6 96.7 -552.7 100.8 C -548.7 105.0 -545.5 109.3 -545.5 110.4 C -545.5 111.5 -543.8 114.1 -541.7 116.2 C -537.3 120.6 -534.1 125.2 -534.1 127.1 C -534.1 127.8 -533.1 129.8 -531.8 131.5 C -530.6 133.3 -529.9 135.0 -530.3 135.4 C -530.7 135.8 -529.6 137.4 -528.0 139.0 C -526.1 140.7 -524.9 143.0 -524.9 145.0 C -524.9 146.7 -524.1 149.2 -523.2 150.4 C -522.3 151.6 -521.5 153.5 -521.5 154.6 C -521.5 155.7 -520.9 158.1 -520.2 159.8 C -519.5 161.6 -518.9 163.7 -519.1 164.4 C -519.2 165.2 -518.2 166.3 -517.0 167.0 C -515.2 167.9 -514.6 169.4 -514.6 172.7 C -514.6 177.3 -513.1 181.6 -509.7 186.7 C -508.4 188.5 -507.9 190.4 -508.5 191.3 C -509.0 192.1 -509.5 195.0 -509.6 197.9 C -509.8 200.7 -509.9 203.6 -510.0 204.3 C -510.0 205.1 -511.0 205.6 -512.1 205.5 C -513.2 205.4 -514.1 206.1 -514.2 207.0 C -514.3 208.0 -514.5 209.3 -514.6 209.9 C -514.8 210.5 -515.0 211.5 -515.1 212.2 C -515.1 212.8 -520.1 218.4 -526.1 224.6 C -532.1 230.8 -537.1 236.4 -537.4 237.1 C -537.7 237.8 -539.1 239.4 -540.6 240.6 C -542.1 241.8 -543.1 243.0 -542.9 243.2 C -542.6 243.5 -546.5 247.7 -551.4 252.7 C -556.4 257.6 -560.4 262.2 -560.4 262.7 C -560.4 263.3 -562.2 265.5 -564.3 267.6 C -567.7 270.8 -568.6 271.2 -570.1 270.0 C -571.5 268.7 -572.0 268.9 -572.7 271.0 C -573.3 272.4 -574.0 273.4 -574.5 273.4 C -574.9 273.4 -575.7 273.3 -576.3 273.3 C -576.9 273.3 -580.1 275.9 -583.5 279.0 C -586.8 282.2 -590.3 284.8 -591.3 284.8 C -592.2 284.8 -595.1 286.1 -597.6 287.6 C -601.7 290.2 -603.4 290.5 -614.2 290.5 C -622.1 290.5 -626.8 290.0 -627.7 289.1 C -628.7 288.0 -629.8 288.5 -632.3 291.2 C -636.4 295.7 -641.2 298.9 -642.6 298.0 C -643.2 297.6 -644.6 298.4 -645.6 299.9 C -646.8 301.7 -647.6 302.2 -652.1 302.2 Z M -652.1 302.2 "></path></clipPath><g clip-path="url(#clip0x7fab9db095b0)"><image xlink:href="../../2FF956CC-37A4-4E29-9EB3-D61A26D0D5EC/assets/D271E9B3DA4260E40FC97E993C14AFEE.jpeg" width="2055.00" height="768.00" transform="matrix(0.72, 0.00, -0.00, -0.72, -727.0, 487.0)"></image></g></g></g></g><path d="M 92.3 16.9 C 91.5 17.7 90.1 18.7 88.4 19.6 C 85.7 21.0 81.6 24.0 79.4 26.2 C 77.2 28.3 74.6 30.1 73.8 30.1 C 72.9 30.1 71.4 30.8 70.4 31.7 C 68.1 33.7 27.0 34.7 21.0 33.1 L 21.0 178.1 L 21.0 339.3 L 25.0 339.8 C 28.4 340.2 85.4 340.2 158.8 340.1 C 159.2 339.4 161.0 338.9 165.6 338.2 C 167.9 337.8 169.8 337.0 169.8 336.4 C 169.8 335.8 171.9 334.2 174.5 332.9 C 177.0 331.6 180.0 329.2 181.0 327.4 C 182.1 325.7 184.9 322.6 187.2 320.6 C 190.0 318.1 193.5 312.6 197.7 304.1 C 203.2 293.0 204.6 290.9 208.4 289.0 C 214.8 285.8 222.4 278.3 225.2 272.4 C 226.5 269.6 229.1 265.8 230.8 263.9 C 232.6 262.1 233.7 259.9 233.4 259.1 C 233.1 258.2 234.9 253.7 237.4 248.9 C 240.0 244.1 241.8 239.9 241.5 239.6 C 241.1 239.2 241.6 237.9 242.5 236.6 C 243.4 235.2 244.2 232.1 244.2 229.5 C 244.2 227.0 244.8 224.3 245.6 223.5 C 246.6 222.4 246.6 221.8 245.6 220.8 C 243.2 218.4 243.9 209.5 246.6 206.6 C 247.9 205.2 249.1 203.4 249.2 202.5 C 250.1 198.2 251.3 193.9 252.3 191.8 C 252.9 190.6 253.5 186.5 253.8 182.7 C 254.0 178.9 254.5 174.8 255.1 173.6 C 255.7 172.1 255.5 171.2 254.6 170.9 C 253.8 170.6 251.6 167.2 249.8 163.2 C 246.8 156.4 246.7 155.4 247.7 148.9 C 248.7 142.8 248.5 141.4 246.6 137.8 C 243.3 131.6 240.8 123.2 240.8 118.3 C 240.8 115.3 240.1 113.7 238.5 112.7 C 237.2 111.9 236.2 110.4 236.2 109.3 C 236.2 108.3 233.8 105.2 230.9 102.5 C 227.0 98.9 225.9 97.0 226.4 95.4 C 226.8 94.2 226.6 92.8 225.9 92.4 C 225.3 92.0 224.8 90.7 224.8 89.5 C 224.8 88.3 223.2 85.6 221.3 83.4 C 219.4 81.3 217.9 79.3 217.9 79.0 C 217.9 77.8 205.7 65.8 202.8 64.0 C 201.0 63.0 198.6 62.1 197.3 62.1 C 195.9 62.1 190.3 57.4 182.7 49.8 C 170.6 37.7 168.3 34.9 166.9 30.9 C 166.5 29.8 165.6 28.9 164.8 28.9 C 164.1 28.9 161.5 26.9 159.1 24.3 C 156.6 21.8 154.0 20.0 153.2 20.2 C 152.4 20.5 150.7 20.0 149.3 19.0 C 148.1 18.2 147.6 17.6 147.6 16.9 L 92.3 16.9 Z M 92.3 16.9 " fill="none" stroke="#000000" stroke-width="1.00" transform="matrix(1.00, 0.00, 0.00, -1.00, 12.1, 369.7)"></path></g></svg>