<?xml version="1.0" encoding="UTF-8" standalone="no"?><svg xmlns="http://www.w3.org/2000/svg" xmlns:xlink="http://www.w3.org/1999/xlink" clip-rule="evenodd" stroke-miterlimit="10" viewBox="0 0 99 13"><desc>SVG generated by Keynote</desc><defs></defs><g transform="matrix(1.00, 0.00, -0.00, -1.00, 0.0, 13.0)"><text xml:space="preserve" font-family="Avenir-Medium,Avenir" font-size="10.0" fill="#FEFFFE" transform="matrix(1.00, 0.00, -0.00, -1.00, 1.8, 4.1)">G</text><text xml:space="preserve" font-family="Avenir-Medium,Avenir" font-size="10.0" fill="#FEFFFE" transform="matrix(1.00, 0.00, -0.00, -1.00, 9.5, 4.1)">a</text><text xml:space="preserve" font-family="Avenir-Medium,Avenir" font-size="10.0" fill="#FEFFFE" transform="matrix(1.00, 0.00, -0.00, -1.00, 14.7, 4.1)">s</text><text xml:space="preserve" font-family="Avenir-Medium,Avenir" font-size="10.0" fill="#FEFFFE" transform="matrix(1.00, 0.00, -0.00, -1.00, 19.2, 4.1)">g</text><text xml:space="preserve" font-family="Avenir-Medium,Avenir" font-size="10.0" fill="#FEFFFE" transform="matrix(1.00, 0.00, -0.00, -1.00, 25.3, 4.1)">o</text><text xml:space="preserve" font-family="Avenir-Medium,Avenir" font-size="10.0" fill="#FEFFFE" transform="matrix(1.00, 0.00, -0.00, -1.00, 31.2, 4.1)">y</text><text xml:space="preserve" font-family="Avenir-Medium,Avenir" font-size="10.0" fill="#FEFFFE" transform="matrix(1.00, 0.00, -0.00, -1.00, 36.2, 4.1)">n</text><text xml:space="preserve" font-family="Avenir-Medium,Avenir" font-size="10.0" fill="#FEFFFE" transform="matrix(1.00, 0.00, -0.00, -1.00, 41.8, 4.1)">e</text><text xml:space="preserve" font-family="Avenir-Medium,Avenir" font-size="10.0" fill="#FEFFFE" transform="matrix(1.00, 0.00, -0.00, -1.00, 47.3, 4.1)"> </text><text xml:space="preserve" font-family="Avenir-Medium,Avenir" font-size="10.0" fill="#FEFFFE" transform="matrix(1.00, 0.00, -0.00, -1.00, 50.1, 4.1)">R</text><text xml:space="preserve" font-family="Avenir-Medium,Avenir" font-size="10.0" fill="#FEFFFE" transform="matrix(1.00, 0.00, -0.00, -1.00, 56.2, 4.1)">i</text><text xml:space="preserve" font-family="Avenir-Medium,Avenir" font-size="10.0" fill="#FEFFFE" transform="matrix(1.00, 0.00, -0.00, -1.00, 58.6, 4.1)">v</text><text xml:space="preserve" font-family="Avenir-Medium,Avenir" font-size="10.0" fill="#FEFFFE" transform="matrix(1.00, 0.00, -0.00, -1.00, 63.6, 4.1)">e</text><text xml:space="preserve" font-family="Avenir-Medium,Avenir" font-size="10.0" fill="#FEFFFE" transform="matrix(1.00, 0.00, -0.00, -1.00, 69.2, 4.1)">r</text><text xml:space="preserve" font-family="Avenir-Medium,Avenir" font-size="10.0" fill="#FEFFFE" transform="matrix(1.00, 0.00, -0.00, -1.00, 72.9, 4.1)"> </text><text xml:space="preserve" font-family="Avenir-Medium,Avenir" font-size="10.0" fill="#FEFFFE" transform="matrix(1.00, 0.00, -0.00, -1.00, 75.7, 4.1)">(</text><text xml:space="preserve" font-family="Avenir-Medium,Avenir" font-size="10.0" fill="#FEFFFE" transform="matrix(1.00, 0.00, -0.00, -1.00, 78.4, 4.1)">W</text><text xml:space="preserve" font-family="Avenir-Medium,Avenir" font-size="10.0" fill="#FEFFFE" transform="matrix(1.00, 0.00, -0.00, -1.00, 87.8, 4.1)">A</text><text xml:space="preserve" font-family="Avenir-Medium,Avenir" font-size="10.0" fill="#FEFFFE" transform="matrix(1.00, 0.00, -0.00, -1.00, 94.9, 4.1)">)</text></g></svg>