<?xml version="1.0" encoding="UTF-8" standalone="no"?><svg xmlns="http://www.w3.org/2000/svg" xmlns:xlink="http://www.w3.org/1999/xlink" clip-rule="evenodd" stroke-miterlimit="10" viewBox="0 0 1024 768"><desc>SVG generated by Keynote</desc><defs></defs><g transform="matrix(1.00, 0.00, -0.00, -1.00, 0.0, 768.0)"><path d="M 0.0 768.0 L 1024.0 768.0 L 1024.0 0.0 L 0.0 0.0 Z M 0.0 768.0 " fill="#FEFFFE"></path><text xml:space="preserve" font-family="HelveticaNeue-Medium,Helvetica Neue" font-size="42.0" fill="#000000" transform="matrix(1.00, 0.00, -0.00, -1.00, 49.0, 688.1)"> </text><text xml:space="preserve" font-family="HelveticaNeue-Medium,Helvetica Neue" font-size="42.0" fill="#000000" transform="matrix(1.00, 0.00, -0.00, -1.00, 60.7, 688.1)">C</text><text xml:space="preserve" font-family="HelveticaNeue-Medium,Helvetica Neue" font-size="42.0" fill="#000000" transform="matrix(1.00, 0.00, -0.00, -1.00, 91.0, 688.1)">h</text><text xml:space="preserve" font-family="HelveticaNeue-Medium,Helvetica Neue" font-size="42.0" fill="#000000" transform="matrix(1.00, 0.00, -0.00, -1.00, 115.1, 688.1)">a</text><text xml:space="preserve" font-family="HelveticaNeue-Medium,Helvetica Neue" font-size="42.0" fill="#000000" transform="matrix(1.00, 0.00, -0.00, -1.00, 138.5, 688.1)">n</text><text xml:space="preserve" font-family="HelveticaNeue-Medium,Helvetica Neue" font-size="42.0" fill="#000000" transform="matrix(1.00, 0.00, -0.00, -1.00, 162.6, 688.1)">n</text><text xml:space="preserve" font-family="HelveticaNeue-Medium,Helvetica Neue" font-size="42.0" fill="#000000" transform="matrix(1.00, 0.00, -0.00, -1.00, 186.7, 688.1)">e</text><text xml:space="preserve" font-family="HelveticaNeue-Medium,Helvetica Neue" font-size="42.0" fill="#000000" transform="matrix(1.00, 0.00, -0.00, -1.00, 210.0, 688.1)">l</text><text xml:space="preserve" font-family="HelveticaNeue-Medium,Helvetica Neue" font-size="42.0" fill="#000000" transform="matrix(1.00, 0.00, -0.00, -1.00, 220.2, 688.1)">s</text><text xml:space="preserve" font-family="HelveticaNeue-Medium,Helvetica Neue" font-size="42.0" fill="#000000" transform="matrix(1.00, 0.00, -0.00, -1.00, 241.9, 688.1)"> </text><text xml:space="preserve" font-family="HelveticaNeue-Medium,Helvetica Neue" font-size="42.0" fill="#000000" transform="matrix(1.00, 0.00, -0.00, -1.00, 253.6, 688.1)">s</text><text xml:space="preserve" font-family="HelveticaNeue-Medium,Helvetica Neue" font-size="42.0" fill="#000000" transform="matrix(1.00, 0.00, -0.00, -1.00, 275.4, 688.1)">t</text><text xml:space="preserve" font-family="HelveticaNeue-Medium,Helvetica Neue" font-size="42.0" fill="#000000" transform="matrix(1.00, 0.00, -0.00, -1.00, 289.4, 688.1)">e</text><text xml:space="preserve" font-family="HelveticaNeue-Medium,Helvetica Neue" font-size="42.0" fill="#000000" transform="matrix(1.00, 0.00, -0.00, -1.00, 312.8, 688.1)">e</text><text xml:space="preserve" font-family="HelveticaNeue-Medium,Helvetica Neue" font-size="42.0" fill="#000000" transform="matrix(1.00, 0.00, -0.00, -1.00, 336.1, 688.1)">r</text><text xml:space="preserve" font-family="HelveticaNeue-Medium,Helvetica Neue" font-size="42.0" fill="#000000" transform="matrix(1.00, 0.00, -0.00, -1.00, 350.9, 688.1)">i</text><text xml:space="preserve" font-family="HelveticaNeue-Medium,Helvetica Neue" font-size="42.0" fill="#000000" transform="matrix(1.00, 0.00, -0.00, -1.00, 361.0, 688.1)">n</text><text xml:space="preserve" font-family="HelveticaNeue-Medium,Helvetica Neue" font-size="42.0" fill="#000000" transform="matrix(1.00, 0.00, -0.00, -1.00, 385.1, 688.1)">g</text><text xml:space="preserve" font-family="HelveticaNeue-Medium,Helvetica Neue" font-size="42.0" fill="#000000" transform="matrix(1.00, 0.00, -0.00, -1.00, 410.0, 688.1)"> </text><text xml:space="preserve" font-family="HelveticaNeue-Medium,Helvetica Neue" font-size="42.0" fill="#000000" transform="matrix(1.00, 0.00, -0.00, -1.00, 421.7, 688.1)">b</text><text xml:space="preserve" font-family="HelveticaNeue-Medium,Helvetica Neue" font-size="42.0" fill="#000000" transform="matrix(1.00, 0.00, -0.00, -1.00, 447.4, 688.1)">y</text><text xml:space="preserve" font-family="HelveticaNeue-Medium,Helvetica Neue" font-size="42.0" fill="#000000" transform="matrix(1.00, 0.00, -0.00, -1.00, 469.2, 688.1)"> </text><text xml:space="preserve" font-family="HelveticaNeue-Medium,Helvetica Neue" font-size="42.0" fill="#000000" transform="matrix(1.00, 0.00, -0.00, -1.00, 480.8, 688.1)">t</text><text xml:space="preserve" font-family="HelveticaNeue-Medium,Helvetica Neue" font-size="42.0" fill="#000000" transform="matrix(1.00, 0.00, -0.00, -1.00, 494.8, 688.1)">e</text><text xml:space="preserve" font-family="HelveticaNeue-Medium,Helvetica Neue" font-size="42.0" fill="#000000" transform="matrix(1.00, 0.00, -0.00, -1.00, 518.2, 688.1)">c</text><text xml:space="preserve" font-family="HelveticaNeue-Medium,Helvetica Neue" font-size="42.0" fill="#000000" transform="matrix(1.00, 0.00, -0.00, -1.00, 541.5, 688.1)">t</text><text xml:space="preserve" font-family="HelveticaNeue-Medium,Helvetica Neue" font-size="42.0" fill="#000000" transform="matrix(1.00, 0.00, -0.00, -1.00, 555.5, 688.1)">o</text><text xml:space="preserve" font-family="HelveticaNeue-Medium,Helvetica Neue" font-size="42.0" fill="#000000" transform="matrix(1.00, 0.00, -0.00, -1.00, 580.4, 688.1)">n</text><text xml:space="preserve" font-family="HelveticaNeue-Medium,Helvetica Neue" font-size="42.0" fill="#000000" transform="matrix(1.00, 0.00, -0.00, -1.00, 604.5, 688.1)">i</text><text xml:space="preserve" font-family="HelveticaNeue-Medium,Helvetica Neue" font-size="42.0" fill="#000000" transform="matrix(1.00, 0.00, -0.00, -1.00, 614.7, 688.1)">c</text><text xml:space="preserve" font-family="HelveticaNeue-Medium,Helvetica Neue" font-size="42.0" fill="#000000" transform="matrix(1.00, 0.00, -0.00, -1.00, 638.0, 688.1)">s</text><text xml:space="preserve" font-family="HelveticaNeue,Helvetica Neue" font-size="30.8" fill="#747373" transform="matrix(1.00, 0.00, -0.00, -1.00, 49.0, 618.8)">•</text><text xml:space="preserve" font-family="HelveticaNeue-Medium,Helvetica Neue" font-size="23.0" fill="#747373" transform="matrix(1.00, 0.00, -0.00, -1.00, 64.0, 621.7)">P</text><text xml:space="preserve" font-family="HelveticaNeue-Medium,Helvetica Neue" font-size="23.0" fill="#747373" transform="matrix(1.00, 0.00, -0.00, -1.00, 79.3, 621.7)">h</text><text xml:space="preserve" font-family="HelveticaNeue-Medium,Helvetica Neue" font-size="23.0" fill="#747373" transform="matrix(1.00, 0.00, -0.00, -1.00, 92.5, 621.7)">a</text><text xml:space="preserve" font-family="HelveticaNeue-Medium,Helvetica Neue" font-size="23.0" fill="#747373" transform="matrix(1.00, 0.00, -0.00, -1.00, 105.3, 621.7)">s</text><text xml:space="preserve" font-family="HelveticaNeue-Medium,Helvetica Neue" font-size="23.0" fill="#747373" transform="matrix(1.00, 0.00, -0.00, -1.00, 117.3, 621.7)">e</text><text xml:space="preserve" font-family="HelveticaNeue-Medium,Helvetica Neue" font-size="23.0" fill="#747373" transform="matrix(1.00, 0.00, -0.00, -1.00, 130.1, 621.7)"> </text><text xml:space="preserve" font-family="HelveticaNeue-Medium,Helvetica Neue" font-size="23.0" fill="#747373" transform="matrix(1.00, 0.00, -0.00, -1.00, 136.4, 621.7)">3</text><text xml:space="preserve" font-family="HelveticaNeue-Medium,Helvetica Neue" font-size="23.0" fill="#747373" transform="matrix(1.00, 0.00, -0.00, -1.00, 149.2, 621.7)"> </text><text xml:space="preserve" font-family="HelveticaNeue-Medium,Helvetica Neue" font-size="23.0" fill="#747373" transform="matrix(1.00, 0.00, -0.00, -1.00, 155.6, 621.7)">-</text><text xml:space="preserve" font-family="HelveticaNeue-Medium,Helvetica Neue" font-size="23.0" fill="#747373" transform="matrix(1.00, 0.00, -0.00, -1.00, 164.6, 621.7)"> </text><text xml:space="preserve" font-family="HelveticaNeue-Medium,Helvetica Neue" font-size="23.0" fill="#747373" transform="matrix(1.00, 0.00, -0.00, -1.00, 171.0, 621.7)">C</text><text xml:space="preserve" font-family="HelveticaNeue-Medium,Helvetica Neue" font-size="23.0" fill="#747373" transform="matrix(1.00, 0.00, -0.00, -1.00, 187.6, 621.7)">o</text><text xml:space="preserve" font-family="HelveticaNeue-Medium,Helvetica Neue" font-size="23.0" fill="#747373" transform="matrix(1.00, 0.00, -0.00, -1.00, 201.2, 621.7)">n</text><text xml:space="preserve" font-family="HelveticaNeue-Medium,Helvetica Neue" font-size="23.0" fill="#747373" transform="matrix(1.00, 0.00, -0.00, -1.00, 214.4, 621.7)">s</text><text xml:space="preserve" font-family="HelveticaNeue-Medium,Helvetica Neue" font-size="23.0" fill="#747373" transform="matrix(1.00, 0.00, -0.00, -1.00, 226.4, 621.7)">t</text><text xml:space="preserve" font-family="HelveticaNeue-Medium,Helvetica Neue" font-size="23.0" fill="#747373" transform="matrix(1.00, 0.00, -0.00, -1.00, 234.0, 621.7)">a</text><text xml:space="preserve" font-family="HelveticaNeue-Medium,Helvetica Neue" font-size="23.0" fill="#747373" transform="matrix(1.00, 0.00, -0.00, -1.00, 246.8, 621.7)">n</text><text xml:space="preserve" font-family="HelveticaNeue-Medium,Helvetica Neue" font-size="23.0" fill="#747373" transform="matrix(1.00, 0.00, -0.00, -1.00, 260.0, 621.7)">t</text><text xml:space="preserve" font-family="HelveticaNeue-Medium,Helvetica Neue" font-size="23.0" fill="#747373" transform="matrix(1.00, 0.00, -0.00, -1.00, 267.7, 621.7)"> </text><text xml:space="preserve" font-family="HelveticaNeue-Medium,Helvetica Neue" font-size="23.0" fill="#747373" transform="matrix(1.00, 0.00, -0.00, -1.00, 274.1, 621.7)">s</text><text xml:space="preserve" font-family="HelveticaNeue-Medium,Helvetica Neue" font-size="23.0" fill="#747373" transform="matrix(1.00, 0.00, -0.00, -1.00, 286.0, 621.7)">e</text><text xml:space="preserve" font-family="HelveticaNeue-Medium,Helvetica Neue" font-size="23.0" fill="#747373" transform="matrix(1.00, 0.00, -0.00, -1.00, 298.8, 621.7)">d</text><text xml:space="preserve" font-family="HelveticaNeue-Medium,Helvetica Neue" font-size="23.0" fill="#747373" transform="matrix(1.00, 0.00, -0.00, -1.00, 312.8, 621.7)">i</text><text xml:space="preserve" font-family="HelveticaNeue-Medium,Helvetica Neue" font-size="23.0" fill="#747373" transform="matrix(1.00, 0.00, -0.00, -1.00, 318.4, 621.7)">m</text><text xml:space="preserve" font-family="HelveticaNeue-Medium,Helvetica Neue" font-size="23.0" fill="#747373" transform="matrix(1.00, 0.00, -0.00, -1.00, 338.4, 621.7)">e</text><text xml:space="preserve" font-family="HelveticaNeue-Medium,Helvetica Neue" font-size="23.0" fill="#747373" transform="matrix(1.00, 0.00, -0.00, -1.00, 351.2, 621.7)">n</text><text xml:space="preserve" font-family="HelveticaNeue-Medium,Helvetica Neue" font-size="23.0" fill="#747373" transform="matrix(1.00, 0.00, -0.00, -1.00, 364.4, 621.7)">t</text><text xml:space="preserve" font-family="HelveticaNeue-Medium,Helvetica Neue" font-size="23.0" fill="#747373" transform="matrix(1.00, 0.00, -0.00, -1.00, 372.0, 621.7)"> </text><text xml:space="preserve" font-family="HelveticaNeue-Medium,Helvetica Neue" font-size="23.0" fill="#747373" transform="matrix(1.00, 0.00, -0.00, -1.00, 378.4, 621.7)">ﬂ</text><text xml:space="preserve" font-family="HelveticaNeue-Medium,Helvetica Neue" font-size="23.0" fill="#747373" transform="matrix(1.00, 0.00, -0.00, -1.00, 391.2, 621.7)">u</text><text xml:space="preserve" font-family="HelveticaNeue-Medium,Helvetica Neue" font-size="23.0" fill="#747373" transform="matrix(1.00, 0.00, -0.00, -1.00, 404.4, 621.7)">x</text><text xml:space="preserve" font-family="HelveticaNeue-Medium,Helvetica Neue" font-size="23.0" fill="#747373" transform="matrix(1.00, 0.00, -0.00, -1.00, 416.8, 621.7)">,</text><text xml:space="preserve" font-family="HelveticaNeue-Medium,Helvetica Neue" font-size="23.0" fill="#747373" transform="matrix(1.00, 0.00, -0.00, -1.00, 423.2, 621.7)"> </text><text xml:space="preserve" font-family="HelveticaNeue-Medium,Helvetica Neue" font-size="23.0" fill="#747373" transform="matrix(1.00, 0.00, -0.00, -1.00, 429.6, 621.7)">c</text><text xml:space="preserve" font-family="HelveticaNeue-Medium,Helvetica Neue" font-size="23.0" fill="#747373" transform="matrix(1.00, 0.00, -0.00, -1.00, 442.4, 621.7)">h</text><text xml:space="preserve" font-family="HelveticaNeue-Medium,Helvetica Neue" font-size="23.0" fill="#747373" transform="matrix(1.00, 0.00, -0.00, -1.00, 455.6, 621.7)">a</text><text xml:space="preserve" font-family="HelveticaNeue-Medium,Helvetica Neue" font-size="23.0" fill="#747373" transform="matrix(1.00, 0.00, -0.00, -1.00, 468.3, 621.7)">n</text><text xml:space="preserve" font-family="HelveticaNeue-Medium,Helvetica Neue" font-size="23.0" fill="#747373" transform="matrix(1.00, 0.00, -0.00, -1.00, 481.5, 621.7)">g</text><text xml:space="preserve" font-family="HelveticaNeue-Medium,Helvetica Neue" font-size="23.0" fill="#747373" transform="matrix(1.00, 0.00, -0.00, -1.00, 495.2, 621.7)">i</text><text xml:space="preserve" font-family="HelveticaNeue-Medium,Helvetica Neue" font-size="23.0" fill="#747373" transform="matrix(1.00, 0.00, -0.00, -1.00, 500.7, 621.7)">n</text><text xml:space="preserve" font-family="HelveticaNeue-Medium,Helvetica Neue" font-size="23.0" fill="#747373" transform="matrix(1.00, 0.00, -0.00, -1.00, 513.9, 621.7)">g</text><text xml:space="preserve" font-family="HelveticaNeue-Medium,Helvetica Neue" font-size="23.0" fill="#747373" transform="matrix(1.00, 0.00, -0.00, -1.00, 527.6, 621.7)"> </text><text xml:space="preserve" font-family="HelveticaNeue-Medium,Helvetica Neue" font-size="23.0" fill="#747373" transform="matrix(1.00, 0.00, -0.00, -1.00, 534.0, 621.7)">t</text><text xml:space="preserve" font-family="HelveticaNeue-Medium,Helvetica Neue" font-size="23.0" fill="#747373" transform="matrix(1.00, 0.00, -0.00, -1.00, 541.6, 621.7)">e</text><text xml:space="preserve" font-family="HelveticaNeue-Medium,Helvetica Neue" font-size="23.0" fill="#747373" transform="matrix(1.00, 0.00, -0.00, -1.00, 554.4, 621.7)">c</text><text xml:space="preserve" font-family="HelveticaNeue-Medium,Helvetica Neue" font-size="23.0" fill="#747373" transform="matrix(1.00, 0.00, -0.00, -1.00, 567.2, 621.7)">t</text><text xml:space="preserve" font-family="HelveticaNeue-Medium,Helvetica Neue" font-size="23.0" fill="#747373" transform="matrix(1.00, 0.00, -0.00, -1.00, 574.9, 621.7)">o</text><text xml:space="preserve" font-family="HelveticaNeue-Medium,Helvetica Neue" font-size="23.0" fill="#747373" transform="matrix(1.00, 0.00, -0.00, -1.00, 588.5, 621.7)">n</text><text xml:space="preserve" font-family="HelveticaNeue-Medium,Helvetica Neue" font-size="23.0" fill="#747373" transform="matrix(1.00, 0.00, -0.00, -1.00, 601.7, 621.7)">i</text><text xml:space="preserve" font-family="HelveticaNeue-Medium,Helvetica Neue" font-size="23.0" fill="#747373" transform="matrix(1.00, 0.00, -0.00, -1.00, 607.2, 621.7)">c</text><text xml:space="preserve" font-family="HelveticaNeue-Medium,Helvetica Neue" font-size="23.0" fill="#747373" transform="matrix(1.00, 0.00, -0.00, -1.00, 620.0, 621.7)">s</text><g><clipPath id="clip0x7fab9ffc6060"><path d="M 433.7 391.1 L 397.0 427.6 L 397.0 435.6 L 397.0 443.5 L 434.0 480.8 L 470.7 518.0 L 548.2 518.0 L 626.0 518.0 L 626.0 436.3 L 626.0 355.0 L 547.9 355.0 L 470.2 355.0 L 433.7 391.1 "></path></clipPath><g clip-path="url(#clip0x7fab9ffc6060)"><image xlink:href="6CD95226611E6129C49ED743048A46A9.png" width="1024.00" height="947.00" transform="matrix(0.30, 0.00, -0.00, -0.30, 358.0, 578.0)"></image></g></g><g><clipPath id="clip0x7fab9ffc7b20"><path d="M 433.7 189.7 L 397.0 226.2 L 397.0 234.1 L 397.0 242.1 L 434.0 279.3 L 470.8 317.0 L 547.4 317.0 C 617.5 317.0 624.1 316.4 624.8 316.0 L 626.0 316.0 L 626.0 234.4 L 626.0 153.0 L 547.9 153.0 L 470.2 153.0 L 433.7 189.7 "></path></clipPath><g clip-path="url(#clip0x7fab9ffc7b20)"><image xlink:href="B02A01CAEB0D0F4804B2543351C61E54.png" width="1024.00" height="947.00" transform="matrix(0.30, 0.00, -0.00, -0.30, 358.0, 377.0)"></image></g></g><g><clipPath id="clip0x7fab9ffc8830"><path d="M 114.7 389.0 L 78.0 425.6 L 78.0 433.6 L 78.0 441.5 L 115.0 478.9 L 151.9 516.0 L 229.6 516.0 L 307.0 516.0 L 307.0 434.3 L 307.0 352.0 L 229.3 352.0 L 151.3 352.0 L 114.7 389.0 "></path></clipPath><g clip-path="url(#clip0x7fab9ffc8830)"><image xlink:href="BB107DC39E61A860347F207F170D2E3F.png" width="1024.00" height="947.00" transform="matrix(0.30, 0.00, -0.00, -0.30, 39.0, 577.0)"></image></g></g><g><clipPath id="clip0x7fab9ffcac80"><path d="M 111.9 189.5 L 75.0 226.1 L 75.0 234.1 L 75.0 242.1 L 112.1 279.5 L 149.1 317.0 L 226.4 317.0 C 300.9 317.0 303.7 316.9 304.2 316.4 C 304.7 315.9 305.0 309.8 305.0 234.3 L 305.0 153.0 L 226.6 153.0 L 148.5 153.0 L 111.9 189.5 "></path></clipPath><g clip-path="url(#clip0x7fab9ffcac80)"><image xlink:href="6B960025BF01594261195DE77597C17A.png" width="1024.00" height="947.00" transform="matrix(0.30, 0.00, -0.00, -0.30, 36.0, 377.0)"></image></g></g><text xml:space="preserve" font-family="Helvetica-Oblique,Helvetica" font-style="italic" font-size="18.0" fill="#000000" transform="matrix(1.00, 0.00, -0.00, -1.00, 425.8, 55.7)">i</text><text xml:space="preserve" font-family="Helvetica-Oblique,Helvetica" font-style="italic" font-size="18.0" fill="#000000" transform="matrix(1.00, 0.00, -0.00, -1.00, 429.8, 55.7)">n</text><text xml:space="preserve" font-family="Helvetica-Oblique,Helvetica" font-style="italic" font-size="18.0" fill="#000000" transform="matrix(1.00, 0.00, -0.00, -1.00, 439.8, 55.7)">c</text><text xml:space="preserve" font-family="Helvetica-Oblique,Helvetica" font-style="italic" font-size="18.0" fill="#000000" transform="matrix(1.00, 0.00, -0.00, -1.00, 448.8, 55.7)">r</text><text xml:space="preserve" font-family="Helvetica-Oblique,Helvetica" font-style="italic" font-size="18.0" fill="#000000" transform="matrix(1.00, 0.00, -0.00, -1.00, 454.8, 55.7)">e</text><text xml:space="preserve" font-family="Helvetica-Oblique,Helvetica" font-style="italic" font-size="18.0" fill="#000000" transform="matrix(1.00, 0.00, -0.00, -1.00, 464.8, 55.7)">a</text><text xml:space="preserve" font-family="Helvetica-Oblique,Helvetica" font-style="italic" font-size="18.0" fill="#000000" transform="matrix(1.00, 0.00, -0.00, -1.00, 474.8, 55.7)">s</text><text xml:space="preserve" font-family="Helvetica-Oblique,Helvetica" font-style="italic" font-size="18.0" fill="#000000" transform="matrix(1.00, 0.00, -0.00, -1.00, 483.8, 55.7)">i</text><text xml:space="preserve" font-family="Helvetica-Oblique,Helvetica" font-style="italic" font-size="18.0" fill="#000000" transform="matrix(1.00, 0.00, -0.00, -1.00, 487.8, 55.7)">n</text><text xml:space="preserve" font-family="Helvetica-Oblique,Helvetica" font-style="italic" font-size="18.0" fill="#000000" transform="matrix(1.00, 0.00, -0.00, -1.00, 497.8, 55.7)">g</text><text xml:space="preserve" font-family="Helvetica-Oblique,Helvetica" font-style="italic" font-size="18.0" fill="#000000" transform="matrix(1.00, 0.00, -0.00, -1.00, 507.8, 55.7)"> </text><text xml:space="preserve" font-family="Helvetica-Oblique,Helvetica" font-style="italic" font-size="18.0" fill="#000000" transform="matrix(1.00, 0.00, -0.00, -1.00, 512.8, 55.7)">t</text><text xml:space="preserve" font-family="Helvetica-Oblique,Helvetica" font-style="italic" font-size="18.0" fill="#000000" transform="matrix(1.00, 0.00, -0.00, -1.00, 517.8, 55.7)">e</text><text xml:space="preserve" font-family="Helvetica-Oblique,Helvetica" font-style="italic" font-size="18.0" fill="#000000" transform="matrix(1.00, 0.00, -0.00, -1.00, 527.8, 55.7)">c</text><text xml:space="preserve" font-family="Helvetica-Oblique,Helvetica" font-style="italic" font-size="18.0" fill="#000000" transform="matrix(1.00, 0.00, -0.00, -1.00, 536.8, 55.7)">t</text><text xml:space="preserve" font-family="Helvetica-Oblique,Helvetica" font-style="italic" font-size="18.0" fill="#000000" transform="matrix(1.00, 0.00, -0.00, -1.00, 541.8, 55.7)">o</text><text xml:space="preserve" font-family="Helvetica-Oblique,Helvetica" font-style="italic" font-size="18.0" fill="#000000" transform="matrix(1.00, 0.00, -0.00, -1.00, 551.8, 55.7)">n</text><text xml:space="preserve" font-family="Helvetica-Oblique,Helvetica" font-style="italic" font-size="18.0" fill="#000000" transform="matrix(1.00, 0.00, -0.00, -1.00, 561.9, 55.7)">i</text><text xml:space="preserve" font-family="Helvetica-Oblique,Helvetica" font-style="italic" font-size="18.0" fill="#000000" transform="matrix(1.00, 0.00, -0.00, -1.00, 565.9, 55.7)">c</text><text xml:space="preserve" font-family="Helvetica-Oblique,Helvetica" font-style="italic" font-size="18.0" fill="#000000" transform="matrix(1.00, 0.00, -0.00, -1.00, 574.9, 55.7)"> </text><text xml:space="preserve" font-family="Helvetica-Oblique,Helvetica" font-style="italic" font-size="18.0" fill="#000000" transform="matrix(1.00, 0.00, -0.00, -1.00, 579.9, 55.7)">r</text><text xml:space="preserve" font-family="Helvetica-Oblique,Helvetica" font-style="italic" font-size="18.0" fill="#000000" transform="matrix(1.00, 0.00, -0.00, -1.00, 585.9, 55.7)">a</text><text xml:space="preserve" font-family="Helvetica-Oblique,Helvetica" font-style="italic" font-size="18.0" fill="#000000" transform="matrix(1.00, 0.00, -0.00, -1.00, 595.9, 55.7)">t</text><text xml:space="preserve" font-family="Helvetica-Oblique,Helvetica" font-style="italic" font-size="18.0" fill="#000000" transform="matrix(1.00, 0.00, -0.00, -1.00, 600.9, 55.7)">e</text><g><clipPath id="clip0x7fab9ffcd3b0"><path d="M 770.9 391.0 L 734.0 427.6 L 734.0 435.6 L 734.0 443.6 L 771.2 480.9 L 808.1 518.0 L 885.9 518.0 L 964.0 518.0 L 964.0 436.3 L 964.0 354.0 L 885.6 354.0 L 807.6 354.0 L 770.9 391.0 "></path></clipPath><g clip-path="url(#clip0x7fab9ffcd3b0)"><image xlink:href="A6895AE9964397776291E77C0398A89D.png" width="1024.00" height="947.00" transform="matrix(0.30, 0.00, -0.00, -0.30, 695.0, 579.0)"></image></g></g><g><clipPath id="clip0x7fab9ffd7f00"><path d="M 771.2 189.7 L 735.0 226.2 L 735.0 234.1 L 735.0 242.1 L 771.5 279.3 L 808.3 317.0 L 885.7 317.0 L 963.0 317.0 L 963.0 234.9 L 963.0 153.0 L 885.4 153.0 L 807.7 153.0 L 771.2 189.7 "></path></clipPath><g clip-path="url(#clip0x7fab9ffd7f00)"><image xlink:href="1B478B9D803F9C264066CB28EA8A86E1.png" width="1024.00" height="947.00" transform="matrix(0.30, 0.00, -0.00, -0.30, 695.0, 377.0)"></image></g></g><text xml:space="preserve" font-family="Helvetica-BoldOblique,Helvetica" font-style="italic" font-weight="bold" font-size="18.0" fill="#000000" transform="matrix(1.00, 0.00, -0.00, -1.00, 132.8, 104.1)">e</text><text xml:space="preserve" font-family="Helvetica-BoldOblique,Helvetica" font-style="italic" font-weight="bold" font-size="18.0" fill="#000000" transform="matrix(1.00, 0.00, -0.00, -1.00, 142.8, 104.1)">x</text><text xml:space="preserve" font-family="Helvetica-BoldOblique,Helvetica" font-style="italic" font-weight="bold" font-size="18.0" fill="#000000" transform="matrix(1.00, 0.00, -0.00, -1.00, 152.8, 104.1)">p</text><text xml:space="preserve" font-family="Helvetica-BoldOblique,Helvetica" font-style="italic" font-weight="bold" font-size="18.0" fill="#000000" transform="matrix(1.00, 0.00, -0.00, -1.00, 163.8, 104.1)">e</text><text xml:space="preserve" font-family="Helvetica-BoldOblique,Helvetica" font-style="italic" font-weight="bold" font-size="18.0" fill="#000000" transform="matrix(1.00, 0.00, -0.00, -1.00, 173.8, 104.1)">r</text><text xml:space="preserve" font-family="Helvetica-BoldOblique,Helvetica" font-style="italic" font-weight="bold" font-size="18.0" fill="#000000" transform="matrix(1.00, 0.00, -0.00, -1.00, 180.8, 104.1)">i</text><text xml:space="preserve" font-family="Helvetica-BoldOblique,Helvetica" font-style="italic" font-weight="bold" font-size="18.0" fill="#000000" transform="matrix(1.00, 0.00, -0.00, -1.00, 185.8, 104.1)">m</text><text xml:space="preserve" font-family="Helvetica-BoldOblique,Helvetica" font-style="italic" font-weight="bold" font-size="18.0" fill="#000000" transform="matrix(1.00, 0.00, -0.00, -1.00, 201.8, 104.1)">e</text><text xml:space="preserve" font-family="Helvetica-BoldOblique,Helvetica" font-style="italic" font-weight="bold" font-size="18.0" fill="#000000" transform="matrix(1.00, 0.00, -0.00, -1.00, 211.8, 104.1)">n</text><text xml:space="preserve" font-family="Helvetica-BoldOblique,Helvetica" font-style="italic" font-weight="bold" font-size="18.0" fill="#000000" transform="matrix(1.00, 0.00, -0.00, -1.00, 222.8, 104.1)">t</text><text xml:space="preserve" font-family="Helvetica-BoldOblique,Helvetica" font-style="italic" font-weight="bold" font-size="18.0" fill="#000000" transform="matrix(1.00, 0.00, -0.00, -1.00, 228.8, 104.1)"> </text><text xml:space="preserve" font-family="Helvetica-BoldOblique,Helvetica" font-style="italic" font-weight="bold" font-size="18.0" fill="#000000" transform="matrix(1.00, 0.00, -0.00, -1.00, 233.8, 104.1)">D</text><text xml:space="preserve" font-family="Helvetica-BoldOblique,Helvetica" font-style="italic" font-weight="bold" font-size="18.0" fill="#000000" transform="matrix(1.00, 0.00, -0.00, -1.00, 818.5, 104.1)">e</text><text xml:space="preserve" font-family="Helvetica-BoldOblique,Helvetica" font-style="italic" font-weight="bold" font-size="18.0" fill="#000000" transform="matrix(1.00, 0.00, -0.00, -1.00, 828.5, 104.1)">x</text><text xml:space="preserve" font-family="Helvetica-BoldOblique,Helvetica" font-style="italic" font-weight="bold" font-size="18.0" fill="#000000" transform="matrix(1.00, 0.00, -0.00, -1.00, 838.6, 104.1)">p</text><text xml:space="preserve" font-family="Helvetica-BoldOblique,Helvetica" font-style="italic" font-weight="bold" font-size="18.0" fill="#000000" transform="matrix(1.00, 0.00, -0.00, -1.00, 849.6, 104.1)">e</text><text xml:space="preserve" font-family="Helvetica-BoldOblique,Helvetica" font-style="italic" font-weight="bold" font-size="18.0" fill="#000000" transform="matrix(1.00, 0.00, -0.00, -1.00, 859.6, 104.1)">r</text><text xml:space="preserve" font-family="Helvetica-BoldOblique,Helvetica" font-style="italic" font-weight="bold" font-size="18.0" fill="#000000" transform="matrix(1.00, 0.00, -0.00, -1.00, 866.6, 104.1)">i</text><text xml:space="preserve" font-family="Helvetica-BoldOblique,Helvetica" font-style="italic" font-weight="bold" font-size="18.0" fill="#000000" transform="matrix(1.00, 0.00, -0.00, -1.00, 871.6, 104.1)">m</text><text xml:space="preserve" font-family="Helvetica-BoldOblique,Helvetica" font-style="italic" font-weight="bold" font-size="18.0" fill="#000000" transform="matrix(1.00, 0.00, -0.00, -1.00, 887.6, 104.1)">e</text><text xml:space="preserve" font-family="Helvetica-BoldOblique,Helvetica" font-style="italic" font-weight="bold" font-size="18.0" fill="#000000" transform="matrix(1.00, 0.00, -0.00, -1.00, 897.6, 104.1)">n</text><text xml:space="preserve" font-family="Helvetica-BoldOblique,Helvetica" font-style="italic" font-weight="bold" font-size="18.0" fill="#000000" transform="matrix(1.00, 0.00, -0.00, -1.00, 908.6, 104.1)">t</text><text xml:space="preserve" font-family="Helvetica-BoldOblique,Helvetica" font-style="italic" font-weight="bold" font-size="18.0" fill="#000000" transform="matrix(1.00, 0.00, -0.00, -1.00, 914.6, 104.1)"> </text><text xml:space="preserve" font-family="Helvetica-BoldOblique,Helvetica" font-style="italic" font-weight="bold" font-size="18.0" fill="#000000" transform="matrix(1.00, 0.00, -0.00, -1.00, 919.6, 104.1)">F</text><text xml:space="preserve" font-family="Helvetica-BoldOblique,Helvetica" font-style="italic" font-weight="bold" font-size="18.0" fill="#000000" transform="matrix(1.00, 0.00, -0.00, -1.00, 464.0, 104.1)">e</text><text xml:space="preserve" font-family="Helvetica-BoldOblique,Helvetica" font-style="italic" font-weight="bold" font-size="18.0" fill="#000000" transform="matrix(1.00, 0.00, -0.00, -1.00, 474.0, 104.1)">x</text><text xml:space="preserve" font-family="Helvetica-BoldOblique,Helvetica" font-style="italic" font-weight="bold" font-size="18.0" fill="#000000" transform="matrix(1.00, 0.00, -0.00, -1.00, 484.1, 104.1)">p</text><text xml:space="preserve" font-family="Helvetica-BoldOblique,Helvetica" font-style="italic" font-weight="bold" font-size="18.0" fill="#000000" transform="matrix(1.00, 0.00, -0.00, -1.00, 495.0, 104.1)">e</text><text xml:space="preserve" font-family="Helvetica-BoldOblique,Helvetica" font-style="italic" font-weight="bold" font-size="18.0" fill="#000000" transform="matrix(1.00, 0.00, -0.00, -1.00, 505.1, 104.1)">r</text><text xml:space="preserve" font-family="Helvetica-BoldOblique,Helvetica" font-style="italic" font-weight="bold" font-size="18.0" fill="#000000" transform="matrix(1.00, 0.00, -0.00, -1.00, 512.1, 104.1)">i</text><text xml:space="preserve" font-family="Helvetica-BoldOblique,Helvetica" font-style="italic" font-weight="bold" font-size="18.0" fill="#000000" transform="matrix(1.00, 0.00, -0.00, -1.00, 517.1, 104.1)">m</text><text xml:space="preserve" font-family="Helvetica-BoldOblique,Helvetica" font-style="italic" font-weight="bold" font-size="18.0" fill="#000000" transform="matrix(1.00, 0.00, -0.00, -1.00, 533.1, 104.1)">e</text><text xml:space="preserve" font-family="Helvetica-BoldOblique,Helvetica" font-style="italic" font-weight="bold" font-size="18.0" fill="#000000" transform="matrix(1.00, 0.00, -0.00, -1.00, 543.1, 104.1)">n</text><text xml:space="preserve" font-family="Helvetica-BoldOblique,Helvetica" font-style="italic" font-weight="bold" font-size="18.0" fill="#000000" transform="matrix(1.00, 0.00, -0.00, -1.00, 554.1, 104.1)">t</text><text xml:space="preserve" font-family="Helvetica-BoldOblique,Helvetica" font-style="italic" font-weight="bold" font-size="18.0" fill="#000000" transform="matrix(1.00, 0.00, -0.00, -1.00, 560.1, 104.1)"> </text><text xml:space="preserve" font-family="Helvetica-BoldOblique,Helvetica" font-style="italic" font-weight="bold" font-size="18.0" fill="#000000" transform="matrix(1.00, 0.00, -0.00, -1.00, 565.1, 104.1)">E</text><path d="M 804.0 -0.0 L 803.7 -0.0 L 5.2 -0.0 L 5.0 -0.0 " fill="none" stroke="#000000" stroke-width="1.00" transform="matrix(1.00, 0.00, 0.00, -1.00, 121.0, 86.5)"></path><path d="M 125.8 84.7 C 124.8 83.8 123.2 83.8 122.2 84.7 C 121.3 85.7 121.3 87.3 122.2 88.3 C 123.2 89.2 124.8 89.2 125.8 88.3 C 126.7 87.3 126.7 85.7 125.8 84.7 " fill="#000000"></path><path d="M 924.5 83.5 L 930.5 86.5 L 924.5 89.5 Z M 924.5 83.5 " fill="#000000"></path><path d="M 0.0 0.0 L 0.8 8.5 " fill="none" stroke="#000000" stroke-width="1.00" transform="matrix(1.00, -0.10, -0.10, -1.00, 520.5, 91.0)"></path><text xml:space="preserve" font-family="Helvetica-Oblique,Helvetica" font-style="italic" font-size="18.0" fill="#000000" transform="matrix(1.00, 0.00, -0.00, -1.00, 23.9, 295.6)">4</text><text xml:space="preserve" font-family="Helvetica-Oblique,Helvetica" font-style="italic" font-size="18.0" fill="#000000" transform="matrix(1.00, 0.00, -0.00, -1.00, 33.9, 295.6)">4</text><text xml:space="preserve" font-family="Helvetica-Oblique,Helvetica" font-style="italic" font-size="18.0" fill="#000000" transform="matrix(1.00, 0.00, -0.00, -1.00, 43.9, 295.6)">0</text><text xml:space="preserve" font-family="Helvetica-Oblique,Helvetica" font-style="italic" font-size="18.0" fill="#000000" transform="matrix(1.00, 0.00, -0.00, -1.00, 54.0, 295.6)">0</text><text xml:space="preserve" font-family="Helvetica-Oblique,Helvetica" font-style="italic" font-size="18.0" fill="#000000" transform="matrix(1.00, 0.00, -0.00, -1.00, 64.0, 295.6)">0</text><text xml:space="preserve" font-family="Helvetica-Oblique,Helvetica" font-style="italic" font-size="18.0" fill="#000000" transform="matrix(1.00, 0.00, -0.00, -1.00, 74.0, 295.6)"> </text><text xml:space="preserve" font-family="Helvetica-Oblique,Helvetica" font-style="italic" font-size="18.0" fill="#000000" transform="matrix(1.00, 0.00, -0.00, -1.00, 79.0, 295.6)">y</text><text xml:space="preserve" font-family="Helvetica-Oblique,Helvetica" font-style="italic" font-size="18.0" fill="#000000" transform="matrix(1.00, 0.00, -0.00, -1.00, 88.0, 295.6)">r</text><text xml:space="preserve" font-family="Helvetica-Oblique,Helvetica" font-style="italic" font-size="18.0" fill="#000000" transform="matrix(1.00, 0.00, -0.00, -1.00, 23.9, 499.2)">3</text><text xml:space="preserve" font-family="Helvetica-Oblique,Helvetica" font-style="italic" font-size="18.0" fill="#000000" transform="matrix(1.00, 0.00, -0.00, -1.00, 33.9, 499.2)">2</text><text xml:space="preserve" font-family="Helvetica-Oblique,Helvetica" font-style="italic" font-size="18.0" fill="#000000" transform="matrix(1.00, 0.00, -0.00, -1.00, 43.9, 499.2)">0</text><text xml:space="preserve" font-family="Helvetica-Oblique,Helvetica" font-style="italic" font-size="18.0" fill="#000000" transform="matrix(1.00, 0.00, -0.00, -1.00, 54.0, 499.2)">0</text><text xml:space="preserve" font-family="Helvetica-Oblique,Helvetica" font-style="italic" font-size="18.0" fill="#000000" transform="matrix(1.00, 0.00, -0.00, -1.00, 64.0, 499.2)">0</text><text xml:space="preserve" font-family="Helvetica-Oblique,Helvetica" font-style="italic" font-size="18.0" fill="#000000" transform="matrix(1.00, 0.00, -0.00, -1.00, 74.0, 499.2)"> </text><text xml:space="preserve" font-family="Helvetica-Oblique,Helvetica" font-style="italic" font-size="18.0" fill="#000000" transform="matrix(1.00, 0.00, -0.00, -1.00, 79.0, 499.2)">y</text><text xml:space="preserve" font-family="Helvetica-Oblique,Helvetica" font-style="italic" font-size="18.0" fill="#000000" transform="matrix(1.00, 0.00, -0.00, -1.00, 88.0, 499.2)">r</text><path d="M 0.0 0.0 L 0.9 370.4 " fill="none" stroke="#000000" stroke-width="1.00" transform="matrix(1.00, -0.00, -0.00, -1.00, 358.8, 523.0)"></path><path d="M 0.0 0.0 L 0.9 370.4 " fill="none" stroke="#000000" stroke-width="1.00" transform="matrix(1.00, -0.00, -0.00, -1.00, 700.4, 523.0)"></path><path d="M 0.0 0.0 L 0.8 8.5 " fill="none" stroke="#000000" stroke-width="1.00" transform="matrix(1.00, -0.10, -0.10, -1.00, 190.1, 91.0)"></path><path d="M 0.0 0.0 L 0.8 8.5 " fill="none" stroke="#000000" stroke-width="1.00" transform="matrix(1.00, -0.10, -0.10, -1.00, 880.1, 91.0)"></path><text xml:space="preserve" font-family="HelveticaNeue-Bold,Helvetica Neue" font-weight="bold" font-size="22.0" fill="#941100" transform="matrix(1.00, 0.00, -0.00, -1.00, 157.0, 12.4)">T</text><text xml:space="preserve" font-family="HelveticaNeue-Bold,Helvetica Neue" font-weight="bold" font-size="22.0" fill="#941100" transform="matrix(1.00, 0.00, -0.00, -1.00, 170.5, 12.4)">*</text><text xml:space="preserve" font-family="HelveticaNeue-Bold,Helvetica Neue" font-weight="bold" font-size="22.0" fill="#941100" transform="matrix(1.00, 0.00, -0.00, -1.00, 179.4, 12.4)"> </text><text xml:space="preserve" font-family="HelveticaNeue-Bold,Helvetica Neue" font-weight="bold" font-size="22.0" fill="#941100" transform="matrix(1.00, 0.00, -0.00, -1.00, 185.5, 12.4)">&lt;</text><text xml:space="preserve" font-family="HelveticaNeue-Bold,Helvetica Neue" font-weight="bold" font-size="22.0" fill="#941100" transform="matrix(1.00, 0.00, -0.00, -1.00, 198.7, 12.4)"> </text><text xml:space="preserve" font-family="HelveticaNeue-Bold,Helvetica Neue" font-weight="bold" font-size="22.0" fill="#941100" transform="matrix(1.00, 0.00, -0.00, -1.00, 204.8, 12.4)">1</text><text xml:space="preserve" font-family="HelveticaNeue-Bold,Helvetica Neue" font-weight="bold" font-size="22.0" fill="#941100" transform="matrix(1.00, 0.00, -0.00, -1.00, 488.7, 12.7)">T</text><text xml:space="preserve" font-family="HelveticaNeue-Bold,Helvetica Neue" font-weight="bold" font-size="22.0" fill="#941100" transform="matrix(1.00, 0.00, -0.00, -1.00, 502.1, 12.7)">*</text><text xml:space="preserve" font-family="HelveticaNeue-Bold,Helvetica Neue" font-weight="bold" font-size="22.0" fill="#941100" transform="matrix(1.00, 0.00, -0.00, -1.00, 511.1, 12.7)"> </text><text xml:space="preserve" font-family="AppleSymbols,Apple Symbols" font-size="22.0" fill="#941100" transform="matrix(1.00, 0.00, -0.00, -1.00, 517.2, 12.7)">≃</text><text xml:space="preserve" font-family="HelveticaNeue-Bold,Helvetica Neue" font-weight="bold" font-size="22.0" fill="#941100" transform="matrix(1.00, 0.00, -0.00, -1.00, 530.1, 12.7)"> </text><text xml:space="preserve" font-family="HelveticaNeue-Bold,Helvetica Neue" font-weight="bold" font-size="22.0" fill="#941100" transform="matrix(1.00, 0.00, -0.00, -1.00, 536.2, 12.7)">1</text><text xml:space="preserve" font-family="HelveticaNeue-Bold,Helvetica Neue" font-weight="bold" font-size="22.0" fill="#941100" transform="matrix(1.00, 0.00, -0.00, -1.00, 849.3, 12.4)">T</text><text xml:space="preserve" font-family="HelveticaNeue-Bold,Helvetica Neue" font-weight="bold" font-size="22.0" fill="#941100" transform="matrix(1.00, 0.00, -0.00, -1.00, 862.8, 12.4)">*</text><text xml:space="preserve" font-family="HelveticaNeue-Bold,Helvetica Neue" font-weight="bold" font-size="22.0" fill="#941100" transform="matrix(1.00, 0.00, -0.00, -1.00, 871.7, 12.4)"> </text><text xml:space="preserve" font-family="HelveticaNeue-Bold,Helvetica Neue" font-weight="bold" font-size="22.0" fill="#941100" transform="matrix(1.00, 0.00, -0.00, -1.00, 877.8, 12.4)">&gt;</text><text xml:space="preserve" font-family="HelveticaNeue-Bold,Helvetica Neue" font-weight="bold" font-size="22.0" fill="#941100" transform="matrix(1.00, 0.00, -0.00, -1.00, 891.0, 12.4)"> </text><text xml:space="preserve" font-family="HelveticaNeue-Bold,Helvetica Neue" font-weight="bold" font-size="22.0" fill="#941100" transform="matrix(1.00, 0.00, -0.00, -1.00, 897.2, 12.4)">1</text><g><clipPath id="clip0x7faba0903d80"><path d="M 15.5 570.2 L 160.1 570.2 L 160.1 598.7 L 15.5 598.7 Z M 15.5 570.2 "></path></clipPath><g clip-path="url(#clip0x7faba0903d80)"><text xml:space="preserve" font-family="Helvetica,Helvetica" font-size="17.0" fill="#000000" transform="matrix(1.00, 0.00, -0.00, -1.00, 20.3, 578.4)">ﬂ</text><text xml:space="preserve" font-family="Helvetica,Helvetica" font-size="17.0" fill="#000000" transform="matrix(1.00, 0.00, -0.00, -1.00, 28.8, 578.4)">o</text><text xml:space="preserve" font-family="Helvetica,Helvetica" font-size="17.0" fill="#000000" transform="matrix(1.00, 0.00, -0.00, -1.00, 38.2, 578.4)">w</text><text xml:space="preserve" font-family="Helvetica,Helvetica" font-size="17.0" fill="#000000" transform="matrix(1.00, 0.00, -0.00, -1.00, 50.5, 578.4)"> </text><text xml:space="preserve" font-family="Helvetica,Helvetica" font-size="17.0" fill="#000000" transform="matrix(1.00, 0.00, -0.00, -1.00, 55.2, 578.4)">a</text><text xml:space="preserve" font-family="Helvetica,Helvetica" font-size="17.0" fill="#000000" transform="matrix(1.00, 0.00, -0.00, -1.00, 64.7, 578.4)">c</text><text xml:space="preserve" font-family="Helvetica,Helvetica" font-size="17.0" fill="#000000" transform="matrix(1.00, 0.00, -0.00, -1.00, 73.2, 578.4)">c</text><text xml:space="preserve" font-family="Helvetica,Helvetica" font-size="17.0" fill="#000000" transform="matrix(1.00, 0.00, -0.00, -1.00, 81.7, 578.4)">u</text><text xml:space="preserve" font-family="Helvetica,Helvetica" font-size="17.0" fill="#000000" transform="matrix(1.00, 0.00, -0.00, -1.00, 91.1, 578.4)">m</text><text xml:space="preserve" font-family="Helvetica,Helvetica" font-size="17.0" fill="#000000" transform="matrix(1.00, 0.00, -0.00, -1.00, 105.3, 578.4)">u</text><text xml:space="preserve" font-family="Helvetica,Helvetica" font-size="17.0" fill="#000000" transform="matrix(1.00, 0.00, -0.00, -1.00, 114.8, 578.4)">l</text><text xml:space="preserve" font-family="Helvetica,Helvetica" font-size="17.0" fill="#000000" transform="matrix(1.00, 0.00, -0.00, -1.00, 118.5, 578.4)">a</text><text xml:space="preserve" font-family="Helvetica,Helvetica" font-size="17.0" fill="#000000" transform="matrix(1.00, 0.00, -0.00, -1.00, 128.0, 578.4)">t</text><text xml:space="preserve" font-family="Helvetica,Helvetica" font-size="17.0" fill="#000000" transform="matrix(1.00, 0.00, -0.00, -1.00, 132.7, 578.4)">i</text><text xml:space="preserve" font-family="Helvetica,Helvetica" font-size="17.0" fill="#000000" transform="matrix(1.00, 0.00, -0.00, -1.00, 136.5, 578.4)">o</text><text xml:space="preserve" font-family="Helvetica,Helvetica" font-size="17.0" fill="#000000" transform="matrix(1.00, 0.00, -0.00, -1.00, 146.0, 578.4)">n</text></g></g><g><clipPath id="clip0x7faba0906250"><path d="M 14.6 555.5 L 159.6 555.5 L 159.6 573.5 L 14.6 573.5 Z M 14.6 555.5 "></path></clipPath><g clip-path="url(#clip0x7faba0906250)"><image xlink:href="../../5B899592-1E9B-41A3-881B-AE2EA024CC83/assets/0C65710A18F0483E99A6957FF315C350.jpeg" width="299.00" height="23.00" transform="matrix(0.48, 0.00, -0.00, -0.78, 15.0, 573.0)"></image></g></g><g><clipPath id="clip0x7faba090ea80"><path d="M 13.3 535.5 L 28.9 535.5 L 28.9 557.5 L 13.3 557.5 Z M 13.3 535.5 "></path></clipPath><g clip-path="url(#clip0x7faba090ea80)"><text xml:space="preserve" font-family="Helvetica,Helvetica" font-size="12.0" fill="#000000" transform="matrix(1.00, 0.00, -0.00, -1.00, 17.8, 542.3)">1</text></g></g><g><clipPath id="clip0x7faba090dd70"><path d="M 130.2 535.5 L 172.6 535.5 L 172.6 557.5 L 130.2 557.5 Z M 130.2 535.5 "></path></clipPath><g clip-path="url(#clip0x7faba090dd70)"><text xml:space="preserve" font-family="Helvetica,Helvetica" font-size="12.0" fill="#000000" transform="matrix(1.00, 0.00, -0.00, -1.00, 134.7, 542.3)">1</text><text xml:space="preserve" font-family="Helvetica,Helvetica" font-size="12.0" fill="#000000" transform="matrix(1.00, 0.00, -0.00, -1.00, 141.4, 542.3)">0</text><text xml:space="preserve" font-family="Helvetica,Helvetica" font-size="12.0" fill="#000000" transform="matrix(1.00, 0.00, -0.00, -1.00, 148.1, 542.3)">0</text><text xml:space="preserve" font-family="Helvetica,Helvetica" font-size="12.0" fill="#000000" transform="matrix(1.00, 0.00, -0.00, -1.00, 154.8, 542.3)">0</text><text xml:space="preserve" font-family="Helvetica,Helvetica" font-size="12.0" fill="#000000" transform="matrix(1.00, 0.00, -0.00, -1.00, 161.5, 542.3)">0</text></g></g></g></svg>