<?xml version="1.0" encoding="UTF-8" standalone="no"?><svg xmlns="http://www.w3.org/2000/svg" xmlns:xlink="http://www.w3.org/1999/xlink" clip-rule="evenodd" stroke-miterlimit="10" viewBox="0 0 1024 768"><desc>SVG generated by Keynote</desc><defs></defs><g transform="matrix(1.00, 0.00, -0.00, -1.00, 0.0, 768.0)"><path d="M 0.0 768.0 L 1024.0 768.0 L 1024.0 0.0 L 0.0 0.0 Z M 0.0 768.0 " fill="#FEFFFE"></path><g><clipPath id="clip0x7faba28839e0"><path d="M 59.0 293.0 L 983.0 293.0 L 983.0 -10.0 L 59.0 -10.0 Z M 59.0 292.5 "></path></clipPath><g clip-path="url(#clip0x7faba28839e0)"><image xlink:href="292D75A9DE13DEF8C20431A3541D8471.jpeg" width="1010.00" height="372.00" transform="matrix(0.91, 0.00, -0.00, -0.92, 59.0, 293.0)"></image></g></g><path d="M 632.5 306.5 L 995.5 306.5 L 995.5 223.5 L 632.5 223.5 Z M 632.8 306.3 " fill="#FFFFFF"></path><path d="M -0.3 -0.2 L 362.7 -0.2 L 362.7 82.8 L -0.3 82.8 Z M 0.0 0.0 " fill="none" stroke="#FFFFFF" stroke-width="0.75" stroke-linejoin="bevel" transform="matrix(1.00, 0.00, 0.00, -1.00, 632.8, 306.3)"></path><path d="M 33.5 90.5 L 268.5 90.5 L 268.5 -30.5 L 33.5 -30.5 Z M 33.3 90.0 " fill="#FFFFFF"></path><path d="M 0.2 -0.5 L 235.2 -0.5 L 235.2 120.5 L 0.2 120.5 Z M 0.0 0.0 " fill="none" stroke="#FFFFFF" stroke-width="0.75" stroke-linejoin="bevel" transform="matrix(1.00, 0.00, 0.00, -1.00, 33.3, 90.0)"></path><path d="M 86.5 78.5 L 321.5 78.5 L 321.5 -19.5 L 86.5 -19.5 Z M 86.0 78.5 " fill="#FFFFFF"></path><path d="M 0.5 -0.0 L 235.5 -0.0 L 235.5 98.0 L 0.5 98.0 Z M 0.0 0.0 " fill="none" stroke="#FFFFFF" stroke-width="0.75" stroke-linejoin="bevel" transform="matrix(1.00, 0.00, 0.00, -1.00, 86.0, 78.5)"></path><path d="M 138.5 57.5 L 374.5 57.5 L 374.5 -25.5 L 138.5 -25.5 Z M 138.8 57.4 " fill="#FFFFFF"></path><path d="M -0.3 -0.1 L 235.7 -0.1 L 235.7 82.9 L -0.3 82.9 Z M 0.0 0.0 " fill="none" stroke="#FFFFFF" stroke-width="0.75" stroke-linejoin="bevel" transform="matrix(1.00, 0.00, 0.00, -1.00, 138.8, 57.4)"></path><path d="M 242.5 57.5 L 477.5 57.5 L 477.5 -25.5 L 242.5 -25.5 Z M 242.1 57.4 " fill="#FFFFFF"></path><path d="M 0.4 -0.1 L 235.4 -0.1 L 235.4 82.9 L 0.4 82.9 Z M 0.0 0.0 " fill="none" stroke="#FFFFFF" stroke-width="0.75" stroke-linejoin="bevel" transform="matrix(1.00, 0.00, 0.00, -1.00, 242.1, 57.4)"></path><path d="M 282.5 31.5 L 517.5 31.5 L 517.5 -24.5 L 282.5 -24.5 Z M 282.2 31.6 " fill="#FFFFFF"></path><path d="M 0.3 0.1 L 235.3 0.1 L 235.3 56.1 L 0.3 56.1 Z M 0.0 0.0 " fill="none" stroke="#FFFFFF" stroke-width="0.75" stroke-linejoin="bevel" transform="matrix(1.00, 0.00, 0.00, -1.00, 282.2, 31.6)"></path><path d="M 531.5 31.5 L 766.5 31.5 L 766.5 -24.5 L 531.5 -24.5 Z M 531.1 31.6 " fill="#FFFFFF"></path><path d="M 0.4 0.1 L 235.4 0.1 L 235.4 56.1 L 0.4 56.1 Z M 0.0 0.0 " fill="none" stroke="#FFFFFF" stroke-width="0.75" stroke-linejoin="bevel" transform="matrix(1.00, 0.00, 0.00, -1.00, 531.1, 31.6)"></path><path d="M 583.5 27.5 L 819.5 27.5 L 819.5 -28.5 L 583.5 -28.5 Z M 583.9 28.0 " fill="#FFFFFF"></path><path d="M -0.4 0.5 L 235.6 0.5 L 235.6 56.5 L -0.4 56.5 Z M 0.0 0.0 " fill="none" stroke="#FFFFFF" stroke-width="0.75" stroke-linejoin="bevel" transform="matrix(1.00, 0.00, 0.00, -1.00, 583.9, 28.0)"></path><path d="M 627.5 21.5 L 862.5 21.5 L 862.5 -22.5 L 627.5 -22.5 Z M 627.1 22.0 " fill="#FFFFFF"></path><path d="M 0.4 0.5 L 235.4 0.5 L 235.4 44.5 L 0.4 44.5 Z M 0.0 0.0 " fill="none" stroke="#FFFFFF" stroke-width="0.75" stroke-linejoin="bevel" transform="matrix(1.00, 0.00, 0.00, -1.00, 627.1, 22.0)"></path><path d="M 909.5 254.5 L 1010.5 254.5 L 1010.5 209.5 L 909.5 209.5 Z M 909.6 254.1 " fill="#FFFFFF"></path><path d="M -0.1 -0.4 L 100.9 -0.4 L 100.9 44.6 L -0.1 44.6 Z M 0.0 0.0 " fill="none" stroke="#FFFFFF" stroke-width="0.75" stroke-linejoin="bevel" transform="matrix(1.00, 0.00, 0.00, -1.00, 909.6, 254.1)"></path><image xlink:href="DB0DB9EA3C5FA1A6F1A8A5B4EE5454BC.jpeg" width="970.00" height="363.00" transform="matrix(0.91, 0.00, -0.00, -0.91, 54.0, 654.0)"></image><path d="M 689.5 691.5 L 777.5 691.5 L 777.5 622.5 L 689.5 622.5 Z M 689.5 691.8 " fill="#FFFFFF"></path><path d="M -0.0 0.3 L 88.0 0.3 L 88.0 69.3 L -0.0 69.3 Z M 0.0 0.0 " fill="none" stroke="#FFFFFF" stroke-width="0.75" stroke-linejoin="bevel" transform="matrix(1.00, 0.00, 0.00, -1.00, 689.5, 691.8)"></path><path d="M 138.5 661.5 L 440.5 661.5 L 440.5 626.5 L 138.5 626.5 Z M 138.2 661.1 " fill="#FFFFFF"></path><path d="M 0.3 -0.4 L 302.3 -0.4 L 302.3 34.6 L 0.3 34.6 Z M 0.0 0.0 " fill="none" stroke="#FFFFFF" stroke-width="0.75" stroke-linejoin="bevel" transform="matrix(1.00, 0.00, 0.00, -1.00, 138.2, 661.1)"></path><path d="M 896.0 542.0 L 942.0 542.0 L 942.0 397.0 L 896.0 397.0 Z M 896.3 542.5 " fill="#FFFFFF"></path><text xml:space="preserve" font-family="HelveticaNeue,Helvetica Neue" font-size="30.8" fill="#747373" transform="matrix(1.00, 0.00, -0.00, -1.00, 49.0, 618.8)">•</text><text xml:space="preserve" font-family="HelveticaNeue-Medium,Helvetica Neue" font-size="23.0" fill="#747373" transform="matrix(1.00, 0.00, -0.00, -1.00, 64.0, 621.7)">C</text><text xml:space="preserve" font-family="HelveticaNeue-Medium,Helvetica Neue" font-size="23.0" fill="#747373" transform="matrix(1.00, 0.00, -0.00, -1.00, 80.6, 621.7)">u</text><text xml:space="preserve" font-family="HelveticaNeue-Medium,Helvetica Neue" font-size="23.0" fill="#747373" transform="matrix(1.00, 0.00, -0.00, -1.00, 93.8, 621.7)">m</text><text xml:space="preserve" font-family="HelveticaNeue-Medium,Helvetica Neue" font-size="23.0" fill="#747373" transform="matrix(1.00, 0.00, -0.00, -1.00, 113.8, 621.7)">u</text><text xml:space="preserve" font-family="HelveticaNeue-Medium,Helvetica Neue" font-size="23.0" fill="#747373" transform="matrix(1.00, 0.00, -0.00, -1.00, 127.0, 621.7)">l</text><text xml:space="preserve" font-family="HelveticaNeue-Medium,Helvetica Neue" font-size="23.0" fill="#747373" transform="matrix(1.00, 0.00, -0.00, -1.00, 132.6, 621.7)">a</text><text xml:space="preserve" font-family="HelveticaNeue-Medium,Helvetica Neue" font-size="23.0" fill="#747373" transform="matrix(1.00, 0.00, -0.00, -1.00, 145.4, 621.7)">t</text><text xml:space="preserve" font-family="HelveticaNeue-Medium,Helvetica Neue" font-size="23.0" fill="#747373" transform="matrix(1.00, 0.00, -0.00, -1.00, 153.0, 621.7)">i</text><text xml:space="preserve" font-family="HelveticaNeue-Medium,Helvetica Neue" font-size="23.0" fill="#747373" transform="matrix(1.00, 0.00, -0.00, -1.00, 158.6, 621.7)">v</text><text xml:space="preserve" font-family="HelveticaNeue-Medium,Helvetica Neue" font-size="23.0" fill="#747373" transform="matrix(1.00, 0.00, -0.00, -1.00, 170.5, 621.7)">e</text><text xml:space="preserve" font-family="HelveticaNeue-Medium,Helvetica Neue" font-size="23.0" fill="#747373" transform="matrix(1.00, 0.00, -0.00, -1.00, 183.3, 621.7)"> </text><text xml:space="preserve" font-family="HelveticaNeue-Medium,Helvetica Neue" font-size="23.0" fill="#747373" transform="matrix(1.00, 0.00, -0.00, -1.00, 189.7, 621.7)">t</text><text xml:space="preserve" font-family="HelveticaNeue-Medium,Helvetica Neue" font-size="23.0" fill="#747373" transform="matrix(1.00, 0.00, -0.00, -1.00, 197.3, 621.7)">h</text><text xml:space="preserve" font-family="HelveticaNeue-Medium,Helvetica Neue" font-size="23.0" fill="#747373" transform="matrix(1.00, 0.00, -0.00, -1.00, 210.5, 621.7)">i</text><text xml:space="preserve" font-family="HelveticaNeue-Medium,Helvetica Neue" font-size="23.0" fill="#747373" transform="matrix(1.00, 0.00, -0.00, -1.00, 216.1, 621.7)">c</text><text xml:space="preserve" font-family="HelveticaNeue-Medium,Helvetica Neue" font-size="23.0" fill="#747373" transform="matrix(1.00, 0.00, -0.00, -1.00, 228.9, 621.7)">k</text><text xml:space="preserve" font-family="HelveticaNeue-Medium,Helvetica Neue" font-size="23.0" fill="#747373" transform="matrix(1.00, 0.00, -0.00, -1.00, 241.2, 621.7)">n</text><text xml:space="preserve" font-family="HelveticaNeue-Medium,Helvetica Neue" font-size="23.0" fill="#747373" transform="matrix(1.00, 0.00, -0.00, -1.00, 254.4, 621.7)">e</text><text xml:space="preserve" font-family="HelveticaNeue-Medium,Helvetica Neue" font-size="23.0" fill="#747373" transform="matrix(1.00, 0.00, -0.00, -1.00, 267.2, 621.7)">s</text><text xml:space="preserve" font-family="HelveticaNeue-Medium,Helvetica Neue" font-size="23.0" fill="#747373" transform="matrix(1.00, 0.00, -0.00, -1.00, 279.1, 621.7)">s</text><text xml:space="preserve" font-family="HelveticaNeue-Medium,Helvetica Neue" font-size="23.0" fill="#747373" transform="matrix(1.00, 0.00, -0.00, -1.00, 291.1, 621.7)">:</text><text xml:space="preserve" font-family="HelveticaNeue-Medium,Helvetica Neue" font-size="23.0" fill="#747373" transform="matrix(1.00, 0.00, -0.00, -1.00, 297.5, 621.7)"> </text><text xml:space="preserve" font-family="HelveticaNeue-Medium,Helvetica Neue" font-size="23.0" fill="#941100" transform="matrix(1.00, 0.00, -0.00, -1.00, 303.9, 621.7)">f</text><text xml:space="preserve" font-family="HelveticaNeue-Medium,Helvetica Neue" font-size="23.0" fill="#941100" transform="matrix(1.00, 0.00, -0.00, -1.00, 311.1, 621.7)">r</text><text xml:space="preserve" font-family="HelveticaNeue-Medium,Helvetica Neue" font-size="23.0" fill="#941100" transform="matrix(1.00, 0.00, -0.00, -1.00, 318.8, 621.7)">o</text><text xml:space="preserve" font-family="HelveticaNeue-Medium,Helvetica Neue" font-size="23.0" fill="#941100" transform="matrix(1.00, 0.00, -0.00, -1.00, 332.4, 621.7)">m</text><text xml:space="preserve" font-family="HelveticaNeue-Medium,Helvetica Neue" font-size="23.0" fill="#941100" transform="matrix(1.00, 0.00, -0.00, -1.00, 352.4, 621.7)"> </text><text xml:space="preserve" font-family="HelveticaNeue-Medium,Helvetica Neue" font-size="23.0" fill="#941100" transform="matrix(1.00, 0.00, -0.00, -1.00, 358.8, 621.7)">D</text><text xml:space="preserve" font-family="HelveticaNeue-Medium,Helvetica Neue" font-size="23.0" fill="#941100" transform="matrix(1.00, 0.00, -0.00, -1.00, 375.4, 621.7)">a</text><text xml:space="preserve" font-family="HelveticaNeue-Medium,Helvetica Neue" font-size="23.0" fill="#941100" transform="matrix(1.00, 0.00, -0.00, -1.00, 388.2, 621.7)">t</text><text xml:space="preserve" font-family="HelveticaNeue-Medium,Helvetica Neue" font-size="23.0" fill="#941100" transform="matrix(1.00, 0.00, -0.00, -1.00, 395.9, 621.7)">a</text><text xml:space="preserve" font-family="HelveticaNeue-Medium,Helvetica Neue" font-size="23.0" fill="#941100" transform="matrix(1.00, 0.00, -0.00, -1.00, 408.7, 621.7)"> </text><text xml:space="preserve" font-family="HelveticaNeue-Medium,Helvetica Neue" font-size="23.0" fill="#941100" transform="matrix(1.00, 0.00, -0.00, -1.00, 415.1, 621.7)">t</text><text xml:space="preserve" font-family="HelveticaNeue-Medium,Helvetica Neue" font-size="23.0" fill="#941100" transform="matrix(1.00, 0.00, -0.00, -1.00, 422.7, 621.7)">o</text><text xml:space="preserve" font-family="HelveticaNeue-Medium,Helvetica Neue" font-size="23.0" fill="#941100" transform="matrix(1.00, 0.00, -0.00, -1.00, 436.4, 621.7)"> </text><text xml:space="preserve" font-family="HelveticaNeue-Medium,Helvetica Neue" font-size="23.0" fill="#941100" transform="matrix(1.00, 0.00, -0.00, -1.00, 442.8, 621.7)">M</text><text xml:space="preserve" font-family="HelveticaNeue-Medium,Helvetica Neue" font-size="23.0" fill="#941100" transform="matrix(1.00, 0.00, -0.00, -1.00, 463.2, 621.7)">o</text><text xml:space="preserve" font-family="HelveticaNeue-Medium,Helvetica Neue" font-size="23.0" fill="#941100" transform="matrix(1.00, 0.00, -0.00, -1.00, 476.9, 621.7)">d</text><text xml:space="preserve" font-family="HelveticaNeue-Medium,Helvetica Neue" font-size="23.0" fill="#941100" transform="matrix(1.00, 0.00, -0.00, -1.00, 490.9, 621.7)">e</text><text xml:space="preserve" font-family="HelveticaNeue-Medium,Helvetica Neue" font-size="23.0" fill="#941100" transform="matrix(1.00, 0.00, -0.00, -1.00, 503.7, 621.7)">l</text><text xml:space="preserve" font-family="HelveticaNeue-Medium,Helvetica Neue" font-size="23.0" fill="#941100" transform="matrix(1.00, 0.00, -0.00, -1.00, 509.2, 621.7)"> </text><text xml:space="preserve" font-family="HelveticaNeue-Medium,Helvetica Neue" font-size="23.0" fill="#941100" transform="matrix(1.00, 0.00, -0.00, -1.00, 515.6, 621.7)">&amp;</text><text xml:space="preserve" font-family="HelveticaNeue-Medium,Helvetica Neue" font-size="23.0" fill="#941100" transform="matrix(1.00, 0.00, -0.00, -1.00, 530.5, 621.7)"> </text><text xml:space="preserve" font-family="HelveticaNeue-Medium,Helvetica Neue" font-size="23.0" fill="#941100" transform="matrix(1.00, 0.00, -0.00, -1.00, 536.9, 621.7)">b</text><text xml:space="preserve" font-family="HelveticaNeue-Medium,Helvetica Neue" font-size="23.0" fill="#941100" transform="matrix(1.00, 0.00, -0.00, -1.00, 551.0, 621.7)">a</text><text xml:space="preserve" font-family="HelveticaNeue-Medium,Helvetica Neue" font-size="23.0" fill="#941100" transform="matrix(1.00, 0.00, -0.00, -1.00, 563.8, 621.7)">c</text><text xml:space="preserve" font-family="HelveticaNeue-Medium,Helvetica Neue" font-size="23.0" fill="#941100" transform="matrix(1.00, 0.00, -0.00, -1.00, 576.6, 621.7)">k</text><text xml:space="preserve" font-family="HelveticaNeue-Medium,Helvetica Neue" font-size="23.0" fill="#941100" transform="matrix(1.00, 0.00, -0.00, -1.00, 588.9, 621.7)"> </text><text xml:space="preserve" font-family="HelveticaNeue-Medium,Helvetica Neue" font-size="23.0" fill="#941100" transform="matrix(1.00, 0.00, -0.00, -1.00, 595.3, 621.7)">t</text><text xml:space="preserve" font-family="HelveticaNeue-Medium,Helvetica Neue" font-size="23.0" fill="#941100" transform="matrix(1.00, 0.00, -0.00, -1.00, 603.0, 621.7)">o</text><text xml:space="preserve" font-family="HelveticaNeue-Medium,Helvetica Neue" font-size="23.0" fill="#941100" transform="matrix(1.00, 0.00, -0.00, -1.00, 616.6, 621.7)"> </text><text xml:space="preserve" font-family="HelveticaNeue-Medium,Helvetica Neue" font-size="23.0" fill="#941100" transform="matrix(1.00, 0.00, -0.00, -1.00, 623.0, 621.7)">D</text><text xml:space="preserve" font-family="HelveticaNeue-Medium,Helvetica Neue" font-size="23.0" fill="#941100" transform="matrix(1.00, 0.00, -0.00, -1.00, 639.6, 621.7)">a</text><text xml:space="preserve" font-family="HelveticaNeue-Medium,Helvetica Neue" font-size="23.0" fill="#941100" transform="matrix(1.00, 0.00, -0.00, -1.00, 652.4, 621.7)">t</text><text xml:space="preserve" font-family="HelveticaNeue-Medium,Helvetica Neue" font-size="23.0" fill="#941100" transform="matrix(1.00, 0.00, -0.00, -1.00, 660.0, 621.7)">a</text><path d="M 0.2 -0.1 L 924.2 -0.1 " fill="none" stroke="#ABABAB" stroke-width="1.00" transform="matrix(1.00, 0.00, 0.00, -1.00, 49.8, 324.4)"></path><text xml:space="preserve" font-family="HelveticaNeue,Helvetica Neue" font-size="30.8" fill="#747373" transform="matrix(1.00, 0.00, -0.00, -1.00, 49.0, 288.8)">•</text><text xml:space="preserve" font-family="HelveticaNeue-Medium,Helvetica Neue" font-size="23.0" fill="#747373" transform="matrix(1.00, 0.00, -0.00, -1.00, 64.0, 291.7)">D</text><text xml:space="preserve" font-family="HelveticaNeue-Medium,Helvetica Neue" font-size="23.0" fill="#747373" transform="matrix(1.00, 0.00, -0.00, -1.00, 80.6, 291.7)">e</text><text xml:space="preserve" font-family="HelveticaNeue-Medium,Helvetica Neue" font-size="23.0" fill="#747373" transform="matrix(1.00, 0.00, -0.00, -1.00, 93.4, 291.7)">l</text><text xml:space="preserve" font-family="HelveticaNeue-Medium,Helvetica Neue" font-size="23.0" fill="#747373" transform="matrix(1.00, 0.00, -0.00, -1.00, 98.9, 291.7)">t</text><text xml:space="preserve" font-family="HelveticaNeue-Medium,Helvetica Neue" font-size="23.0" fill="#747373" transform="matrix(1.00, 0.00, -0.00, -1.00, 106.6, 291.7)">a</text><text xml:space="preserve" font-family="HelveticaNeue-Medium,Helvetica Neue" font-size="23.0" fill="#747373" transform="matrix(1.00, 0.00, -0.00, -1.00, 119.4, 291.7)"> </text><text xml:space="preserve" font-family="HelveticaNeue-Medium,Helvetica Neue" font-size="23.0" fill="#747373" transform="matrix(1.00, 0.00, -0.00, -1.00, 125.8, 291.7)">s</text><text xml:space="preserve" font-family="HelveticaNeue-Medium,Helvetica Neue" font-size="23.0" fill="#747373" transform="matrix(1.00, 0.00, -0.00, -1.00, 137.7, 291.7)">t</text><text xml:space="preserve" font-family="HelveticaNeue-Medium,Helvetica Neue" font-size="23.0" fill="#747373" transform="matrix(1.00, 0.00, -0.00, -1.00, 145.4, 291.7)">r</text><text xml:space="preserve" font-family="HelveticaNeue-Medium,Helvetica Neue" font-size="23.0" fill="#747373" transform="matrix(1.00, 0.00, -0.00, -1.00, 153.5, 291.7)">a</text><text xml:space="preserve" font-family="HelveticaNeue-Medium,Helvetica Neue" font-size="23.0" fill="#747373" transform="matrix(1.00, 0.00, -0.00, -1.00, 166.3, 291.7)">t</text><text xml:space="preserve" font-family="HelveticaNeue-Medium,Helvetica Neue" font-size="23.0" fill="#747373" transform="matrix(1.00, 0.00, -0.00, -1.00, 173.9, 291.7)">i</text><text xml:space="preserve" font-family="HelveticaNeue-Medium,Helvetica Neue" font-size="23.0" fill="#747373" transform="matrix(1.00, 0.00, -0.00, -1.00, 179.5, 291.7)">g</text><text xml:space="preserve" font-family="HelveticaNeue-Medium,Helvetica Neue" font-size="23.0" fill="#747373" transform="matrix(1.00, 0.00, -0.00, -1.00, 193.1, 291.7)">r</text><text xml:space="preserve" font-family="HelveticaNeue-Medium,Helvetica Neue" font-size="23.0" fill="#747373" transform="matrix(1.00, 0.00, -0.00, -1.00, 201.2, 291.7)">a</text><text xml:space="preserve" font-family="HelveticaNeue-Medium,Helvetica Neue" font-size="23.0" fill="#747373" transform="matrix(1.00, 0.00, -0.00, -1.00, 214.0, 291.7)">p</text><text xml:space="preserve" font-family="HelveticaNeue-Medium,Helvetica Neue" font-size="23.0" fill="#747373" transform="matrix(1.00, 0.00, -0.00, -1.00, 228.0, 291.7)">h</text><text xml:space="preserve" font-family="HelveticaNeue-Medium,Helvetica Neue" font-size="23.0" fill="#747373" transform="matrix(1.00, 0.00, -0.00, -1.00, 241.2, 291.7)">i</text><text xml:space="preserve" font-family="HelveticaNeue-Medium,Helvetica Neue" font-size="23.0" fill="#747373" transform="matrix(1.00, 0.00, -0.00, -1.00, 246.8, 291.7)">c</text><text xml:space="preserve" font-family="HelveticaNeue-Medium,Helvetica Neue" font-size="23.0" fill="#747373" transform="matrix(1.00, 0.00, -0.00, -1.00, 259.6, 291.7)"> </text><text xml:space="preserve" font-family="HelveticaNeue-Medium,Helvetica Neue" font-size="23.0" fill="#747373" transform="matrix(1.00, 0.00, -0.00, -1.00, 266.0, 291.7)">f</text><text xml:space="preserve" font-family="HelveticaNeue-Medium,Helvetica Neue" font-size="23.0" fill="#747373" transform="matrix(1.00, 0.00, -0.00, -1.00, 273.2, 291.7)">e</text><text xml:space="preserve" font-family="HelveticaNeue-Medium,Helvetica Neue" font-size="23.0" fill="#747373" transform="matrix(1.00, 0.00, -0.00, -1.00, 286.0, 291.7)">a</text><text xml:space="preserve" font-family="HelveticaNeue-Medium,Helvetica Neue" font-size="23.0" fill="#747373" transform="matrix(1.00, 0.00, -0.00, -1.00, 298.8, 291.7)">t</text><text xml:space="preserve" font-family="HelveticaNeue-Medium,Helvetica Neue" font-size="23.0" fill="#747373" transform="matrix(1.00, 0.00, -0.00, -1.00, 306.4, 291.7)">u</text><text xml:space="preserve" font-family="HelveticaNeue-Medium,Helvetica Neue" font-size="23.0" fill="#747373" transform="matrix(1.00, 0.00, -0.00, -1.00, 319.6, 291.7)">r</text><text xml:space="preserve" font-family="HelveticaNeue-Medium,Helvetica Neue" font-size="23.0" fill="#747373" transform="matrix(1.00, 0.00, -0.00, -1.00, 327.3, 291.7)">e</text><text xml:space="preserve" font-family="HelveticaNeue-Medium,Helvetica Neue" font-size="23.0" fill="#747373" transform="matrix(1.00, 0.00, -0.00, -1.00, 340.1, 291.7)">s</text><path d="M 463.0 300.0 L 597.0 300.0 L 597.0 274.0 L 463.0 274.0 Z M 462.5 299.7 " fill="#FEFFFE"></path><g><clipPath id="clip0x7faba294c780"><path d="M 462.5 274.0 L 596.9 274.0 L 596.9 299.7 L 462.5 299.7 Z M 462.5 274.0 "></path></clipPath><g clip-path="url(#clip0x7faba294c780)"><text xml:space="preserve" font-family="GillSans,Gill Sans" font-size="10.0" fill="#000000" transform="matrix(1.00, 0.00, -0.00, -1.00, 486.4, 283.0)">m</text><text xml:space="preserve" font-family="GillSans,Gill Sans" font-size="10.0" fill="#000000" transform="matrix(1.00, 0.00, -0.00, -1.00, 494.1, 283.0)">e</text><text xml:space="preserve" font-family="GillSans,Gill Sans" font-size="10.0" fill="#000000" transform="matrix(1.00, 0.00, -0.00, -1.00, 498.9, 283.0)">a</text><text xml:space="preserve" font-family="GillSans,Gill Sans" font-size="10.0" fill="#000000" transform="matrix(1.00, 0.00, -0.00, -1.00, 503.1, 283.0)">n</text><text xml:space="preserve" font-family="GillSans,Gill Sans" font-size="10.0" fill="#000000" transform="matrix(1.00, 0.00, -0.00, -1.00, 508.1, 283.0)"> </text><text xml:space="preserve" font-family="GillSans,Gill Sans" font-size="10.0" fill="#000000" transform="matrix(1.00, 0.00, -0.00, -1.00, 510.9, 283.0)">g</text><text xml:space="preserve" font-family="GillSans,Gill Sans" font-size="10.0" fill="#000000" transform="matrix(1.00, 0.00, -0.00, -1.00, 515.2, 283.0)">r</text><text xml:space="preserve" font-family="GillSans,Gill Sans" font-size="10.0" fill="#000000" transform="matrix(1.00, 0.00, -0.00, -1.00, 519.1, 283.0)">a</text><text xml:space="preserve" font-family="GillSans,Gill Sans" font-size="10.0" fill="#000000" transform="matrix(1.00, 0.00, -0.00, -1.00, 523.4, 283.0)">i</text><text xml:space="preserve" font-family="GillSans,Gill Sans" font-size="10.0" fill="#000000" transform="matrix(1.00, 0.00, -0.00, -1.00, 525.6, 283.0)">n</text><text xml:space="preserve" font-family="GillSans,Gill Sans" font-size="10.0" fill="#000000" transform="matrix(1.00, 0.00, -0.00, -1.00, 530.6, 283.0)"> </text><text xml:space="preserve" font-family="GillSans,Gill Sans" font-size="10.0" fill="#000000" transform="matrix(1.00, 0.00, -0.00, -1.00, 533.4, 283.0)">s</text><text xml:space="preserve" font-family="GillSans,Gill Sans" font-size="10.0" fill="#000000" transform="matrix(1.00, 0.00, -0.00, -1.00, 537.2, 283.0)">i</text><text xml:space="preserve" font-family="GillSans,Gill Sans" font-size="10.0" fill="#000000" transform="matrix(1.00, 0.00, -0.00, -1.00, 539.4, 283.0)">z</text><text xml:space="preserve" font-family="GillSans,Gill Sans" font-size="10.0" fill="#000000" transform="matrix(1.00, 0.00, -0.00, -1.00, 543.6, 283.0)">e</text><text xml:space="preserve" font-family="GillSans,Gill Sans" font-size="10.0" fill="#000000" transform="matrix(1.00, 0.00, -0.00, -1.00, 548.4, 283.0)"> </text><text xml:space="preserve" font-family="GillSans,Gill Sans" font-size="10.0" fill="#000000" transform="matrix(1.00, 0.00, -0.00, -1.00, 551.1, 283.0)">(</text><text xml:space="preserve" font-family="GillSans,Gill Sans" font-size="10.0" fill="#000000" transform="matrix(1.00, 0.00, -0.00, -1.00, 554.4, 283.0)">m</text><text xml:space="preserve" font-family="GillSans,Gill Sans" font-size="10.0" fill="#000000" transform="matrix(1.00, 0.00, -0.00, -1.00, 562.1, 283.0)">m</text><text xml:space="preserve" font-family="GillSans,Gill Sans" font-size="10.0" fill="#000000" transform="matrix(1.00, 0.00, -0.00, -1.00, 569.8, 283.0)">)</text></g></g><text xml:space="preserve" font-family="HelveticaNeue-Medium,Helvetica Neue" font-size="42.0" fill="#000000" transform="matrix(1.00, 0.00, -0.00, -1.00, 49.0, 688.1)">B</text><text xml:space="preserve" font-family="HelveticaNeue-Medium,Helvetica Neue" font-size="42.0" fill="#000000" transform="matrix(1.00, 0.00, -0.00, -1.00, 78.6, 688.1)">o</text><text xml:space="preserve" font-family="HelveticaNeue-Medium,Helvetica Neue" font-size="42.0" fill="#000000" transform="matrix(1.00, 0.00, -0.00, -1.00, 103.5, 688.1)">n</text><text xml:space="preserve" font-family="HelveticaNeue-Medium,Helvetica Neue" font-size="42.0" fill="#000000" transform="matrix(1.00, 0.00, -0.00, -1.00, 127.6, 688.1)">a</text><text xml:space="preserve" font-family="HelveticaNeue-Medium,Helvetica Neue" font-size="42.0" fill="#000000" transform="matrix(1.00, 0.00, -0.00, -1.00, 150.9, 688.1)">p</text><text xml:space="preserve" font-family="HelveticaNeue-Medium,Helvetica Neue" font-size="42.0" fill="#000000" transform="matrix(1.00, 0.00, -0.00, -1.00, 176.6, 688.1)">a</text><text xml:space="preserve" font-family="HelveticaNeue-Medium,Helvetica Neue" font-size="42.0" fill="#000000" transform="matrix(1.00, 0.00, -0.00, -1.00, 199.9, 688.1)">r</text><text xml:space="preserve" font-family="HelveticaNeue-Medium,Helvetica Neue" font-size="42.0" fill="#000000" transform="matrix(1.00, 0.00, -0.00, -1.00, 214.7, 688.1)">t</text><text xml:space="preserve" font-family="HelveticaNeue-Medium,Helvetica Neue" font-size="42.0" fill="#000000" transform="matrix(1.00, 0.00, -0.00, -1.00, 228.7, 688.1)">e</text><text xml:space="preserve" font-family="HelveticaNeue-Medium,Helvetica Neue" font-size="42.0" fill="#000000" transform="matrix(1.00, 0.00, -0.00, -1.00, 252.1, 688.1)"> </text><text xml:space="preserve" font-family="HelveticaNeue-Medium,Helvetica Neue" font-size="42.0" fill="#000000" transform="matrix(1.00, 0.00, -0.00, -1.00, 263.7, 688.1)">s</text><text xml:space="preserve" font-family="HelveticaNeue-Medium,Helvetica Neue" font-size="42.0" fill="#000000" transform="matrix(1.00, 0.00, -0.00, -1.00, 285.5, 688.1)">h</text><text xml:space="preserve" font-family="HelveticaNeue-Medium,Helvetica Neue" font-size="42.0" fill="#000000" transform="matrix(1.00, 0.00, -0.00, -1.00, 309.7, 688.1)">e</text><text xml:space="preserve" font-family="HelveticaNeue-Medium,Helvetica Neue" font-size="42.0" fill="#000000" transform="matrix(1.00, 0.00, -0.00, -1.00, 333.0, 688.1)">l</text><text xml:space="preserve" font-family="HelveticaNeue-Medium,Helvetica Neue" font-size="42.0" fill="#000000" transform="matrix(1.00, 0.00, -0.00, -1.00, 343.1, 688.1)">f</text><text xml:space="preserve" font-family="HelveticaNeue-Medium,Helvetica Neue" font-size="42.0" fill="#000000" transform="matrix(1.00, 0.00, -0.00, -1.00, 356.4, 688.1)"> </text><text xml:space="preserve" font-family="HelveticaNeue-Medium,Helvetica Neue" font-size="42.0" fill="#000000" transform="matrix(1.00, 0.00, -0.00, -1.00, 368.0, 688.1)">e</text><text xml:space="preserve" font-family="HelveticaNeue-Medium,Helvetica Neue" font-size="42.0" fill="#000000" transform="matrix(1.00, 0.00, -0.00, -1.00, 391.4, 688.1)">d</text><text xml:space="preserve" font-family="HelveticaNeue-Medium,Helvetica Neue" font-size="42.0" fill="#000000" transform="matrix(1.00, 0.00, -0.00, -1.00, 417.0, 688.1)">g</text><text xml:space="preserve" font-family="HelveticaNeue-Medium,Helvetica Neue" font-size="42.0" fill="#000000" transform="matrix(1.00, 0.00, -0.00, -1.00, 442.0, 688.1)">e</text><text xml:space="preserve" font-family="HelveticaNeue-Medium,Helvetica Neue" font-size="42.0" fill="#000000" transform="matrix(1.00, 0.00, -0.00, -1.00, 465.3, 688.1)"> </text><text xml:space="preserve" font-family="HelveticaNeue-Medium,Helvetica Neue" font-size="42.0" fill="#000000" transform="matrix(1.00, 0.00, -0.00, -1.00, 477.0, 688.1)">d</text><text xml:space="preserve" font-family="HelveticaNeue-Medium,Helvetica Neue" font-size="42.0" fill="#000000" transform="matrix(1.00, 0.00, -0.00, -1.00, 502.6, 688.1)">e</text><text xml:space="preserve" font-family="HelveticaNeue-Medium,Helvetica Neue" font-size="42.0" fill="#000000" transform="matrix(1.00, 0.00, -0.00, -1.00, 526.0, 688.1)">l</text><text xml:space="preserve" font-family="HelveticaNeue-Medium,Helvetica Neue" font-size="42.0" fill="#000000" transform="matrix(1.00, 0.00, -0.00, -1.00, 536.1, 688.1)">t</text><text xml:space="preserve" font-family="HelveticaNeue-Medium,Helvetica Neue" font-size="42.0" fill="#000000" transform="matrix(1.00, 0.00, -0.00, -1.00, 550.1, 688.1)">a</text></g></svg>