<?xml version="1.0" encoding="UTF-8" standalone="no"?><svg xmlns="http://www.w3.org/2000/svg" xmlns:xlink="http://www.w3.org/1999/xlink" clip-rule="evenodd" stroke-miterlimit="10" viewBox="0 0 1024 768"><desc>SVG generated by Keynote</desc><defs></defs><g transform="matrix(1.00, 0.00, -0.00, -1.00, 0.0, 768.0)"><path d="M 0.0 768.0 L 1024.0 768.0 L 1024.0 0.0 L 0.0 0.0 Z M 0.0 768.0 " fill="#FEFFFE"></path><text xml:space="preserve" font-family="HelveticaNeue-Medium,Helvetica Neue" font-size="42.0" fill="#000000" transform="matrix(1.00, 0.00, -0.00, -1.00, 49.0, 688.1)">B</text><text xml:space="preserve" font-family="HelveticaNeue-Medium,Helvetica Neue" font-size="42.0" fill="#000000" transform="matrix(1.00, 0.00, -0.00, -1.00, 78.6, 688.1)">o</text><text xml:space="preserve" font-family="HelveticaNeue-Medium,Helvetica Neue" font-size="42.0" fill="#000000" transform="matrix(1.00, 0.00, -0.00, -1.00, 103.5, 688.1)">n</text><text xml:space="preserve" font-family="HelveticaNeue-Medium,Helvetica Neue" font-size="42.0" fill="#000000" transform="matrix(1.00, 0.00, -0.00, -1.00, 127.6, 688.1)">a</text><text xml:space="preserve" font-family="HelveticaNeue-Medium,Helvetica Neue" font-size="42.0" fill="#000000" transform="matrix(1.00, 0.00, -0.00, -1.00, 150.9, 688.1)">p</text><text xml:space="preserve" font-family="HelveticaNeue-Medium,Helvetica Neue" font-size="42.0" fill="#000000" transform="matrix(1.00, 0.00, -0.00, -1.00, 176.6, 688.1)">a</text><text xml:space="preserve" font-family="HelveticaNeue-Medium,Helvetica Neue" font-size="42.0" fill="#000000" transform="matrix(1.00, 0.00, -0.00, -1.00, 199.9, 688.1)">r</text><text xml:space="preserve" font-family="HelveticaNeue-Medium,Helvetica Neue" font-size="42.0" fill="#000000" transform="matrix(1.00, 0.00, -0.00, -1.00, 214.7, 688.1)">t</text><text xml:space="preserve" font-family="HelveticaNeue-Medium,Helvetica Neue" font-size="42.0" fill="#000000" transform="matrix(1.00, 0.00, -0.00, -1.00, 228.7, 688.1)">e</text><text xml:space="preserve" font-family="HelveticaNeue-Medium,Helvetica Neue" font-size="42.0" fill="#000000" transform="matrix(1.00, 0.00, -0.00, -1.00, 252.1, 688.1)"> </text><text xml:space="preserve" font-family="HelveticaNeue-Medium,Helvetica Neue" font-size="42.0" fill="#000000" transform="matrix(1.00, 0.00, -0.00, -1.00, 263.7, 688.1)">s</text><text xml:space="preserve" font-family="HelveticaNeue-Medium,Helvetica Neue" font-size="42.0" fill="#000000" transform="matrix(1.00, 0.00, -0.00, -1.00, 285.5, 688.1)">h</text><text xml:space="preserve" font-family="HelveticaNeue-Medium,Helvetica Neue" font-size="42.0" fill="#000000" transform="matrix(1.00, 0.00, -0.00, -1.00, 309.7, 688.1)">e</text><text xml:space="preserve" font-family="HelveticaNeue-Medium,Helvetica Neue" font-size="42.0" fill="#000000" transform="matrix(1.00, 0.00, -0.00, -1.00, 333.0, 688.1)">l</text><text xml:space="preserve" font-family="HelveticaNeue-Medium,Helvetica Neue" font-size="42.0" fill="#000000" transform="matrix(1.00, 0.00, -0.00, -1.00, 343.1, 688.1)">f</text><text xml:space="preserve" font-family="HelveticaNeue-Medium,Helvetica Neue" font-size="42.0" fill="#000000" transform="matrix(1.00, 0.00, -0.00, -1.00, 356.4, 688.1)"> </text><text xml:space="preserve" font-family="HelveticaNeue-Medium,Helvetica Neue" font-size="42.0" fill="#000000" transform="matrix(1.00, 0.00, -0.00, -1.00, 368.0, 688.1)">e</text><text xml:space="preserve" font-family="HelveticaNeue-Medium,Helvetica Neue" font-size="42.0" fill="#000000" transform="matrix(1.00, 0.00, -0.00, -1.00, 391.4, 688.1)">d</text><text xml:space="preserve" font-family="HelveticaNeue-Medium,Helvetica Neue" font-size="42.0" fill="#000000" transform="matrix(1.00, 0.00, -0.00, -1.00, 417.0, 688.1)">g</text><text xml:space="preserve" font-family="HelveticaNeue-Medium,Helvetica Neue" font-size="42.0" fill="#000000" transform="matrix(1.00, 0.00, -0.00, -1.00, 442.0, 688.1)">e</text><text xml:space="preserve" font-family="HelveticaNeue-Medium,Helvetica Neue" font-size="42.0" fill="#000000" transform="matrix(1.00, 0.00, -0.00, -1.00, 465.3, 688.1)"> </text><text xml:space="preserve" font-family="HelveticaNeue-Medium,Helvetica Neue" font-size="42.0" fill="#000000" transform="matrix(1.00, 0.00, -0.00, -1.00, 477.0, 688.1)">d</text><text xml:space="preserve" font-family="HelveticaNeue-Medium,Helvetica Neue" font-size="42.0" fill="#000000" transform="matrix(1.00, 0.00, -0.00, -1.00, 502.6, 688.1)">e</text><text xml:space="preserve" font-family="HelveticaNeue-Medium,Helvetica Neue" font-size="42.0" fill="#000000" transform="matrix(1.00, 0.00, -0.00, -1.00, 526.0, 688.1)">l</text><text xml:space="preserve" font-family="HelveticaNeue-Medium,Helvetica Neue" font-size="42.0" fill="#000000" transform="matrix(1.00, 0.00, -0.00, -1.00, 536.1, 688.1)">t</text><text xml:space="preserve" font-family="HelveticaNeue-Medium,Helvetica Neue" font-size="42.0" fill="#000000" transform="matrix(1.00, 0.00, -0.00, -1.00, 550.1, 688.1)">a</text><text xml:space="preserve" font-family="HelveticaNeue,Helvetica Neue" font-size="30.8" fill="#747373" transform="matrix(1.00, 0.00, -0.00, -1.00, 49.0, 618.8)">•</text><text xml:space="preserve" font-family="HelveticaNeue-Medium,Helvetica Neue" font-size="23.0" fill="#747373" transform="matrix(1.00, 0.00, -0.00, -1.00, 64.0, 621.7)">W</text><text xml:space="preserve" font-family="HelveticaNeue-Medium,Helvetica Neue" font-size="23.0" fill="#747373" transform="matrix(1.00, 0.00, -0.00, -1.00, 85.7, 621.7)">h</text><text xml:space="preserve" font-family="HelveticaNeue-Medium,Helvetica Neue" font-size="23.0" fill="#747373" transform="matrix(1.00, 0.00, -0.00, -1.00, 98.9, 621.7)">a</text><text xml:space="preserve" font-family="HelveticaNeue-Medium,Helvetica Neue" font-size="23.0" fill="#747373" transform="matrix(1.00, 0.00, -0.00, -1.00, 111.7, 621.7)">t</text><text xml:space="preserve" font-family="HelveticaNeue-Medium,Helvetica Neue" font-size="23.0" fill="#747373" transform="matrix(1.00, 0.00, -0.00, -1.00, 119.4, 621.7)"> </text><text xml:space="preserve" font-family="HelveticaNeue-Medium,Helvetica Neue" font-size="23.0" fill="#747373" transform="matrix(1.00, 0.00, -0.00, -1.00, 125.8, 621.7)">h</text><text xml:space="preserve" font-family="HelveticaNeue-Medium,Helvetica Neue" font-size="23.0" fill="#747373" transform="matrix(1.00, 0.00, -0.00, -1.00, 139.0, 621.7)">y</text><text xml:space="preserve" font-family="HelveticaNeue-Medium,Helvetica Neue" font-size="23.0" fill="#747373" transform="matrix(1.00, 0.00, -0.00, -1.00, 150.9, 621.7)">p</text><text xml:space="preserve" font-family="HelveticaNeue-Medium,Helvetica Neue" font-size="23.0" fill="#747373" transform="matrix(1.00, 0.00, -0.00, -1.00, 164.9, 621.7)">o</text><text xml:space="preserve" font-family="HelveticaNeue-Medium,Helvetica Neue" font-size="23.0" fill="#747373" transform="matrix(1.00, 0.00, -0.00, -1.00, 178.6, 621.7)">t</text><text xml:space="preserve" font-family="HelveticaNeue-Medium,Helvetica Neue" font-size="23.0" fill="#747373" transform="matrix(1.00, 0.00, -0.00, -1.00, 186.2, 621.7)">h</text><text xml:space="preserve" font-family="HelveticaNeue-Medium,Helvetica Neue" font-size="23.0" fill="#747373" transform="matrix(1.00, 0.00, -0.00, -1.00, 199.4, 621.7)">e</text><text xml:space="preserve" font-family="HelveticaNeue-Medium,Helvetica Neue" font-size="23.0" fill="#747373" transform="matrix(1.00, 0.00, -0.00, -1.00, 212.2, 621.7)">s</text><text xml:space="preserve" font-family="HelveticaNeue-Medium,Helvetica Neue" font-size="23.0" fill="#747373" transform="matrix(1.00, 0.00, -0.00, -1.00, 224.2, 621.7)">e</text><text xml:space="preserve" font-family="HelveticaNeue-Medium,Helvetica Neue" font-size="23.0" fill="#747373" transform="matrix(1.00, 0.00, -0.00, -1.00, 237.0, 621.7)">s</text><text xml:space="preserve" font-family="HelveticaNeue-Medium,Helvetica Neue" font-size="23.0" fill="#747373" transform="matrix(1.00, 0.00, -0.00, -1.00, 248.9, 621.7)"> </text><text xml:space="preserve" font-family="HelveticaNeue-Medium,Helvetica Neue" font-size="23.0" fill="#747373" transform="matrix(1.00, 0.00, -0.00, -1.00, 255.3, 621.7)">a</text><text xml:space="preserve" font-family="HelveticaNeue-Medium,Helvetica Neue" font-size="23.0" fill="#747373" transform="matrix(1.00, 0.00, -0.00, -1.00, 268.1, 621.7)">r</text><text xml:space="preserve" font-family="HelveticaNeue-Medium,Helvetica Neue" font-size="23.0" fill="#747373" transform="matrix(1.00, 0.00, -0.00, -1.00, 275.8, 621.7)">e</text><text xml:space="preserve" font-family="HelveticaNeue-Medium,Helvetica Neue" font-size="23.0" fill="#747373" transform="matrix(1.00, 0.00, -0.00, -1.00, 288.5, 621.7)"> </text><text xml:space="preserve" font-family="HelveticaNeue-Medium,Helvetica Neue" font-size="23.0" fill="#747373" transform="matrix(1.00, 0.00, -0.00, -1.00, 294.9, 621.7)">w</text><text xml:space="preserve" font-family="HelveticaNeue-Medium,Helvetica Neue" font-size="23.0" fill="#747373" transform="matrix(1.00, 0.00, -0.00, -1.00, 312.8, 621.7)">e</text><text xml:space="preserve" font-family="HelveticaNeue-Medium,Helvetica Neue" font-size="23.0" fill="#747373" transform="matrix(1.00, 0.00, -0.00, -1.00, 325.6, 621.7)"> </text><text xml:space="preserve" font-family="HelveticaNeue-Medium,Helvetica Neue" font-size="23.0" fill="#747373" transform="matrix(1.00, 0.00, -0.00, -1.00, 332.0, 621.7)">t</text><text xml:space="preserve" font-family="HelveticaNeue-Medium,Helvetica Neue" font-size="23.0" fill="#747373" transform="matrix(1.00, 0.00, -0.00, -1.00, 339.7, 621.7)">e</text><text xml:space="preserve" font-family="HelveticaNeue-Medium,Helvetica Neue" font-size="23.0" fill="#747373" transform="matrix(1.00, 0.00, -0.00, -1.00, 352.5, 621.7)">s</text><text xml:space="preserve" font-family="HelveticaNeue-Medium,Helvetica Neue" font-size="23.0" fill="#747373" transform="matrix(1.00, 0.00, -0.00, -1.00, 364.4, 621.7)">t</text><text xml:space="preserve" font-family="HelveticaNeue-Medium,Helvetica Neue" font-size="23.0" fill="#747373" transform="matrix(1.00, 0.00, -0.00, -1.00, 372.1, 621.7)">i</text><text xml:space="preserve" font-family="HelveticaNeue-Medium,Helvetica Neue" font-size="23.0" fill="#747373" transform="matrix(1.00, 0.00, -0.00, -1.00, 377.6, 621.7)">n</text><text xml:space="preserve" font-family="HelveticaNeue-Medium,Helvetica Neue" font-size="23.0" fill="#747373" transform="matrix(1.00, 0.00, -0.00, -1.00, 390.8, 621.7)">g</text><text xml:space="preserve" font-family="HelveticaNeue-Medium,Helvetica Neue" font-size="23.0" fill="#747373" transform="matrix(1.00, 0.00, -0.00, -1.00, 404.4, 621.7)">?</text><g><clipPath id="clip0x7faba10306a0"><path d="M 33.0 409.0 L 992.0 409.0 L 992.0 103.0 L 33.0 103.0 Z M 32.5 408.6 "></path></clipPath><g clip-path="url(#clip0x7faba10306a0)"><image xlink:href="54625B00E3BE57D1F4CCA95CF1286F19.jpeg" width="1208.00" height="329.00" transform="matrix(0.95, 0.00, -0.00, -0.95, 30.0, 415.0)"></image></g></g><text xml:space="preserve" font-family="HelveticaNeue-Medium,Helvetica Neue" font-size="21.0" fill="#941100" transform="matrix(1.00, 0.00, -0.00, -1.00, 92.0, 561.4)">W</text><text xml:space="preserve" font-family="HelveticaNeue-Medium,Helvetica Neue" font-size="21.0" fill="#941100" transform="matrix(1.00, 0.00, -0.00, -1.00, 111.9, 561.4)">h</text><text xml:space="preserve" font-family="HelveticaNeue-Medium,Helvetica Neue" font-size="21.0" fill="#941100" transform="matrix(1.00, 0.00, -0.00, -1.00, 123.9, 561.4)">a</text><text xml:space="preserve" font-family="HelveticaNeue-Medium,Helvetica Neue" font-size="21.0" fill="#941100" transform="matrix(1.00, 0.00, -0.00, -1.00, 135.6, 561.4)">t</text><text xml:space="preserve" font-family="HelveticaNeue-Medium,Helvetica Neue" font-size="21.0" fill="#941100" transform="matrix(1.00, 0.00, -0.00, -1.00, 142.6, 561.4)"> </text><text xml:space="preserve" font-family="HelveticaNeue-Medium,Helvetica Neue" font-size="21.0" fill="#941100" transform="matrix(1.00, 0.00, -0.00, -1.00, 148.4, 561.4)">i</text><text xml:space="preserve" font-family="HelveticaNeue-Medium,Helvetica Neue" font-size="21.0" fill="#941100" transform="matrix(1.00, 0.00, -0.00, -1.00, 153.5, 561.4)">s</text><text xml:space="preserve" font-family="HelveticaNeue-Medium,Helvetica Neue" font-size="21.0" fill="#941100" transform="matrix(1.00, 0.00, -0.00, -1.00, 164.4, 561.4)"> </text><text xml:space="preserve" font-family="HelveticaNeue-Medium,Helvetica Neue" font-size="21.0" fill="#941100" transform="matrix(1.00, 0.00, -0.00, -1.00, 170.2, 561.4)">c</text><text xml:space="preserve" font-family="HelveticaNeue-Medium,Helvetica Neue" font-size="21.0" fill="#941100" transform="matrix(1.00, 0.00, -0.00, -1.00, 181.9, 561.4)">o</text><text xml:space="preserve" font-family="HelveticaNeue-Medium,Helvetica Neue" font-size="21.0" fill="#941100" transform="matrix(1.00, 0.00, -0.00, -1.00, 194.3, 561.4)">n</text><text xml:space="preserve" font-family="HelveticaNeue-Medium,Helvetica Neue" font-size="21.0" fill="#941100" transform="matrix(1.00, 0.00, -0.00, -1.00, 206.4, 561.4)">t</text><text xml:space="preserve" font-family="HelveticaNeue-Medium,Helvetica Neue" font-size="21.0" fill="#941100" transform="matrix(1.00, 0.00, -0.00, -1.00, 213.4, 561.4)">r</text><text xml:space="preserve" font-family="HelveticaNeue-Medium,Helvetica Neue" font-size="21.0" fill="#941100" transform="matrix(1.00, 0.00, -0.00, -1.00, 220.4, 561.4)">o</text><text xml:space="preserve" font-family="HelveticaNeue-Medium,Helvetica Neue" font-size="21.0" fill="#941100" transform="matrix(1.00, 0.00, -0.00, -1.00, 232.9, 561.4)">l</text><text xml:space="preserve" font-family="HelveticaNeue-Medium,Helvetica Neue" font-size="21.0" fill="#941100" transform="matrix(1.00, 0.00, -0.00, -1.00, 237.9, 561.4)">l</text><text xml:space="preserve" font-family="HelveticaNeue-Medium,Helvetica Neue" font-size="21.0" fill="#941100" transform="matrix(1.00, 0.00, -0.00, -1.00, 243.0, 561.4)">i</text><text xml:space="preserve" font-family="HelveticaNeue-Medium,Helvetica Neue" font-size="21.0" fill="#941100" transform="matrix(1.00, 0.00, -0.00, -1.00, 248.0, 561.4)">n</text><text xml:space="preserve" font-family="HelveticaNeue-Medium,Helvetica Neue" font-size="21.0" fill="#941100" transform="matrix(1.00, 0.00, -0.00, -1.00, 260.1, 561.4)">g</text><text xml:space="preserve" font-family="HelveticaNeue-Medium,Helvetica Neue" font-size="21.0" fill="#941100" transform="matrix(1.00, 0.00, -0.00, -1.00, 272.5, 561.4)"> </text><text xml:space="preserve" font-family="HelveticaNeue-Medium,Helvetica Neue" font-size="21.0" fill="#941100" transform="matrix(1.00, 0.00, -0.00, -1.00, 278.4, 561.4)">t</text><text xml:space="preserve" font-family="HelveticaNeue-Medium,Helvetica Neue" font-size="21.0" fill="#941100" transform="matrix(1.00, 0.00, -0.00, -1.00, 285.4, 561.4)">h</text><text xml:space="preserve" font-family="HelveticaNeue-Medium,Helvetica Neue" font-size="21.0" fill="#941100" transform="matrix(1.00, 0.00, -0.00, -1.00, 297.4, 561.4)">e</text><text xml:space="preserve" font-family="HelveticaNeue-Medium,Helvetica Neue" font-size="21.0" fill="#941100" transform="matrix(1.00, 0.00, -0.00, -1.00, 309.1, 561.4)"> </text><text xml:space="preserve" font-family="HelveticaNeue-Medium,Helvetica Neue" font-size="21.0" fill="#941100" transform="matrix(1.00, 0.00, -0.00, -1.00, 314.9, 561.4)">a</text><text xml:space="preserve" font-family="HelveticaNeue-Medium,Helvetica Neue" font-size="21.0" fill="#941100" transform="matrix(1.00, 0.00, -0.00, -1.00, 326.6, 561.4)">l</text><text xml:space="preserve" font-family="HelveticaNeue-Medium,Helvetica Neue" font-size="21.0" fill="#941100" transform="matrix(1.00, 0.00, -0.00, -1.00, 331.7, 561.4)">o</text><text xml:space="preserve" font-family="HelveticaNeue-Medium,Helvetica Neue" font-size="21.0" fill="#941100" transform="matrix(1.00, 0.00, -0.00, -1.00, 344.1, 561.4)">n</text><text xml:space="preserve" font-family="HelveticaNeue-Medium,Helvetica Neue" font-size="21.0" fill="#941100" transform="matrix(1.00, 0.00, -0.00, -1.00, 356.2, 561.4)">g</text><text xml:space="preserve" font-family="HelveticaNeue-Medium,Helvetica Neue" font-size="21.0" fill="#941100" transform="matrix(1.00, 0.00, -0.00, -1.00, 368.6, 561.4)">-</text><text xml:space="preserve" font-family="HelveticaNeue-Medium,Helvetica Neue" font-size="21.0" fill="#941100" transform="matrix(1.00, 0.00, -0.00, -1.00, 376.8, 561.4)">s</text><text xml:space="preserve" font-family="HelveticaNeue-Medium,Helvetica Neue" font-size="21.0" fill="#941100" transform="matrix(1.00, 0.00, -0.00, -1.00, 387.7, 561.4)">t</text><text xml:space="preserve" font-family="HelveticaNeue-Medium,Helvetica Neue" font-size="21.0" fill="#941100" transform="matrix(1.00, 0.00, -0.00, -1.00, 394.7, 561.4)">r</text><text xml:space="preserve" font-family="HelveticaNeue-Medium,Helvetica Neue" font-size="21.0" fill="#941100" transform="matrix(1.00, 0.00, -0.00, -1.00, 402.1, 561.4)">i</text><text xml:space="preserve" font-family="HelveticaNeue-Medium,Helvetica Neue" font-size="21.0" fill="#941100" transform="matrix(1.00, 0.00, -0.00, -1.00, 407.2, 561.4)">k</text><text xml:space="preserve" font-family="HelveticaNeue-Medium,Helvetica Neue" font-size="21.0" fill="#941100" transform="matrix(1.00, 0.00, -0.00, -1.00, 418.4, 561.4)">e</text><text xml:space="preserve" font-family="HelveticaNeue-Medium,Helvetica Neue" font-size="21.0" fill="#941100" transform="matrix(1.00, 0.00, -0.00, -1.00, 430.1, 561.4)"> </text><text xml:space="preserve" font-family="HelveticaNeue-Medium,Helvetica Neue" font-size="21.0" fill="#941100" transform="matrix(1.00, 0.00, -0.00, -1.00, 435.9, 561.4)">m</text><text xml:space="preserve" font-family="HelveticaNeue-Medium,Helvetica Neue" font-size="21.0" fill="#941100" transform="matrix(1.00, 0.00, -0.00, -1.00, 454.2, 561.4)">i</text><text xml:space="preserve" font-family="HelveticaNeue-Medium,Helvetica Neue" font-size="21.0" fill="#941100" transform="matrix(1.00, 0.00, -0.00, -1.00, 459.3, 561.4)">g</text><text xml:space="preserve" font-family="HelveticaNeue-Medium,Helvetica Neue" font-size="21.0" fill="#941100" transform="matrix(1.00, 0.00, -0.00, -1.00, 471.7, 561.4)">r</text><text xml:space="preserve" font-family="HelveticaNeue-Medium,Helvetica Neue" font-size="21.0" fill="#941100" transform="matrix(1.00, 0.00, -0.00, -1.00, 479.1, 561.4)">a</text><text xml:space="preserve" font-family="HelveticaNeue-Medium,Helvetica Neue" font-size="21.0" fill="#941100" transform="matrix(1.00, 0.00, -0.00, -1.00, 490.8, 561.4)">t</text><text xml:space="preserve" font-family="HelveticaNeue-Medium,Helvetica Neue" font-size="21.0" fill="#941100" transform="matrix(1.00, 0.00, -0.00, -1.00, 497.8, 561.4)">i</text><text xml:space="preserve" font-family="HelveticaNeue-Medium,Helvetica Neue" font-size="21.0" fill="#941100" transform="matrix(1.00, 0.00, -0.00, -1.00, 502.9, 561.4)">o</text><text xml:space="preserve" font-family="HelveticaNeue-Medium,Helvetica Neue" font-size="21.0" fill="#941100" transform="matrix(1.00, 0.00, -0.00, -1.00, 515.3, 561.4)">n</text><text xml:space="preserve" font-family="HelveticaNeue-Medium,Helvetica Neue" font-size="21.0" fill="#941100" transform="matrix(1.00, 0.00, -0.00, -1.00, 527.4, 561.4)"> </text><text xml:space="preserve" font-family="HelveticaNeue-Medium,Helvetica Neue" font-size="21.0" fill="#941100" transform="matrix(1.00, 0.00, -0.00, -1.00, 533.2, 561.4)">o</text><text xml:space="preserve" font-family="HelveticaNeue-Medium,Helvetica Neue" font-size="21.0" fill="#941100" transform="matrix(1.00, 0.00, -0.00, -1.00, 545.6, 561.4)">f</text><text xml:space="preserve" font-family="HelveticaNeue-Medium,Helvetica Neue" font-size="21.0" fill="#941100" transform="matrix(1.00, 0.00, -0.00, -1.00, 552.3, 561.4)"> </text><text xml:space="preserve" font-family="HelveticaNeue-Medium,Helvetica Neue" font-size="21.0" fill="#941100" transform="matrix(1.00, 0.00, -0.00, -1.00, 558.1, 561.4)">d</text><text xml:space="preserve" font-family="HelveticaNeue-Medium,Helvetica Neue" font-size="21.0" fill="#941100" transform="matrix(1.00, 0.00, -0.00, -1.00, 570.9, 561.4)">e</text><text xml:space="preserve" font-family="HelveticaNeue-Medium,Helvetica Neue" font-size="21.0" fill="#941100" transform="matrix(1.00, 0.00, -0.00, -1.00, 582.6, 561.4)">l</text><text xml:space="preserve" font-family="HelveticaNeue-Medium,Helvetica Neue" font-size="21.0" fill="#941100" transform="matrix(1.00, 0.00, -0.00, -1.00, 587.7, 561.4)">t</text><text xml:space="preserve" font-family="HelveticaNeue-Medium,Helvetica Neue" font-size="21.0" fill="#941100" transform="matrix(1.00, 0.00, -0.00, -1.00, 594.7, 561.4)">a</text><text xml:space="preserve" font-family="HelveticaNeue-Medium,Helvetica Neue" font-size="21.0" fill="#941100" transform="matrix(1.00, 0.00, -0.00, -1.00, 606.3, 561.4)"> </text><text xml:space="preserve" font-family="HelveticaNeue-Medium,Helvetica Neue" font-size="21.0" fill="#941100" transform="matrix(1.00, 0.00, -0.00, -1.00, 612.2, 561.4)">d</text><text xml:space="preserve" font-family="HelveticaNeue-Medium,Helvetica Neue" font-size="21.0" fill="#941100" transform="matrix(1.00, 0.00, -0.00, -1.00, 625.0, 561.4)">e</text><text xml:space="preserve" font-family="HelveticaNeue-Medium,Helvetica Neue" font-size="21.0" fill="#941100" transform="matrix(1.00, 0.00, -0.00, -1.00, 636.7, 561.4)">p</text><text xml:space="preserve" font-family="HelveticaNeue-Medium,Helvetica Neue" font-size="21.0" fill="#941100" transform="matrix(1.00, 0.00, -0.00, -1.00, 649.5, 561.4)">o</text><text xml:space="preserve" font-family="HelveticaNeue-Medium,Helvetica Neue" font-size="21.0" fill="#941100" transform="matrix(1.00, 0.00, -0.00, -1.00, 662.0, 561.4)">c</text><text xml:space="preserve" font-family="HelveticaNeue-Medium,Helvetica Neue" font-size="21.0" fill="#941100" transform="matrix(1.00, 0.00, -0.00, -1.00, 673.6, 561.4)">e</text><text xml:space="preserve" font-family="HelveticaNeue-Medium,Helvetica Neue" font-size="21.0" fill="#941100" transform="matrix(1.00, 0.00, -0.00, -1.00, 685.3, 561.4)">n</text><text xml:space="preserve" font-family="HelveticaNeue-Medium,Helvetica Neue" font-size="21.0" fill="#941100" transform="matrix(1.00, 0.00, -0.00, -1.00, 697.4, 561.4)">t</text><text xml:space="preserve" font-family="HelveticaNeue-Medium,Helvetica Neue" font-size="21.0" fill="#941100" transform="matrix(1.00, 0.00, -0.00, -1.00, 704.4, 561.4)">e</text><text xml:space="preserve" font-family="HelveticaNeue-Medium,Helvetica Neue" font-size="21.0" fill="#941100" transform="matrix(1.00, 0.00, -0.00, -1.00, 716.0, 561.4)">r</text><text xml:space="preserve" font-family="HelveticaNeue-Medium,Helvetica Neue" font-size="21.0" fill="#941100" transform="matrix(1.00, 0.00, -0.00, -1.00, 723.4, 561.4)">?</text><text xml:space="preserve" font-family="HelveticaNeue-Medium,Helvetica Neue" font-size="21.0" fill="#941100" transform="matrix(1.00, 0.00, -0.00, -1.00, 735.1, 561.4)"> </text><g><clipPath id="clip0x7faba104bfd0"><path d="M 767.0 646.0 L 999.0 646.0 L 999.0 411.0 L 767.0 411.0 Z M 767.0 646.3 "></path></clipPath><g clip-path="url(#clip0x7faba104bfd0)"><image xlink:href="../../0CBCC7B2-AE1A-4C1D-A753-CB633591F76E/assets/54625B00E3BE57D1F4CCA95CF1286F19.jpeg" width="1208.00" height="329.00" transform="matrix(1.14, 0.00, -0.00, -1.14, -380.0, 674.0)"></image></g></g><text xml:space="preserve" font-family="HelveticaNeue-Medium,Helvetica Neue" font-size="15.0" fill="#62647A" transform="matrix(1.00, 0.00, -0.00, -1.00, 698.1, 9.8)">B</text><text xml:space="preserve" font-family="HelveticaNeue-Medium,Helvetica Neue" font-size="15.0" fill="#62647A" transform="matrix(1.00, 0.00, -0.00, -1.00, 708.6, 9.8)">o</text><text xml:space="preserve" font-family="HelveticaNeue-Medium,Helvetica Neue" font-size="15.0" fill="#62647A" transform="matrix(1.00, 0.00, -0.00, -1.00, 717.5, 9.8)">u</text><text xml:space="preserve" font-family="HelveticaNeue-Medium,Helvetica Neue" font-size="15.0" fill="#62647A" transform="matrix(1.00, 0.00, -0.00, -1.00, 726.1, 9.8)">r</text><text xml:space="preserve" font-family="HelveticaNeue-Medium,Helvetica Neue" font-size="15.0" fill="#62647A" transform="matrix(1.00, 0.00, -0.00, -1.00, 731.4, 9.8)">g</text><text xml:space="preserve" font-family="HelveticaNeue-Medium,Helvetica Neue" font-size="15.0" fill="#62647A" transform="matrix(1.00, 0.00, -0.00, -1.00, 740.3, 9.8)">e</text><text xml:space="preserve" font-family="HelveticaNeue-Medium,Helvetica Neue" font-size="15.0" fill="#62647A" transform="matrix(1.00, 0.00, -0.00, -1.00, 748.7, 9.8)">t</text><text xml:space="preserve" font-family="HelveticaNeue-Medium,Helvetica Neue" font-size="15.0" fill="#62647A" transform="matrix(1.00, 0.00, -0.00, -1.00, 753.7, 9.8)"> </text><text xml:space="preserve" font-family="HelveticaNeue-Bold,Helvetica Neue" font-weight="bold" font-size="15.0" fill="#62647A" transform="matrix(1.00, 0.00, -0.00, -1.00, 757.8, 9.8)">S</text><text xml:space="preserve" font-family="HelveticaNeue-Bold,Helvetica Neue" font-weight="bold" font-size="15.0" fill="#62647A" transform="matrix(1.00, 0.00, -0.00, -1.00, 767.6, 9.8)">a</text><text xml:space="preserve" font-family="HelveticaNeue-Bold,Helvetica Neue" font-weight="bold" font-size="15.0" fill="#62647A" transform="matrix(1.00, 0.00, -0.00, -1.00, 776.2, 9.8)">l</text><text xml:space="preserve" font-family="HelveticaNeue-Bold,Helvetica Neue" font-weight="bold" font-size="15.0" fill="#62647A" transform="matrix(1.00, 0.00, -0.00, -1.00, 780.0, 9.8)">l</text><text xml:space="preserve" font-family="HelveticaNeue-Bold,Helvetica Neue" font-weight="bold" font-size="15.0" fill="#62647A" transform="matrix(1.00, 0.00, -0.00, -1.00, 783.9, 9.8)">e</text><text xml:space="preserve" font-family="HelveticaNeue-Bold,Helvetica Neue" font-weight="bold" font-size="15.0" fill="#62647A" transform="matrix(1.00, 0.00, -0.00, -1.00, 792.5, 9.8)">s</text><text xml:space="preserve" font-family="HelveticaNeue-Medium,Helvetica Neue" font-size="15.0" fill="#62647A" transform="matrix(1.00, 0.00, -0.00, -1.00, 800.6, 9.8)"> </text><text xml:space="preserve" font-family="HelveticaNeue-Medium,Helvetica Neue" font-size="15.0" fill="#62647A" transform="matrix(1.00, 0.00, -0.00, -1.00, 804.7, 9.8)">A</text><text xml:space="preserve" font-family="HelveticaNeue-Medium,Helvetica Neue" font-size="15.0" fill="#62647A" transform="matrix(1.00, 0.00, -0.00, -1.00, 814.7, 9.8)">i</text><text xml:space="preserve" font-family="HelveticaNeue-Medium,Helvetica Neue" font-size="15.0" fill="#62647A" transform="matrix(1.00, 0.00, -0.00, -1.00, 818.4, 9.8)">n</text><text xml:space="preserve" font-family="HelveticaNeue-Medium,Helvetica Neue" font-size="15.0" fill="#62647A" transform="matrix(1.00, 0.00, -0.00, -1.00, 827.0, 9.8)">s</text><text xml:space="preserve" font-family="HelveticaNeue-Medium,Helvetica Neue" font-size="15.0" fill="#62647A" transform="matrix(1.00, 0.00, -0.00, -1.00, 834.8, 9.8)">w</text><text xml:space="preserve" font-family="HelveticaNeue-Medium,Helvetica Neue" font-size="15.0" fill="#62647A" transform="matrix(1.00, 0.00, -0.00, -1.00, 846.4, 9.8)">o</text><text xml:space="preserve" font-family="HelveticaNeue-Medium,Helvetica Neue" font-size="15.0" fill="#62647A" transform="matrix(1.00, 0.00, -0.00, -1.00, 855.3, 9.8)">r</text><text xml:space="preserve" font-family="HelveticaNeue-Medium,Helvetica Neue" font-size="15.0" fill="#62647A" transform="matrix(1.00, 0.00, -0.00, -1.00, 860.6, 9.8)">t</text><text xml:space="preserve" font-family="HelveticaNeue-Medium,Helvetica Neue" font-size="15.0" fill="#62647A" transform="matrix(1.00, 0.00, -0.00, -1.00, 865.6, 9.8)">h</text><text xml:space="preserve" font-family="HelveticaNeue-Medium,Helvetica Neue" font-size="15.0" fill="#62647A" transform="matrix(1.00, 0.00, -0.00, -1.00, 874.2, 9.8)"> </text><text xml:space="preserve" font-family="HelveticaNeue-Medium,Helvetica Neue" font-size="15.0" fill="#62647A" transform="matrix(1.00, 0.00, -0.00, -1.00, 878.4, 9.8)">D</text><text xml:space="preserve" font-family="HelveticaNeue-Medium,Helvetica Neue" font-size="15.0" fill="#62647A" transform="matrix(1.00, 0.00, -0.00, -1.00, 889.2, 9.8)">u</text><text xml:space="preserve" font-family="HelveticaNeue-Medium,Helvetica Neue" font-size="15.0" fill="#62647A" transform="matrix(1.00, 0.00, -0.00, -1.00, 897.8, 9.8)">c</text><text xml:space="preserve" font-family="HelveticaNeue-Medium,Helvetica Neue" font-size="15.0" fill="#62647A" transform="matrix(1.00, 0.00, -0.00, -1.00, 906.2, 9.8)">l</text><text xml:space="preserve" font-family="HelveticaNeue-Medium,Helvetica Neue" font-size="15.0" fill="#62647A" transform="matrix(1.00, 0.00, -0.00, -1.00, 909.8, 9.8)">a</text><text xml:space="preserve" font-family="HelveticaNeue-Medium,Helvetica Neue" font-size="15.0" fill="#62647A" transform="matrix(1.00, 0.00, -0.00, -1.00, 918.1, 9.8)">u</text><text xml:space="preserve" font-family="HelveticaNeue-Medium,Helvetica Neue" font-size="15.0" fill="#62647A" transform="matrix(1.00, 0.00, -0.00, -1.00, 926.7, 9.8)">x</text><text xml:space="preserve" font-family="HelveticaNeue-Medium,Helvetica Neue" font-size="15.0" fill="#62647A" transform="matrix(1.00, 0.00, -0.00, -1.00, 934.8, 9.8)"> </text><text xml:space="preserve" font-family="HelveticaNeue-Medium,Helvetica Neue" font-size="15.0" fill="#62647A" transform="matrix(1.00, 0.00, -0.00, -1.00, 938.9, 9.8)">A</text><text xml:space="preserve" font-family="HelveticaNeue-Medium,Helvetica Neue" font-size="15.0" fill="#62647A" transform="matrix(1.00, 0.00, -0.00, -1.00, 949.0, 9.8)">A</text><text xml:space="preserve" font-family="HelveticaNeue-Medium,Helvetica Neue" font-size="15.0" fill="#62647A" transform="matrix(1.00, 0.00, -0.00, -1.00, 959.0, 9.8)">P</text><text xml:space="preserve" font-family="HelveticaNeue-Medium,Helvetica Neue" font-size="15.0" fill="#62647A" transform="matrix(1.00, 0.00, -0.00, -1.00, 969.0, 9.8)">G</text><text xml:space="preserve" font-family="HelveticaNeue-Medium,Helvetica Neue" font-size="15.0" fill="#62647A" transform="matrix(1.00, 0.00, -0.00, -1.00, 980.3, 9.8)"> </text><text xml:space="preserve" font-family="HelveticaNeue-Medium,Helvetica Neue" font-size="15.0" fill="#62647A" transform="matrix(1.00, 0.00, -0.00, -1.00, 984.5, 9.8)">2</text><text xml:space="preserve" font-family="HelveticaNeue-Medium,Helvetica Neue" font-size="15.0" fill="#62647A" transform="matrix(1.00, 0.00, -0.00, -1.00, 992.9, 9.8)">0</text><text xml:space="preserve" font-family="HelveticaNeue-Medium,Helvetica Neue" font-size="15.0" fill="#62647A" transform="matrix(1.00, 0.00, -0.00, -1.00, 1001.2, 9.8)">1</text><text xml:space="preserve" font-family="HelveticaNeue-Medium,Helvetica Neue" font-size="15.0" fill="#62647A" transform="matrix(1.00, 0.00, -0.00, -1.00, 1009.5, 9.8)">3</text><text xml:space="preserve" font-family="HelveticaNeue-Medium,Helvetica Neue" font-size="15.0" fill="#62647A" transform="matrix(1.00, 0.00, -0.00, -1.00, 1017.9, 9.8)"> </text></g></svg>