<?xml version="1.0" encoding="UTF-8" standalone="no"?><svg xmlns="http://www.w3.org/2000/svg" xmlns:xlink="http://www.w3.org/1999/xlink" clip-rule="evenodd" stroke-miterlimit="10" viewBox="0 0 181 68"><desc>SVG generated by Keynote</desc><defs></defs><g transform="matrix(1.00, 0.00, -0.00, -1.00, 0.0, 68.0)"><g><clipPath id="clip0x7faba0b00780"><path d="M 14.0 24.0 L 168.0 24.0 L 168.0 14.0 L 14.0 14.0 Z M 13.6 24.2 "></path></clipPath><g clip-path="url(#clip0x7faba0b00780)"><g><clipPath id="clip0x7faba0b00f10"><path d="M 13.6 14.2 L 167.6 14.2 L 167.6 24.2 L 13.6 24.2 Z M 13.6 14.2 "></path></clipPath><g clip-path="url(#clip0x7faba0b00f10)"><image xlink:href="../../6E2EAAB1-F479-42E8-9FE8-76C2C73CD3F5/assets/3D3FFC871BE405F7514233241599A492.png" width="888.00" height="221.00" transform="matrix(0.20, 0.00, -0.00, -0.20, -4.0, 47.0)"></image></g></g></g></g><g><clipPath id="clip0x7faba0a35740"><path d="M 4.1 38.8 L 176.1 38.8 L 176.1 67.2 L 4.1 67.2 Z M 4.1 38.8 "></path></clipPath><g clip-path="url(#clip0x7faba0a35740)"><text xml:space="preserve" font-family="Helvetica,Helvetica" font-size="17.0" fill="#000000" transform="matrix(1.00, 0.00, -0.00, -1.00, 8.8, 46.9)">m</text><text xml:space="preserve" font-family="Helvetica,Helvetica" font-size="17.0" fill="#000000" transform="matrix(1.00, 0.00, -0.00, -1.00, 23.0, 46.9)">e</text><text xml:space="preserve" font-family="Helvetica,Helvetica" font-size="17.0" fill="#000000" transform="matrix(1.00, 0.00, -0.00, -1.00, 32.4, 46.9)">a</text><text xml:space="preserve" font-family="Helvetica,Helvetica" font-size="17.0" fill="#000000" transform="matrix(1.00, 0.00, -0.00, -1.00, 41.9, 46.9)">n</text><text xml:space="preserve" font-family="Helvetica,Helvetica" font-size="17.0" fill="#000000" transform="matrix(1.00, 0.00, -0.00, -1.00, 51.4, 46.9)"> </text><text xml:space="preserve" font-family="Helvetica,Helvetica" font-size="17.0" fill="#000000" transform="matrix(1.00, 0.00, -0.00, -1.00, 56.1, 46.9)">g</text><text xml:space="preserve" font-family="Helvetica,Helvetica" font-size="17.0" fill="#000000" transform="matrix(1.00, 0.00, -0.00, -1.00, 65.5, 46.9)">r</text><text xml:space="preserve" font-family="Helvetica,Helvetica" font-size="17.0" fill="#000000" transform="matrix(1.00, 0.00, -0.00, -1.00, 71.2, 46.9)">a</text><text xml:space="preserve" font-family="Helvetica,Helvetica" font-size="17.0" fill="#000000" transform="matrix(1.00, 0.00, -0.00, -1.00, 80.6, 46.9)">i</text><text xml:space="preserve" font-family="Helvetica,Helvetica" font-size="17.0" fill="#000000" transform="matrix(1.00, 0.00, -0.00, -1.00, 84.4, 46.9)">n</text><text xml:space="preserve" font-family="Helvetica,Helvetica" font-size="17.0" fill="#000000" transform="matrix(1.00, 0.00, -0.00, -1.00, 93.9, 46.9)"> </text><text xml:space="preserve" font-family="Helvetica,Helvetica" font-size="17.0" fill="#000000" transform="matrix(1.00, 0.00, -0.00, -1.00, 98.6, 46.9)">s</text><text xml:space="preserve" font-family="Helvetica,Helvetica" font-size="17.0" fill="#000000" transform="matrix(1.00, 0.00, -0.00, -1.00, 107.1, 46.9)">i</text><text xml:space="preserve" font-family="Helvetica,Helvetica" font-size="17.0" fill="#000000" transform="matrix(1.00, 0.00, -0.00, -1.00, 110.9, 46.9)">z</text><text xml:space="preserve" font-family="Helvetica,Helvetica" font-size="17.0" fill="#000000" transform="matrix(1.00, 0.00, -0.00, -1.00, 119.4, 46.9)">e</text><text xml:space="preserve" font-family="Helvetica,Helvetica" font-size="17.0" fill="#000000" transform="matrix(1.00, 0.00, -0.00, -1.00, 128.8, 46.9)"> </text><text xml:space="preserve" font-family="Helvetica,Helvetica" font-size="17.0" fill="#000000" transform="matrix(1.00, 0.00, -0.00, -1.00, 133.6, 46.9)">[</text><text xml:space="preserve" font-family="Helvetica,Helvetica" font-size="17.0" fill="#000000" transform="matrix(1.00, 0.00, -0.00, -1.00, 138.3, 46.9)">m</text><text xml:space="preserve" font-family="Helvetica,Helvetica" font-size="17.0" fill="#000000" transform="matrix(1.00, 0.00, -0.00, -1.00, 152.4, 46.9)">m</text><text xml:space="preserve" font-family="Helvetica,Helvetica" font-size="17.0" fill="#000000" transform="matrix(1.00, 0.00, -0.00, -1.00, 166.6, 46.9)">]</text></g></g><g><clipPath id="clip0x7faba0a24550"><path d="M 1.8 1.0 L 30.3 1.0 L 30.3 21.0 L 1.8 21.0 Z M 1.8 1.0 "></path></clipPath><g clip-path="url(#clip0x7faba0a24550)"><text xml:space="preserve" font-family="Helvetica,Helvetica" font-size="10.0" fill="#000000" transform="matrix(1.00, 0.00, -0.00, -1.00, 6.3, 7.3)">0</text><text xml:space="preserve" font-family="Helvetica,Helvetica" font-size="10.0" fill="#000000" transform="matrix(1.00, 0.00, -0.00, -1.00, 11.9, 7.3)">.</text><text xml:space="preserve" font-family="Helvetica,Helvetica" font-size="10.0" fill="#000000" transform="matrix(1.00, 0.00, -0.00, -1.00, 14.7, 7.3)">0</text><text xml:space="preserve" font-family="Helvetica,Helvetica" font-size="10.0" fill="#000000" transform="matrix(1.00, 0.00, -0.00, -1.00, 20.2, 7.3)">9</text></g></g><g><clipPath id="clip0x7faba0a50360"><path d="M 29.6 21.0 L 52.5 21.0 L 52.5 41.0 L 29.6 41.0 Z M 29.6 21.0 "></path></clipPath><g clip-path="url(#clip0x7faba0a50360)"><text xml:space="preserve" font-family="Helvetica,Helvetica" font-size="10.0" fill="#000000" transform="matrix(1.00, 0.00, -0.00, -1.00, 34.1, 27.3)">0</text><text xml:space="preserve" font-family="Helvetica,Helvetica" font-size="10.0" fill="#000000" transform="matrix(1.00, 0.00, -0.00, -1.00, 39.7, 27.3)">.</text><text xml:space="preserve" font-family="Helvetica,Helvetica" font-size="10.0" fill="#000000" transform="matrix(1.00, 0.00, -0.00, -1.00, 42.5, 27.3)">2</text></g></g><g><clipPath id="clip0x7faba0a52270"><path d="M 74.6 21.0 L 97.5 21.0 L 97.5 41.0 L 74.6 41.0 Z M 74.6 21.0 "></path></clipPath><g clip-path="url(#clip0x7faba0a52270)"><text xml:space="preserve" font-family="Helvetica,Helvetica" font-size="10.0" fill="#000000" transform="matrix(1.00, 0.00, -0.00, -1.00, 79.1, 27.3)">0</text><text xml:space="preserve" font-family="Helvetica,Helvetica" font-size="10.0" fill="#000000" transform="matrix(1.00, 0.00, -0.00, -1.00, 84.7, 27.3)">.</text><text xml:space="preserve" font-family="Helvetica,Helvetica" font-size="10.0" fill="#000000" transform="matrix(1.00, 0.00, -0.00, -1.00, 87.5, 27.3)">4</text></g></g><g><clipPath id="clip0x7faba0a541a0"><path d="M 120.6 21.0 L 143.5 21.0 L 143.5 41.0 L 120.6 41.0 Z M 120.6 21.0 "></path></clipPath><g clip-path="url(#clip0x7faba0a541a0)"><text xml:space="preserve" font-family="Helvetica,Helvetica" font-size="10.0" fill="#000000" transform="matrix(1.00, 0.00, -0.00, -1.00, 125.1, 27.3)">0</text><text xml:space="preserve" font-family="Helvetica,Helvetica" font-size="10.0" fill="#000000" transform="matrix(1.00, 0.00, -0.00, -1.00, 130.7, 27.3)">.</text><text xml:space="preserve" font-family="Helvetica,Helvetica" font-size="10.0" fill="#000000" transform="matrix(1.00, 0.00, -0.00, -1.00, 133.5, 27.3)">6</text></g></g><g><clipPath id="clip0x7faba0a560e0"><path d="M 150.8 1.0 L 179.3 1.0 L 179.3 21.0 L 150.8 21.0 Z M 150.8 1.0 "></path></clipPath><g clip-path="url(#clip0x7faba0a560e0)"><text xml:space="preserve" font-family="Helvetica,Helvetica" font-size="10.0" fill="#000000" transform="matrix(1.00, 0.00, -0.00, -1.00, 155.3, 7.3)">0</text><text xml:space="preserve" font-family="Helvetica,Helvetica" font-size="10.0" fill="#000000" transform="matrix(1.00, 0.00, -0.00, -1.00, 160.9, 7.3)">.</text><text xml:space="preserve" font-family="Helvetica,Helvetica" font-size="10.0" fill="#000000" transform="matrix(1.00, 0.00, -0.00, -1.00, 163.7, 7.3)">7</text><text xml:space="preserve" font-family="Helvetica,Helvetica" font-size="10.0" fill="#000000" transform="matrix(1.00, 0.00, -0.00, -1.00, 169.2, 7.3)">5</text></g></g></g></svg>