<?xml version="1.0" encoding="UTF-8" standalone="no"?><svg xmlns="http://www.w3.org/2000/svg" xmlns:xlink="http://www.w3.org/1999/xlink" clip-rule="evenodd" stroke-miterlimit="10" viewBox="0 0 276 37"><desc>SVG generated by Keynote</desc><defs></defs><g transform="matrix(1.00, 0.00, -0.00, -1.00, 0.0, 37.0)"><text xml:space="preserve" font-family="HelveticaNeue,Helvetica Neue" font-size="30.8" fill="#747373" transform="matrix(1.00, 0.00, -0.00, -1.00, 0.0, 6.8)">•</text><text xml:space="preserve" font-family="HelveticaNeue-Medium,Helvetica Neue" font-size="23.0" fill="#747373" transform="matrix(1.00, 0.00, -0.00, -1.00, 21.6, 9.7)">S</text><text xml:space="preserve" font-family="HelveticaNeue-Medium,Helvetica Neue" font-size="23.0" fill="#747373" transform="matrix(1.00, 0.00, -0.00, -1.00, 36.5, 9.7)">t</text><text xml:space="preserve" font-family="HelveticaNeue-Medium,Helvetica Neue" font-size="23.0" fill="#747373" transform="matrix(1.00, 0.00, -0.00, -1.00, 44.1, 9.7)">r</text><text xml:space="preserve" font-family="HelveticaNeue-Medium,Helvetica Neue" font-size="23.0" fill="#747373" transform="matrix(1.00, 0.00, -0.00, -1.00, 52.2, 9.7)">a</text><text xml:space="preserve" font-family="HelveticaNeue-Medium,Helvetica Neue" font-size="23.0" fill="#747373" transform="matrix(1.00, 0.00, -0.00, -1.00, 65.0, 9.7)">t</text><text xml:space="preserve" font-family="HelveticaNeue-Medium,Helvetica Neue" font-size="23.0" fill="#747373" transform="matrix(1.00, 0.00, -0.00, -1.00, 72.7, 9.7)">i</text><text xml:space="preserve" font-family="HelveticaNeue-Medium,Helvetica Neue" font-size="23.0" fill="#747373" transform="matrix(1.00, 0.00, -0.00, -1.00, 78.2, 9.7)">g</text><text xml:space="preserve" font-family="HelveticaNeue-Medium,Helvetica Neue" font-size="23.0" fill="#747373" transform="matrix(1.00, 0.00, -0.00, -1.00, 91.9, 9.7)">r</text><text xml:space="preserve" font-family="HelveticaNeue-Medium,Helvetica Neue" font-size="23.0" fill="#747373" transform="matrix(1.00, 0.00, -0.00, -1.00, 99.9, 9.7)">a</text><text xml:space="preserve" font-family="HelveticaNeue-Medium,Helvetica Neue" font-size="23.0" fill="#747373" transform="matrix(1.00, 0.00, -0.00, -1.00, 112.7, 9.7)">p</text><text xml:space="preserve" font-family="HelveticaNeue-Medium,Helvetica Neue" font-size="23.0" fill="#747373" transform="matrix(1.00, 0.00, -0.00, -1.00, 126.8, 9.7)">h</text><text xml:space="preserve" font-family="HelveticaNeue-Medium,Helvetica Neue" font-size="23.0" fill="#747373" transform="matrix(1.00, 0.00, -0.00, -1.00, 140.0, 9.7)">i</text><text xml:space="preserve" font-family="HelveticaNeue-Medium,Helvetica Neue" font-size="23.0" fill="#747373" transform="matrix(1.00, 0.00, -0.00, -1.00, 145.5, 9.7)">c</text><text xml:space="preserve" font-family="HelveticaNeue-Medium,Helvetica Neue" font-size="23.0" fill="#747373" transform="matrix(1.00, 0.00, -0.00, -1.00, 158.3, 9.7)"> </text><text xml:space="preserve" font-family="HelveticaNeue-Medium,Helvetica Neue" font-size="23.0" fill="#747373" transform="matrix(1.00, 0.00, -0.00, -1.00, 164.7, 9.7)">r</text><text xml:space="preserve" font-family="HelveticaNeue-Medium,Helvetica Neue" font-size="23.0" fill="#747373" transform="matrix(1.00, 0.00, -0.00, -1.00, 172.4, 9.7)">e</text><text xml:space="preserve" font-family="HelveticaNeue-Medium,Helvetica Neue" font-size="23.0" fill="#747373" transform="matrix(1.00, 0.00, -0.00, -1.00, 185.2, 9.7)">s</text><text xml:space="preserve" font-family="HelveticaNeue-Medium,Helvetica Neue" font-size="23.0" fill="#747373" transform="matrix(1.00, 0.00, -0.00, -1.00, 197.1, 9.7)">p</text><text xml:space="preserve" font-family="HelveticaNeue-Medium,Helvetica Neue" font-size="23.0" fill="#747373" transform="matrix(1.00, 0.00, -0.00, -1.00, 211.2, 9.7)">o</text><text xml:space="preserve" font-family="HelveticaNeue-Medium,Helvetica Neue" font-size="23.0" fill="#747373" transform="matrix(1.00, 0.00, -0.00, -1.00, 224.8, 9.7)">n</text><text xml:space="preserve" font-family="HelveticaNeue-Medium,Helvetica Neue" font-size="23.0" fill="#747373" transform="matrix(1.00, 0.00, -0.00, -1.00, 238.0, 9.7)">s</text><text xml:space="preserve" font-family="HelveticaNeue-Medium,Helvetica Neue" font-size="23.0" fill="#747373" transform="matrix(1.00, 0.00, -0.00, -1.00, 250.0, 9.7)">e</text><text xml:space="preserve" font-family="HelveticaNeue-Medium,Helvetica Neue" font-size="23.0" fill="#747373" transform="matrix(1.00, 0.00, -0.00, -1.00, 262.7, 9.7)">s</text></g></svg>