<?xml version="1.0" encoding="UTF-8" standalone="no"?><svg xmlns="http://www.w3.org/2000/svg" xmlns:xlink="http://www.w3.org/1999/xlink" clip-rule="evenodd" stroke-miterlimit="10" viewBox="0 0 222 18"><desc>SVG generated by Keynote</desc><defs></defs><g transform="matrix(1.00, 0.00, -0.00, -1.00, 0.0, 18.0)"><text xml:space="preserve" font-family="Helvetica,Helvetica" font-size="18.0" fill="#000000" transform="matrix(1.00, 0.00, -0.00, -1.00, 0.6, 2.7)">s</text><text xml:space="preserve" font-family="Helvetica,Helvetica" font-size="18.0" fill="#000000" transform="matrix(1.00, 0.00, -0.00, -1.00, 9.6, 2.7)">t</text><text xml:space="preserve" font-family="Helvetica,Helvetica" font-size="18.0" fill="#000000" transform="matrix(1.00, 0.00, -0.00, -1.00, 14.6, 2.7)">r</text><text xml:space="preserve" font-family="Helvetica,Helvetica" font-size="18.0" fill="#000000" transform="matrix(1.00, 0.00, -0.00, -1.00, 20.6, 2.7)">i</text><text xml:space="preserve" font-family="Helvetica,Helvetica" font-size="18.0" fill="#000000" transform="matrix(1.00, 0.00, -0.00, -1.00, 24.6, 2.7)">k</text><text xml:space="preserve" font-family="Helvetica,Helvetica" font-size="18.0" fill="#000000" transform="matrix(1.00, 0.00, -0.00, -1.00, 33.6, 2.7)">e</text><text xml:space="preserve" font-family="Helvetica,Helvetica" font-size="18.0" fill="#000000" transform="matrix(1.00, 0.00, -0.00, -1.00, 43.6, 2.7)"> </text><text xml:space="preserve" font-family="Helvetica,Helvetica" font-size="18.0" fill="#000000" transform="matrix(1.00, 0.00, -0.00, -1.00, 48.6, 2.7)">s</text><text xml:space="preserve" font-family="Helvetica,Helvetica" font-size="18.0" fill="#000000" transform="matrix(1.00, 0.00, -0.00, -1.00, 57.6, 2.7)">e</text><text xml:space="preserve" font-family="Helvetica,Helvetica" font-size="18.0" fill="#000000" transform="matrix(1.00, 0.00, -0.00, -1.00, 67.6, 2.7)">c</text><text xml:space="preserve" font-family="Helvetica,Helvetica" font-size="18.0" fill="#000000" transform="matrix(1.00, 0.00, -0.00, -1.00, 76.6, 2.7)">t</text><text xml:space="preserve" font-family="Helvetica,Helvetica" font-size="18.0" fill="#000000" transform="matrix(1.00, 0.00, -0.00, -1.00, 81.6, 2.7)">i</text><text xml:space="preserve" font-family="Helvetica,Helvetica" font-size="18.0" fill="#000000" transform="matrix(1.00, 0.00, -0.00, -1.00, 85.6, 2.7)">o</text><text xml:space="preserve" font-family="Helvetica,Helvetica" font-size="18.0" fill="#000000" transform="matrix(1.00, 0.00, -0.00, -1.00, 95.7, 2.7)">n</text><text xml:space="preserve" font-family="Helvetica,Helvetica" font-size="18.0" fill="#000000" transform="matrix(1.00, 0.00, -0.00, -1.00, 105.7, 2.7)"> </text><text xml:space="preserve" font-family="Helvetica,Helvetica" font-size="18.0" fill="#000000" transform="matrix(1.00, 0.00, -0.00, -1.00, 110.7, 2.7)">a</text><text xml:space="preserve" font-family="Helvetica,Helvetica" font-size="18.0" fill="#000000" transform="matrix(1.00, 0.00, -0.00, -1.00, 120.7, 2.7)">t</text><text xml:space="preserve" font-family="Helvetica,Helvetica" font-size="18.0" fill="#000000" transform="matrix(1.00, 0.00, -0.00, -1.00, 125.7, 2.7)"> </text><text xml:space="preserve" font-family="Helvetica,Helvetica" font-size="18.0" fill="#000000" transform="matrix(1.00, 0.00, -0.00, -1.00, 130.7, 2.7)">x</text><text xml:space="preserve" font-family="Helvetica,Helvetica" font-size="18.0" fill="#000000" transform="matrix(1.00, 0.00, -0.00, -1.00, 139.7, 2.7)"> </text><text xml:space="preserve" font-family="Helvetica,Helvetica" font-size="18.0" fill="#000000" transform="matrix(1.00, 0.00, -0.00, -1.00, 144.7, 2.7)">=</text><text xml:space="preserve" font-family="Helvetica,Helvetica" font-size="18.0" fill="#000000" transform="matrix(1.00, 0.00, -0.00, -1.00, 155.2, 2.7)"> </text><text xml:space="preserve" font-family="Helvetica,Helvetica" font-size="18.0" fill="#000000" transform="matrix(1.00, 0.00, -0.00, -1.00, 160.2, 2.7)">5</text><text xml:space="preserve" font-family="Helvetica,Helvetica" font-size="18.0" fill="#000000" transform="matrix(1.00, 0.00, -0.00, -1.00, 170.2, 2.7)">8</text><text xml:space="preserve" font-family="Helvetica,Helvetica" font-size="18.0" fill="#000000" transform="matrix(1.00, 0.00, -0.00, -1.00, 180.2, 2.7)">0</text><text xml:space="preserve" font-family="Helvetica,Helvetica" font-size="18.0" fill="#000000" transform="matrix(1.00, 0.00, -0.00, -1.00, 190.2, 2.7)">0</text><text xml:space="preserve" font-family="Helvetica,Helvetica" font-size="18.0" fill="#000000" transform="matrix(1.00, 0.00, -0.00, -1.00, 200.2, 2.7)"> </text><text xml:space="preserve" font-family="Helvetica,Helvetica" font-size="18.0" fill="#000000" transform="matrix(1.00, 0.00, -0.00, -1.00, 205.2, 2.7)">m</text></g></svg>